<svg width="50" height="50" viewBox="0 0 50 50" fill="none" xmlns="http://www.w3.org/2000/svg">
<path d="M17.9997 24.6146C17.9997 24.3368 18.0518 24.0681 18.1559 23.8083C18.2601 23.5472 18.399 23.3299 18.5726 23.1562L28.1559 13.5729C28.5379 13.191 29.024 13 29.6143 13C30.2045 13 30.6906 13.191 31.0726 13.5729C31.4545 13.9549 31.6455 14.441 31.6455 15.0312C31.6455 15.6215 31.4545 16.1076 31.0726 16.4896L22.9476 24.6146L31.0726 32.7396C31.4545 33.1215 31.6455 33.6076 31.6455 34.1979C31.6455 34.7882 31.4545 35.2743 31.0726 35.6562C30.6906 36.0382 30.2045 36.2292 29.6143 36.2292C29.024 36.2292 28.5379 36.0382 28.1559 35.6562L18.5726 26.0729C18.3643 25.8646 18.217 25.6389 18.1309 25.3958C18.0434 25.1528 17.9997 24.8924 17.9997 24.6146Z" fill="#404642"/>
</svg>
