<svg width="50" height="50" viewBox="0 0 50 50" fill="none" xmlns="http://www.w3.org/2000/svg">
<path d="M31.1976 25C31.1976 25.2778 31.1455 25.5465 31.0413 25.8063C30.9372 26.0674 30.7983 26.2847 30.6247 26.4583L21.0413 36.0417C20.6594 36.4236 20.1733 36.6146 19.583 36.6146C18.9927 36.6146 18.5066 36.4236 18.1247 36.0417C17.7427 35.6597 17.5518 35.1736 17.5518 34.5833C17.5518 33.9931 17.7427 33.507 18.1247 33.125L26.2497 25L18.1247 16.875C17.7427 16.4931 17.5518 16.007 17.5518 15.4167C17.5518 14.8264 17.7427 14.3403 18.1247 13.9583C18.5066 13.5764 18.9927 13.3854 19.583 13.3854C20.1733 13.3854 20.6594 13.5764 21.0413 13.9583L30.6247 23.5417C30.833 23.75 30.9802 23.9757 31.0663 24.2188C31.1538 24.4618 31.1976 24.7222 31.1976 25Z" fill="#404642"/>
</svg>
