<svg width="24" height="24" viewBox="0 0 24 24" fill="none" xmlns="http://www.w3.org/2000/svg">
<path fill-rule="evenodd" clip-rule="evenodd" d="M14.6251 4C14.2748 3.99947 13.9354 4.12152 13.6657 4.345C13.5138 4.47093 13.3882 4.62564 13.2962 4.80016C13.2042 4.97468 13.1475 5.16564 13.1294 5.36211C13.1112 5.55857 13.1321 5.75668 13.1906 5.94509C13.2492 6.13349 13.3444 6.30849 13.4707 6.46006L17.0423 10.75H4.5C4.10217 10.75 3.72064 10.908 3.43934 11.1893C3.15804 11.4706 3 11.8522 3 12.25C3 12.6478 3.15804 13.0294 3.43934 13.3107C3.72064 13.592 4.10217 13.75 4.5 13.75H17.0423L13.4704 18.0403C13.3443 18.1919 13.2494 18.3669 13.191 18.5552C13.1326 18.7435 13.1118 18.9415 13.1299 19.1378C13.1665 19.5344 13.3591 19.9001 13.6653 20.1546C13.9715 20.4092 14.3663 20.5316 14.7628 20.4951C15.1594 20.4585 15.5251 20.2659 15.7796 19.9597L21.4043 13.2101C21.4108 13.2023 21.4169 13.1943 21.4228 13.1861C21.4712 13.1173 21.5145 13.0451 21.5524 12.97C21.5604 12.9541 21.5672 12.9377 21.5729 12.9209L21.5808 12.9099C21.5983 12.8852 21.6238 12.8458 21.6444 12.7943L21.645 12.7929C21.713 12.6209 21.7486 12.4378 21.75 12.2529L21.75 12.2471C21.7487 12.0776 21.7187 11.9097 21.6613 11.7504C21.639 11.6449 21.5852 11.5733 21.5667 11.5487L21.5653 11.5469L21.5524 11.53C21.5145 11.4549 21.4712 11.3827 21.4228 11.314C21.4169 11.3057 21.4108 11.2977 21.4043 11.2899L15.7794 4.54C15.6384 4.37068 15.4617 4.23451 15.2621 4.14118C15.0627 4.04794 14.8452 3.99974 14.6251 4Z" fill="#F8F8F8"/>
</svg>
