<svg width="63" height="70" viewBox="0 0 63 70" fill="none" xmlns="http://www.w3.org/2000/svg">
<ellipse cx="40.5" cy="48" rx="22.5" ry="22" fill="#25AAE3"/>
<path d="M43.375 6C44.8003 5.99982 46.1726 6.54074 47.2144 7.51342C48.2562 8.48611 48.8899 9.81803 48.9875 11.24L49 11.625V50.37C49.0002 51.7953 48.4593 53.1676 47.4866 54.2094C46.5139 55.2512 45.182 55.8849 43.76 55.9825L43.375 55.995H14.625C13.1997 55.9952 11.8274 55.4543 10.7856 54.4816C9.74379 53.5089 9.11006 52.177 9.0125 50.755L9 50.37V11.625C8.99982 10.1997 9.54074 8.82745 10.5134 7.78562C11.4861 6.74379 12.818 6.11006 14.24 6.0125L14.625 6H43.375ZM43.375 9.75H14.625C14.1719 9.75002 13.7341 9.91411 13.3927 10.2119C13.0512 10.5097 12.8291 10.9211 12.7675 11.37L12.75 11.625V50.37C12.75 51.32 13.455 52.105 14.37 52.2275L14.625 52.245H43.375C43.8281 52.245 44.2659 52.0809 44.6073 51.7831C44.9488 51.4853 45.1709 51.0739 45.2325 50.625L45.25 50.37V11.625C45.25 11.1719 45.0859 10.7341 44.7881 10.3927C44.4903 10.0512 44.0789 9.82912 43.63 9.7675L43.375 9.75ZM16.5 40.3725C16.5 39.8752 16.6975 39.3983 17.0492 39.0467C17.4008 38.695 17.8777 38.4975 18.375 38.4975H39.625C40.1223 38.4975 40.5992 38.695 40.9508 39.0467C41.3025 39.3983 41.5 39.8752 41.5 40.3725C41.5 40.8698 41.3025 41.3467 40.9508 41.6983C40.5992 42.05 40.1223 42.2475 39.625 42.2475H18.375C17.8777 42.2475 17.4008 42.05 17.0492 41.6983C16.6975 41.3467 16.5 40.8698 16.5 40.3725ZM16.5 20.3725C16.5 19.8752 16.6975 19.3983 17.0492 19.0467C17.4008 18.695 17.8777 18.4975 18.375 18.4975H39.625C40.1223 18.4975 40.5992 18.695 40.9508 19.0467C41.3025 19.3983 41.5 19.8752 41.5 20.3725C41.5 20.8698 41.3025 21.3467 40.9508 21.6983C40.5992 22.05 40.1223 22.2475 39.625 22.2475H18.375C17.8777 22.2475 17.4008 22.05 17.0492 21.6983C16.6975 21.3467 16.5 20.8698 16.5 20.3725ZM16.5 30.3725C16.5 29.8752 16.6975 29.3983 17.0492 29.0467C17.4008 28.695 17.8777 28.4975 18.375 28.4975H39.625C40.1223 28.4975 40.5992 28.695 40.9508 29.0467C41.3025 29.3983 41.5 29.8752 41.5 30.3725C41.5 30.8698 41.3025 31.3467 40.9508 31.6983C40.5992 32.05 40.1223 32.2475 39.625 32.2475H18.375C17.8777 32.2475 17.4008 32.05 17.0492 31.6983C16.6975 31.3467 16.5 30.8698 16.5 30.3725Z" fill="black"/>
</svg>
