<svg width="62" height="67" viewBox="0 0 62 67" fill="none" xmlns="http://www.w3.org/2000/svg">
<ellipse cx="39.5" cy="22" rx="22.5" ry="22" fill="#25AAE3"/>
<path d="M43.541 47.875V62.5H15.6113C11.3145 62.5 9.16602 60.25 9.16602 54.625V17.5H22.916" stroke="black" stroke-width="3.5" stroke-linecap="round" stroke-linejoin="round"/>
<path d="M37.8115 42.25C43.507 42.25 48.124 37.7169 48.124 32.125C48.124 26.5331 43.507 22 37.8115 22C32.1161 22 27.499 26.5331 27.499 32.125C27.499 37.7169 32.1161 42.25 37.8115 42.25Z" stroke="black" stroke-width="3.5"/>
<path d="M25.208 33.25V31M50.4163 33.25V31M33.2288 17.5C36.4372 18.4 37.6208 20.875 37.8122 22C37.9073 20.875 38.4997 18.4 40.1038 17.5" stroke="black" stroke-width="3.5" stroke-linecap="round" stroke-linejoin="round"/>
<path d="M41.2497 33.25C42.5153 33.25 43.5413 32.2426 43.5413 31C43.5413 29.7574 42.5153 28.75 41.2497 28.75C39.984 28.75 38.958 29.7574 38.958 31C38.958 32.2426 39.984 33.25 41.2497 33.25Z" fill="black"/>
<path d="M34.3747 33.25C35.6403 33.25 36.6663 32.2426 36.6663 31C36.6663 29.7574 35.6403 28.75 34.3747 28.75C33.109 28.75 32.083 29.7574 32.083 31C32.083 32.2426 33.109 33.25 34.3747 33.25Z" fill="black"/>
<path d="M9.16602 53.5H43.541" stroke="black" stroke-width="3.5" stroke-linecap="round" stroke-linejoin="round"/>
</svg>
