<svg width="70" height="73" viewBox="0 0 70 73" fill="none" xmlns="http://www.w3.org/2000/svg">
<ellipse cx="47.5" cy="22" rx="22.5" ry="22" fill="#25AAE3"/>
<path d="M20.2812 27C20.2812 26.4281 20.4755 25.8797 20.8213 25.4753C21.167 25.0709 21.636 24.8438 22.125 24.8438H39.3333C39.8223 24.8438 40.2913 25.0709 40.6371 25.4753C40.9828 25.8797 41.1771 26.4281 41.1771 27C41.1771 27.5719 40.9828 28.1203 40.6371 28.5247C40.2913 28.9291 39.8223 29.1562 39.3333 29.1562H22.125C21.636 29.1562 21.167 28.9291 20.8213 28.5247C20.4755 28.1203 20.2812 27.5719 20.2812 27ZM22.125 33.4688C21.636 33.4688 21.167 33.6959 20.8213 34.1003C20.4755 34.5047 20.2812 35.0531 20.2812 35.625C20.2812 36.1969 20.4755 36.7453 20.8213 37.1497C21.167 37.5541 21.636 37.7812 22.125 37.7812H34.4167C34.9057 37.7812 35.3746 37.5541 35.7204 37.1497C36.0662 36.7453 36.2604 36.1969 36.2604 35.625C36.2604 35.0531 36.0662 34.5047 35.7204 34.1003C35.3746 33.6959 34.9057 33.4688 34.4167 33.4688H22.125Z" fill="black"/>
<path fill-rule="evenodd" clip-rule="evenodd" d="M20.8958 13.3438C17.7989 13.3438 14.8288 14.7825 12.6389 17.3436C10.449 19.9046 9.21875 23.3781 9.21875 27V55.75C9.21875 58.6094 10.19 61.3516 11.9189 63.3735C13.6477 65.3954 15.9925 66.5312 18.4375 66.5312H45.4792C46.6201 66.5312 47.7144 66.0012 48.5212 65.0576C49.328 64.1141 49.7812 62.8344 49.7812 61.5V18.375C49.7812 17.0406 49.328 15.7609 48.5212 14.8174C47.7144 13.8738 46.6201 13.3438 45.4792 13.3438H20.8958ZM46.0937 44.9687V18.375C46.0937 18.1844 46.029 18.0016 45.9137 17.8668C45.7985 17.732 45.6422 17.6562 45.4792 17.6562H20.8958C18.7769 17.6562 16.7447 18.6407 15.2463 20.393C13.748 22.1453 12.9062 24.5219 12.9062 27V47.125C14.5006 45.7224 16.4424 44.9654 18.4375 44.9687H46.0937ZM46.0937 49.2812H18.4375C16.9705 49.2812 15.5636 49.9628 14.5263 51.1759C13.489 52.389 12.9062 54.0344 12.9062 55.75C12.9062 57.4656 13.489 59.111 14.5263 60.3241C15.5636 61.5372 16.9705 62.2187 18.4375 62.2187H45.4792C45.6422 62.2187 45.7985 62.143 45.9137 62.0082C46.029 61.8734 46.0937 61.6906 46.0937 61.5V49.2812Z" fill="black"/>
</svg>
