<svg width="176" height="176" viewBox="0 0 176 176" fill="none" xmlns="http://www.w3.org/2000/svg">
<ellipse cx="10.353" cy="10.353" rx="10.353" ry="10.353" fill="#81D0FE"/>
<ellipse cx="41.4116" cy="10.353" rx="10.353" ry="10.353" fill="#81D0FE"/>
<ellipse cx="72.4711" cy="10.353" rx="10.353" ry="10.353" fill="#81D0FE"/>
<ellipse cx="103.53" cy="10.353" rx="10.353" ry="10.353" fill="#81D0FE"/>
<ellipse cx="134.588" cy="10.353" rx="10.353" ry="10.353" fill="#81D0FE"/>
<ellipse cx="165.647" cy="10.353" rx="10.353" ry="10.353" fill="#81D0FE"/>
<ellipse cx="10.353" cy="41.4118" rx="10.353" ry="10.353" fill="#81D0FE"/>
<ellipse cx="41.4116" cy="41.4118" rx="10.353" ry="10.353" fill="#81D0FE"/>
<ellipse cx="72.4711" cy="41.4118" rx="10.353" ry="10.353" fill="#81D0FE"/>
<ellipse cx="103.53" cy="41.4118" rx="10.353" ry="10.353" fill="#81D0FE"/>
<ellipse cx="134.588" cy="41.4118" rx="10.353" ry="10.353" fill="#81D0FE"/>
<ellipse cx="165.647" cy="41.4118" rx="10.353" ry="10.353" fill="#81D0FE"/>
<ellipse cx="10.353" cy="72.4706" rx="10.353" ry="10.353" fill="#81D0FE"/>
<ellipse cx="41.4116" cy="72.4706" rx="10.353" ry="10.353" fill="#81D0FE"/>
<ellipse cx="72.4711" cy="72.4706" rx="10.353" ry="10.353" fill="#81D0FE"/>
<ellipse cx="103.53" cy="72.4706" rx="10.353" ry="10.353" fill="#81D0FE"/>
<ellipse cx="134.588" cy="72.4706" rx="10.353" ry="10.353" fill="#81D0FE"/>
<ellipse cx="165.647" cy="72.4706" rx="10.353" ry="10.353" fill="#81D0FE"/>
<ellipse cx="10.353" cy="103.529" rx="10.353" ry="10.353" fill="#81D0FE"/>
<ellipse cx="41.4116" cy="103.529" rx="10.353" ry="10.353" fill="#81D0FE"/>
<ellipse cx="72.4711" cy="103.529" rx="10.353" ry="10.353" fill="#81D0FE"/>
<ellipse cx="103.53" cy="103.529" rx="10.353" ry="10.353" fill="#81D0FE"/>
<ellipse cx="134.588" cy="103.529" rx="10.353" ry="10.353" fill="#81D0FE"/>
<ellipse cx="165.647" cy="103.529" rx="10.353" ry="10.353" fill="#81D0FE"/>
<ellipse cx="10.353" cy="134.588" rx="10.353" ry="10.353" fill="#81D0FE"/>
<ellipse cx="41.4116" cy="134.588" rx="10.353" ry="10.353" fill="#81D0FE"/>
<ellipse cx="72.4711" cy="134.588" rx="10.353" ry="10.353" fill="#81D0FE"/>
<ellipse cx="103.53" cy="134.588" rx="10.353" ry="10.353" fill="#81D0FE"/>
<ellipse cx="134.588" cy="134.588" rx="10.353" ry="10.353" fill="#81D0FE"/>
<ellipse cx="165.647" cy="134.588" rx="10.353" ry="10.353" fill="#81D0FE"/>
<ellipse cx="10.353" cy="165.647" rx="10.353" ry="10.353" fill="#81D0FE"/>
<ellipse cx="41.4116" cy="165.647" rx="10.353" ry="10.353" fill="#81D0FE"/>
<ellipse cx="72.4711" cy="165.647" rx="10.353" ry="10.353" fill="#81D0FE"/>
<ellipse cx="103.53" cy="165.647" rx="10.353" ry="10.353" fill="#81D0FE"/>
<ellipse cx="134.588" cy="165.647" rx="10.353" ry="10.353" fill="#81D0FE"/>
<ellipse cx="165.647" cy="165.647" rx="10.353" ry="10.353" fill="#81D0FE"/>
</svg>
