<svg width="51" height="64" viewBox="0 0 51 64" fill="none" xmlns="http://www.w3.org/2000/svg">
<ellipse cx="25.5" cy="42" rx="22.5" ry="22" fill="#25AAE3"/>
<g clip-path="url(#clip0_2891_4246)">
<path d="M3.1875 10.4282C6.00844 9.06382 10.0534 7.5925 13.9867 7.13525C18.2261 6.64113 21.8216 7.36757 23.9062 9.90825V45.8466C20.9259 43.8923 17.1488 43.6231 13.6648 44.0287C9.90356 44.4712 6.11044 45.7286 3.1875 47.0193V10.4282ZM27.0937 9.90825C29.1784 7.36757 32.7739 6.64113 37.0133 7.13525C40.9466 7.5925 44.9916 9.06382 47.8125 10.4282V47.0193C44.8864 45.7286 41.0964 44.4675 37.3352 44.0324C33.8481 43.6231 30.0741 43.8886 27.0937 45.8466V9.90825ZM25.5 6.57475C22.3603 3.45144 17.8086 2.98682 13.6648 3.46619C8.83894 4.03038 3.96844 5.94419 0.933938 7.54088C0.655506 7.68738 0.419396 7.92347 0.253792 8.22098C0.0881876 8.51848 8.46964e-05 8.86484 0 9.21869L0 49.7812C7.38288e-05 50.0897 0.0670559 50.3932 0.194811 50.664C0.322566 50.9348 0.507009 51.1642 0.731247 51.3311C0.955485 51.4981 1.21235 51.5972 1.47831 51.6196C1.74427 51.6419 2.01083 51.5867 2.25356 51.459C5.06494 49.984 9.59437 48.2103 13.9836 47.6978C18.4747 47.1741 22.2392 48.0186 24.2569 50.9317C24.4062 51.147 24.5954 51.3208 24.8106 51.4402C25.0258 51.5597 25.2614 51.6217 25.5 51.6217C25.7386 51.6217 25.9742 51.5597 26.1894 51.4402C26.4046 51.3208 26.5938 51.147 26.7431 50.9317C28.7608 48.0186 32.5253 47.1741 37.0133 47.6978C41.4056 48.2103 45.9383 49.984 48.7464 51.459C48.9892 51.5867 49.2557 51.6419 49.5217 51.6196C49.7877 51.5972 50.0445 51.4981 50.2687 51.3311C50.493 51.1642 50.6774 50.9348 50.8052 50.664C50.9329 50.3932 50.9999 50.0897 51 49.7812V9.21869C50.9999 8.86484 50.9118 8.51848 50.7462 8.22098C50.5806 7.92347 50.3445 7.68738 50.0661 7.54088C47.0316 5.94419 42.1611 4.03038 37.3352 3.46619C33.1914 2.98313 28.6397 3.45144 25.5 6.57475Z" fill="black"/>
</g>
<defs>
<clipPath id="clip0_2891_4246">
<rect width="51" height="59" fill="white"/>
</clipPath>
</defs>
</svg>
