<svg width="110" height="110" viewBox="0 0 110 110" fill="none" xmlns="http://www.w3.org/2000/svg">
<path d="M94.5329 8.59399C98.3418 8.59399 101.408 11.6603 101.408 15.4691V84.2205L80.7827 104.846H15.4689C11.6601 104.846 8.59375 101.78 8.59375 97.9707V15.4691C8.59375 11.6603 11.6601 8.59399 15.4689 8.59399" fill="white"/>
<path d="M94.5329 8.59399C98.3418 8.59399 101.408 11.6603 101.408 15.4691V22.3443H8.59375V15.4691C8.59375 11.6603 11.6601 8.59399 15.4689 8.59399" fill="#FCB316" fill-opacity="0.7"/>
<path d="M87.6583 84.2205C83.8495 84.2205 80.7832 87.2868 80.7832 91.0956V104.846L101.409 84.2205H87.6583Z" fill="#549AD4" fill-opacity="0.7"/>
<path d="M87.6583 84.2205C83.8495 84.2205 80.7832 87.2868 80.7832 91.0956V104.846L84.2208 101.408V91.0956C84.2208 87.2868 87.2871 84.2205 91.0959 84.2205H87.6583Z" fill="#25AAE3"/>
<path d="M12.6456 9.20825C10.256 10.283 8.59375 12.67 8.59375 15.4691V22.3442H101.408V18.9066H12.0313V12.0315C12.0313 11.0217 12.2579 10.0704 12.6456 9.20825Z" fill="#FCB316"/>
<path d="M29.2198 5.15625C31.1242 5.15625 32.6574 6.68941 32.6574 8.59382V12.0314C32.6574 13.9358 31.1242 15.469 29.2198 15.469C27.3154 15.469 25.7822 13.9358 25.7822 12.0314V8.59382C25.7822 6.68941 27.3154 5.15625 29.2198 5.15625Z" fill="#FCB316"/>
<path d="M29.2198 5.15625C27.3154 5.15625 25.7822 6.68941 25.7822 8.59382V12.0314C25.7822 13.9358 27.3154 15.469 29.2198 15.469C31.1242 15.469 32.6574 13.9358 32.6574 12.0314C30.7529 12.0314 29.2198 10.4982 29.2198 8.59382V5.15625Z" fill="#FCB316"/>
<path d="M80.7833 5.15625C82.6877 5.15625 84.2208 6.68941 84.2208 8.59382V12.0314C84.2208 13.9358 82.6877 15.469 80.7833 15.469C78.8789 15.469 77.3457 13.9358 77.3457 12.0314V8.59382C77.3457 6.68941 78.8789 5.15625 80.7833 5.15625Z" fill="#FCB316"/>
<path d="M80.7833 5.15625C78.8789 5.15625 77.3457 6.68941 77.3457 8.59382V12.0314C77.3457 13.9358 78.8789 15.469 80.7833 15.469C82.6877 15.469 84.2208 13.9358 84.2208 12.0314C82.3164 12.0314 80.7833 10.4982 80.7833 8.59382V5.15625Z" fill="#FCB316"/>
<path d="M21.7698 30.938C20.1828 30.938 18.9062 32.2145 18.9062 33.8015V45.2623C18.9062 46.8493 20.1828 48.1258 21.7698 48.1258H33.2306C34.8176 48.1258 36.0941 46.8493 36.0941 45.2623V33.8015C36.0941 32.2145 34.8176 30.938 33.2306 30.938H21.7698ZM49.2703 30.938C47.6833 30.938 46.4068 32.2145 46.4068 33.8015V45.2623C46.4068 46.8493 47.6833 48.1258 49.2703 48.1258H60.7311C62.3181 48.1258 63.5946 46.8493 63.5946 45.2623V33.8015C63.5946 32.2145 62.3181 30.938 60.7311 30.938H49.2703ZM76.7709 30.938C75.1838 30.938 73.9073 32.2145 73.9073 33.8015V45.2623C73.9073 46.8493 75.1838 48.1258 76.7709 48.1258H88.2317C89.8187 48.1258 91.0952 46.8493 91.0952 45.2623V33.8015C91.0952 32.2145 89.8187 30.938 88.2317 30.938H76.7709ZM49.2703 56.7197C47.6833 56.7197 46.4068 57.9963 46.4068 59.5833V71.0441C46.4068 72.6311 47.6833 73.9076 49.2703 73.9076H60.7311C62.3181 73.9076 63.5946 72.6311 63.5946 71.0441V59.5833C63.5946 57.9963 62.3181 56.7197 60.7311 56.7197H49.2703ZM76.7709 56.7197C75.1838 56.7197 73.9073 57.9963 73.9073 59.5833V71.0441C73.9073 72.6311 75.1838 73.9076 76.7709 73.9076H88.2317C89.8187 73.9076 91.0952 72.6311 91.0952 71.0441V59.5833C91.0952 57.9963 89.8187 56.7197 88.2317 56.7197H76.7709ZM21.7698 80.7827C20.1828 80.7827 18.9062 82.0592 18.9062 83.6462V95.107C18.9062 96.6941 20.1828 97.9706 21.7698 97.9706H33.2306C34.8176 97.9706 36.0941 96.6941 36.0941 95.107V83.6462C36.0941 82.0592 34.8176 80.7827 33.2306 80.7827H21.7698ZM49.2703 80.7827C47.6833 80.7827 46.4068 82.0592 46.4068 83.6462V95.107C46.4068 96.6941 47.6833 97.9706 49.2703 97.9706H60.7311C62.3181 97.9706 63.5946 96.6941 63.5946 95.107V83.6462C63.5946 82.0592 62.3181 80.7827 60.7311 80.7827H49.2703Z" fill="#549AD4" fill-opacity="0.7"/>
<path d="M21.7698 30.938C20.1828 30.938 18.9062 32.2145 18.9062 33.8015V45.2623C18.9062 46.8493 20.1828 48.1258 21.7698 48.1258H33.2306C34.8176 48.1258 36.0941 46.8493 36.0941 45.2623V44.6883H25.2073C23.6203 44.6883 22.3438 43.4118 22.3438 41.8247V30.938H21.7698ZM49.2703 30.938C47.6833 30.938 46.4068 32.2145 46.4068 33.8015V45.2623C46.4068 46.8493 47.6833 48.1258 49.2703 48.1258H60.7311C62.3181 48.1258 63.5946 46.8493 63.5946 45.2623V44.6883H52.7079C51.1209 44.6883 49.8444 43.4118 49.8444 41.8247V30.938H49.2703ZM76.7709 30.938C75.1838 30.938 73.9073 32.2145 73.9073 33.8015V45.2623C73.9073 46.8493 75.1838 48.1258 76.7709 48.1258H88.2317C89.8187 48.1258 91.0952 46.8493 91.0952 45.2623V44.6883H80.2084C78.6214 44.6883 77.3449 43.4118 77.3449 41.8247V30.938H76.7709ZM49.2703 56.7197C47.6833 56.7197 46.4068 57.9963 46.4068 59.5833V71.0441C46.4068 72.6311 47.6833 73.9076 49.2703 73.9076H60.7311C62.3181 73.9076 63.5946 72.6311 63.5946 71.0441V70.47H52.7079C51.1209 70.47 49.8444 69.1935 49.8444 67.6065V56.7197H49.2703ZM76.7709 56.7197C75.1838 56.7197 73.9073 57.9963 73.9073 59.5833V71.0441C73.9073 72.6311 75.1838 73.9076 76.7709 73.9076H88.2317C89.8187 73.9076 91.0952 72.6311 91.0952 71.0441V70.47H80.2084C78.6214 70.47 77.3449 69.1935 77.3449 67.6065V56.7197H76.7709ZM21.7698 80.7827C20.1828 80.7827 18.9062 82.0592 18.9062 83.6462V95.107C18.9062 96.6941 20.1828 97.9706 21.7698 97.9706H33.2306C34.8176 97.9706 36.0941 96.6941 36.0941 95.107V94.533H25.2073C23.6203 94.533 22.3438 93.2565 22.3438 91.6695V80.7827L21.7698 80.7827ZM49.2703 80.7827C47.6833 80.7827 46.4068 82.0592 46.4068 83.6462V95.107C46.4068 96.6941 47.6833 97.9706 49.2703 97.9706H60.7311C62.3181 97.9706 63.5946 96.6941 63.5946 95.107V94.533H52.7079C51.1209 94.533 49.8444 93.2565 49.8444 91.6695V80.7827L49.2703 80.7827Z" fill="#25AAE3"/>
<path d="M21.7709 56.72H33.2294C34.8165 56.72 36.0941 57.9976 36.0941 59.5846V71.0432C36.0941 72.6302 34.8165 73.9078 33.2294 73.9078H21.7709C20.1839 73.9078 18.9062 72.6302 18.9062 71.0432V59.5846C18.9062 57.9976 20.1839 56.72 21.7709 56.72Z" fill="#FFD579"/>
<path d="M21.7698 56.72C20.1828 56.72 18.9062 57.9965 18.9062 59.5835V71.0443C18.9062 72.6313 20.1828 73.9078 21.7698 73.9078H33.2306C34.8176 73.9078 36.0941 72.6313 36.0941 71.0443V70.4702H25.2073C23.6203 70.4702 22.3438 69.1937 22.3438 67.6067V56.72H21.7698Z" fill="#FCB316"/>
<path d="M24.3488 6.87843H15.4625C10.6908 6.87843 6.875 10.7343 6.875 15.4656V97.9773C6.875 102.756 10.7311 106.565 15.4625 106.565H80.782C81.2393 106.564 81.678 106.382 82.0006 106.058L102.62 85.4389C102.944 85.1163 103.127 84.6778 103.127 84.2204V15.4656C103.127 10.7343 99.2673 6.87843 94.5358 6.87843H85.6496C84.9161 4.83294 83.0068 3.4375 80.7818 3.4375C78.5567 3.4375 76.6197 4.84665 75.919 6.87843H34.0842C33.3457 4.81899 31.4415 3.4375 29.2165 3.4375C26.9916 3.4375 25.0887 4.8151 24.3488 6.87843ZM29.2166 6.87843C30.1382 6.87843 30.9288 7.60856 30.9288 8.5905V12.0281C30.9288 13.01 30.1382 13.7536 29.2166 13.7536C28.2951 13.7536 27.4911 13.01 27.4911 12.0281V8.5905C27.4911 7.60856 28.2951 6.87843 29.2166 6.87843ZM80.782 6.87843C81.7102 6.87843 82.494 7.60856 82.494 8.5905V12.0281C82.494 13.01 81.7236 13.7536 80.782 13.7536C79.8403 13.7536 79.0564 13.01 79.0564 12.0281V8.5905C79.0564 7.60856 79.8537 6.87843 80.782 6.87843ZM15.4625 10.316H24.0668V12.0281C24.0668 14.855 26.3225 17.1911 29.2166 17.1911C32.1108 17.1911 34.3698 14.855 34.3698 12.0281V10.316H75.6321V12.0281C75.6321 14.855 77.9079 17.1911 80.782 17.1911C83.6559 17.1911 85.9351 14.855 85.9351 12.0281V10.316H94.536C97.4225 10.316 99.6892 12.5793 99.6892 15.4656V20.6321H10.3127V15.4656C10.3127 12.6196 12.5761 10.316 15.4625 10.316ZM42.9708 17.1911H67.0278C69.371 17.2431 69.371 13.7016 67.0278 13.7536H42.9708C40.6729 13.8207 40.6747 17.1233 42.9708 17.1911ZM10.3127 24.0696H99.6892V82.4949H87.6606C82.8956 82.4949 79.0564 86.3675 79.0564 91.0988V103.127H15.4625C12.5761 103.127 10.3127 100.803 10.3127 97.9773V24.0696ZM36.5888 28.0007L35.0177 29.5852C34.4863 29.328 33.7569 29.2193 33.2284 29.2193H21.7706C19.214 29.2193 17.1881 31.2921 17.1881 33.8016V45.259C17.1881 45.8906 17.3141 46.5004 17.5506 47.0516L15.9694 48.6328C14.3778 50.3374 16.7897 52.6274 18.3932 51.0565L19.9811 49.4821C20.534 49.7223 21.1351 49.8514 21.7705 49.8514H33.2283C35.7379 49.8514 37.8074 47.7685 37.8074 45.259V33.8016C37.8074 33.1742 37.6814 32.5627 37.4481 32.0156L39.026 30.4379C40.1277 29.3133 39.2872 27.4641 37.7739 27.5005C37.3237 27.5108 36.9027 27.6779 36.5888 28.0007ZM64.0971 28.0007L62.5158 29.5818C61.9643 29.3455 61.3549 29.2193 60.7232 29.2193H49.2653C46.7083 29.2193 44.6828 31.2921 44.6828 33.8016V45.259C44.6828 45.8906 44.8193 46.4937 45.0557 47.0449L43.4678 48.6328C41.9051 50.3347 44.2675 52.626 45.9017 51.0566L47.4795 49.4788C48.0297 49.7163 48.6339 49.8514 49.2655 49.8514H60.7234C63.2732 49.8514 65.3159 47.7685 65.3159 45.259V33.8016C65.3159 33.1742 65.1847 32.5627 64.9502 32.0156L66.5347 30.4379C67.6071 29.3569 66.8446 27.4409 65.2655 27.5005C64.8191 27.5135 64.4084 27.6803 64.0971 28.0007ZM91.5918 28.0005L90.0173 29.5783C89.4684 29.3431 88.8614 29.2191 88.2314 29.2191H76.7736C74.1834 29.2191 72.1945 31.2919 72.1945 33.8014V45.2589C72.1945 45.8905 72.314 46.4935 72.5504 47.0448L70.9759 48.6326C69.39 50.1863 71.6657 52.6992 73.3998 51.0564L74.9877 49.4819C75.5399 49.7214 76.1393 49.8512 76.7737 49.8512H88.2315C90.7411 49.8512 92.8106 47.7951 92.8106 45.2588V33.8016C92.8106 33.1742 92.6846 32.5627 92.4514 32.0157L94.0293 30.4379C95.1162 29.3212 94.3391 27.4606 92.7669 27.5071C92.3154 27.5169 91.9065 27.6769 91.5918 28.0005ZM21.7706 32.66H31.9326L20.6291 43.9697V33.8014C20.6291 33.1704 21.1059 32.66 21.7706 32.66ZM59.4374 32.66L48.1239 43.9764V33.8016C48.1239 33.1706 48.6007 32.6602 49.2653 32.6601L59.4374 32.66ZM76.7736 32.66H86.9355L75.6321 43.9731V33.8014C75.6321 33.1905 76.1089 32.66 76.7736 32.66ZM34.3698 35.0904V45.2588C34.3698 45.9233 33.893 46.4136 33.2284 46.4136H23.0395L34.3698 35.0904ZM61.878 35.0904V45.2588C61.878 45.9233 61.3271 46.4136 60.7232 46.4136H50.5477L61.878 35.0904ZM89.3728 35.0904V45.2588C89.3728 45.9233 88.842 46.4136 88.2314 46.4136H78.0459L89.3728 35.0904ZM39.4424 54.9941C39.0559 55.0018 38.71 55.1707 38.4151 55.4205L36.8339 56.7599C35.9921 55.6832 34.6855 55.0008 33.2284 55.0008H21.7706C19.2072 55.0008 17.1881 57.0736 17.1881 59.5831V71.0406C17.1881 73.6038 19.261 75.633 21.7706 75.633H33.2284C35.738 75.633 37.8075 73.5903 37.8075 71.0406V60.4593L40.651 58.0221C41.8793 56.9693 41.1258 54.9595 39.4424 54.9941ZM49.2653 55.0007C46.7087 55.0006 44.6828 57.0734 44.6828 59.5829V71.0404C44.6828 73.5834 46.7558 75.6327 49.2653 75.6327H60.7232C63.2328 75.6327 65.3157 73.5901 65.3157 71.0404V59.5829C65.3157 57.0735 63.2864 55.0006 60.7232 55.0006L49.2653 55.0007ZM76.7736 55.0007C74.1968 55.0007 72.1945 57.0735 72.1945 59.583V71.0404C72.1945 73.5499 74.2102 75.6328 76.7736 75.6328H88.2314C90.7409 75.6328 92.8105 73.5902 92.8105 71.0404V59.5829C92.8105 57.0735 90.7745 55.0006 88.2314 55.0006L76.7736 55.0007ZM33.2284 58.4416C33.6792 58.4416 34.0341 58.6635 34.2221 59.0122L27.5918 64.6956L25.272 62.3726C23.6093 60.8234 21.2709 63.109 22.8482 64.8098L26.2859 68.2473C26.9212 68.8841 27.9398 68.9237 28.6224 68.3379L34.3698 63.4099V71.0403C34.3698 71.7049 33.8267 72.1951 33.2284 72.1951H21.7706C21.1398 72.1951 20.6291 71.7049 20.6291 71.0403V59.5829C20.6291 58.9519 21.1059 58.4415 21.7706 58.4415L33.2284 58.4416ZM49.2653 58.4416H60.7232C61.3877 58.4416 61.878 58.9587 61.878 59.5829V71.0404C61.878 71.6445 61.3875 72.1952 60.7232 72.1952H49.2653C48.6007 72.1952 48.1239 71.6445 48.1239 71.0404V59.5829C48.1239 58.9654 48.6007 58.4416 49.2653 58.4416ZM76.7736 58.4416H88.2314C88.896 58.4416 89.3728 58.952 89.3728 59.5829V71.0404C89.3728 71.7049 88.8355 72.1952 88.2314 72.1952H76.7736C76.1759 72.1952 75.6321 71.7049 75.6321 71.0404V59.5829C75.6321 58.9587 76.1089 58.4416 76.7736 58.4416ZM21.7706 79.0569C19.261 79.0569 17.1881 81.0794 17.1881 83.6493V95.1067C17.1881 97.6632 19.261 99.689 21.7706 99.689H33.2284C35.738 99.689 37.8075 97.6766 37.8075 95.1067V83.6493C37.8075 81.0861 35.738 79.0569 33.2284 79.0569H21.7706ZM49.2653 79.0569C46.7558 79.0569 44.6828 81.1113 44.6828 83.6493V95.1067C44.6828 97.6162 46.7155 99.689 49.2653 99.689H60.7232C63.2797 99.689 65.3157 97.6162 65.3157 95.1067V83.6493C65.3157 81.1398 63.2897 79.0569 60.7232 79.0569H49.2653ZM21.7706 82.4945H33.2284C33.8526 82.4945 34.3698 82.9847 34.3698 83.6493V95.1067C34.3698 95.7309 33.893 96.2481 33.2284 96.2481H21.7706C21.106 96.2481 20.6291 95.7309 20.6291 95.1067V83.6493C20.6291 83.0317 21.1059 82.4945 21.7706 82.4945ZM49.2653 82.4945H60.7232C61.3877 82.4945 61.878 83.025 61.878 83.6493V95.1067C61.878 95.7712 61.3343 96.2481 60.7232 96.2481H49.2653C48.6345 96.2481 48.1239 95.7712 48.1239 95.1067V83.6493C48.1239 83.0417 48.6007 82.4945 49.2653 82.4945ZM87.6606 85.9354H97.2654L82.494 100.706V91.0984C82.494 88.2121 84.8279 85.9354 87.6606 85.9354Z" fill="#2C3656"/>
</svg>
