<svg width="42" height="50" viewBox="0 0 42 50" fill="none" xmlns="http://www.w3.org/2000/svg">
<path d="M7.2 19.8658H11.97V34.9329C11.97 36.5903 13.32 37.9463 14.97 37.9463H26.97C28.62 37.9463 29.97 36.5903 29.97 34.9329V19.8658H34.74C37.41 19.8658 38.76 16.6113 36.87 14.7129L23.1 0.881257C22.8225 0.601902 22.4928 0.380272 22.1299 0.229054C21.767 0.0778365 21.3779 0 20.985 0C20.5921 0 20.203 0.0778365 19.8401 0.229054C19.4772 0.380272 19.1475 0.601902 18.87 0.881257L5.1 14.7129C3.21 16.6113 4.53 19.8658 7.2 19.8658ZM0 46.9866C0 48.644 1.35 50 3 50H39C40.65 50 42 48.644 42 46.9866C42 45.3292 40.65 43.9732 39 43.9732H3C1.35 43.9732 0 45.3292 0 46.9866Z" fill="#B3B5B3"/>
</svg>
