<svg width="21" height="21" viewBox="0 0 21 21" fill="none" xmlns="http://www.w3.org/2000/svg">
<path d="M10.8496 2.09998C13.227 2.09998 13.5236 2.10873 14.4564 2.15248C15.3882 2.19623 16.0226 2.34235 16.5809 2.55935C17.1584 2.7816 17.6449 3.0826 18.1314 3.56823C18.5763 4.00563 18.9206 4.53474 19.1402 5.11873C19.3564 5.6761 19.5034 6.31135 19.5471 7.24323C19.5882 8.17598 19.5996 8.4726 19.5996 10.85C19.5996 13.2274 19.5909 13.524 19.5471 14.4567C19.5034 15.3886 19.3564 16.023 19.1402 16.5812C18.9212 17.1655 18.5768 17.6948 18.1314 18.1317C17.6938 18.5765 17.1648 18.9208 16.5809 19.1406C16.0235 19.3567 15.3882 19.5037 14.4564 19.5475C13.5236 19.5886 13.227 19.6 10.8496 19.6C8.47223 19.6 8.17561 19.5912 7.24286 19.5475C6.31098 19.5037 5.67661 19.3567 5.11836 19.1406C4.53414 18.9214 4.00495 18.5771 3.56786 18.1317C3.12284 17.6944 2.77855 17.1653 2.55898 16.5812C2.34198 16.0238 2.19586 15.3886 2.15211 14.4567C2.11098 13.524 2.09961 13.2274 2.09961 10.85C2.09961 8.4726 2.10836 8.17598 2.15211 7.24323C2.19586 6.31048 2.34198 5.67698 2.55898 5.11873C2.77794 4.53438 3.12231 4.00513 3.56786 3.56823C4.00507 3.12305 4.53423 2.77874 5.11836 2.55935C5.67661 2.34235 6.31011 2.19623 7.24286 2.15248C8.17561 2.11135 8.47223 2.09998 10.8496 2.09998ZM10.8496 6.47498C9.68929 6.47498 8.57649 6.93591 7.75602 7.75638C6.93555 8.57686 6.47461 9.68965 6.47461 10.85C6.47461 12.0103 6.93555 13.1231 7.75602 13.9436C8.57649 14.764 9.68929 15.225 10.8496 15.225C12.0099 15.225 13.1227 14.764 13.9432 13.9436C14.7637 13.1231 15.2246 12.0103 15.2246 10.85C15.2246 9.68965 14.7637 8.57686 13.9432 7.75638C13.1227 6.93591 12.0099 6.47498 10.8496 6.47498ZM16.5371 6.25623C16.5371 5.96615 16.4219 5.68795 16.2168 5.48283C16.0116 5.27771 15.7334 5.16248 15.4434 5.16248C15.1533 5.16248 14.8751 5.27771 14.67 5.48283C14.4648 5.68795 14.3496 5.96615 14.3496 6.25623C14.3496 6.54631 14.4648 6.82451 14.67 7.02962C14.8751 7.23474 15.1533 7.34998 15.4434 7.34998C15.7334 7.34998 16.0116 7.23474 16.2168 7.02962C16.4219 6.82451 16.5371 6.54631 16.5371 6.25623ZM10.8496 8.22498C11.5458 8.22498 12.2135 8.50154 12.7058 8.99382C13.198 9.4861 13.4746 10.1538 13.4746 10.85C13.4746 11.5462 13.198 12.2138 12.7058 12.7061C12.2135 13.1984 11.5458 13.475 10.8496 13.475C10.1534 13.475 9.48574 13.1984 8.99345 12.7061C8.50117 12.2138 8.22461 11.5462 8.22461 10.85C8.22461 10.1538 8.50117 9.4861 8.99345 8.99382C9.48574 8.50154 10.1534 8.22498 10.8496 8.22498Z" fill="#404642"/>
</svg>
