<svg width="110" height="110" viewBox="0 0 110 110" fill="none" xmlns="http://www.w3.org/2000/svg">
<path d="M14.2376 92.5444C13.8908 92.5445 13.5522 92.4397 13.2661 92.2438C12.98 92.0479 12.7598 91.7701 12.6345 91.4467C12.5092 91.1234 12.4846 90.7698 12.5639 90.4323C12.6433 90.0947 12.8229 89.7891 13.0791 89.5555C14.5668 88.2015 16.3317 87.188 18.2509 86.5855C18.6843 86.4555 19.1515 86.5016 19.5511 86.7139C19.9507 86.9263 20.2504 87.2876 20.3853 87.7195C20.5202 88.1515 20.4792 88.6192 20.2714 89.0211C20.0636 89.4231 19.7056 89.7269 19.2752 89.8666C17.8351 90.3192 16.5108 91.0798 15.3943 92.0958C15.0783 92.3845 14.6656 92.5446 14.2376 92.5444ZM12.5635 96.4287C12.6615 96.1366 12.7732 95.8512 12.897 95.5728C13.0807 95.1555 13.0911 94.6823 12.9259 94.2573C12.7607 93.8323 12.4334 93.4903 12.0161 93.3066C11.5988 93.1229 11.1256 93.1125 10.7006 93.2777C10.2756 93.4429 9.93363 93.7702 9.74992 94.1875C9.58492 94.5645 9.43654 94.9483 9.30477 95.3391C9.16026 95.7714 9.19344 96.2435 9.39699 96.6514C9.60054 97.0593 9.95779 97.3696 10.3902 97.5141C10.8225 97.6586 11.2946 97.6255 11.7025 97.4219C12.1104 97.2184 12.419 96.8611 12.5635 96.4287ZM10.238 43.0409C10.239 42.5659 10.4282 42.1107 10.7642 41.7749C11.1003 41.4392 11.5557 41.2505 12.0307 41.25C12.4865 41.25 12.9237 41.0689 13.246 40.7466C13.5684 40.4243 13.7495 39.9871 13.7495 39.5312C13.7495 39.0754 13.5684 38.6382 13.246 38.3159C12.9237 37.9936 12.4865 37.8125 12.0307 37.8125C10.6441 37.8139 9.3147 38.365 8.33393 39.3452C7.35316 40.3253 6.8011 41.6544 6.79883 43.0409C6.79883 43.4968 6.97991 43.9339 7.30224 44.2563C7.62457 44.5786 8.06174 44.7597 8.51758 44.7597C8.97342 44.7597 9.41059 44.5786 9.73292 44.2563C10.0552 43.9339 10.238 43.4968 10.238 43.0409ZM44.1885 15.4C44.373 15.2698 44.5299 15.1045 44.6505 14.9136C44.7711 14.7227 44.8528 14.51 44.8911 14.2875C44.9294 14.065 44.9235 13.8371 44.8738 13.6169C44.824 13.3967 44.7313 13.1884 44.601 13.0041C44.4715 12.8211 44.3793 12.6143 44.3299 12.3957C44.2805 12.177 44.2748 11.9507 44.3132 11.7298C44.3515 11.5089 44.4331 11.2978 44.5533 11.1085C44.6735 10.9193 44.8299 10.7556 45.0135 10.627C45.2028 10.4989 45.3646 10.3342 45.4895 10.1427C45.6144 9.95125 45.6998 9.73678 45.7408 9.51189C45.7817 9.28699 45.7774 9.05618 45.7281 8.83297C45.6788 8.60976 45.5854 8.39863 45.4535 8.21194C45.3215 8.02525 45.1537 7.86676 44.9598 7.74574C44.7658 7.62471 44.5497 7.54359 44.324 7.50712C44.0984 7.47065 43.8677 7.47957 43.6455 7.53334C43.4233 7.58712 43.2141 7.68468 43.0301 7.82031C42.4777 8.20964 42.0075 8.70402 41.6463 9.27521C41.2851 9.84639 41.04 10.4832 40.9251 11.1491C40.8102 11.8151 40.8276 12.4972 40.9765 13.1564C41.1253 13.8156 41.4026 14.439 41.7926 14.9909C41.9229 15.1752 42.0883 15.3321 42.2792 15.4525C42.4702 15.5729 42.683 15.6545 42.9055 15.6926C43.128 15.7307 43.3558 15.7247 43.5759 15.6748C43.7961 15.6249 44.0042 15.5321 44.1885 15.4017V15.4Z" fill="#1B1C21"/>
<path d="M92.8125 75.6595C92.8143 72.9261 93.9018 70.3053 95.8357 68.3737C97.7696 66.442 100.392 65.3576 103.125 65.359H61.875C59.1429 65.359 56.5227 66.4443 54.5909 68.3762C52.659 70.308 51.5737 72.9282 51.5737 75.6603C51.5737 78.3924 52.659 81.0126 54.5909 82.9444C56.5227 84.8763 59.1429 85.9616 61.875 85.9616H103.125C101.771 85.9623 100.431 85.6964 99.1802 85.179C97.9294 84.6616 96.7927 83.903 95.8351 82.9463C94.8775 81.9897 94.1177 80.8538 93.5991 79.6035C93.0805 78.3532 92.8132 77.013 92.8125 75.6595ZM106.561 48.1938C106.238 48.1938 105.923 48.1026 105.65 47.9308L104.356 47.1179C103.982 46.8703 103.72 46.4864 103.625 46.0481C103.53 45.6099 103.61 45.152 103.849 44.7721C104.087 44.3922 104.464 44.1204 104.9 44.0147C105.335 43.909 105.795 43.9778 106.181 44.2063L107.475 45.0193C107.791 45.2175 108.034 45.513 108.167 45.8613C108.3 46.2095 108.316 46.5916 108.213 46.95C108.11 47.3083 107.894 47.6234 107.596 47.8478C107.298 48.0721 106.934 48.1936 106.561 48.1938ZM99.4417 43.7268C99.1194 43.7267 98.8036 43.6356 98.5308 43.4638L95.6209 41.6368C95.2397 41.3923 94.9705 41.0072 94.8716 40.5652C94.7728 40.1233 94.8523 39.6601 95.0931 39.2765C95.3338 38.8929 95.7162 38.6198 96.1571 38.5166C96.5981 38.4133 97.062 38.4883 97.448 38.7252L100.358 40.5523C100.674 40.7505 100.917 41.0462 101.05 41.3946C101.183 41.7431 101.199 42.1253 101.096 42.4838C100.993 42.8422 100.775 43.1573 100.477 43.3815C100.179 43.6058 99.8164 43.7269 99.4434 43.7268H99.4417ZM90.707 38.2457C90.3847 38.2456 90.0689 38.1545 89.7961 37.9827L86.8845 36.1557C86.5033 35.9112 86.234 35.5261 86.1352 35.0841C86.0364 34.6422 86.1159 34.179 86.3567 33.7954C86.5974 33.4118 86.9798 33.1387 87.4207 33.0355C87.8617 32.9323 88.3256 33.0072 88.7116 33.2441L91.6231 35.0712C91.9391 35.2694 92.1819 35.5651 92.315 35.9135C92.4481 36.262 92.4643 36.6442 92.3611 37.0027C92.2578 37.3611 92.0408 37.6762 91.7427 37.9004C91.4447 38.1247 91.08 38.2458 90.707 38.2457ZM81.9723 32.7646C81.6502 32.7651 81.3344 32.6745 81.0614 32.5033L78.1499 30.6763C77.7635 30.4343 77.4892 30.0487 77.3872 29.6043C77.2851 29.16 77.3638 28.6933 77.6059 28.307C77.8479 27.9207 78.2335 27.6463 78.6778 27.5443C79.1222 27.4423 79.5888 27.521 79.9752 27.763L82.8884 29.5901C83.2044 29.7883 83.4472 30.084 83.5803 30.4324C83.7135 30.7809 83.7296 31.1631 83.6264 31.5216C83.5231 31.88 83.3061 32.1951 83.008 32.4193C82.71 32.6436 82.3453 32.7647 81.9723 32.7646ZM49.8438 65.3126C49.3879 65.3126 48.9507 65.1315 48.6284 64.8092C48.3061 64.4868 48.125 64.0497 48.125 63.5938V60.1563C48.125 59.7005 48.3061 59.2633 48.6284 58.941C48.9507 58.6187 49.3879 58.4376 49.8438 58.4376C50.2996 58.4376 50.7368 58.6187 51.0591 58.941C51.3814 59.2633 51.5625 59.7005 51.5625 60.1563V63.5938C51.5625 64.0497 51.3814 64.4868 51.0591 64.8092C50.7368 65.1315 50.2996 65.3126 49.8438 65.3126ZM49.8438 55.0001C49.3879 55.0001 48.9507 54.819 48.6284 54.4967C48.3061 54.1743 48.125 53.7372 48.125 53.2813V49.8438C48.125 49.388 48.3061 48.9508 48.6284 48.6285C48.9507 48.3062 49.3879 48.1251 49.8438 48.1251C50.2996 48.1251 50.7368 48.3062 51.0591 48.6285C51.3814 48.9508 51.5625 49.388 51.5625 49.8438V53.2813C51.5625 53.7372 51.3814 54.1743 51.0591 54.4967C50.7368 54.819 50.2996 55.0001 49.8438 55.0001ZM63.5938 61.8751C63.221 61.8746 62.8585 61.753 62.5608 61.5286C62.2632 61.3041 62.0466 60.989 61.9438 60.6307L61.3525 58.5785C61.2857 58.3603 61.263 58.1309 61.2858 57.9038C61.3086 57.6768 61.3764 57.4565 61.4852 57.2559C61.594 57.0553 61.7417 56.8783 61.9196 56.7354C62.0975 56.5925 62.3022 56.4864 62.5215 56.4234C62.7409 56.3604 62.9706 56.3417 63.1972 56.3685C63.4239 56.3952 63.643 56.4668 63.8417 56.5791C64.0403 56.6914 64.2147 56.8421 64.3545 57.0225C64.4943 57.2029 64.5968 57.4093 64.6559 57.6298L65.2455 59.6819C65.3185 59.9379 65.3312 60.2073 65.2827 60.4689C65.2341 60.7306 65.1255 60.9775 64.9655 61.1902C64.8054 61.4028 64.5983 61.5755 64.3603 61.6946C64.1223 61.8138 63.8599 61.8744 63.5938 61.8751ZM61.105 53.216C60.7322 53.2156 60.3697 53.094 60.0721 52.8695C59.7745 52.6451 59.5579 52.3299 59.455 51.9716L58.5045 48.6682C58.4408 48.4509 58.4206 48.2231 58.4452 47.998C58.4697 47.7729 58.5385 47.5548 58.6476 47.3564C58.7567 47.1579 58.904 46.983 59.0809 46.8417C59.2578 46.7003 59.4609 46.5953 59.6785 46.5327C59.8962 46.4701 60.124 46.4511 60.349 46.4768C60.574 46.5025 60.7917 46.5724 60.9896 46.6826C61.1875 46.7927 61.3616 46.9408 61.5021 47.1185C61.6425 47.2961 61.7465 47.4998 61.808 47.7177L62.7584 51.0212C62.8315 51.2772 62.8442 51.5468 62.7956 51.8086C62.7469 52.0704 62.6382 52.3174 62.4779 52.5301C62.3177 52.7428 62.1103 52.9154 61.8721 53.0344C61.6339 53.1535 61.3713 53.2156 61.105 53.216ZM103.123 58.4926C102.752 58.4928 102.391 58.3722 102.094 58.1488L99.3558 56.0966C99.0035 55.8189 98.7738 55.4145 98.7156 54.9698C98.6575 54.525 98.7755 54.0751 99.0445 53.7162C99.3134 53.3572 99.7121 53.1177 100.155 53.0486C100.598 52.9796 101.051 53.0865 101.417 53.3466L104.156 55.3988C104.445 55.6153 104.658 55.917 104.766 56.2613C104.873 56.6057 104.87 56.9751 104.756 57.3173C104.641 57.6596 104.423 57.9572 104.13 58.1681C103.837 58.3791 103.484 58.4926 103.123 58.4926ZM94.8819 52.3188C94.5105 52.3191 94.1491 52.1984 93.8523 51.9751L91.1006 49.9126C90.9201 49.7771 90.7679 49.6075 90.6529 49.4133C90.5379 49.219 90.4623 49.0041 90.4304 48.7806C90.3985 48.5572 90.4109 48.3297 90.4669 48.111C90.5229 47.8924 90.6215 47.6869 90.7569 47.5063C90.8923 47.3258 91.062 47.1736 91.2562 47.0586C91.4504 46.9436 91.6654 46.868 91.8888 46.8361C92.3401 46.7716 92.7985 46.8891 93.1631 47.1626L95.9131 49.2251C96.2017 49.4415 96.4149 49.7433 96.5224 50.0876C96.63 50.4319 96.6265 50.8014 96.5124 51.1436C96.3984 51.4858 96.1795 51.7835 95.8869 51.9944C95.5942 52.2053 95.2426 52.3188 94.8819 52.3188ZM86.6267 46.1348C86.2559 46.1345 85.8952 46.0139 85.5989 45.791L82.8489 43.7302C82.6595 43.5984 82.4987 43.4298 82.3758 43.2345C82.253 43.0392 82.1708 42.8212 82.134 42.5934C82.0972 42.3656 82.1067 42.1328 82.1619 41.9088C82.217 41.6847 82.3167 41.4741 82.455 41.2894C82.5933 41.1047 82.7673 40.9498 82.9668 40.8338C83.1662 40.7178 83.387 40.6431 83.6159 40.6143C83.8448 40.5854 84.0771 40.603 84.2991 40.6658C84.5211 40.7287 84.7282 40.8356 84.908 40.9802L87.6597 43.041C87.9483 43.2574 88.1615 43.5592 88.269 43.9035C88.3766 44.2479 88.3731 44.6173 88.259 44.9595C88.1449 45.3017 87.9261 45.5994 87.6334 45.8103C87.3408 46.0213 86.9875 46.1348 86.6267 46.1348ZM78.375 39.9541C78.0036 39.9544 77.6422 39.8337 77.3455 39.6104L74.5938 37.5479C74.2291 37.2744 73.988 36.8672 73.9235 36.4159C73.8591 35.9647 73.9765 35.5063 74.25 35.1416C74.5235 34.777 74.9307 34.5359 75.3819 34.4714C75.8332 34.4069 76.2916 34.5244 76.6563 34.7979L79.4063 36.8604C79.6948 37.0768 79.908 37.3786 80.0156 37.7229C80.1231 38.0672 80.1196 38.4367 80.0056 38.7789C79.8915 39.1211 79.6726 39.4188 79.38 39.6297C79.0873 39.8406 78.7357 39.9541 78.375 39.9541ZM76.3864 56.1963C76.1034 56.1968 75.8246 56.1274 75.5748 55.9943C75.3251 55.8612 75.1121 55.6684 74.9547 55.4332L73.0469 52.5732C72.7939 52.1939 72.7019 51.7297 72.7912 51.2826C72.8805 50.8356 73.1437 50.4423 73.523 50.1893C73.9022 49.9363 74.3665 49.8443 74.8135 49.9336C75.2606 50.0229 75.6539 50.2861 75.9069 50.6654L77.8147 53.5254C77.9873 53.7841 78.0865 54.0848 78.1017 54.3955C78.1168 54.7061 78.0474 55.0151 77.9008 55.2894C77.7542 55.5637 77.5359 55.7931 77.2693 55.9531C77.0026 56.1131 76.6974 56.1961 76.3864 56.1963ZM70.6613 47.6198C70.3781 47.6201 70.0992 47.5504 69.8494 47.417C69.5996 47.2836 69.3867 47.0905 69.2295 46.8549L67.3217 43.9949C67.1964 43.8071 67.1094 43.5965 67.0655 43.3751C67.0217 43.1536 67.0218 42.9257 67.066 42.7044C67.1103 42.483 67.1976 42.2725 67.3232 42.0849C67.4487 41.8973 67.61 41.7363 67.7978 41.611C67.9856 41.4857 68.1962 41.3987 68.4177 41.3548C68.6391 41.3109 68.867 41.3111 69.0884 41.3553C69.3097 41.3995 69.5202 41.4869 69.7078 41.6125C69.8954 41.738 70.0565 41.8993 70.1817 42.0871L72.0895 44.9471C72.2148 45.135 72.3017 45.3457 72.3455 45.5672C72.3892 45.7887 72.3889 46.0167 72.3445 46.238C72.3002 46.4594 72.2126 46.6699 72.0869 46.8574C71.9611 47.045 71.7997 47.2059 71.6117 47.331C71.3302 47.52 71.0003 47.6205 70.6613 47.6198Z" fill="#FCB316"/>
<path d="M57.4402 39.6894C58.5996 40.6758 60.0541 41.2485 61.5748 41.3173C63.0955 41.3862 64.5958 40.9473 65.8396 40.0697C67.0834 39.1921 68 37.9258 68.445 36.47C68.8899 35.0143 68.8381 33.4519 68.2975 32.0289L75.4991 26.9466C75.6835 26.8164 75.8405 26.6511 75.9611 26.4602C76.0816 26.2693 76.1634 26.0566 76.2017 25.8341C76.24 25.6116 76.2341 25.3837 76.1843 25.1635C76.1345 24.9433 76.0419 24.735 75.9116 24.5506L71.9464 18.9406C70.8011 17.326 69.1344 16.1553 67.227 15.6256C65.3196 15.0959 63.2879 15.2396 61.4741 16.0325L54.4324 6.0758C53.2553 4.40993 51.6106 3.13047 49.7064 2.39921C47.8022 1.66795 45.724 1.51772 43.7344 1.96751C41.7448 2.41731 39.9333 3.44692 38.5289 4.92618C37.1244 6.40545 36.1901 8.26793 35.8441 10.2781C35.3785 12.9458 35.9904 15.6891 37.5456 17.906L15.2861 33.2716C13.9956 32.8682 12.6383 32.723 11.2917 32.8442C9.94508 32.9654 8.63553 33.3507 7.43781 33.978C6.24008 34.6053 5.17765 35.4624 4.31115 36.5003C3.44466 37.5382 2.79109 38.7366 2.38775 40.0271C1.9844 41.3176 1.83919 42.6749 1.9604 44.0215C2.08161 45.3682 2.46687 46.6777 3.09418 47.8754C3.72149 49.0732 4.57857 50.1356 5.61648 51.0021C6.65439 51.8686 7.8528 52.5221 9.14329 52.9255L14.9355 82.3213C11.5276 83.775 8.6214 86.1972 6.57739 89.2873C4.53337 92.3775 3.44145 95.9997 3.43704 99.7047V106.563C3.43704 107.018 3.61813 107.456 3.94045 107.778C4.26278 108.1 4.69995 108.281 5.15579 108.281H39.5308C39.9866 108.281 40.4238 108.1 40.7461 107.778C41.0685 107.456 41.2495 107.018 41.2495 106.563V99.7047C41.2414 95.1904 39.6186 90.8279 36.6744 87.4059C33.7302 83.9838 29.6589 81.7279 25.1964 81.046L19.167 50.4608C20.4292 49.2562 21.3634 47.7497 21.8813 46.0835C22.3991 44.4174 22.4836 42.6468 22.1267 40.9389L43.4289 26.2316L44.6269 27.9228C43.2704 29.3641 42.4541 31.2301 42.3163 33.2046C42.1784 35.179 42.7276 37.1403 43.8706 38.7561L47.8375 44.3661C48.1007 44.7379 48.5007 44.9899 48.9496 45.0669C49.3985 45.144 49.8597 45.0396 50.2317 44.7769L57.4402 39.6894ZM63.8614 37.2608C63.3699 37.608 62.7954 37.8193 62.196 37.8733C61.5967 37.9273 60.9937 37.8222 60.448 37.5685L65.288 34.1516C65.3455 34.7496 65.2438 35.3522 64.9933 35.8982C64.7427 36.4443 64.3522 36.9144 63.8614 37.2608ZM39.2317 10.8608C39.3822 9.97064 39.7079 9.11921 40.19 8.35593C40.6721 7.59264 41.301 6.9327 42.0402 6.41439C43.5306 5.36565 45.3759 4.9501 47.172 5.25869C48.9682 5.56728 50.5689 6.57489 51.6239 8.06096L58.5625 17.875L47.3339 25.7985L40.3919 15.9827C39.8694 15.2481 39.4978 14.4172 39.2986 13.538C39.0995 12.6588 39.0767 11.7488 39.2317 10.8608ZM5.15579 43.0392C5.15375 41.6791 5.55523 40.3488 6.30942 39.2169C7.06362 38.0849 8.13663 37.2022 9.39269 36.6802C10.6488 36.1583 12.0314 36.0207 13.3657 36.2848C14.7 36.5489 15.926 37.2028 16.8885 38.1639C17.851 39.125 18.5068 40.35 18.7729 41.6839C19.039 43.0178 18.9035 44.4006 18.3834 45.6575C17.8634 46.9143 16.9822 47.9887 15.8514 48.7446C14.7206 49.5005 13.391 49.9039 12.0308 49.9039C10.2095 49.903 8.4629 49.1798 7.17408 47.8929C5.88526 46.606 5.15943 44.8605 5.15579 43.0392ZM37.4116 96.2586H24.062C23.6062 96.2586 23.169 96.4397 22.8467 96.762C22.5244 97.0844 22.3433 97.5215 22.3433 97.9774C22.3433 98.4332 22.5244 98.8704 22.8467 99.1927C23.169 99.515 23.6062 99.6961 24.062 99.6961H37.812V104.844H6.87454V99.7047C6.87909 95.6063 8.50921 91.677 11.4072 88.779C14.3053 85.8809 18.2345 84.2508 22.333 84.2463H22.3536C25.852 84.252 29.2451 85.443 31.9798 87.6248C34.7144 89.8066 36.6291 92.8489 37.4116 96.2586ZM21.6524 80.8414C20.5016 80.8788 19.3567 81.0215 18.232 81.2677L12.7217 53.3088C13.8744 53.2358 15.0064 52.9685 16.0699 52.5181L21.6524 80.8414ZM20.8136 37.6664C20.229 36.7111 19.4936 35.8567 18.6359 35.1364L39.5274 20.711L41.4455 23.4231L20.8136 37.6664ZM46.6774 36.771C46.2868 36.2187 46.009 35.595 45.8599 34.9353C45.7107 34.2756 45.6931 33.5929 45.808 32.9264C45.923 32.2599 46.1682 31.6226 46.5297 31.051C46.8912 30.4794 47.3619 29.9847 47.9149 29.5952L61.9502 19.69C63.0681 18.9029 64.4523 18.5909 65.7998 18.8222C67.1473 19.0535 68.3482 19.8093 69.1397 20.9241L72.1131 25.1281L49.6525 40.975L46.6774 36.771ZM103.125 87.6803C103.58 87.6803 104.018 87.4993 104.34 87.1769C104.662 86.8546 104.843 86.4174 104.843 85.9616C104.843 85.5057 104.662 85.0686 104.34 84.7462C104.018 84.4239 103.58 84.2428 103.125 84.2428C100.848 84.2428 98.6653 83.3386 97.0557 81.729C95.4462 80.1195 94.542 77.9365 94.542 75.6603C94.542 73.384 95.4462 71.201 97.0557 69.5915C98.6653 67.9819 100.848 67.0777 103.125 67.0777C103.58 67.0777 104.018 66.8966 104.34 66.5743C104.662 66.2519 104.843 65.8148 104.843 65.3589C104.843 64.9031 104.662 64.4659 104.34 64.1436C104.018 63.8213 103.58 63.6402 103.125 63.6402H61.8745C59.2431 63.6341 56.6825 64.4928 54.5868 66.0842C52.491 67.6755 50.9762 69.9113 50.2752 72.4477C49.5743 74.9841 49.7261 77.6805 50.7073 80.1222C51.6885 82.5639 53.4448 84.6155 55.7059 85.9616C53.4456 87.308 51.6902 89.3596 50.7096 91.8009C49.7289 94.2422 49.5774 96.9381 50.2782 99.4739C50.979 102.01 52.4935 104.245 54.5886 105.836C56.6838 107.428 59.2436 108.287 61.8745 108.281H103.125C103.58 108.281 104.018 108.1 104.34 107.778C104.662 107.456 104.843 107.018 104.843 106.563C104.843 106.107 104.662 105.67 104.34 105.347C104.018 105.025 103.58 104.844 103.125 104.844C100.849 104.844 98.6657 103.94 97.0564 102.33C95.447 100.721 94.5428 98.5381 94.5428 96.2621C94.5428 93.986 95.447 91.8032 97.0564 90.1939C98.6657 88.5845 100.849 87.6803 103.125 87.6803ZM53.2808 75.6594C53.2849 73.3826 54.192 71.2003 55.8031 69.5915C57.4142 67.9826 59.5977 67.0786 61.8745 67.0777H94.7078C92.8346 68.9128 91.615 71.3115 91.2359 73.9063H77.3433C76.8875 73.9063 76.4503 74.0873 76.128 74.4097C75.8056 74.732 75.6245 75.1692 75.6245 75.625C75.6245 76.0809 75.8056 76.518 76.128 76.8404C76.4503 77.1627 76.8875 77.3438 77.3433 77.3438H91.2256C91.5931 79.9651 92.8181 82.391 94.7095 84.2428H61.8745C59.5974 84.2419 57.4136 83.3376 55.8025 81.7284C54.1913 80.1192 53.2844 77.9365 53.2808 75.6594ZM91.2325 94.5313H77.3433C76.8875 94.5313 76.4503 94.7123 76.128 95.0347C75.8056 95.357 75.6245 95.7942 75.6245 96.25C75.6245 96.7059 75.8056 97.143 76.128 97.4654C76.4503 97.7877 76.8875 97.9688 77.3433 97.9688H91.2291C91.6008 100.581 92.8242 102.998 94.7095 104.844H61.8745C59.5985 104.844 57.4157 103.94 55.8064 102.33C54.197 100.721 53.2928 98.5381 53.2928 96.2621C53.2928 93.986 54.197 91.8032 55.8064 90.1939C57.4157 88.5845 59.5985 87.6803 61.8745 87.6803H94.7078C92.8291 89.5208 91.6079 91.9282 91.2325 94.5313Z" fill="#2C3656"/>
</svg>
