<svg width="146" height="136" viewBox="0 0 146 136" fill="none" xmlns="http://www.w3.org/2000/svg">
<path d="M139.351 98.0586L118.751 98.0586V77.9563C118.751 70.2047 106.433 70.2047 106.433 77.9563V98.0586H85.8329C77.8916 98.0586 77.8916 110.08 85.8329 110.08H106.433V130.182C106.433 137.934 118.751 137.934 118.751 130.182L118.751 110.08L139.351 110.08C147.293 110.08 147.293 98.0586 139.351 98.0586Z" fill="#2DB0FE"/>
<path d="M83.5808 37.0647L54.6315 37.0647V8.31468C54.6315 -2.77156 37.3194 -2.77156 37.3194 8.31468V37.0647H8.37014C-2.79005 37.0647 -2.79005 54.2577 8.37014 54.2577H37.3194L37.3194 83.0077C37.3194 94.094 54.6315 94.094 54.6315 83.0077L54.6315 54.2577L83.5808 54.2577C94.7424 54.2577 94.7424 37.0647 83.5808 37.0647Z" fill="#1B95D4"/>
</svg>
