<svg width="63" height="70" viewBox="0 0 63 70" fill="none" xmlns="http://www.w3.org/2000/svg">
<ellipse cx="22.5" cy="48" rx="22.5" ry="22" fill="#25AAE3"/>
<path d="M32.0003 29.3333H44.917M32.0003 18.6667H44.917M21.667 40V9.6C21.667 9.17565 21.8303 8.76869 22.121 8.46863C22.4117 8.16857 22.8059 8 23.217 8H53.7003C54.1114 8 54.5057 8.16857 54.7963 8.46863C55.087 8.76869 55.2503 9.17565 55.2503 9.6V45.3333C55.2503 48.1623 54.1616 50.8754 52.2238 52.8758C50.2859 54.8762 47.6576 56 44.917 56" stroke="black" stroke-width="3.5" stroke-linecap="round" stroke-linejoin="round"/>
<path d="M13.9167 40H33.0333C33.8884 40 34.5911 40.712 34.6608 41.592C34.9786 45.64 36.5983 56 44.9167 56H16.5C14.4446 56 12.4733 55.1571 11.0199 53.6569C9.56652 52.1566 8.75 50.1217 8.75 48V45.3333C8.75 43.9188 9.29434 42.5623 10.2633 41.5621C11.2322 40.5619 12.5464 40 13.9167 40Z" stroke="black" stroke-width="3.5" stroke-linecap="round" stroke-linejoin="round"/>
</svg>
