<svg width="115" height="112" viewBox="0 0 115 112" fill="none" xmlns="http://www.w3.org/2000/svg">
<path d="M105.177 71.302L105.057 72.086L104.933 72.058C104.081 75.9358 102.12 79.4996 99.2755 82.337C96.431 85.1744 92.8198 87.1695 88.8596 88.0913C84.8995 89.0132 80.7522 88.8242 76.8978 87.5462C73.0433 86.2681 69.6392 83.9534 67.0792 80.8696C64.5193 77.7859 62.9082 74.0593 62.4323 70.121C61.9564 66.1827 62.6352 62.1936 64.3902 58.6153C66.1452 55.0371 68.9046 52.0159 72.3491 49.9014C75.7937 47.7868 79.7825 46.6653 83.8543 46.6667C84.9228 46.6667 85.9482 46.8253 86.9688 46.97C86.6382 45.8873 86.298 44.786 85.7518 43.7967C85.2055 42.3593 84.3526 41.1133 83.5045 39.858C82.7953 38.5 81.5447 37.5807 80.6247 36.4187C79.6616 35.2893 78.3486 34.538 77.3089 33.6C76.2882 32.62 74.9514 32.13 73.8876 31.4393C72.7759 30.8187 71.808 30.1327 70.773 29.806L68.1903 28.77L65.9191 27.8507L68.2382 18.802L71.0989 19.474C72.0141 19.698 73.1305 19.9593 74.4003 20.272C75.6989 20.5053 77.0836 21.1447 78.6266 21.728C80.1455 22.3953 81.9136 22.8387 83.5524 23.9073C85.2007 24.9247 87.103 25.774 88.7801 27.1367C90.4045 28.5413 92.3643 29.7593 93.8113 31.542C95.3926 33.2127 96.9547 34.9673 98.167 36.9647C99.5709 38.8687 100.524 40.9593 101.531 43.0267C102.441 45.094 103.174 47.208 103.773 49.2613C104.909 53.3773 105.417 57.288 105.613 60.634C105.776 63.9847 105.68 66.7707 105.479 68.7867C105.412 69.6286 105.311 70.4677 105.177 71.302ZM52.4689 71.302L52.3491 72.086L52.2245 72.058C51.373 75.9358 49.4116 79.4996 46.5672 82.337C43.7227 85.1744 40.1115 87.1695 36.1513 88.0913C32.1911 89.0132 28.0439 88.8242 24.1894 87.5462C20.335 86.2681 16.9308 83.9534 14.3709 80.8696C11.8109 77.7859 10.1998 74.0593 9.72395 70.121C9.24808 66.1827 9.92691 62.1936 11.6819 58.6153C13.4369 55.0371 16.1962 52.0159 19.6408 49.9014C23.0853 47.7868 27.0742 46.6653 31.1459 46.6667C32.2145 46.6667 33.2399 46.8253 34.2605 46.97C33.9299 45.8873 33.5897 44.786 33.0434 43.7967C32.4972 42.3593 31.6443 41.1133 30.7961 39.858C30.087 38.5 28.8364 37.5807 27.9164 36.4187C26.9532 35.2893 25.6403 34.538 24.6005 33.6C23.5799 32.62 22.243 32.13 21.1793 31.4393C20.0676 30.8187 19.0997 30.1327 18.0647 29.806L15.482 28.77C14.0397 28.196 13.2155 27.86 13.2155 27.86L15.5347 18.8113L18.3953 19.4833C19.3105 19.7073 20.427 19.9687 21.6968 20.2813C22.9953 20.5147 24.3801 21.154 25.923 21.7373C27.442 22.4047 29.2101 22.848 30.8489 23.9167C32.4972 24.934 34.3995 25.7833 36.0766 27.146C37.7009 28.5507 39.6607 29.7687 41.1078 31.5513C42.6891 33.222 44.2511 34.9767 45.4634 36.974C46.8674 38.878 47.8209 40.9687 48.8272 43.036C49.7376 45.1033 50.4707 47.2173 51.0697 49.2707C52.2053 53.3867 52.7132 57.2973 52.9097 60.6433C53.0726 63.994 52.9768 66.78 52.7755 68.796C52.704 69.6346 52.6017 70.4705 52.4689 71.302Z" fill="#25AAE3"/>
</svg>
