<svg version="1.2" xmlns="http://www.w3.org/2000/svg" viewBox="0 0 610 151" width="610" height="151">
	<title>v231-wit-73a-job105-ai</title>
	<style>
		.s0 { fill: #000000 } 
		.s1 { fill: #25aae3 } 
	</style>
	<g id="_Artboards_">
	</g>
	<g id="Graphic Elements">
		<g id="&lt;Group&gt;">
			<g id="&lt;Group&gt;">
				<path id="&lt;Path&gt;" class="s0" d="m-390-51.2q0 0 0 0 0 0 0 0z"/>
			</g>
			<path id="&lt;Compound Path&gt;" fill-rule="evenodd" class="s1" d="m202.2 6.7q4.2 0 8.5 0 0 0 0 0 9.2 0.4 18.3 0.9c1.2 0 2.4 0 3.7 0.1q0.3 0 0.7 0.1c0.3 0 0.6 0.1 0.9 0.2 8.7 0.4 17.4 1.3 26 2.2q16.1 1.6 32.1 4c11.6 1.8 23.3 3.8 34.9 5.9 12.9 2.3 25.7 5.5 38.7 7.1 8.2 1 16.4 1.8 24.5 2.6 6.8 0.7 13.5 2.2 20.3 3.2 11.3 1.5 22.5 4.1 33.7 6 9.7 1.6 19.3 4.2 28.9 6.3 13.6 3 27.1 7 40.7 10.1q1 0.2 1.9 0.4c0.4-0.1 0.7 0.1 0.7 0.7 0 0.7-0.4 0.7-0.7 0.7-1.3-0.2-2.6-0.4-3.8-0.4 0.4 0.3 1 0.2 1.5 0.8 6 1.3 11.9 3.1 17.9 4.8 14 4.1 28 8.6 41.7 15.1 5.6 2.6 11.2 5.3 16.3 9.8 0.6 0.5 1.1 1 1.6 1.5 3.6 3.2 3.4 8 1.5 12.2-1.2 2.6-2.5 5-4.5 6.4-1.8 2-4 2.9-6.1 3.9-8 3.9-16.2 6.5-24.5 8.9-13.4 3.8-26.9 6.1-40.4 8.4-7 1.2-14 1.9-20.9 2.8-0.3 0.1-0.5 0-0.7 0q-0.1-0.1-0.1-0.1 0 0 0 0l0.1 0.1c-3.1 0.4-6.2 0.8-9.2 1.1-19.8 1.8-39.7 3.1-59.5 4.3-17.6 1-35.1 1.7-52.6 2.6-17.8 0.8-35.6 1.4-53.4 1.8-0.4 0.5-1 0.3-1.5 0.3q-6.2 0.1-12.4 0.2c-0.4 0.1-0.8-0.1-1.2 0.3q-57.7 0-115.3 0c-0.7-0.5-1.3-0.3-2-0.3-4.1-0.1-8.2-0.1-12.3-0.2-0.5 0-1 0.2-1.4-0.3-17.2-0.2-34.4-0.2-51.7-0.6-13.5-0.2-27-1-40.4-2.6-9.8-1.2-19.4-3.2-29-6.3-0.2-0.1-0.4-0.2-0.6-0.3-11.6-3.7-22.8-9.2-32.7-19-1-1-1.9-2.3-2.7-3.6-1.9-2.9-2.1-6.7-0.7-10.2 2.6-6.5 6.2-11.3 10.8-14.8 8.5-6.4 17.5-11 26.5-15.2 20.3-9.5 41-15.7 61.9-21 19.2-4.8 38.5-8.6 57.8-11.9 16-2.7 32-4.7 48-6.3 18.3-1.9 36.6-3.5 54.9-4.1 9.1-0.3 18.2-0.2 27.3-0.1 1 0 2 0.1 3-0.5-5.3-1.1-10.7-2.3-16-3.3-15.9-3.1-31.7-6.1-47.6-8.6-11.6-1.9-23.1-3.7-34.7-4.9-0.3 0-0.5-0.1-0.7-0.1-1.5 0.2-2.9-0.2-4.3-0.3-0.4-0.4-0.9-0.2-1.4-0.5q-0.1-0.1-0.3-0.3zm298.4 57.7c-7.4-1.8-14.8-3.5-22.2-4.9-8.7-1.6-17.4-3.4-26.1-5.1q-10.1-1.9-20.3-4c-3-0.6-6.1-1.3-9.1-1.9-3.8-0.3-7.4-1.4-11.1-2.1-12.2-2.3-24.2-5.2-36.4-7.4-6.6-1.2-13.1-2.6-19.7-3.9-1.3-0.2-2.6-0.3-3.9-0.3-20.2-0.4-40.5-0.5-60.8 0.1-12.7 0.3-25.4 1.1-38.1 2.2-11.7 1-23.5 2-35.2 3.5-10.9 1.4-21.9 2.8-32.9 4.5-10.3 1.6-20.6 3.4-30.9 5.5-17.8 3.5-35.6 7.6-53.3 12.8-16.9 5-33.5 11.6-49.8 19.8-4.5 2.2-8.8 4.9-13.1 7.8-0.4 0.3-0.9 0.5-1.3 0.8-2.3 2-4.8 3.4-6.9 5.9-3.5 4.3-3.5 7.4 0.2 11.5 3.3 3.8 7 6.4 11 8.2 11.3 5.1 22.9 7.7 34.7 9.3 13.8 1.8 27.7 2.6 41.6 2.8 28.3 0.3 56.6 0.6 84.9 0.8 55.9 0.3 111.8 0 167.7-2.6 31.5-1.5 62.9-2.7 94.4-5.4 23.9-2 47.8-4.5 71.5-9.1 12.1-2.3 24.1-5.1 35.8-9.9 3.7-1.5 7.4-2.9 10.9-5.5 1.6-1.3 1.7-2.8 0.3-4.7-1.3-1.7-2.9-2.9-4.5-3.8-8.2-4.5-16.8-7.5-25.3-10.4-17.2-5.9-34.6-10.5-52.1-14.5zm-5.8-11.7q-0.2 0-0.3-0.1 0.1 0.1 0.3 0.1 0 0 0 0zm-0.4-0.1q0.1 0 0.1 0 0 0-0.1 0zm-14.5-3.8c-1 0.3-1.7-0.6-2.6-0.7-7-1.5-14-2.9-21-4.4-1.5-0.3-3.1 0.2-4.6-0.7-0.5 0.3-1.1-0.1-1.7 0.2q0 0 0 0-0.2 0-0.3 0.3c0.2 0.1 0.5 0.4 0.7 0.4 3.1 0.2 6 1 9 1.6 6.5 1.2 12.9 2.5 19.3 3.8 0.2-0.1 0.5 0 0.8-0.1q0 0 0 0c0.2-0.1 0.3-0.2 0.4-0.4zm-1.1 0.5c0.2 0.1 0.5 0.3 0.7 0.2q-0.3-0.1-0.7-0.2zm-0.1 0q0 0 0.1 0-0.1 0-0.1 0z"/>
		</g>
	</g>
</svg>