<svg version="1.2" xmlns="http://www.w3.org/2000/svg" viewBox="0 0 336 133" width="336" height="133">
	<title>v231-wit-73a-job105-ai</title>
	<style>
		.s0 { fill: #25aae3 } 
	</style>
	<g id="_Artboards_">
	</g>
	<g id="Graphic Elements">
		<g id="&lt;Group&gt;">
			<path id="&lt;Compound Path&gt;" fill-rule="evenodd" class="s0" d="m332.9 63.2c-0.3 0.4-0.7 0.5-1.3 0.3-1.3-0.5-2.4-1.5-3.6-2.2q-6.7-3.7-13.8-7-0.2-0.1-0.4-0.2-3.9-1.6-7.7-3.3c-0.6-0.2-1.1-0.4-1.7-0.6 3 2.6 6 5.1 8.8 7.9 5 5.1 9.4 10.6 12.1 17.3 2 4.9 1.4 9.7-1 14.3-1.2 2.4-3.3 4.3-5.5 6-1.6 1.5-3.3 2.9-5.2 4-1.9 1.6-4.2 2.7-6.5 3.8-8 3.7-16.3 6.6-24.7 9.3q-15.6 5-31.5 8.5c-10.7 2.4-21.4 4.4-32.3 5.6-10.2 1.1-20.5 1.7-30.7 2-11.2 0.4-22.4 0.4-33.5 0.2-12.2-0.1-24.3-0.8-36.3-2.3-5.9-0.7-11.8-1.4-17.7-2.4-7.2-1.3-14.4-2.8-21.5-4.9-13.8-4.1-26.9-9.9-39.5-16.7-1.6-0.8-3.2-1.5-4.6-2.6-6.3-3.5-12.2-7.4-17.6-12.1-3.6-3-7-6.4-9.6-10.4-1.4-2.2-2.9-4.5-3.3-7.1-0.5-2.9-0.1-5.8 1.4-8.4 2.6-4.3 5.9-8 9.8-11.1 1.1-1.5 2.8-2.3 4.2-3.4 8.8-6.5 18.5-11.2 28.6-15.2 3.8-1.5 7.7-2.8 11.6-3.9 0.2-0.1 0.5 0 0.7-0.1 4.6-1.4 9.2-2.6 13.9-3.7 11.7-2.7 23.6-5 35.6-6.5 7.8-0.9 15.7-1.7 23.5-2.1 0.4 0 0.7-0.1 1.2-0.1-0.5-0.5-1-0.3-1.4-0.3-11.9-0.1-23.7 0-35.6 0.8-6.2 0.4-12.4 0.8-18.6 1.4-7.7 0.7-15.3 1.8-23 2.7-7.3 1-14.6 2.3-21.9 3.3-3.5 0.5-7.1 1-10.6 0.6-2.3-0.2-4.3-1.1-6.4-1.8-0.8-0.2-0.7-0.9-0.3-1.5 2.2-3 5.5-4.2 8.8-5.3 9.9-3.2 20-5.2 30.2-6.6 17.7-2.5 35.5-3.9 53.4-4.3 11.4-0.2 22.9-0.2 34.3 0.4 9 0.5 17.9 1.5 26.8 2.4 14.9 1.6 29.7 3.5 44.3 6.3 12.5 2.5 24.9 5.2 37 9.2 6.5 2.2 12.8 4.8 19 7.7 7 3.3 14.2 6.1 21.1 9.4 9.9 4.7 20 9.2 29.6 14.5 2.9 1.6 5.8 3 8.5 4.8 1 0.6 1.9 1.3 2.6 2.2 0.3 0.4 0.7 0.7 0.3 1.2zm-290.2 33.7c5.7 3.3 11.7 6 17.9 8.5q12.4 5 25.5 7.7c7.6 1.5 15.3 2.8 23 3.6 6.9 0.8 13.7 1.6 20.6 2q13.5 0.8 27 0.8c15.3 0 30.6-0.4 45.9-1.7 9.5-0.8 19-1.8 28.3-3.6 8.5-1.6 16.9-3.4 25.3-5.6 13-3.4 25.8-7.2 38.2-12.4 4.8-1.9 9.4-4.1 13.5-7.3 1.8-1.4 3.1-3.1 3.6-5.5 0.6-3.4-0.2-6.4-1.8-9.4-4.2-8.2-10.4-14.8-17.5-20.6-3.3-2.8-7-5.1-10.6-7.5-2.7-1.4-5.3-2.8-8-4.2-9.3-4.6-18.9-8.5-29.2-10.7-5.8-1.3-11.8-2-17.8-2.8-9.5-1.3-19.1-2.2-28.7-3-7.9-0.7-15.8-0.9-23.7-0.9-6.2-0.1-12.3-0.2-18.5-0.1-7.8 0.2-15.6 0.5-23.4 1.3-5.5 0.5-11 1.1-16.5 1.9-6.2 0.9-12.5 2-18.7 3.2q-10.1 1.8-19.9 4.4c-9.3 2.3-18.4 5.1-27.2 8.9-6 2.6-11.8 5.4-17.4 8.8-0.1 0.1-0.3 0.1-0.4 0.2q-2.1 1.4-4.1 2.7c-3.3 2.3-6.6 4.6-9.2 7.8-2 2.5-2.9 5.5-2 8.8 0.4 1.5 1.1 2.9 2 4.2 2.3 3.7 5.3 6.8 8.5 9.7q7.1 6.3 15.3 10.8zm254.3 10.2q0 0 0 0zm0 0q0 0 0 0z"/>
		</g>
	</g>
</svg>