<svg width="70" height="64" viewBox="0 0 70 64" fill="none" xmlns="http://www.w3.org/2000/svg">
<ellipse cx="47.5" cy="42" rx="22.5" ry="22" fill="#FCB316"/>
<path d="M17.6913 37.7117L21.727 36.5475L46.0255 11.9579C46.2172 11.7615 46.3239 11.4976 46.3226 11.2232C46.3213 10.9487 46.2121 10.6858 46.0186 10.4912L44.5634 9.01999C44.4694 8.92337 44.357 8.84644 44.233 8.79371C44.1089 8.74097 43.9755 8.71348 43.8407 8.71284C43.7059 8.7122 43.5723 8.73842 43.4477 8.78998C43.3231 8.84154 43.21 8.91739 43.1151 9.01312L18.8807 33.5385L17.689 37.7094L17.6913 37.7117ZM47.444 6.10499L48.8993 7.57854C50.9068 9.61124 50.9251 12.8906 48.9359 14.9027L23.8972 40.2439L15.2713 42.7281C14.7447 42.8755 14.1811 42.808 13.7042 42.5403C13.2273 42.2727 12.8761 41.8267 12.7276 41.3004C12.6171 40.922 12.6155 40.5201 12.723 40.1408L15.2324 31.3408L40.2047 6.06604C40.6795 5.5879 41.2448 5.20909 41.8676 4.95172C42.4904 4.69434 43.1582 4.56355 43.832 4.56696C44.5059 4.57037 45.1723 4.70793 45.7925 4.9716C46.4126 5.23527 46.9741 5.62207 47.444 6.10499ZM21.0463 8.74729C22.183 8.74729 23.1043 9.67999 23.1043 10.8304C23.1061 11.1024 23.0543 11.372 22.9518 11.6239C22.8493 11.8758 22.6982 12.1051 22.5071 12.2985C22.316 12.492 22.0886 12.6459 21.8379 12.7514C21.5873 12.8569 21.3183 12.912 21.0463 12.9135H12.8147C10.5413 12.9135 8.69884 14.779 8.69884 17.0775V42.0704C8.69884 44.3712 10.5413 46.2367 12.8147 46.2367H37.5097C39.783 46.2367 41.6278 44.3712 41.6278 42.0704V33.7402C41.6278 32.5898 42.549 31.6571 43.6857 31.6571C44.8224 31.6571 45.7436 32.5898 45.7436 33.7425V42.0704C45.7436 46.6721 42.0563 50.4029 37.5097 50.4029H12.8147C8.26801 50.4029 4.58301 46.6721 4.58301 42.0704V17.0775C4.58301 12.4781 8.26801 8.74729 12.8147 8.74729H21.0463Z" fill="black"/>
</svg>
