<svg version="1.2" xmlns="http://www.w3.org/2000/svg" viewBox="0 0 397 375" width="397" height="375">
	<title>sec-1 (1)-svg</title>
	<style>
		.s0 { fill: #ebebeb } 
		.s1 { fill: #e0e0e0 } 
		.s2 { fill: #f5f5f5 } 
		.s3 { fill: #263238 } 
		.s4 { fill: #fcb316 } 
		.s5 { opacity: .3;fill: #000000 } 
		.s6 { opacity: .6;fill: #ffffff } 
		.s7 { fill: #455a64 } 
		.s8 { fill: #ffbe9d } 
		.s9 { fill: #eb996e } 
		.s10 { fill: #25aae3 } 
		.s11 { fill: #ffffff } 
		.s12 { opacity: .4;fill: #000000 } 
	</style>
	<path id="Layer" class="s0" d="m193.2 159.2c0 0 7.1 3.2-1.5 16.4-8.5 13.2-14.3 19.6-14.3 19.6 0 0-1.5 3.1 1.4 3.9 2.8 0.8 9.3 0.3 10.4 3.9 1.1 3.6-1.8 6.6-7.4 9-5.7 2.3-17.8 7.9-18.9 8.4-1.1 0.5-2.2 1.9-0.3 2.7 1.9 0.9 16.2 3.7 14.6 9.9-1.5 6.3-18.5 10.3-20.3 10.8-1.9 0.5-2.4 1.2-2.3 2.1 0.1 1 5 1.5 9 2.4 4.1 1 8.6 2.8 7.4 6.3-1.2 3.5-11.6 10.2-35.5 10.1l-11.2-0.7-5.5-9.3c-10.4-20.7-8.5-32.5-5.7-35.1 2.8-2.6 6.4 0.6 9.1 3.7 2.6 3.1 5.2 7.1 6.1 6.8 0.9-0.4 1.4-1.1 1-2.9-0.3-1.8-3.8-18.2 1.5-22.2 5.2-4 14 7.2 15.6 8.4 1.5 1.3 2.4-0.3 2.4-1.4 0-1.2 0.1-14.1-0.2-20-0.2-5.8 1.4-9.6 5.3-10.2 3.7-0.6 6.2 5.2 8.1 7.3 2 2.2 4.3-0.5 4.3-0.5 0 0 3.5-7.7 12.4-20.8 8.8-13.1 14.6-8.5 14.6-8.5"/>
	<path id="Layer" class="s1" d="m122.2 265.8c6.3-9.7 17.9-26.8 27.7-41.5 9.9-14.7 18.8-28 25.2-37.7 3.1-4.8 5.7-8.7 7.5-11.4l2-3.2 0.6-0.8q0.2-0.2 0.2-0.2 0 0-0.2 0.3l-0.5 0.8-2 3.1c-1.7 2.7-4.3 6.7-7.4 11.6-6.4 9.7-15.2 23-25.1 37.7-9.8 14.7-21.4 31.8-27.8 41.4"/>
	<path id="Layer" class="s1" d="m157.3 190.2q0.2 0.4 0.3 0.8 0.1 0.7 0.4 2c0.4 1.7 0.8 4 1.2 6.6l1 6.7 0.3 2q0.1 0.4 0.1 0.8-0.1-0.4-0.2-0.8-0.2-0.7-0.4-2c-0.3-1.7-0.8-4-1.2-6.6l-1-6.7-0.4-2q-0.1-0.4-0.1-0.8z"/>
	<path id="Layer" class="s1" d="m161.4 209.2c0-0.1 5.2-1 11.7-2 6.4-0.9 11.6-1.7 11.7-1.6 0 0.1-5.2 1-11.7 2-6.4 1-11.6 1.7-11.7 1.6z"/>
	<path id="Layer" class="s1" d="m144.7 231.1q0.4-0.1 0.8 0l2.3 0.3c1.9 0.2 4.5 0.5 7.4 0.7 2.8 0.2 5.5 0.4 7.4 0.4l2.2 0.1q0.5 0 0.9 0.1-0.4 0.1-0.9 0.1-0.8 0-2.2 0c-1.9 0-4.5-0.1-7.4-0.4-2.9-0.2-5.5-0.5-7.4-0.8-1-0.1-1.7-0.3-2.2-0.4q-0.5 0-0.9-0.1z"/>
	<path id="Layer" class="s1" d="m137 214.7q0.2 0.3 0.4 0.6l0.9 1.8c0.7 1.5 1.7 3.5 2.8 5.8 1.1 2.2 2.1 4.3 2.8 5.8l0.8 1.8q0.1 0.3 0.2 0.6-0.2-0.3-0.3-0.6l-0.9-1.7c-0.8-1.5-1.8-3.6-2.9-5.8-1.1-2.3-2-4.3-2.7-5.8l-0.8-1.8q-0.2-0.3-0.3-0.7z"/>
	<path id="Layer" class="s1" d="m119.5 232.4q0.3 0.3 0.5 0.8l1.1 2.2c1 1.9 2.3 4.5 3.7 7.4 1.5 2.9 2.7 5.5 3.6 7.4l1.1 2.3q0.2 0.4 0.4 0.8-0.3-0.4-0.5-0.8l-1.1-2.2c-1-1.9-2.3-4.5-3.7-7.4-1.5-2.9-2.8-5.5-3.7-7.4l-1-2.3q-0.3-0.4-0.4-0.8z"/>
	<path id="Layer" class="s1" d="m129.8 252.4q0.5 0 1 0.1l2.9 0.2c2.4 0.2 5.7 0.5 9.4 0.7 3.6 0.2 7 0.3 9.4 0.3l2.8 0.1q0.6 0 1.1 0-0.5 0.1-1.1 0.1c-0.7 0-1.6 0-2.8 0-2.4 0-5.8 0-9.4-0.2-3.7-0.2-7-0.5-9.4-0.8-1.2-0.1-2.2-0.2-2.9-0.3q-0.5 0-1-0.2z"/>
	<path id="Layer" class="s1" d="m403.7 227.8q-0.1 0.2-0.2 0.4l-0.5 1.3c-0.6 1.1-1.3 2.7-2.2 4.6l-7.7 16.6-0.1 0.1h-0.1l-24.4 3.7-8.1 1.2-0.4 0.1 0.1-0.3c2-7.3 3.8-14 5.4-19.6l0.1 0.2-14.3-5.9-4-1.7-1-0.4q-0.2-0.1-0.3-0.2l0.3 0.1 1.1 0.4 4 1.6 14.4 5.8h0.2v0.2c-1.6 5.6-3.4 12.3-5.3 19.6l-0.3-0.3 8.2-1.3 24.3-3.6-0.1 0.1 7.9-16.5q1.4-3 2.2-4.6l0.6-1.3q0.1-0.1 0.2-0.3z"/>
	<path id="Layer" class="s1" d="m334 16.8c8.2 0.7 9.1 6.9 25.3 5.6 17-1.5 22.9 8.3 22.9 8.3h-66.1c2.7-8.9 9.6-14.6 17.9-13.9z"/>
	<path id="Layer" class="s1" d="m363.2 253.1l-0.6 1.6 1 1.5-1.8-0.1-1.2 1.4-0.5-1.7-1.7-0.6 1.5-0.9 0.1-1.8 1.4 1.1z"/>
	<path id="Layer" class="s1" d="m346.5 226.9l-0.3 0.8 0.5 0.7-0.9-0.1-0.6 0.7-0.2-0.8-0.9-0.3 0.8-0.5v-0.8l0.7 0.5z"/>
	<path id="Layer" class="s1" d="m393.7 249.7l-0.3 0.8 0.5 0.7h-0.9l-0.6 0.7-0.2-0.9-0.9-0.3 0.8-0.4v-0.9l0.7 0.5z"/>
	<path id="Layer" class="s1" d="m366.5 235.2l-0.3 0.8 0.5 0.7h-0.9l-0.6 0.7-0.2-0.9-0.9-0.3 0.7-0.4 0.1-0.9 0.7 0.5z"/>
	<path id="Layer" class="s1" d="m404.8 227l-0.3 0.8 0.5 0.7h-0.9l-0.6 0.6-0.2-0.8-0.9-0.3 0.8-0.4v-0.9l0.7 0.5z"/>
	<path id="Layer" class="s1" d="m114.4 283.5c6.5 0.6 7.2 5.5 20.1 4.5 13.6-1.2 18.2 6.7 18.2 6.7h-52.6c2.2-7.2 7.7-11.8 14.3-11.2z"/>
	<path id="Layer" class="s2" d="m124.8 91.9c6.6 0.6 7.3 5.5 20.2 4.4 13.5-1.1 18.2 6.7 18.2 6.7h-52.6c2.2-7.1 7.6-11.8 14.2-11.1z"/>
	<path id="Layer" class="s2" d="m351 197.8c5.4 0.5 6 4.6 16.6 3.6 11.1-0.9 14.9 5.6 14.9 5.6h-43.2c1.8-5.9 6.3-9.7 11.7-9.2z"/>
	<path id="Layer" class="s3" d="m81.8 153.1c-0.3 4.6-0.7 9.2-1.9 13.7-1.2 4.4-3.3 8.7-6.9 11.9-3.5 3.1-8.5 5-13.3 4.2-2.5-0.4-5.2-1.9-5.2-4.2q0-0.7-0.2-1.4-0.3-0.4-0.8-0.7-0.5-0.2-1-0.1c-0.8 0.1-1.4 0.4-2.2 0.5-0.9 0.1-1.8-0.1-2.7-0.5-0.8-0.4-1.5-1-2.1-1.7-1-1.5-1.5-3.2-1.4-5 0.1-0.8-0.1-1.7-0.5-2.4-0.9-0.9-2.4-0.7-3.6-0.9-1.1-0.1-2.1-0.4-2.9-1-0.9-0.6-1.6-1.4-2-2.3-0.5-0.9-0.7-1.9-0.6-2.9 0.2-1 0.5-1.9 1.2-2.7 1-1.4 2.6-2.2 3.9-3.3 1.2-1 2.3-2.7 1.7-4.3-0.8-2.2-4.1-2.6-5.3-4.6-0.4-0.7-0.6-1.6-0.5-2.4 0.1-0.8 0.5-1.5 1-2.1 1.2-1.2 2.8-2 4.5-2.3q2.5-0.4 5.1-0.5c5.4-0.6 10.5-2.6 14.7-5.9"/>
	<path id="Layer" class="s4" d="m130 240.7q0.1 1-0.3 1.9-0.5 0.8-1.3 1.4-0.8 0.6-1.8 0.8-1.9 0.3-3.9 0.1c-6.6-0.5-13.4-1.9-19.8-0.6-5.6 1.2-10.3 4.4-15.2 7.1-4.9 2.8-12.9 5.5-18.6 4.8 0.7-4.5 5-10.6 8.3-13.9 6.2-6.2 14.3-10.9 23.3-12.5 8.9-1.5 18.8 0.5 25.9 6 1.1 0.8 2.1 1.8 2.8 3q0.5 0.9 0.6 1.9z"/>
	<g id="Layer" style="opacity: .3">
		<path id="Layer" class="s5" d="m130 240.8q0.1 1.1-0.3 2-0.5 0.8-1.3 1.4-0.8 0.6-1.8 0.8-2 0.3-4 0.1c-6.6-0.6-13.3-2.1-19.7-0.7-5.5 1.2-10.2 4.3-15.1 7.1-4.9 2.7-12.8 5.4-18.5 4.7 0.6-4.6 4.8-10.7 8.1-14.1 6.2-6.2 14.2-10.9 23.2-12.4 8.9-1.5 18.8 0.5 25.9 6.2 1.2 0.8 2.1 1.8 2.8 3q0.6 0.9 0.7 1.9z"/>
	</g>
	<path id="Layer" class="s4" d="m124 298.6l23-16.8 22.9 27.2c-2.8 1.8-20.1-8.2-20.1-8.2l-14.3 11.3z"/>
	<path id="Layer" class="s1" d="m141.4 293.4c-0.1-0.3-0.1-0.7 0-1 0.1-0.3 0.4-0.6 0.7-0.8 0.3-0.1 0.7-0.1 1.1 0 0.3 0.1 0.6 0.4 0.8 0.7 0.1 0.3 0.1 0.7 0 1-0.1 0.4-0.4 0.7-0.8 0.8-0.3 0.1-0.7 0.1-1.1-0.1-0.3-0.1-0.6-0.4-0.7-0.7"/>
	<g id="Layer" style="opacity: .6">
		<path id="Layer" class="s6" d="m170 308.9c-0.8 0.8-2.3 0-2.3 0l-22.8-25.4 2.2-1.8z"/>
	</g>
	<path id="Layer" class="s3" d="m148.9 299.5c-0.2-1.1 0.5-1.9 0.6-1.8 0.2 0.1-0.1 0.8 0 1.8 0.1 1 0.6 1.7 0.4 1.8-0.1 0.1-0.9-0.6-1-1.8z"/>
	<path id="Layer" class="s3" d="m153.1 301.3c0.2-1.1 1.1-1.6 1.2-1.4 0.1 0.1-0.4 0.6-0.6 1.6-0.2 0.9 0.1 1.6-0.1 1.7-0.1 0-0.7-0.8-0.5-1.9z"/>
	<path id="Layer" class="s3" d="m157.7 303.5c-0.4 0.7-0.5 1.4-0.6 1.4-0.2 0-0.4-0.8 0.1-1.7 0.4-0.9 1.3-1.2 1.3-1.1 0.1 0.1-0.4 0.6-0.8 1.4z"/>
	<path id="Layer" class="s3" d="m144.6 302.4c-0.7-0.9-0.6-1.8-0.5-1.8 0.2 0 0.5 0.7 1 1.5 0.6 0.8 1.3 1.3 1.2 1.4 0 0.2-1-0.1-1.7-1.1z"/>
	<path id="Layer" class="s5" d="m134.8 290.8l9.3 14.4-2.1 1.9-10.4-14z"/>
	<path id="Layer" class="s3" d="m132.3 257.4c4 12.1-1.6 24.6-1.6 24.6l-13.2 19.1 13.5-10.2 13.1 19-38.3 32c0 0-12.6 11.7-21.8 12.5-9.2 0.9-11.4-3.2-11.4-3.2 0 0-10.3 2.4-15.5-0.5-5.2-2.9-5.9-13.2-5.5-19.2 0.4-6 16-44.6 17.5-48 1.6-3.5 6-5.8 6-5.8-0.4-5.5 2.9-6.1 2.9-6.1 0 0-0.6-7.7-1.3-9.5-0.7-1.7 0.8-5 0.8-5l-1.6-8.5 8.3-5.8c10.3-8.3 31.3-10.2 32-10.3 0 0 13.1 16 16.1 25z"/>
	<path id="Layer" class="s7" d="m121.5 238.4h-0.5l-1.5 0.2c-1.2 0.2-3 0.4-5.2 0.6-2.3 0.3-4.9 0.7-7.8 1.3q-4.7 1-9 2.9c-6.2 2.8-10.9 6.7-14.2 9.4l-3.9 3.4-1.1 0.9q-0.1 0.2-0.4 0.3 0 0 0.4-0.4l1-0.9c0.9-0.9 2.2-2.1 3.8-3.5 3.3-2.8 8-6.7 14.2-9.5q4.4-2 9.1-3 3.9-0.7 7.8-1.2c2.2-0.2 4.1-0.3 5.3-0.4l1.5-0.1q0.2 0 0.5 0z"/>
	<path id="Layer" class="s7" d="m78.8 249.9q-0.4 0.5-0.5 1.2 0 0.3 0.2 0.7 0.2 0.3 0.5 0.5 0.3 0.2 0.8 0.3 0.4 0 0.9-0.2 0.3-0.2 0.5-0.6 0.2-0.4 0.2-0.8 0-0.3-0.2-0.6-0.2-0.3-0.6-0.5-0.6-0.3-1.3-0.3c0 0 0.1-0.1 0.3-0.1 0.4-0.1 0.8 0 1.2 0.1q0.4 0.2 0.7 0.6 0.3 0.4 0.3 0.8 0.1 0.5-0.1 1-0.3 0.5-0.8 0.8-0.5 0.3-1.1 0.2-0.6 0-1.1-0.4-0.3-0.3-0.5-0.7-0.2-0.4-0.2-0.8 0.1-0.6 0.5-1c0.2-0.2 0.3-0.3 0.3-0.2z"/>
	<path id="Layer" class="s7" d="m86.6 250c0 0.1-0.4-0.1-0.8-0.5-0.7-0.4-1.2-1-1.5-1.7-0.3-0.7-0.4-1.5-0.2-2.3 0.2-0.5 0.3-0.8 0.3-0.8 0.1 0 0.1 0.3 0 0.9q-0.1 1 0.3 2 0.4 1 1.3 1.7c0.4 0.4 0.6 0.7 0.6 0.7z"/>
	<path id="Layer" class="s7" d="m88.2 248.8c0.1 0-0.3-0.1-0.7-0.4q-0.9-0.7-1.4-1.7c-0.4-0.9-0.6-1.9-0.4-2.8 0.1 0 0.2 1.3 0.8 2.6q0.7 1.3 1.7 2.3z"/>
	<path id="Layer" class="s7" d="m110.3 239.8c-0.1 0-0.2-0.4-0.3-0.9q-0.3-1.1-0.8-2.1-0.7-0.9-1.6-1.6c-0.4-0.4-0.7-0.6-0.7-0.7 0 0 0.4 0.1 0.9 0.4 0.7 0.5 1.3 1 1.7 1.7q0.6 1 0.8 2.2 0.1 0.5 0 1z"/>
	<path id="Layer" class="s7" d="m113.1 239.4c-0.1 0-0.2-0.3-0.2-0.9q-0.1-1.1-0.5-2.1-0.6-0.9-1.4-1.7c-0.4-0.5-0.6-0.8-0.5-0.8 0-0.1 0.3 0.2 0.7 0.6q1 0.7 1.5 1.8 0.5 1 0.4 2.2c0 0.5 0 0.9 0 0.9z"/>
	<path id="Layer" class="s7" d="m89.4 330.7q0-0.5 0.2-0.9 0.3-1 1-2.7c0.8-2.2 2-5.5 3.6-9.5 3.1-8.1 7.5-19.2 12.4-31.5l3.6-9q1.7-4.1 2.2-8.6c0.6-5 0.1-10.1-1.4-14.9-1-3.3-2.5-6.5-4.4-9.4-0.7-1-1.3-1.8-1.7-2.3l-0.4-0.6q-0.1-0.1-0.1-0.2 0.1 0 0.1 0.1l0.5 0.6c0.4 0.5 1 1.3 1.7 2.3 5 7.3 7.1 16 6 24.5-0.3 3-1.1 5.9-2.2 8.7q-1.7 4.3-3.5 9l-12.5 31.4-3.8 9.5-1 2.6-0.2 0.7q-0.1 0.1-0.1 0.2z"/>
	<path id="Layer" class="s7" d="m132.5 299.1q-0.2 0.2-0.4 0.3l-1.3 1-4.6 3.5c-3.8 3-9.2 7.1-15 11.7-5.8 4.7-11 8.9-14.7 12l-4.5 3.6-1.2 1q-0.3 0.2-0.5 0.3 0.2-0.2 0.4-0.3l1.2-1.1 4.3-3.7c3.8-3.2 9-7.5 14.8-12.1 5.7-4.6 11.2-8.7 15.1-11.6 1.9-1.5 3.6-2.6 4.7-3.4l1.3-1q0.2-0.1 0.4-0.2z"/>
	<path id="Layer" class="s7" d="m141.4 311.9q-0.3-0.3-0.5-0.7l-1.4-2.1c-1.1-1.7-2.7-4.1-4.6-6.7-1.8-2.6-3.4-4.9-4.6-6.7l-1.4-2q-0.3-0.4-0.4-0.8 0.3 0.3 0.6 0.7 0.5 0.7 1.5 2c1.2 1.7 2.9 4 4.7 6.6 1.8 2.7 3.4 5 4.5 6.8 0.6 0.9 1 1.6 1.2 2.2q0.3 0.3 0.4 0.7z"/>
	<path id="Layer" class="s7" d="m89 330.7c-0.1-0.1 6.2-6.9 14.2-15.3 7.9-8.4 14.4-15.2 14.5-15.1 0.1 0.1-6.3 7-14.2 15.3-8 8.4-14.4 15.2-14.5 15.1z"/>
	<path id="Layer" class="s7" d="m81.7 345.8q0.9-0.9 1.5-2c0.7-1.4 1.5-3.4 2.4-5.5 0.9-2.2 1.6-4.2 2.2-5.7q0.3-1.2 0.9-2.3-0.2 1.2-0.6 2.4c-0.5 1.5-1.2 3.5-2.1 5.7-0.9 2.2-1.7 4.2-2.5 5.6q-0.5 0.8-1.2 1.4-0.2 0.3-0.6 0.4z"/>
	<path id="Layer" class="s7" d="m89.8 347.1c-0.1 0 0.2-1 0.5-2.4q0.6-3 0.5-6 0-3-0.9-5.9-0.3-0.8-0.8-1.6-0.2-0.2-0.4-0.5c0 0 0.2 0.1 0.5 0.4q0.7 0.8 1 1.7c0.7 1.9 1 3.9 1 5.9q0.1 3.1-0.6 6-0.2 0.9-0.5 1.8-0.3 0.6-0.3 0.6z"/>
	<path id="Layer" class="s7" d="m79.1 336.5q0.8-0.4 1.6-0.7 1.9-0.7 3.6-1.7c2.7-1.6 4.3-3.5 4.4-3.4q-0.5 0.7-1.1 1.3-1.4 1.4-3.1 2.4-1.8 1.1-3.8 1.7-0.7 0.3-1.6 0.4z"/>
	<path id="Layer" class="s7" d="m81.7 279.6q-0.1 0.1-0.1 0.2l-0.3 0.5q-0.4 0.6-1.1 1.9-1.8 3.6-2.8 7.5-1.4 5.8-2 11.7c-0.5 4.5-1.1 9.4-2.4 14.4-1.3 5-3.3 9.6-4.4 13.9-1 3.9-1.3 7.8-0.8 11.8q0.4 2.3 1.2 4.4 0.7 1.6 1.7 3.1 0.6 0.9 1.3 1.8 0.2 0.3 0.4 0.5 0 0 0.1 0.1-0.1 0-0.2-0.1l-0.4-0.4q-0.7-0.9-1.4-1.8-1-1.5-1.7-3.1-0.9-2.2-1.3-4.5c-0.5-4-0.3-8 0.7-11.9 1.1-4.4 3-8.9 4.4-13.9 1.4-5 1.8-9.9 2.4-14.3q0.6-6 2.1-11.8 1.1-3.9 3-7.5 0.6-1.2 1.1-1.8l0.3-0.5c0.1-0.1 0.1-0.2 0.2-0.2z"/>
	<path id="Layer" class="s7" d="m80.1 255.3q-0.1 0.5-0.3 1-0.4 1.3-0.4 2.7 0 2.1 0.7 4c0.5 1.5 1.4 3 2.1 4.7q0.5 1.3 0.6 2.7 0.1 1.2 0 2.4-0.3 2.1-0.7 4.1c-0.2 1.2-0.5 2.1-0.6 2.8q-0.1 0.5-0.3 0.9 0-0.5 0.1-1 0.2-1.1 0.5-2.7c0.2-1.1 0.4-2.6 0.6-4.1 0.2-1.7 0-3.4-0.6-4.9-0.7-1.7-1.6-3.2-2-4.8q-0.7-2-0.7-4.1 0.1-1.4 0.5-2.8 0.2-0.3 0.3-0.7c0.1-0.1 0.2-0.2 0.2-0.2z"/>
	<path id="Layer" class="s7" d="m84.6 278.2c0.7-1.1 1.2-2.2 1.5-3.5q0.4-2.1 0-4.1-0.5-2.6-1.4-5-0.9-2.4-1.6-5-0.5-2-0.5-4.2-0.1-1.4 0.3-2.8 0.1-0.4 0.2-0.7 0.1-0.3 0.1-0.3c0 0-0.1 0.4-0.2 1q-0.2 1.4-0.1 2.8 0.1 2.1 0.6 4.2c0.3 1.5 1 3.1 1.6 4.9q0.9 2.4 1.4 5c0.2 1.4 0.2 2.9-0.1 4.3q-0.4 1.4-1.2 2.6-0.2 0.3-0.5 0.6-0.1 0.2-0.1 0.2z"/>
	<path id="Layer" class="s7" d="m104.5 269.6q-0.5 0.2-1 0.3c-0.6 0.2-1.5 0.4-2.7 0.7q-4.3 1.3-8.4 3.2-4.1 1.9-7.8 4.3-1.4 1-2.2 1.6-0.4 0.3-0.8 0.5 0.3-0.3 0.7-0.6c0.5-0.5 1.2-1 2.2-1.7 4.8-3.5 10.4-6 16.3-7.5 1.1-0.3 2-0.5 2.7-0.6q0.5-0.2 1-0.2z"/>
	<path id="Layer" class="s7" d="m104.6 261.1c0 0.1-1.2 0.2-3.1 0.7q-1.6 0.5-3.1 1.1c-2.6 1.1-4.9 2.6-6.8 4.5q-1.2 1.2-2.2 2.5c-1.2 1.4-1.7 2.5-1.8 2.4q0.1-0.4 0.3-0.7 0.6-1 1.2-1.9 1-1.4 2.1-2.6 1.5-1.4 3.3-2.5 1.7-1.2 3.7-2 1.6-0.7 3.2-1 1.2-0.3 2.4-0.4 0.4-0.1 0.8-0.1z"/>
	<path id="Layer" class="s7" d="m108.9 278.4q-0.4 0.3-0.8 0.5-0.9 0.3-2.5 1.1-3.9 1.9-7.7 4.2-3.7 2.3-7.1 5-1.3 1-2 1.6-0.3 0.4-0.7 0.6 0.2-0.4 0.6-0.7 0.7-0.6 2-1.8 3.3-2.8 7-5.1 3.7-2.3 7.8-4.1c1-0.5 1.9-0.8 2.5-1q0.4-0.2 0.9-0.3z"/>
	<path id="Layer" class="s7" d="m132.1 255.3q-0.4-0.1-0.9-0.2-0.8-0.2-2.3-0.5-4.1-0.8-8.3-0.8l0.2-0.2c0.5 3.3 1.1 7.3 1.4 11.5q0.5 6.1 0.1 12.3v-0.1q1.6 3.4 3.7 6.5c0.5 0.7 0.9 1.3 1.2 1.7q0.3 0.3 0.5 0.6-0.3-0.2-0.5-0.5-0.8-0.8-1.4-1.7-2.1-3.1-3.8-6.4v-0.1q0.3-6.2-0.2-12.3c-0.3-4.2-0.9-8.1-1.4-11.4v-0.2h0.2q4.2 0 8.4 0.9 1.5 0.3 2.2 0.5 0.5 0.2 0.9 0.4z"/>
	<path id="Layer" class="s7" d="m133.4 258.6q-0.9-0.1-1.8-0.3c-1.1-0.2-2.6-0.4-4.3-0.6-3.4-0.3-6.2-0.5-6.2-0.6q0.9-0.1 1.9-0.1c1.1 0.1 2.6 0.1 4.3 0.3 3.5 0.4 6.2 1.1 6.1 1.3z"/>
	<path id="Layer" class="s7" d="m127.8 247.3c0 0-1-0.1-2.7-0.3q-3.2-0.4-6.5-0.2-3.3 0.1-6.5 0.6-1.3 0.3-2.6 0.4 0.3-0.1 0.6-0.2 0.7-0.2 2-0.5 3.2-0.6 6.5-0.8 3.3-0.1 6.6 0.4 1.2 0.2 1.9 0.4 0.4 0 0.7 0.2z"/>
	<path id="Layer" class="s7" d="m111.4 252.8q-0.5 0.3-1 0.4c-0.7 0.3-1.7 0.6-3 1-3.3 1-6.7 1.5-10.1 1.7-2.1 0-4.1 0-5.8-0.7-0.8-0.4-1.4-0.9-1.9-1.6-0.5-0.6-0.7-1.3-0.6-2q0-1.5 0.5-3 0.1-0.5 0.4-1c0 0-0.1 0.4-0.3 1.1q-0.3 1.4-0.3 2.9c0 0.6 0.2 1.3 0.6 1.8 0.4 0.6 1.1 1.1 1.8 1.4 1.6 0.7 3.6 0.6 5.6 0.6q5.1-0.2 10.1-1.5c1.3-0.4 2.3-0.7 3-0.9q0.5-0.1 1-0.2z"/>
	<path id="Layer" class="s3" d="m89.7 115.7c0.4-0.8 8.5-2.7 12.7 1.2 3 2.9 7.3 10.7 9.4 14.4 6.4 11.4 7.1 32.2 7.1 32.2-1.6 0.9-6-10.9-7.8-11.2-0.7-0.2-1.5-0.5-2.3-0.2-0.8 0.3-1.2 1.4-1.2 2.3q0.2 1.5 0.1 2.9c-0.4 2.5-3.3 3.5-5.8 3.3-2.4-0.2-4.9-1.1-7.3-0.6-2.1 0.5-3.7 1.9-5.5 2.9-4.6 2.4-7.5 2.5-12.4 0.4-5.7-2.6-11-5.8-15.9-9.7-1.4-1.1-2.6-2.4-3.4-3.9-0.8-1.6-0.7-3.7 0.6-4.8-2.5-0.8-5.7-2.3-5.7-5.1q0.1-1 0.7-2 0.6-0.9 1.6-1.5 1.8-1.1 3.6-2.4c2.4-2.2 3-5.8 3.9-9 1.3-4.8 4.4-8.8 8.7-11.4 4.4-2.7 13.8-5.4 18.9 2.2"/>
	<path id="Layer" class="s8" d="m105.7 123.5l-0.4 3.3-3.7 39-25.4 11.2 0.8-16.5c0 0-8.3-2.2-9-12.5-0.4-5.2 0.7-13.5 1.8-20.3 1.1-6.1 8.7-11.4 15.1-10.1z"/>
	<path id="Layer" class="s3" d="m71.6 135.3c0.8-0.3 1.6-0.4 2.4-0.2 0.7 0.2 1.4 0.6 2 1.2 0.4 0.4 0.6 0.7 0.4 0.8-0.2 0.2-1.1-0.8-2.6-1.2-1.5-0.3-2.7 0.2-2.9-0.1 0-0.1 0.2-0.3 0.7-0.5z"/>
	<path id="Layer" class="s3" d="m85.9 136.8c0.6-0.5 1.3-0.7 2.1-0.8 0.8 0 1.6 0.2 2.3 0.6 0.5 0.3 0.8 0.5 0.7 0.7-0.2 0.2-1.4-0.5-2.9-0.4-1.5 0-2.5 0.8-2.7 0.7-0.1-0.1 0-0.4 0.5-0.8z"/>
	<path id="Layer" class="s3" d="m77.5 143.8q-0.3 0-0.6-0.1-0.2-0.1-0.4-0.2-0.1-0.2-0.2-0.4c-0.1-0.5 0-1 0.3-1.4q0.7-1.3 1.4-2.6c1.9-3.8 3.6-6.7 3.8-6.7 0.2 0.1-1.3 3.2-3.2 6.9l-1.4 2.7q-0.4 0.4-0.4 1c0 0.2 0.4 0.4 0.8 0.4q1.2 0.2 2.4 0.7-1.3 0-2.5-0.3z"/>
	<path id="Layer" class="s9" d="m76.7 160.5c5.3 0.6 10.6-0.1 15.4-2.2 0 0-4.2 6.9-15.5 4.8z"/>
	<path id="Layer" class="s9" d="m79.8 148.7c-0.2-0.1 0.1 0.2 0 0z"/>
	<path id="Layer" class="s9" d="m84.7 148.5q0 0.5-0.3 0.9-0.7 0.5-1.5 0.7-0.8 0.2-1.6 0c-0.8-0.3-0.9-0.8-1.5-1.4q-0.2-0.4-0.2-0.8 0-0.4 0.2-0.8 0.5-0.5 1.3-0.7 0.7-0.2 1.5 0 0.6 0.1 1.1 0.4 0.4 0.3 0.8 0.7 0.3 0.5 0.2 1z"/>
	<path id="Layer" class="s3" d="m84.4 146.5c-0.2 0.9-0.7 1.6-1.5 2.1-0.8 0.5-1.8 0.7-2.7 0.6-0.8-0.1-1.1-0.4-1.1-0.5 0-0.2 1.7 0.2 3.3-0.8 1.5-0.9 1.6-2.5 1.9-2.4 0.1 0 0.2 0.4 0.1 1z"/>
	<path id="Layer" class="s3" d="m88.5 129.5c0.7 0 1.5 0.2 2.2 0.5 0.8 0.4 1.4 0.9 1.8 1.6 0.3 0.5 0.4 0.9 0.2 1-0.3 0.3-1.3-0.5-2.7-1.2-1.3-0.8-2.6-1-2.6-1.4 0-0.2 0.4-0.4 1.1-0.5z"/>
	<path id="Layer" class="s3" d="m71.4 129.6c0.6-0.6 1.3-1 2.1-1.1 0.8-0.2 1.6-0.2 2.4 0 0.6 0.2 0.9 0.5 0.8 0.7-0.2 0.4-1.4 0.4-2.8 0.7-1.3 0.3-2.4 0.9-2.8 0.6-0.1-0.1-0.1-0.5 0.3-0.9z"/>
	<path id="Layer" class="s3" d="m107.7 126c-0.7 5.2-0.8 10.5-0.4 15.8 0.2 2.3 0.5 4.7-0.5 6.8-0.8 1.8-2.2 3.3-4 4.3-1.8 0.9-3.9 1.4-6 1.2 1.4-1.1 2.2-3.2 2.6-4.8q0.3-1.2 0.1-2.5-0.2-1.2-1-2.2c-0.8-1-2-1.7-2.9-2.6-0.7-0.9-1.2-1.9-1.3-3-0.2-1.1 0-2.2 0.6-3.2 0.9-1.6 2.6-3 2.2-4.7-0.5-1.7-2.7-2.3-4.4-2.9-2.1-0.9-3.9-2.3-5.2-4.1-1.3-1.8-2-3.9-2-6.1l2.1-1.5q8.9 2.1 17.5 5.3c0.9 0.3 1.7 0.8 2.3 1.5 0.4 0.9 0.5 1.8 0.3 2.7z"/>
	<path id="Layer" class="s3" d="m88 116.9c-1.2 2-2.7 3.7-4.4 5.2-1.9 1.5-4.4 2.3-6.7 1.7q0.7-0.9 1.4-1.9c-3.6 3-7.8 5.3-12.4 6.6 2.5-3.7 5-7.5 8.7-10.1 3.7-2.7 8.9-3.9 13.1-2.1"/>
	<path id="Layer" class="s3" d="m118.8 164.8c-3.7 0.1-6.8 2.6-8.5 5.7-1.7 3-2.9 6.5-5.5 8.9-2.6 2.4-7.4 3.4-9.9 0.8-2.3-2.3-1.6-5.9-0.3-8.8 1.3-2.8 3.1-5.7 2.6-8.8-0.3-2.1-1.8-4.2-1.5-6.3 0.2-2 1.9-3.5 3.1-5.1 1.1-1.7 1.1-5.5-0.5-6.8l11.1-10.5c5.7 9.5 9 20.1 9.4 30.9z"/>
	<path id="Layer" class="s3" d="m115.5 159.1c-0.1-0.1 0.6-0.7 1.7-1.8q2.4-2.2 4-5 1.1-1.9 1.6-4c0.3-1.6 0.3-3.2 0-4.8-0.4-1.8-1.2-3.4-2.5-4.7-1.3-1.5-2.9-2.8-4.7-3.8-3.8-2.1-8-3-11.7-4.1-3.4-0.8-6.7-2-9.8-3.7-2.2-1.1-4-2.6-5.4-4.5-1-1.3-1.3-2.2-1.2-2.2 0.2 0 0.7 0.7 1.8 1.8 1.6 1.5 3.5 2.8 5.5 3.7 3.1 1.4 6.3 2.4 9.6 3.1 1.9 0.5 3.9 1 6 1.6q3.3 1 6.3 2.6c2 1.1 3.8 2.5 5.3 4.2 1.4 1.7 2.4 3.6 2.8 5.7 0.3 1.8 0.2 3.7-0.3 5.5q-0.6 2.3-1.9 4.3c-1.3 1.9-2.9 3.5-4.8 4.9-1.4 0.9-2.3 1.3-2.3 1.2z"/>
	<path id="Layer" class="s7" d="m111.7 131.6q-0.6-0.1-1.1-0.2-1.1-0.3-3.1-0.8c-3.3-0.8-6.6-2.1-9.6-3.7-3-1.7-5.5-4.2-7.1-7.2q-0.7-1.4-1-2.8-0.1-0.4-0.1-0.8-0.1-0.1-0.1-0.3 0.5 2 1.4 3.8c1.7 2.8 4.1 5.2 7.1 6.9 3 1.7 6.2 3 9.5 3.9l3 0.8q0.6 0.2 1.1 0.4z"/>
	<path id="Layer" class="s7" d="m113.8 143.1c-0.1 0 0.1-0.4 0.1-1.3 0-1.3-0.5-2.5-1.2-3.5-1.1-1.6-2.6-2.9-4.4-3.7-2-1-4.3-1.7-6.7-2.8-2.3-0.9-4.4-2.2-6.3-3.7q-2.3-2-4-4.4-1.1-1.6-1.8-3.4c-0.2-0.4-0.3-0.7-0.4-0.9q-0.1-0.2-0.1-0.4 0.3 0.6 0.6 1.3 0.9 1.7 2 3.3 1.7 2.3 4 4.2c1.8 1.6 3.9 2.8 6.1 3.7 2.4 1 4.8 1.7 6.8 2.8 1.8 0.9 3.3 2.2 4.4 3.9 0.8 1.1 1.2 2.3 1.1 3.6q0 0.5-0.1 1c-0.1 0.2-0.1 0.3-0.1 0.3z"/>
	<path id="Layer" class="s7" d="m43.2 143.6c0 0 0 0 0.1-0.1q0.1-0.2 0.2-0.4 0.5-0.7 1.2-1.1 1.3-0.6 2.7-0.8c1-0.2 2.3-0.4 3.6-0.5q2.2-0.2 4.3-0.9c1.5-0.6 2.9-1.5 4-2.6q1.8-2 2.9-4.4 1.2-2.6 2.1-5.3 0.9-2.7 2.2-5.2c0.9-1.6 2-3 3.4-4.3 2.3-2 5.3-3.3 8.5-3.7 2.1-0.3 4.3-0.2 6.4 0.3l1 0.3 0.6 0.2q0.3 0.1 0.6 0.3-0.3-0.1-0.6-0.2l-0.7-0.2-1-0.2c-2-0.5-4.2-0.6-6.3-0.2-3.1 0.4-6 1.7-8.3 3.7-1.3 1.2-2.4 2.6-3.2 4.2q-1.3 2.5-2.2 5.2-0.9 2.7-2.1 5.3-1.1 2.4-3 4.4c-1.2 1.2-2.6 2.1-4.2 2.7q-2.1 0.6-4.3 0.8c-1.4 0.2-2.6 0.3-3.6 0.5q-1.4 0.1-2.7 0.7-0.7 0.4-1.2 1-0.2 0.3-0.4 0.5z"/>
	<path id="Layer" class="s8" d="m65 159.3l-5.2 20.6c0 0-26.9-23.2-35.4-33.5-8.6-10.3-14-38.1-14.7-41.4l9.7-1.5c2.2 8.6 10.4 19.3 17 30.4 6.6 11 28.6 25.4 28.6 25.4z"/>
	<path id="Layer" class="s8" d="m14.4 89.3l-2.2 2.5c-1.8-0.1-2.3-2-2.3-2l2.6-0.8 0.4-0.4c0 0 0.5 0.3-1.5 0.4-2 0.1-2.7-2.2-2.7-2.2l4.3-0.5z"/>
	<path id="Layer" fill-rule="evenodd" class="s8" d="m26.3 81.9l1 7c0 0-2.2 2.6-3.2 4-0.5 0.7-0.8 1.4-0.8 2.2q-0.1 0.9-0.6 1.6c-1.2 1.5-3.4 5.1-2.8 8.2l-10 0.8c-0.9-3.3 2.3-13.8 2.7-18.1 0.5-4 1.7-3.8 1.7-3.8 2.2-0.5 1.9 1.9 1.9 1.9l1.8-0.1q0.5 0 0.9 0.2 0.4 0.3 0.6 0.8l1.7 4.3 3.4-3.5c0 0 0.1 0.2 0-2.9 0-2.9 1.7-2.6 1.7-2.6zm-8.8 9.1l-1.7 0.3v2l1.9-1.1z"/>
	<path id="Layer" class="s9" d="m15.7 93.6q-0.1-0.4 0-0.8 0-0.8 0.1-2.3l0.2-3.3q0.1-1 0-2c-0.1-0.6-0.4-1.3-1.1-1.3-0.7 0.1-1.2 0.6-1.5 1.2q-0.1 0.4-0.2 0.9l-0.2 1-0.6 3.3c-0.2 0.9-0.4 1.7-0.5 2.2q-0.1 0.4-0.3 0.8 0-0.4 0.2-0.8c0.1-0.5 0.2-1.3 0.3-2.2 0.2-1 0.3-2.1 0.5-3.4q0.1-0.4 0.2-0.9 0.1-0.5 0.3-1 0.2-0.6 0.6-1 0.2-0.2 0.6-0.3 0.3-0.1 0.6-0.1 0.3 0 0.6 0.1 0.4 0.2 0.6 0.4 0.3 0.5 0.4 1.1 0 1-0.1 2l-0.3 3.4c-0.1 0.9-0.2 1.7-0.3 2.2q0 0.4-0.1 0.8z"/>
	<path id="Layer" class="s9" d="m17.6 92.3q-0.3-1.1-0.5-2.3c0-0.3-0.1-0.5-0.2-0.8q0-0.3-0.2-0.5c-0.3-0.2-0.7-0.2-0.7-0.2 0-0.1 0.1-0.1 0.2-0.1q0.3-0.1 0.6 0 0.2 0.1 0.3 0.3 0.2 0.2 0.2 0.4 0.2 0.5 0.3 0.9c0.2 0.8 0.2 1.5 0 2.3z"/>
	<path id="Layer" class="s9" d="m22.2 90c0 0-0.2 0.4-0.7 0.9q-0.9 1-2.1 1.7-1.2 0.7-2.6 0.9-0.6 0.2-1.2 0.1 0.5-0.2 1.1-0.3 1.3-0.4 2.5-1 1.1-0.7 2.1-1.6c0.5-0.5 0.9-0.8 0.9-0.7z"/>
	<path id="Layer" class="s8" d="m113.2 167.1c0 0 11.1-1.6 17.4-4.2 6.4-2.6 31.1-11.3 31.1-11.3l39.9-11.1 2.3 9.9c0 0-36.4 14.8-43.5 18.1-7 3.2-39.1 18-45.7 17.4l-5.1-7.3z"/>
	<path id="Layer" class="s8" d="m219.6 129c-1.1 1.1-5.9 5.7-5.9 5.7l0.3 1c0 0 3.5-0.7 4.1 0q0.5 0.4 0.6 1 0.1 0.5-0.2 1.1c-0.4 0.6-1 1-1.8 1.2 0 0 1.7 1.5-0.6 3.1q0.2 0.7 0.1 1.4-0.2 0.6-0.7 1.2-0.4 0.5-1.1 0.6l-3.8 0.7c0 0-1.7 2.7-3 3.5-1.1 0.5-2.2 0.8-3.4 0.8l-3.1-9.1 2.3-2.7q2.2-3.5 4.9-6.5 1.8-1.8 3.3-3.7l4.2-2.6c0.3 0.4 0.6 0.8 0.6 1.3 0.1 0.4 0 0.9-0.3 1.3 0 0 3.1-1.8 3.8-1.7 0.6 0 0.8 1.4-0.3 2.4z"/>
	<path id="Layer" class="s9" d="m216.2 128.2q-0.4 1.1-1.4 2-0.9 1-1.7 2.1c-0.5 0.9-0.9 1.9-1 2.9q-0.2 1.7-0.7 3.2-0.5 1.3-1.4 2.4-0.5 0.7-1.2 1.4-0.2 0.2-0.5 0.4c-0.1-0.1 0.6-0.7 1.5-2q0.7-1.1 1.2-2.3 0.5-1.5 0.7-3.1c0.1-1.1 0.5-2.2 1.1-3.1q0.8-1.1 1.8-2 0.9-0.9 1.6-1.9z"/>
	<path id="Layer" class="s9" d="m216.2 142q-0.8 0.7-1.7 1-1 0.5-2.1 0.7-0.6 0.1-1.3 0.1-0.8 0.1-1.5-0.3-0.3-0.1-0.5-0.5-0.3-0.3-0.3-0.7c0-0.4 0.2-0.8 0.5-1.2q0.4-0.4 1-0.7 0.5-0.2 1-0.3 0.9-0.4 1.9-0.4c0 0-0.7 0.2-1.8 0.7l-0.9 0.3q-0.5 0.3-0.9 0.7-0.3 0.4-0.4 0.9 0 0.3 0.2 0.5 0.2 0.3 0.5 0.4c0.8 0.3 1.6 0.3 2.4 0.1q1.1-0.2 2.1-0.5c1.1-0.5 1.8-0.8 1.8-0.8z"/>
	<path id="Layer" class="s9" d="m216.9 139q-0.6 0.4-1.4 0.5-0.7 0.2-1.5 0.3-0.5 0.1-1.1 0-0.5-0.1-0.9-0.4-0.4-0.4-0.5-1-0.1-0.5 0.1-1c0.2-0.4 0.6-0.9 1.1-1.1q0.6-0.5 1.3-0.6c0 0.1-0.5 0.3-1.1 0.8q-0.6 0.4-0.9 1.1-0.2 0.3-0.1 0.7 0.1 0.4 0.4 0.8 0.3 0.2 0.8 0.3 0.4 0.1 0.8 0 0.8 0 1.6-0.1 0.7-0.2 1.4-0.3z"/>
	<path id="Layer" class="s9" d="m215 145q-0.5 0.3-1.1 0.5-1.4 0.5-2.8 0.6-0.3 0.1-0.5 0-0.3 0-0.5-0.2-0.3-0.3-0.3-0.7-0.1-0.4 0.1-0.7 0.1-0.3 0.4-0.6c0.6-0.5 1.2-0.3 1.2-0.2q-0.6 0.1-1 0.4-0.2 0.2-0.3 0.5-0.1 0.3 0 0.5 0 0.3 0.2 0.5 0.1 0.1 0.3 0.2 0.2 0 0.3 0 1.4-0.2 2.8-0.5 0.6-0.3 1.2-0.3z"/>
	<path id="Layer" class="s10" d="m98.8 202.4q-0.3 0.3-0.7 0.5-1.1 0.6-2.2 1c-2.5 1-5.2 1.5-7.9 1.3-2.7-0.2-5.4-0.9-7.7-2.3q-1.1-0.6-2-1.3-0.4-0.3-0.7-0.7c0.1 0 1 0.8 2.8 1.8 2.3 1.2 4.9 2 7.6 2.1 2.7 0.2 5.3-0.2 7.8-1.1 1.9-0.7 2.9-1.4 3-1.3z"/>
	<path id="Layer" class="s4" d="m75.9 175.9c0 0 24.7-10.7 25.7-11 0.9-0.4 24-1.1 24-1.1 0 0 1.2 14.4 7.6 18.3l-16 7.6-3.2 14.3c0 0-2.1 6 1 10.9 5.9 9.5 16 24.3 15.1 26.2-0.1 0.2-1.6-5.3-13-7-3.5-0.5-9.5 0.1-14.8 1.8-22.8 7.1-30.3 18.3-32.7 20.4 0 0-0.5-36.3-3.6-41.6-3.1-5.3-6.1-8.7-4.9-13.8 1.1-5.2 2.7-13.5 2.7-13.5l-10.7-8.8 9.9-21.7 13.2 7.9z"/>
	<path id="Layer" class="s3" d="m89.3 208.2q-0.4 0.1-0.8 0.1-1.3 0.1-2.5 0c-2.7-0.3-5.4-1.2-7.6-2.7-2.2-1.5-4-3.6-5-6.1q-0.4-1.1-0.6-2.2-0.1-0.5-0.1-0.9 0.4 1.5 1 3c1.1 2.3 2.8 4.3 4.9 5.8 2.2 1.5 4.8 2.4 7.4 2.8 2.1 0.3 3.3 0.2 3.3 0.2z"/>
	<path id="Layer" class="s3" d="m60.6 181c1.1 1.1 1.9 2.5 2.3 4 0.6 1.5 0.6 3.1 0.3 4.5q-0.1-2.2-0.7-4.4-0.7-2.1-1.9-4.1z"/>
	<path id="Layer" class="s3" d="m116.6 178.6c0 0-0.5 0.4-1.1 1.2-0.9 1.1-1.6 2.3-2 3.5-0.4 1.3-0.5 2.6-0.3 4 0.1 1 0.3 1.6 0.2 1.6q-0.4-0.7-0.5-1.6c-0.3-1.4-0.2-2.8 0.2-4.1 0.4-1.3 1.1-2.6 2.1-3.6q0.6-0.7 1.4-1z"/>
	<g id="Layer" style="opacity: .3">
		<path id="Layer" class="s5" d="m94 208.1c-1.6 1-3.4 1.7-5.4 2-1.9 0.3-3.9 0.1-5.8-0.5-3.7-1.2-8-5.2-7.8-7.7 0.9 1.3 2.1 2.4 3.4 3.4 2 1.6 4.5 2.6 7 2.8q4.3 0.4 8.6 0z"/>
	</g>
	<path id="Layer" class="s11" d="m119.7 221.8c0 0-0.7-0.4-2.2-0.8-2-0.6-4.1-0.7-6.2-0.5-3.1 0.3-6.1 1.3-8.8 2.8q-4.9 2.8-9.1 6.5c-5.2 4.4-10.8 8.3-16.8 11.6-2.3 1.3-4.2 2.2-5.6 2.8q-1 0.5-1.6 0.7-0.2 0.2-0.5 0.2 0.2-0.1 0.5-0.2l1.5-0.8c1.3-0.7 3.2-1.7 5.5-3 6-3.4 11.5-7.3 16.7-11.7q4.2-3.7 9.2-6.5c2.7-1.5 5.8-2.4 9-2.7 2.1-0.2 4.3 0 6.3 0.6q1.1 0.4 2.1 1z"/>
	<path id="Layer" class="s11" d="m113.3 209.7q-0.8-0.5-1.7-1c-1.7-0.7-3.5-1-5.4-0.9-2.7 0.2-5.3 0.9-7.6 2.2q-4.2 2.4-8.2 5.2-4 2.8-8.3 5.2-3.6 1.8-7.5 2.8-2.7 0.7-5.5 0.8-0.7 0-1.5-0.1-0.3 0-0.5-0.1c0 0 0.7 0 2 0q2.7-0.1 5.4-0.8 3.9-1.1 7.4-3 4.3-2.3 8.3-5.1 4-2.8 8.2-5.2c2.4-1.3 5.1-2 7.8-2.2 1.9-0.1 3.8 0.3 5.4 1.1q1 0.4 1.7 1.1z"/>
	<path id="Layer" class="s11" d="m77.1 204.2c0 0-0.2 0.2-0.5 0.5q-0.3 0.2-0.6 0.5-0.4 0.3-0.9 0.5-1.1 0.7-2.4 1.2-1.6 0.6-3.3 0.8-1.7 0.2-3.5 0.1-1.4-0.1-2.7-0.5-0.5-0.2-1-0.4-0.4-0.1-0.8-0.3-0.6-0.3-0.6-0.3c0.1 0 0.9 0.3 2.5 0.7q1.3 0.3 2.7 0.4 1.6 0.1 3.3-0.1 1.7-0.2 3.2-0.8 1.3-0.4 2.5-1c1.3-0.8 2-1.4 2.1-1.3z"/>
	<path id="Layer" class="s11" d="m115.7 197.7q-0.1 0.2-0.3 0.3-0.4 0.4-0.9 0.7c-1.3 0.9-2.7 1.4-4.2 1.7-2.2 0.5-4.5 0.5-6.7 0.2-2.6-0.3-5.3-0.9-8.2-1.3-4.9-0.7-9.9-0.5-14.7 0.8q-2.2 0.5-4.3 1.3c-0.9 0.4-1.5 0.7-1.5 0.6q0 0 0.4-0.2 0.3-0.2 1.1-0.5 2-0.9 4.2-1.5c4.8-1.4 9.9-1.7 14.9-0.9 2.9 0.4 5.6 1 8.1 1.3 2.2 0.4 4.5 0.3 6.6 0 1.5-0.3 2.9-0.8 4.2-1.6 0.8-0.5 1.3-1 1.3-0.9z"/>
	<path id="Layer" class="s11" d="m113.4 186.4q-0.3 0.1-0.5 0.1c-0.4 0-0.8 0.2-1.5 0.3q-2.8 0.4-5.7 0.3c-2.4-0.1-5.2-0.5-8.4-0.9q-5-0.8-10.2-0.8-1.3 0-2.6 0.2-0.7 0.1-1.3 0.2l-1.3 0.3q-2.3 0.6-4.5 1.7c-2.8 1.3-5.2 2.8-7.4 3.8q-2.5 1.2-5.3 1.8-0.7 0.1-1.5 0.1-0.3 0.1-0.6 0 0.3 0 0.6 0 0.7-0.1 1.5-0.3 2.7-0.6 5.2-1.9c2.1-1 4.5-2.5 7.3-3.9q2.2-1.1 4.6-1.7l1.3-0.3q0.6-0.1 1.3-0.2 1.3-0.1 2.7-0.2 5.2 0 10.3 0.9c3.1 0.4 5.9 0.8 8.3 1q2.9 0.1 5.7-0.2l1.5-0.2q0.2-0.1 0.5-0.1z"/>
	<path id="Layer" class="s11" d="m118.7 164.6c0 0.1-0.6 1.3-1.1 3.4-0.6 2.8-0.5 5.7 0.4 8.4 1 2.7 2.6 5.2 4.8 7.1 1.7 1.6 3 2.2 2.9 2.3q-0.5-0.2-0.9-0.5-1.2-0.7-2.2-1.6c-2.3-1.9-4-4.4-5-7.2-0.9-2.8-1-5.7-0.3-8.5q0.3-1.3 0.9-2.5 0.2-0.4 0.5-0.9z"/>
	<path id="Layer" class="s11" d="m75.4 172.5q-0.3 0.2-0.7 0.2-0.9 0.3-2 0.5-1.5 0.2-3 0.1c-1.3-0.1-2.6-0.6-3.6-1.4-1.1-0.8-1.9-1.7-2.8-2.4q-1.1-0.9-2.5-1.5c-0.8-0.4-1.8-0.5-2.7-0.5q0.4-0.1 0.8-0.1 1-0.1 2 0.3 1.5 0.6 2.7 1.6c0.9 0.6 1.7 1.5 2.8 2.3 0.9 0.7 2.1 1.2 3.3 1.3q1.5 0.2 3 0c1.7-0.3 2.7-0.5 2.7-0.4z"/>
	<path id="Layer" class="s10" d="m255.5 143.4c-0.4-2.1-0.2-4.3 0.7-6.3 0.9-1.8 2.3-3.4 4-4.5 1.8-1.2 3.8-1.8 6-1.9l6.5-0.4 12 15.8-25.3 3.5z"/>
	<path id="Layer" class="s12" d="m255.5 143.4c-0.4-2.1-0.2-4.3 0.7-6.3 0.9-1.8 2.3-3.4 4-4.5 1.8-1.2 3.8-1.8 6-1.9l6.5-0.4 12 15.8-25.3 3.5z"/>
	<path id="Layer" class="s8" d="m341.7 120.9l16-8.5 20.8 54.9c0 0 6.9 4.5 8.7 6 3.8 3.1 3.5 3.4 3 3.7-1.2 0.9-6.8-5.2-6.4-3.2 0.3 1.9 7.7 6.7 6.4 7.6-1.8 1.2-7.5-5.3-8-5.8-0.5-0.5-1.3 0.2-0.9 0.6 0.8 0.6 8.2 7.5 6.5 8.7-1 0.6-2.1-1-2.1-1 0 0-6.4-7-7.1-6.4-0.8 0.6 2.8 4.8 4.1 6.1 1.3 1.3 1.2 2.4 0.1 2.5-0.8 0-5-3.9-6.2-5.3-1.3-1.3-4.7-5-4.7-1.9 0 3.1-1.2 5.5-2 5.9-0.8 0.5-1.8-0.4-1.4-1.3q0.6-1.5 0.6-3.1 0.1-1.3-0.2-2.5-0.5-1.4-0.9-2.4z"/>
	<path id="Layer" class="s8" d="m293.4 72.2l-22.2 17.7c0 0-38.5-2.4-40.2-4.1-1.8-1.8-19.3-35.8-19.3-35.8-3.1-0.1-5.5 1.7-8.6 1.6-1.2-0.1-2.4-0.5-3.3-1.1l-6.2-3.2q-0.6-0.3-1-0.7c-0.6-0.9 0.3-2.2 1.5-2.4 1.1 0 2.3 0.3 3.2 0.9 0 0-3.1-2.6-1.9-3.5 1.2-1 5.3 2.4 5.3 2.4 0 0-4.6-4.4-2-4.4 2.5 0 7.4 4.9 7.4 4.9 0 0 3.1-0.9 5.2-1.5-1.7-1.3-3.1-2.9-4-4.8q-0.2-0.3-0.2-0.6 0-0.4 0.1-0.7c0.4-0.5 1.3-0.5 1.8-0.1 0.6 0.4 0.9 1 1.4 1.4 1.2 0.9 2.9 0.7 4.3 1 1.2 0.3 2.3 0.9 3.2 1.6 1 0.7 1.8 1.6 2.3 2.6q0.7 1.3 1.1 2.6l23.2 25.6z"/>
	<path id="Layer" class="s10" d="m314.1 257l23.7 9.5-12.6 27.4c-2.8-1.3-1.9-17.7-1.9-17.7l-15.4-5.5z"/>
	<g id="Layer" style="opacity: .6">
		<path id="Layer" class="s6" d="m325.9 267.2q0.4-0.3 0.9-0.4c0.3 0 0.6 0.1 0.9 0.2 0.2 0.2 0.4 0.5 0.4 0.8q0.1 0.4-0.2 0.8c-0.2 0.2-0.5 0.4-0.8 0.4-0.4 0.1-0.7 0-1-0.2-0.3-0.2-0.4-0.5-0.4-0.8 0-0.3 0.1-0.6 0.3-0.8"/>
	</g>
	<path id="Layer" class="s6" d="m325.2 293.9c-1-0.3-1-1.7-1-1.7l11.2-26.5 2.4 0.8z"/>
	<path id="Layer" class="s3" d="m323.9 275.1c0.9-0.6 1.9-0.4 1.9-0.3 0 0.1-0.8 0.3-1.6 0.7-0.7 0.5-1.1 1.1-1.3 1.1-0.1 0 0.1-0.9 1-1.5z"/>
	<path id="Layer" class="s3" d="m324.2 278.9c1-0.3 1.8 0.1 1.7 0.2 0 0.2-0.7 0-1.6 0.2-0.8 0.3-1.3 0.7-1.4 0.6-0.1 0 0.3-0.8 1.3-1z"/>
	<path id="Layer" class="s3" d="m324.4 283c-0.8 0-1.4 0.2-1.5 0.1-0.1-0.1 0.5-0.6 1.4-0.6 1 0 1.6 0.4 1.5 0.6 0 0.1-0.6-0.1-1.4-0.1z"/>
	<path id="Layer" class="s3" d="m319.7 273.3c0.5-0.9 1.3-1.2 1.4-1.1 0.1 0.1-0.5 0.6-0.9 1.3-0.4 0.8-0.5 1.5-0.6 1.5-0.2 0-0.3-0.8 0.1-1.7z"/>
	<path id="Layer" class="s3" d="m316.6 271.5q0.1-0.8 0.1-1.5 0-0.5-0.1-1-0.1-0.2-0.1-0.4c-0.1-0.1 0-0.1-0.2-0.1-0.2 0.1-0.3 0.3-0.3 0.6q-0.1 0.5-0.1 1 0 0.7 0.1 1.5c0.3 0.8 0.5 1.3 0.5 1.3 0 0.1-0.5-0.3-0.8-1.2-0.3-0.9-0.4-1.8-0.2-2.6q0-0.3 0.1-0.6 0.1-0.1 0.2-0.3 0.2-0.1 0.4-0.1 0.2-0.1 0.5 0 0.1 0.2 0.2 0.3 0.2 0.3 0.2 0.6 0.1 0.5 0.1 0.9 0 0.8-0.2 1.6c-0.2 0.9-0.6 1.4-0.6 1.4q0-0.7 0.2-1.4z"/>
	<path id="Layer" class="s3" d="m315.3 272.2q-0.7-0.2-1.6-0.3-0.5 0-1 0-0.2 0-0.3 0.1-0.2 0.1-0.4 0.2c0 0.1 0.2 0.3 0.5 0.5q0.3 0.2 0.8 0.3 0.8 0.3 1.6 0.2 0.7-0.2 1.5-0.4c0 0-0.4 0.5-1.4 0.7-0.6 0.1-1.3 0.1-1.8 0q-0.6-0.1-1-0.4-0.3-0.1-0.5-0.3-0.2-0.2-0.2-0.4-0.1-0.2 0-0.4 0.2-0.3 0.5-0.4 0.3-0.2 0.7-0.2 0.5 0 1 0 0.9 0.1 1.7 0.5c0.9 0.4 1.3 0.9 1.3 0.9-0.1 0.1-0.6-0.3-1.4-0.6z"/>
	<path id="Layer" class="s10" d="m311.9 289.8c0 0 7.9 19 8.9 20.6 0.8 1.4-5.8 16.6-7.6 20.7q-0.2 0.5-0.6 0.8-0.4 0.3-1 0.5-0.5 0.1-0.9 0-0.5-0.1-0.9-0.3-0.4-0.3-0.7-0.7-0.2-0.3-0.3-0.8l-3.1-17.1-9.8-19z"/>
	<path id="Layer" class="s6" d="m311.6 332.3l8.5-23.2 0.4 0.8c0.4 0.7 0.4 1.5 0.2 2.2-0.6 2-2.5 7.4-7.4 18.9q-0.2 0.5-0.7 0.9-0.4 0.3-1 0.4z"/>
	<g id="Layer" style="opacity: .6">
		<path id="Layer" class="s6" d="m312.8 304.8c0.2-0.3 0.5-0.6 0.8-0.7q0.6-0.1 1.1 0.1c0.3 0.2 0.5 0.5 0.5 0.8 0.1 0.3 0.1 0.7-0.1 1-0.2 0.3-0.5 0.4-0.8 0.5-0.4 0.1-0.7 0-1-0.2q-0.5-0.2-0.6-0.7-0.1-0.5 0.2-0.9"/>
	</g>
	<path id="Layer" class="s3" d="m312.3 322c-0.8-0.5-1.7-0.7-2.6-0.8-0.9 0-1.8 0.2-2.6 0.6 0 0 0.2-0.3 0.6-0.6 0.6-0.3 1.3-0.5 2-0.4 0.8 0 1.4 0.2 2 0.6 0.4 0.3 0.6 0.5 0.6 0.6z"/>
	<path id="Layer" class="s3" d="m312.1 325.1q-1.1 0-2.2 0-1.1 0.2-2.2 0.6c-0.1-0.1 0.7-0.9 2.1-1.1q0.6-0.1 1.2 0 0.6 0.2 1.1 0.5z"/>
	<path id="Layer" class="s3" d="m313.4 317.5q-1.7-0.2-3.4-0.3-1.7 0.2-3.4 0.6c1-0.6 2.1-1 3.4-1 1.2-0.1 2.4 0.2 3.4 0.7z"/>
	<path id="Layer" class="s3" d="m311 311.5c0 0.2-1.4 0.2-2.9 0.8-1.5 0.6-2.5 1.4-2.6 1.3 0.5-0.9 1.4-1.5 2.4-1.8 1-0.4 2-0.5 3.1-0.3z"/>
	<path id="Layer" class="s3" d="m308.2 305.9q-1.5 0.2-3 0.7-1.3 0.7-2.4 1.8c-0.1 0 0-0.4 0.4-0.8 0.5-0.6 1.1-1.1 1.8-1.4q1.1-0.5 2.3-0.5c0.6 0 1 0.1 0.9 0.2z"/>
	<path id="Layer" class="s3" d="m304.7 305.5q-0.2-0.3-0.3-0.7-0.4-1-0.3-2.2c0-0.5 0.1-1 0.5-1.5q0.2-0.1 0.4-0.2 0.3-0.1 0.6 0c0.3 0.2 0.6 0.4 0.7 0.8 0.3 0.6 0.3 1.3 0.1 2-0.3 0.7-0.8 1.2-1.4 1.6-0.7 0.4-1.5 0.5-2.2 0.5-0.8-0.1-1.5-0.3-2.1-0.7q-0.2-0.2-0.3-0.5-0.2-0.2-0.2-0.5 0-0.2 0.2-0.5 0.2-0.2 0.5-0.2 0.8-0.2 1.7 0 1.1 0.3 2.1 1c0.5 0.3 0.7 0.5 0.6 0.5q-1.3-0.8-2.8-1.1-0.7-0.2-1.5-0.1-0.1 0.1-0.2 0.2-0.2 0.1-0.2 0.3 0.1 0.1 0.2 0.3 0.1 0.1 0.2 0.2c0.5 0.4 1.2 0.6 1.8 0.6 0.7 0.1 1.3-0.1 1.9-0.4 0.6-0.3 1-0.8 1.2-1.3 0.3-0.6 0.3-1.2 0.1-1.8q-0.2-0.4-0.5-0.5-0.2-0.1-0.4-0.1-0.1 0.1-0.2 0.2c-0.3 0.3-0.5 0.8-0.5 1.2q-0.1 1.5 0.3 2.9z"/>
	<path id="Layer" fill-rule="evenodd" class="s3" d="m317.3 279.6l-7.8-4.2 7.5 23.8-23.3 10c0 0-15.4-27.9-20.4-49q-0.5-2.4-0.8-4.8c-14.7-8.1-38-22.7-38.5-28.5-1.4-18.5 5-27.6 14.2-53 4.3-12 14.1-30.7 14.1-30.7l23.2 5 25.4 13.7-8.8 80.7 26.8 16.7zm-46.1-72.3c-0.6 4.1-0.1 8.2 1.4 12.1 0.4-8.2 1-16.8 1.7-25l-3.1 12.9z"/>
	<path id="Layer" class="s7" d="m293.7 309.2q-0.1-0.1-0.2-0.3l-0.5-1-1.7-4c-1.6-3.4-3.8-8.3-6.5-14.5-2.6-6.2-5.8-13.5-9-21.8q-1.2-3.1-2.3-6.4c-0.4-1.1-0.8-2.2-1-3.4q-0.1-0.4-0.2-0.9l-0.1-0.8-0.2-1.8q-0.4-3.6-0.7-7.3-0.1-1.8-0.2-3.7c0-1.2-0.1-2.5 0-3.8 0.4-10.1 1.4-19.7 2.1-28.5 0.8-8.7 1.5-16.6 2.1-23.2 0.6-6.7 1-12 1.2-15.7q0.2-2.8 0.3-4.3v-1.1q0-0.2 0-0.4 0.1 0.2 0 0.4 0 0.4 0 1.1 0 1.5-0.1 4.3c-0.2 3.7-0.5 9.1-1.1 15.7-0.5 6.6-1.2 14.5-2 23.2-0.7 8.8-1.6 18.4-2 28.5-0.1 1.3 0 2.5 0 3.8 0 1.2 0.1 2.5 0.2 3.7q0.3 3.7 0.7 7.2l0.2 1.8 0.1 0.9q0.1 0.4 0.2 0.8c0.2 1.2 0.6 2.3 0.9 3.4q1.1 3.3 2.3 6.4c3.1 8.2 6.3 15.6 8.9 21.8 2.6 6.2 4.8 11.1 6.3 14.6q1.1 2.5 1.7 3.9 0.3 0.7 0.4 1.1c0.1 0.2 0.2 0.3 0.2 0.3z"/>
	<path id="Layer" class="s7" d="m275.8 163.6c0 0-0.3-0.1-0.6-0.5q-0.8-0.7-1.2-1.6c-0.8-2.1-1.2-4.3-1.1-6.4q-0.1-3.3 0.3-6.5 0.1-1.4 0.4-2.7 0.1 1.3 0 2.7c-0.1 1.6-0.2 3.9-0.2 6.4 0 2.1 0.3 4.3 1 6.3q0.4 0.9 1 1.7c0.2 0.4 0.4 0.6 0.4 0.6z"/>
	<path id="Layer" class="s7" d="m265.7 144.4q0.4 1.1 0.2 2.3c-0.1 1.8-0.8 3.6-1.9 5.1-1.1 1.6-2.7 2.8-4.5 3.6q-1.1 0.5-2.3 0.6c0 0 0.8-0.3 2.2-0.9 1.7-0.8 3.1-2 4.2-3.5 1.1-1.5 1.8-3.2 2-5 0.2-1.3 0-2.2 0.1-2.2z"/>
	<path id="Layer" class="s7" d="m307.5 191.3q0 0 0 0.3c0 0.1 0 0.4-0.1 0.7q-0.1 1-0.3 2.8c-0.3 2.4-0.7 5.8-1.2 10.1-1 8.6-2.5 20.3-4.1 33.4-0.6 6.1-0.1 12.3 1.3 18.3q1 3.9 2.4 7.7 1.4 3.6 2.6 6.6c1.5 4.1 2.7 7.4 3.6 9.7q0.6 1.6 1 2.6l0.2 0.7q0.1 0.1 0.1 0.2c0 0 0-0.1-0.1-0.2-0.1-0.2-0.2-0.4-0.3-0.7q-0.4-0.9-1-2.6l-3.8-9.5q-1.2-3.1-2.6-6.7-1.5-3.8-2.4-7.7c-1.5-6.1-2-12.3-1.4-18.5 1.6-13 3.1-24.8 4.2-33.4 0.6-4.2 1-7.6 1.4-10.1q0.2-1.7 0.4-2.7c0-0.3 0.1-0.6 0.1-0.8q0-0.1 0-0.2z"/>
	<path id="Layer" class="s8" d="m262.3 143l4.1-9.7 9.4 13-12.6-2.9"/>
	<path id="Layer" class="s10" d="m352.9 115.8c-4.2 1.5-12.8 10.8-12.8 10.8l-6.6-15c0 0-17.3 37-18 38.7-2.3 5.3-1.5 15.3-4.4 18.1 0 0-24.9-6.9-32.6-17.5-6.5-9-13.2-18.5-19.3-14.9-5.9 3.4 0.1 13 0.1 13 0 0-15.4-15.5 6.3-22.2l18.5-39c0 0 11.1-25.9 31.5-18.2l27.9 14.6c2.1 2.2 4.6 2.7 5.9 6.5l11.2 23.1q-4 0.7-7.7 2z"/>
	<path id="Layer" class="s3" d="m311.1 130.2q-0.4 0.3-0.9 0.6-1.2 0.6-2.5 1.1c-2.9 1-6.1 1.3-9.2 0.9-3.1-0.5-6-1.7-8.5-3.4q-1.1-0.8-2-1.8-0.4-0.3-0.6-0.8c0 0 1 1 2.9 2.3 2.4 1.7 5.3 2.8 8.3 3.2 3 0.4 6.1 0.2 9-0.7 2.2-0.7 3.5-1.5 3.5-1.4z"/>
	<path id="Layer" class="s10" d="m264.6 70.2l28.8-2.7 16.3 0.6-27.6 26.9-17.3-1.5c1.4-7.7 1.3-15.6-0.2-23.3z"/>
	<path id="Layer" class="s3" d="m288.7 79.3q0 0.3-0.2 0.5l-0.7 1.4c-0.6 1.3-1.5 3-2.5 5.1-2.2 4.2-5 10.2-8.1 16.8-3 6.6-5.9 12.6-8 16.8-1.1 2.2-1.9 3.9-2.6 5.1l-0.7 1.4q-0.1 0.2-0.3 0.4 0.1-0.2 0.2-0.5l0.7-1.4 2.4-5.1c2-4.4 4.8-10.3 7.8-16.9 3.1-6.6 6.1-12.5 8.3-16.8 1.1-2.1 2-3.8 2.7-5q0.4-0.8 0.7-1.3 0.2-0.3 0.3-0.5z"/>
	<path id="Layer" class="s3" d="m341.4 87.2c0 0.1-1 0.6-2.5 1.7q-1.3 1-2.3 2.2-1.3 1.5-2.2 3.3-0.9 1.7-1.4 3.5-0.4 1.5-0.4 3.1c-0.1 1.8 0.1 2.9 0 2.9q-0.2-0.4-0.2-0.8-0.1-0.4-0.1-0.9-0.1-0.6-0.1-1.2 0-1.6 0.3-3.2 0.5-1.9 1.4-3.7 1-1.8 2.3-3.3 1.1-1.2 2.5-2.2 0.5-0.4 1-0.7 0.4-0.3 0.9-0.5 0.3-0.2 0.8-0.2z"/>
	<path id="Layer" class="s8" d="m346.2 50.1l-16.2 28c-1.3 2.2-3.4 3.9-6 4.7-2.5 0.8-5.3 0.7-7.8-0.3-1.3-0.6-2.5-1.4-3.5-2.4-0.9-1-1.7-2.2-2.2-3.4-0.4-1.3-0.6-2.7-0.5-4 0.1-1.4 0.5-2.7 1.2-3.9l2.8-4.8c0 0-7-4.2-3.7-11.2 2.9-6.3 13.7-24 16-27.8l13.6 5.7c1.8 0.9 3.4 2.1 4.7 3.5 1.3 1.5 2.3 3.2 2.9 5 0.6 1.8 0.8 3.7 0.5 5.6-0.2 1.9-0.8 3.7-1.8 5.3z"/>
	<path id="Layer" class="s9" d="m314 63.9c3.5 1.5 7.3 2 11.1 1.5 0 0-4.8 4-12 0.3z"/>
	<path id="Layer" class="s3" d="m319.5 41.2q0.2-0.1 0.4-0.2 0.2 0 0.4 0 0.2 0 0.4 0.1 0.5 0.2 0.6 0.6c0.1 0.3 0.1 0.6 0 0.8q-0.1 0.2-0.3 0.4-0.2 0.1-0.4 0.2-0.2 0-0.4 0-0.2 0-0.5-0.1-0.4-0.2-0.5-0.6c-0.2-0.3-0.1-0.6 0-0.9q0.1-0.2 0.3-0.3z"/>
	<path id="Layer" class="s3" d="m319.9 40.3c0.7-0.2 1.4-0.1 2 0.2 0.6 0.2 1.1 0.6 1.4 1.2 0.3 0.4 0.4 0.6 0.2 0.7-0.2 0.1-0.8-0.9-1.9-1.3-1.2-0.5-2.3-0.3-2.3-0.5-0.1-0.1 0.2-0.2 0.6-0.3z"/>
	<path id="Layer" class="s3" d="m330.3 46.2q0.2-0.2 0.4-0.2 0.3-0.1 0.5-0.1 0.2 0 0.4 0.1c0.3 0.2 0.5 0.4 0.6 0.7q0.2 0.4 0 0.8-0.1 0.2-0.3 0.3-0.2 0.1-0.4 0.2-0.2 0.1-0.5 0-0.2 0-0.4-0.1c-0.3-0.1-0.5-0.3-0.6-0.6-0.1-0.3-0.1-0.6 0.1-0.8q0.1-0.2 0.2-0.3z"/>
	<path id="Layer" class="s3" d="m331.3 45.2c0.6-0.1 1.3-0.1 1.9 0.2 0.6 0.2 1.1 0.7 1.5 1.2 0.2 0.4 0.3 0.6 0.1 0.7-0.1 0.1-0.7-0.8-1.9-1.3-1.2-0.4-2.2-0.2-2.3-0.4-0.1-0.1 0.2-0.3 0.6-0.4z"/>
	<path id="Layer" class="s3" d="m320.6 51q-0.3-0.1-0.5-0.3-0.1-0.1-0.2-0.3-0.1-0.1-0.1-0.3c0.1-0.4 0.3-0.7 0.7-1l1.8-1.8q2.4-2.3 5.1-4.2-2.1 2.4-4.7 4.6l-1.8 1.7c-0.3 0.3-0.6 0.6-0.6 0.8-0.1 0.2 0.2 0.3 0.5 0.5q0.9 0.4 1.7 1.1-1-0.3-1.9-0.8z"/>
	<path id="Layer" class="s3" d="m325.4 54.8c-0.4 0.6-1.1 1.1-1.8 1.2-0.8 0.2-1.6 0.2-2.4-0.1-0.5-0.3-0.8-0.5-0.7-0.6 0.1-0.2 1.4 0.5 2.8 0.1 1.5-0.4 2.1-1.5 2.3-1.5 0.1 0.1 0.1 0.4-0.2 0.9z"/>
	<path id="Layer" class="s3" d="m333.3 41q1.1 0 2.2 0.6 1 0.5 1.6 1.4c0.3 0.5 0.4 0.9 0.2 1-0.3 0.1-1.2-0.7-2.5-1.4-1.3-0.7-2.5-1-2.5-1.4 0-0.1 0.4-0.2 1-0.2z"/>
	<path id="Layer" class="s3" d="m321.9 37.3c0.6-0.2 1.2-0.1 1.8 0.1 0.6 0.2 1.1 0.6 1.4 1.1 0.2 0.4 0.4 0.5 0.1 0.8-0.3 0.2-1-0.4-2-0.8-1-0.4-1.9-0.4-2-0.8-0.1-0.1 0.2-0.4 0.7-0.4z"/>
	<path id="Layer" class="s8" d="m341.1 54.3c0.1 0 5.9 0.8 3.4 5.5-2.5 4.7-7 1.4-7 1.3 0-0.2 3.6-6.8 3.6-6.8z"/>
	<path id="Layer" class="s9" d="m340 60q0 0 0.2 0.2 0.2 0.3 0.6 0.3 0.7 0 1.2-0.4 0.6-0.4 0.8-0.9 0.4-0.6 0.4-1.3 0-0.3-0.1-0.5-0.1-0.3-0.3-0.5-0.1-0.1-0.3-0.1-0.2 0-0.3 0.1c-0.1 0.2-0.1 0.3-0.2 0.3 0 0 0-0.2 0.1-0.4q0.1-0.1 0.4-0.2 0.3 0 0.5 0.1 0.3 0.2 0.4 0.6 0.2 0.3 0.1 0.6 0.1 0.8-0.3 1.4c-0.2 0.5-0.5 0.8-1 1.1-0.4 0.3-0.9 0.4-1.4 0.4q-0.2 0-0.4-0.2-0.2-0.1-0.3-0.3c-0.2-0.2-0.1-0.3-0.1-0.3z"/>
	<path id="Layer" class="s3" d="m344 55.4q-0.7-0.3-1.5-0.3c-0.5 0-1 0.2-1.5 0.5-0.6 0.5-1.1 1.2-1.8 1.8-0.2 0.3-0.7 0.5-1.1 0.6-0.4 0-0.9 0-1.3-0.2q-0.3-0.3-0.5-0.7-0.1-0.4 0-0.9 0.2-0.8 0.7-1.5c1.4-2.1 3-4.1 4.2-6.3 1.2-2.2 1.8-4.7 1.6-7.2-0.2-1.2-0.7-2.4-1.5-3.4-0.8-0.9-1.8-1.7-3-2.2-1.7-0.5-3.6-0.4-5.3-0.8-1-0.3-1.9-0.8-2.7-1.5-0.7-0.6-1.3-1.4-1.7-2.3q-0.3-0.6-0.7-1.1c0.1-0.1 0.7-1 1.3-1.2 4.5-1.4 10.5 0.2 14.2 2.9 1.9 1.3 3.5 3.1 4.6 5 1.1 2 1.7 4.2 1.8 6.4 0 4.4-3 9.2-5.7 12.4"/>
	<path id="Layer" class="s3" d="m341.3 53l7.7-9.1-4.2-6.2-5.7-3.9-7 0.5c-3.1-0.8-5.9-2.5-7.7-5-0.6-0.7-1-1.5-1.1-2.4q-0.1-0.7 0.3-1.3c0.2-0.4 0.5-0.7 1-1q0.3-0.1 0.7-0.1 0.3 0 0.7 0.2 0.3 0.1 0.5 0.4 0.2 0.2 0.3 0.5-0.2-0.3-0.2-0.6-0.1-0.4 0-0.8 0.1-0.3 0.4-0.6 0.2-0.3 0.6-0.5 0.8-0.2 1.6-0.2 0.8 0 1.5 0.3c3.1 1.1 5.2 3.7 8.1 5.1 1.8 0.9 3.9 1.3 5.6 2.2 1.3 0.7 2.4 1.6 3.3 2.7 0.8 1.2 1.4 2.5 1.6 3.8q0.1 1.3 0.5 2.6c0.4 0.8 1 1.5 1.5 2.3 1.3 2.3 0 5.1-1.7 7.1-1.8 2.1-4.1 3.7-5.5 5.9z"/>
	<path id="Layer" class="s10" d="m158.9 259.6l0.6 0.9c0.7 1.1 1.6 1.9 2.8 2.5l1 0.4-1 0.6c-1.1 0.6-2 1.5-2.6 2.6l-0.5 1-0.6-0.9c-0.7-1.1-1.7-1.9-2.9-2.5l-1-0.4 1-0.6c1.1-0.6 2-1.5 2.6-2.6z"/>
	<path id="Layer" class="s10" d="m103.1 67.8l0.6 0.9c0.7 1.1 1.7 1.9 2.9 2.5l1 0.4-1 0.6c-1.1 0.6-2.1 1.6-2.6 2.6l-0.6 1-0.6-1c-0.6-1-1.6-1.8-2.8-2.4l-1.1-0.5 1-0.5c1.2-0.7 2.1-1.6 2.7-2.7z"/>
	<path id="Layer" class="s10" d="m361.1 100.9l0.6 0.9c0.7 1.1 1.6 1.9 2.8 2.5l1.1 0.4-1 0.6c-1.1 0.6-2.1 1.6-2.6 2.6l-0.6 1-0.6-1c-0.6-1-1.6-1.8-2.8-2.4l-1.1-0.4 1-0.6c1.1-0.6 2.1-1.6 2.6-2.7z"/>
	<path id="Layer" class="s10" d="m330.6 271.6l0.6 1c0.7 1 1.7 1.8 2.9 2.4l1 0.5-1 0.5c-1.1 0.7-2 1.6-2.6 2.7l-0.5 1-0.6-1c-0.7-1-1.7-1.9-2.9-2.4l-1-0.5 1-0.6c1.1-0.6 2-1.5 2.6-2.6z"/>
	<path id="Layer" class="s10" d="m336.4 307.5l0.3 0.1q0.5 0.2 1 0.1h0.3l-0.1 0.2q-0.2 0.5-0.1 1l0.1 0.2-0.3-0.1q-0.5-0.1-1-0.1l-0.3 0.1 0.1-0.3q0.2-0.4 0.1-0.9z"/>
	<path id="Layer" class="s10" d="m354 64.9l0.2 0.1q0.5 0.2 1 0.1l0.3-0.1-0.1 0.3q-0.2 0.5-0.1 0.9l0.1 0.3-0.3-0.1q-0.5-0.1-1-0.1l-0.3 0.1 0.1-0.3q0.2-0.4 0.1-0.9z"/>
	<path id="Layer" class="s10" d="m114.5 42.8l0.3 0.1q0.5 0.1 1 0.1h0.3l-0.1 0.2q-0.2 0.5-0.1 0.9v0.3l-0.3-0.1q-0.5-0.2-1-0.1h-0.3l0.1-0.2q0.2-0.5 0.1-1z"/>
	<path id="Layer" class="s10" d="m144 231.7l0.3 0.1q0.5 0.1 1 0.1l0.3-0.1-0.1 0.3q-0.2 0.4-0.1 0.9v0.3l-0.2-0.1q-0.5-0.2-1.1-0.1h-0.3l0.2-0.2q0.1-0.5 0.1-1z"/>
	<path id="Layer" class="s10" d="m176.1 304.7l-0.3 0.2-0.8 0.8-3.3 3-12.1 10.7v-0.1c0.7 11.7 1.5 27.5 2.3 45.2v0.4l-0.3-0.3-4.4-2.6-27.6-17.1v-0.1c-4.2-11.4-7.6-21-10.1-27.7-1.2-3.4-2.1-6-2.8-7.9l-0.7-2.1q-0.1-0.3-0.2-0.5c0-0.1-0.1-0.2-0.1-0.2l0.1 0.2 0.2 0.5q0.3 0.7 0.8 2.1l2.9 7.8c2.5 6.8 6.1 16.3 10.2 27.7v-0.1l27.6 17.1 4.3 2.6-0.3 0.2c-0.8-17.6-1.6-33.5-2.1-45.1v-0.1l12.2-10.7 3.3-2.8 0.9-0.8c0.2-0.2 0.3-0.3 0.3-0.3z"/>
	<path id="Layer" class="s10" d="m163.2 359.1l-0.1 2.7 2.3 1.5-2.7 0.8-0.9 2.5-1.6-2.2h-2.8l1.7-2.1-0.9-2.5 2.7 0.9z"/>
	<path id="Layer" class="s10" d="m130 341.3l0.1 1.7 1.5 0.9-1.7 0.6-0.5 1.6-1.1-1.3-1.9 0.1 1.1-1.5-0.7-1.5 1.8 0.4z"/>
	<path id="Layer" class="s10" d="m115.7 303.2l1.4 1.7 2.2-0.2-1.2 1.8 0.8 1.9-2.2-0.6-1.7 1.4-0.1-2.1-1.9-1.2 2.1-0.7z"/>
	<path id="Layer" class="s10" d="m174.7 301.6l1.4 1.6 2.2-0.1-1.2 1.7 0.8 2-2.2-0.6-1.7 1.3-0.1-2.1-1.9-1.1 2.1-0.7z"/>
	<path id="Layer" class="s10" d="m159.2 317.5l0.9 1.1 1.4-0.1-0.8 1.1 0.5 1.2-1.4-0.3-1.1 0.8v-1.3l-1.2-0.8 1.3-0.4z"/>
</svg>