<svg width="67" height="63" viewBox="0 0 67 63" fill="none" xmlns="http://www.w3.org/2000/svg">
<ellipse cx="22.5" cy="41" rx="22.5" ry="22" fill="#FCB316"/>
<path d="M55.5413 50.4167H23.458C21.6346 50.4167 19.886 49.6924 18.5966 48.4031C17.3073 47.1138 16.583 45.3651 16.583 43.5417V6.87504C16.583 6.26725 16.8245 5.68436 17.2542 5.25459C17.684 4.82482 18.2669 4.58337 18.8747 4.58337H50.958C51.5658 4.58337 52.1487 4.82482 52.5785 5.25459C53.0082 5.68436 53.2497 6.26725 53.2497 6.87504V34.375H62.4163V43.5417C62.4163 45.3651 61.692 47.1138 60.4027 48.4031C59.1134 49.6924 57.3647 50.4167 55.5413 50.4167ZM53.2497 38.9584V43.5417C53.2497 44.1495 53.4911 44.7324 53.9209 45.1622C54.3507 45.5919 54.9336 45.8334 55.5413 45.8334C56.1491 45.8334 56.732 45.5919 57.1618 45.1622C57.5916 44.7324 57.833 44.1495 57.833 43.5417V38.9584H53.2497ZM48.6663 45.8334V9.16671H21.1663V43.5417C21.1663 44.1495 21.4078 44.7324 21.8376 45.1622C22.2673 45.5919 22.8502 45.8334 23.458 45.8334H48.6663ZM25.7497 16.0417H44.083V20.625H25.7497V16.0417ZM25.7497 25.2084H44.083V29.7917H25.7497V25.2084ZM25.7497 34.375H37.208V38.9584H25.7497V34.375Z" fill="black"/>
</svg>
