<svg version="1.2" xmlns="http://www.w3.org/2000/svg" viewBox="0 0 446 502" width="446" height="502">
	<title>sec-1 (3)-svg</title>
	<style>
		.s0 { fill: #ebebeb } 
		.s1 { fill: #e0e0e0 } 
		.s2 { fill: #fdce6a } 
		.s3 { fill: #f5f5f5 } 
		.s4 { fill: #25aae3 } 
		.s5 { opacity: .8;fill: #ffffff } 
		.s6 { fill: #ffbe9d } 
		.s7 { fill: #263238 } 
		.s8 { fill: #fafafa } 
		.s9 { fill: #fcb316 } 
		.s10 { opacity: .3;fill: #000000 } 
		.s11 { opacity: .6;fill: #ffffff } 
		.s12 { fill: #455a64 } 
		.s13 { fill: #eb996e } 
		.s14 { fill: #ffffff } 
		.s15 { opacity: .4;fill: #000000 } 
	</style>
	<path id="Layer" class="s0" d="m234.3 249.3c0 0-5.8-4.6-14.6 8.5-8.9 13.1-12.4 20.8-12.4 20.8 0 0-2.3 2.7-4.3 0.5-1.9-2.1-4.4-7.9-8.1-7.3-3.9 0.6-5.5 4.4-5.3 10.2 0.3 5.9 0.2 18.8 0.2 20 0 1.1-0.9 2.7-2.4 1.4-1.6-1.2-10.4-12.4-15.6-8.4-5.3 4-1.8 20.4-1.5 22.2 0.4 1.8-0.1 2.5-1 2.9-0.9 0.3-3.5-3.7-6.1-6.8-2.7-3.1-6.3-6.3-9.1-3.7-2.8 2.6-4.7 14.4 5.7 35.1l5.5 9.3 11.2 0.7c23.9 0.1 34.3-6.6 35.5-10.1 1.2-3.5-3.3-5.3-7.4-6.3-4-0.9-8.9-1.4-9-2.4-0.1-0.9 0.4-1.6 2.3-2.1 1.8-0.5 18.8-4.5 20.3-10.8 1.6-6.2-12.7-9-14.6-9.9-1.9-0.8-0.8-2.2 0.3-2.7 1.1-0.5 13.2-6.1 18.9-8.4 5.6-2.4 8.5-5.4 7.4-9-1.1-3.6-7.6-3.1-10.4-3.9-2.9-0.8-1.4-3.9-1.4-3.9 0 0 5.8-6.4 14.3-19.6 8.6-13.2 1.5-16.4 1.5-16.4"/>
	<path id="Layer" class="s1" d="m163.2 355.8c6.3-9.7 17.9-26.8 27.7-41.5 9.9-14.7 18.8-28 25.2-37.7 3.1-4.8 5.7-8.7 7.5-11.4l2-3.2 0.6-0.8q0.2-0.2 0.2-0.2 0 0-0.2 0.3l-0.5 0.8-2 3.1c-1.7 2.7-4.3 6.7-7.4 11.6-6.4 9.7-15.2 23-25.1 37.7-9.8 14.7-21.4 31.8-27.8 41.4"/>
	<path id="Layer" class="s1" d="m198.3 280.2q0.2 0.4 0.3 0.8 0.1 0.7 0.4 2c0.4 1.7 0.8 4 1.2 6.6l1 6.7 0.3 2q0.1 0.4 0.1 0.8-0.1-0.4-0.2-0.8-0.2-0.7-0.4-2c-0.3-1.7-0.8-4-1.2-6.6l-1-6.7-0.4-2q-0.1-0.4-0.1-0.8z"/>
	<path id="Layer" class="s1" d="m202.4 299.2c0-0.1 5.2-1 11.7-2 6.4-0.9 11.6-1.7 11.7-1.6 0 0.1-5.2 1-11.7 2-6.4 1-11.6 1.7-11.7 1.6z"/>
	<path id="Layer" class="s1" d="m185.7 321.1q0.4-0.1 0.8 0l2.3 0.3c1.9 0.2 4.5 0.5 7.4 0.7 2.8 0.2 5.5 0.4 7.4 0.4l2.2 0.1q0.5 0 0.9 0.1-0.4 0.1-0.9 0.1-0.8 0-2.2 0c-1.9 0-4.5-0.1-7.4-0.4-2.9-0.2-5.5-0.5-7.4-0.8-1-0.1-1.7-0.3-2.2-0.4q-0.5 0-0.9-0.1z"/>
	<path id="Layer" class="s1" d="m178 304.7q0.2 0.3 0.4 0.6l0.9 1.8c0.7 1.5 1.7 3.5 2.8 5.8 1.1 2.2 2.1 4.3 2.8 5.8l0.8 1.8q0.1 0.3 0.2 0.6-0.2-0.3-0.3-0.6l-0.9-1.7c-0.8-1.5-1.8-3.6-2.9-5.8-1.1-2.3-2-4.3-2.7-5.8l-0.8-1.8q-0.2-0.3-0.3-0.7z"/>
	<path id="Layer" class="s1" d="m160.5 322.4q0.3 0.3 0.5 0.8l1.1 2.2c1 1.9 2.3 4.5 3.7 7.4 1.5 2.9 2.7 5.5 3.6 7.4l1.1 2.3q0.2 0.4 0.4 0.8-0.3-0.4-0.5-0.8l-1.1-2.2c-1-1.9-2.3-4.5-3.7-7.4-1.5-2.9-2.8-5.5-3.7-7.4l-1-2.3q-0.3-0.4-0.4-0.8z"/>
	<path id="Layer" class="s1" d="m170.8 342.4q0.5 0 1 0.1l2.9 0.2c2.4 0.2 5.7 0.5 9.4 0.7 3.6 0.2 7 0.3 9.4 0.3l2.8 0.1q0.6 0 1.1 0-0.5 0.1-1.1 0.1c-0.7 0-1.6 0-2.8 0-2.4 0-5.8 0-9.4-0.2-3.7-0.2-7-0.5-9.4-0.8-1.2-0.1-2.2-0.2-2.9-0.3q-0.5 0-1-0.2z"/>
	<path id="Layer" class="s2" d="m346.6 236.2c-11.9-12.4-10.8-30.4-6.2-45.7 0.7-2.6 1.1-5.3 3-7.3 1.8-2 5.4-2.9 7.6-1.2 1.8 1.3 2.2 3.8 2.9 5.9 0.9 2.8 2.6 5.3 5 7.2 1.5 1.2 3.6 2.2 5.6 1.7 2.7-0.7 3.8-3.7 4.4-6.3q1.8-7.2 3.6-14.4c0.5-2.6 1.4-5.1 2.8-7.4 1.5-2.2 4-4.1 6.8-4.2 2.8-0.1 5.7 2 5.6 4.7q-0.2 1.6-0.7 3.2c-0.2 0.5-0.2 1.1 0 1.6q0.3 0.8 1 1.3c1 0.5 2.4 0.1 3.4-0.5 3.5-2 6.3-4.9 9-7.8 2.6-3 5.3-6 8.6-8.2 3.3-2.3 7.5-3.7 11.5-3.1 4.1 0.7 7.7 3.9 7.8 7.7 0.1 3.8-3.1 7-6.4 9.4-4.8 3.6-10.1 6.4-15.7 8.6-1.1 0.2-2.1 0.8-2.7 1.6-1.1 1.6 0.2 3.7 1.9 4.7 1.9 1.1 4.2 1.4 6.3 2.1 2.1 0.7 4.2 2.1 4.6 4.2 0.4 2.8-2.6 5.1-5.4 6.4-5.6 2.5-11.7 4.2-17.9 4.9-2.2 0.2-4.5 0.4-6.5 1.3-2 1-3.6 3.1-3 5.1 0.5 2 2.9 3.2 5.2 3.3 2.2 0.1 4.4-0.6 6.6-0.8 4.2-0.5 9 0.8 10.7 4.4 0.5 1.2 0.6 2.5 0.5 3.8-0.2 1.3-0.7 2.5-1.4 3.6-1.6 2.2-3.5 4-5.9 5.4-7.7 5.4-16.9 8.8-26.5 9.9-9.6 0.9-18-0.2-26-5.1"/>
	<path id="Layer" class="s1" d="m349.1 237.7c2.1-6-0.1-3 4.4-10.3q7.3-11.7 16.2-22.6 2.3-2.9 4.5-5.7c1.5-1.9 3-3.7 4.6-5.5q4.6-5 9.7-9.5c3.3-2.8 6.5-5.5 9.5-7.9 3-2.4 5.9-4.6 8.6-6.6q6.3-4.5 13.4-8.1c1.7-0.9 3-1.5 3.9-1.9l1-0.4 0.3-0.2q-0.1 0.1-0.3 0.2l-1 0.5c-0.9 0.5-2.2 1.1-3.8 2-4.7 2.4-9.1 5.2-13.3 8.3-2.7 1.9-5.5 4.1-8.5 6.5-3 2.5-6.2 5.1-9.4 8q-5.1 4.5-9.7 9.5c-1.6 1.7-3 3.5-4.5 5.4l-4.6 5.7q-8.8 10.9-16.2 22.5c-4.5 7.3-2.3 4.2-4.5 10.2"/>
	<path id="Layer" class="s1" d="m379 193.6q0-0.5 0-1.1c0-0.8 0.1-1.9 0.3-3.1 0.2-2.7 0.7-6.3 1.3-10.3 0.6-4 1-7.7 1.2-10.3q0.2-2 0.3-3.1-0.1-0.6 0.1-1.2 0.1 0.6 0.1 1.2c0 0.7 0 1.8-0.1 3.1-0.1 2.7-0.5 6.3-1.1 10.3-0.6 4-1.1 7.6-1.5 10.3q-0.2 1.8-0.4 3.1 0 0.6-0.2 1.1z"/>
	<path id="Layer" class="s1" d="m416.2 195.3q-0.7 0-1.4-0.2c-1-0.1-2.3-0.3-4-0.5-3.4-0.4-8.1-0.7-13.2-1-5.1-0.2-9.8-0.2-13.2-0.1-1.7 0-3 0.1-4 0.1q-0.7 0.1-1.5 0 0.7-0.1 1.5-0.2c0.9-0.1 2.3-0.2 4-0.2 3.4-0.2 8.1-0.3 13.3 0q6.6 0.2 13.1 1.1c1.7 0.2 3 0.5 4 0.6q0.7 0.2 1.4 0.4z"/>
	<path id="Layer" class="s1" d="m354 226.9q-0.1-0.2-0.1-0.4-0.1-0.6-0.3-1.4-0.4-1.7-1-4.9c-0.7-4.1-1.6-9.9-2.4-16.3-0.8-6.4-1.6-12.2-2.3-16.3-0.3-2.1-0.6-3.7-0.8-5q-0.1-0.8-0.2-1.3 0-0.2 0-0.5 0.1 0.2 0.1 0.5l0.4 1.3q0.4 1.7 0.9 4.9c0.8 4.2 1.6 9.9 2.4 16.3 0.9 6.4 1.7 12.2 2.3 16.4 0.4 2 0.6 3.7 0.8 4.9q0.2 0.8 0.2 1.3 0.1 0.3 0 0.5z"/>
	<path id="Layer" class="s1" d="m405.1 223.2q-0.3 0-0.5 0l-1.5 0.2-5.5 0.4c-4.6 0.3-11 0.9-18 1.5-7.1 0.6-13.4 1.1-18.1 1.4-2.3 0.1-4.2 0.2-5.5 0.2h-1.5q-0.2 0-0.5 0 0.3-0.1 0.5-0.1l1.5-0.1 5.5-0.4c4.6-0.4 11-0.9 18-1.5 7-0.6 13.4-1.1 18.1-1.4 2.3-0.1 4.2-0.2 5.5-0.2h1.5q0.2-0.1 0.5 0z"/>
	<path id="Layer" class="s1" d="m444.7 317.8q-0.1 0.2-0.2 0.4l-0.5 1.3c-0.6 1.1-1.3 2.7-2.2 4.6l-7.7 16.6-0.1 0.1h-0.1l-24.4 3.7-8.1 1.2-0.4 0.1 0.1-0.3c2-7.3 3.8-14 5.4-19.6l0.1 0.2-14.3-5.9-4-1.7-1-0.4q-0.2-0.1-0.3-0.2l0.3 0.1 1.1 0.4 4 1.6 14.4 5.8h0.2v0.2c-1.6 5.6-3.4 12.3-5.3 19.6l-0.3-0.3 8.2-1.3 24.3-3.6-0.1 0.1 7.9-16.5q1.4-3 2.2-4.6l0.6-1.3q0.1-0.1 0.2-0.3z"/>
	<path id="Layer" class="s1" d="m357.1 120.7h66.1c0 0-5.9-9.8-22.9-8.3-16.2 1.3-17.1-4.9-25.3-5.6-8.3-0.7-15.2 5-17.9 13.9z"/>
	<path id="Layer" class="s1" d="m404.2 343.1l-0.6 1.6 1 1.5-1.8-0.1-1.2 1.4-0.5-1.7-1.7-0.6 1.5-0.9 0.1-1.8 1.4 1.1z"/>
	<path id="Layer" class="s1" d="m387.5 316.9l-0.3 0.8 0.5 0.7-0.9-0.1-0.6 0.7-0.2-0.8-0.9-0.3 0.8-0.5v-0.8l0.7 0.5z"/>
	<path id="Layer" class="s1" d="m434.7 339.7l-0.3 0.8 0.5 0.7h-0.9l-0.6 0.7-0.2-0.9-0.9-0.3 0.8-0.4v-0.9l0.7 0.5z"/>
	<path id="Layer" class="s1" d="m407.5 325.2l-0.3 0.8 0.5 0.7h-0.9l-0.6 0.7-0.2-0.9-0.9-0.3 0.7-0.4 0.1-0.9 0.7 0.5z"/>
	<path id="Layer" class="s1" d="m445.8 317l-0.3 0.8 0.5 0.7h-0.9l-0.6 0.6-0.2-0.8-0.9-0.3 0.8-0.4v-0.9l0.7 0.5z"/>
	<path id="Layer" class="s1" d="m141.1 384.7h52.6c0 0-4.6-7.9-18.2-6.7-12.9 1-13.6-3.9-20.1-4.5-6.6-0.6-12.1 4-14.3 11.2z"/>
	<path id="Layer" class="s3" d="m151.6 193h52.6c0 0-4.7-7.8-18.2-6.7-12.9 1.1-13.6-3.8-20.2-4.4-6.6-0.6-12 4-14.2 11.1z"/>
	<path id="Layer" class="s3" d="m380.3 297h43.2c0 0-3.8-6.5-14.9-5.6-10.6 1-11.2-3.1-16.6-3.6-5.4-0.5-9.9 3.3-11.7 9.2z"/>
	<g id="Layer" style="opacity: .8">
		<path id="Layer" class="s4" d="m144.4 320c-0.8 6.5-8 10.3-15.6 10.6-7.6 0.3-15.7-2.1-23.4-4.5-17.3-5.1-36.1-10-51-5.2-5 1.6-9.3 4.3-13.6 6.9-8.2 5.1-17 11.2-17 20.9 0.1 2.8 1 5.9 3.4 8.2 2.8 2.6 7.1 3.6 10.6 3.1 3.4-0.7 6.3-2.2 8.5-4.3 4.4-3.9 7.5-8.8 11.8-12.8 4.2-3.9 10.3-7.1 17.3-6.1 8.6 1.1 16.6 7.8 25.2 8.7 6.9 0.7 12.4-2.6 19-3.5 5.4-0.6 11.4 0.5 17.2 1.1 5.8 0.6 11.9 0.6 16.2-2 2.2-1.3 3.8-3.3 4.5-5.7 0.8-2.4 0.7-5-0.3-7.7-1-2.6-2.7-5.1-5.1-7.2-2.4-2-5.3-3.6-8.3-4.4"/>
		<path id="Layer" class="s5" d="m144.4 320c-0.8 6.5-8 10.3-15.6 10.6-7.6 0.3-15.7-2.1-23.4-4.5-17.3-5.1-36.1-10-51-5.2-5 1.6-9.3 4.3-13.6 6.9-8.2 5.1-17 11.2-17 20.9 0.1 2.8 1 5.9 3.4 8.2 2.8 2.6 7.1 3.6 10.6 3.1 3.4-0.7 6.3-2.2 8.5-4.3 4.4-3.9 7.5-8.8 11.8-12.8 4.2-3.9 10.3-7.1 17.3-6.1 8.6 1.1 16.6 7.8 25.2 8.7 6.9 0.7 12.4-2.6 19-3.5 5.4-0.6 11.4 0.5 17.2 1.1 5.8 0.6 11.9 0.6 16.2-2 2.2-1.3 3.8-3.3 4.5-5.7 0.8-2.4 0.7-5-0.3-7.7-1-2.6-2.7-5.1-5.1-7.2-2.4-2-5.3-3.6-8.3-4.4"/>
	</g>
	<path id="Layer" class="s4" d="m188.3 113.1c-2.6-1.8-4.8-4.2-6.3-7-1.4-2.8-2.2-5.8-2.1-8.9 0-3.1 0.9-6.1 2.5-8.8 1.5-2.7 3.8-5.1 6.5-6.8 3.1-2 6.8-3.2 9.6-5.6 2.4-2.1 4-5 6.7-6.8 1.7-1.1 3.8-1.7 5.9-1.7 2.1 0.1 4.1 0.7 5.8 1.9 1.7 1.2 2.9 2.8 3.5 4.7 0.6 1.8 0.5 3.8-0.2 5.7-1.3 3.2-4.4 5.6-5.8 8.9-1.4 3.4-0.5 7.4-1 11.1-0.3 2.2-1.2 4.4-2.6 6.3-1.3 2-3.1 3.6-5.3 4.8-2.1 1.2-4.5 1.9-7 2.1-2.4 0.2-4.9-0.1-7.3-0.9"/>
	<path id="Layer" class="s5" d="m188.3 113.1c-2.6-1.8-4.8-4.2-6.3-7-1.4-2.8-2.2-5.8-2.1-8.9 0-3.1 0.9-6.1 2.5-8.8 1.5-2.7 3.8-5.1 6.5-6.8 3.1-2 6.8-3.2 9.6-5.6 2.4-2.1 4-5 6.7-6.8 1.7-1.1 3.8-1.7 5.9-1.7 2.1 0.1 4.1 0.7 5.8 1.9 1.7 1.2 2.9 2.8 3.5 4.7 0.6 1.8 0.5 3.8-0.2 5.7-1.3 3.2-4.4 5.6-5.8 8.9-1.4 3.4-0.5 7.4-1 11.1-0.3 2.2-1.2 4.4-2.6 6.3-1.3 2-3.1 3.6-5.3 4.8-2.1 1.2-4.5 1.9-7 2.1-2.4 0.2-4.9-0.1-7.3-0.9"/>
	<path id="Layer" class="s4" d="m188.7 93.2h12.4v23.5q0 1-0.4 1.9-0.5 1-1.2 1.7-0.8 0.7-1.8 1.1-1 0.4-2.1 0.4h-1.4c-1.5 0-2.9-0.6-3.9-1.5-1-1-1.6-2.2-1.6-3.6v-23.5z"/>
	<path id="Layer" class="s6" d="m188.7 93.2l6.2-10.5 6.2 10.5z"/>
	<path id="Layer" class="s4" d="m192.5 86.8c0 0 1.8 2.7 4.9 0l-2.5-4.1z"/>
	<path id="Layer" class="s7" d="m201.3 115.6q-3.2 0.3-6.3 0.2-3.2 0.1-6.3-0.2 3.1-0.4 6.3-0.3 3.1-0.1 6.3 0.3z"/>
	<path id="Layer" class="s7" d="m201.1 113.8q-3.1 0.4-6.2 0.3-3.1 0.1-6.1-0.3 3-0.3 6.1-0.2 3.1-0.1 6.2 0.2z"/>
	<path id="Layer" class="s8" d="m192.4 93.3c0.1 0 0.2 4.6 0.2 10.2 0 5.6-0.1 10.2-0.2 10.2-0.2 0-0.3-4.5-0.3-10.2 0-5.6 0.1-10.2 0.3-10.2z"/>
	<path id="Layer" class="s8" d="m197.4 93.3c0.1 0 0.2 4.6 0.2 10.2 0 5.6-0.1 10.2-0.2 10.2-0.2 0-0.3-4.5-0.3-10.2 0-5.6 0.1-10.2 0.3-10.2z"/>
	<path id="Layer" class="s9" d="m361.6 427.5l56.2 2.2 1.3 3-36.8 55.3-66.4-1.8z"/>
	<path id="Layer" class="s1" d="m313.4 480.8l66.8 3.5 34.9-50.1-24.5 1.9-62 20.2z"/>
	<path id="Layer" class="s0" d="m304 477.1l61.3 0.9c-2.5-7.2 3.5-17.5 11.7-20.9 5.5-2.3 15.8-5.2 21.1-7.8 10.1-4.7 19.2-13.8 18.4-21.6l-25.2-0.8-32.2-1.1c-2.7 7.4-8.4 12.2-17.2 15.1-7.8 2.6-16.7 2.6-24.3 5.6-12.3 4.7-18.2 20.2-13.6 30.6"/>
	<path id="Layer" class="s7" d="m304 477.1q0 0-0.1-0.4l-0.5-1.1q-0.3-0.9-0.5-1.8-0.3-1.3-0.4-2.6c-0.2-2.4 0-4.9 0.5-7.2 0.7-3.2 2-6.3 3.9-9q0.8-1.2 1.8-2.3c0.3-0.4 0.6-0.8 1-1.1l1.1-1.1q0.6-0.6 1.2-1c0.5-0.3 0.9-0.7 1.4-1q1.4-0.9 3-1.7c4.2-1.9 9.3-2.7 14.6-3.7 2.6-0.4 5.4-0.9 8.1-1.6q4.2-1.1 8.1-3 2-1 3.8-2.3 1.8-1.3 3.3-2.9c2.1-2.2 3.7-4.8 4.7-7.6v-0.2h0.2l26.8 1c9.3 0.3 18.9 0.5 28.8 0.8l1.8 0.1h0.2v0.2c0.1 1.8-0.1 3.6-0.8 5.2q-0.5 1.3-1.1 2.5-0.7 1.1-1.5 2.2c-2.1 2.8-4.7 5.3-7.6 7.4-2.8 2.1-5.9 3.9-9.2 5.3-3.2 1.3-6.5 2.4-9.7 3.5-3.2 1.1-6.4 2.1-9.4 3.3q-2.2 1-4.1 2.4c-0.7 0.4-1.2 0.9-1.8 1.4-0.6 0.5-1.1 1.1-1.6 1.7-2 2.1-3.4 4.7-4.3 7.4-0.9 2.6-0.9 5.3-0.1 7.9l0.1 0.3h-0.3l-44.6-0.7-12.4-0.3-3.3-0.1h-1.1q0 0 1.1 0h3.3l12.4 0.2 44.6 0.6-0.2 0.2c-0.8-2.7-0.8-5.5 0.1-8.2 0.9-2.8 2.4-5.3 4.4-7.6 0.4-0.6 1-1.1 1.6-1.6q0.8-0.9 1.8-1.5 1.9-1.5 4.2-2.4c3-1.2 6.2-2.3 9.4-3.4 3.2-1.1 6.5-2.2 9.7-3.5q4.9-2.1 9.1-5.2c2.8-2.1 5.4-4.6 7.5-7.3q0.7-1.1 1.4-2.2 0.7-1.1 1.1-2.3c0.7-1.7 0.9-3.4 0.8-5.1l0.2 0.2h-1.8c-9.8-0.3-19.4-0.6-28.7-1l-26.8-0.9 0.2-0.1c-1 2.8-2.6 5.4-4.8 7.7q-1.5 1.6-3.4 3-1.8 1.3-3.8 2.3c-2.6 1.3-5.4 2.3-8.2 3-2.8 0.7-5.5 1.2-8.2 1.6-5.2 0.9-10.3 1.7-14.5 3.6q-1.5 0.7-2.9 1.7c-0.5 0.3-0.9 0.6-1.3 0.9q-0.7 0.5-1.3 1l-1.1 1.1c-0.4 0.3-0.7 0.7-1 1.1q-1 1-1.8 2.2c-1.9 2.7-3.2 5.8-3.9 8.9-0.6 2.4-0.8 4.8-0.6 7.2q0.1 1.3 0.4 2.6 0.2 0.9 0.5 1.8 0.2 0.7 0.4 1.1c0 0.3 0.1 0.4 0.1 0.4z"/>
	<path id="Layer" class="s7" d="m376.4 426.7c0 0 0.1-0.4 0.1-1 0.1-0.9 0-1.8-0.4-2.7-0.6-1.2-1.6-2.3-2.9-2.9-0.8-0.3-1.7-0.5-2.6-0.5q-1.3-0.1-2.6 0.4-1.3 0.4-2.2 1.3-1 0.9-1.5 2c-0.6 1.2-0.8 2.6-0.6 3.9q0.2 1.4 1 2.6c0.4 0.6 0.6 0.8 0.6 0.8q-0.5-0.3-0.8-0.7c-0.6-0.8-1-1.7-1.2-2.6-0.3-1.4-0.1-2.9 0.5-4.2 0.4-0.8 0.9-1.5 1.6-2.1q1-1 2.4-1.5 1.3-0.4 2.8-0.4 1.4 0.1 2.7 0.7c1.4 0.6 2.5 1.7 3 3.1 0.4 0.9 0.5 1.8 0.4 2.8q-0.1 0.4-0.2 0.7 0 0.3-0.1 0.3z"/>
	<path id="Layer" class="s7" d="m386 426.7c0 0 0.1-0.4 0.2-1 0-0.9-0.1-1.8-0.5-2.7-0.6-1.2-1.6-2.3-2.9-2.9-0.8-0.3-1.7-0.5-2.6-0.5q-1.3-0.1-2.6 0.4-1.2 0.4-2.2 1.3-1 0.9-1.5 2c-0.6 1.2-0.8 2.6-0.6 3.9q0.2 1.4 1 2.6c0.4 0.6 0.7 0.8 0.6 0.8q-0.5-0.3-0.8-0.7c-0.6-0.8-1-1.7-1.2-2.6-0.3-1.4-0.1-2.9 0.5-4.2q0.6-1.2 1.6-2.1 1.1-1 2.4-1.4 1.3-0.5 2.8-0.5 1.4 0.1 2.7 0.7c1.4 0.6 2.5 1.7 3.1 3.1 0.3 0.9 0.5 1.8 0.3 2.8q0 0.4-0.2 0.7 0 0.2-0.1 0.3z"/>
	<path id="Layer" class="s7" d="m393.3 427.2c0 0 0.1-0.4 0.1-1 0-1-0.2-1.9-0.7-2.7-0.6-1.2-1.7-2.2-3-2.7-0.9-0.3-1.7-0.5-2.6-0.4q-1.4 0-2.6 0.5c-1.6 0.7-2.9 1.9-3.5 3.5-0.6 1.3-0.7 2.6-0.4 4q0.4 1.3 1.2 2.5c0.4 0.5 0.7 0.7 0.7 0.8q-0.5-0.3-0.8-0.7c-0.7-0.8-1.2-1.6-1.4-2.6-0.4-1.3-0.3-2.8 0.2-4.2q0.5-1.2 1.5-2.2 1-1 2.3-1.5 1.3-0.6 2.8-0.6c0.9 0 1.9 0.2 2.7 0.5 1.5 0.6 2.6 1.6 3.3 3 0.4 0.8 0.6 1.8 0.5 2.8q0 0.3-0.2 0.7c0 0.2-0.1 0.3-0.1 0.3z"/>
	<path id="Layer" class="s7" d="m401.2 427.6c0 0 0-0.4 0-1-0.1-1-0.3-1.9-0.8-2.7-0.7-1.1-1.9-2.1-3.3-2.5q-1.2-0.4-2.6-0.3-1.3 0.1-2.5 0.6-1.2 0.6-2.1 1.6-0.8 0.9-1.2 2.1c-0.5 1.3-0.5 2.7-0.2 4q0.5 1.4 1.4 2.4c0.4 0.5 0.8 0.8 0.7 0.8q-0.5-0.2-0.9-0.6c-0.7-0.7-1.2-1.6-1.5-2.5-0.5-1.4-0.5-2.8 0-4.2 0.3-0.9 0.7-1.6 1.3-2.3q1-1.1 2.2-1.7 1.3-0.6 2.8-0.7c0.9 0 1.9 0.1 2.8 0.4 1.4 0.5 2.7 1.5 3.4 2.8 0.5 0.8 0.7 1.8 0.6 2.8q0 0.3-0.1 0.7 0 0.3 0 0.3z"/>
	<path id="Layer" class="s7" d="m409 427.4c0 0 0-0.4 0-1-0.1-0.9-0.4-1.8-0.9-2.6-0.7-1.2-1.9-2.1-3.3-2.5-0.8-0.2-1.7-0.3-2.6-0.2q-1.3 0.1-2.5 0.7c-0.8 0.4-1.5 0.9-2 1.6q-0.9 1-1.2 2.2c-0.4 1.1-0.4 2.2-0.2 3.3 0.2 1.2 0.8 2.2 1.6 3.1 0.5 0.5 0.8 0.7 0.8 0.7q-0.6-0.2-1-0.6c-0.7-0.7-1.2-1.5-1.6-2.4-0.5-1.4-0.5-2.9-0.1-4.2q0.4-1.3 1.3-2.4 0.9-1 2.1-1.7 1.3-0.6 2.8-0.8 1.4-0.1 2.8 0.3c1.5 0.5 2.7 1.5 3.4 2.7 0.6 0.9 0.8 1.8 0.8 2.8q0 0.4-0.1 0.8-0.1 0.2-0.1 0.2z"/>
	<path id="Layer" class="s7" d="m415.6 428.2c0 0 0-0.3 0-1 0-0.9-0.3-1.8-0.8-2.6-0.6-1.2-1.8-2.1-3.1-2.6q-1.3-0.4-2.7-0.4-1.3 0.1-2.5 0.7-1.2 0.5-2.1 1.5-0.9 0.9-1.3 2.1c-0.4 1.1-0.5 2.3-0.3 3.4 0.2 1.1 0.7 2.2 1.5 3.1 0.4 0.5 0.7 0.7 0.7 0.7q-0.5-0.2-0.9-0.6c-0.7-0.7-1.2-1.6-1.5-2.5-0.4-1.4-0.4-2.8 0.1-4.2q0.4-1.3 1.4-2.3c0.6-0.7 1.3-1.2 2.2-1.6 0.8-0.4 1.8-0.7 2.7-0.7 1-0.1 1.9 0.1 2.8 0.4 1.5 0.5 2.7 1.5 3.4 2.8 0.4 0.9 0.7 1.9 0.6 2.8q0 0.4-0.1 0.8 0 0.2-0.1 0.2z"/>
	<path id="Layer" class="s7" d="m101.8 222.2c-4.2 3.3-9.3 5.3-14.7 5.9q-2.6 0.1-5.1 0.5c-1.7 0.3-3.3 1.1-4.5 2.3-0.5 0.6-0.9 1.3-1 2.1-0.1 0.8 0.1 1.7 0.5 2.4 1.2 2 4.5 2.4 5.3 4.6 0.6 1.6-0.5 3.3-1.7 4.3-1.3 1.1-2.9 1.9-3.9 3.3-0.7 0.8-1 1.7-1.2 2.7-0.1 1 0.1 2 0.6 2.9 0.4 0.9 1.1 1.7 2 2.3 0.8 0.6 1.8 0.9 2.9 1 1.2 0.2 2.7 0 3.6 0.9 0.4 0.7 0.6 1.6 0.5 2.4-0.1 1.8 0.4 3.5 1.4 5 0.6 0.7 1.3 1.3 2.1 1.7 0.9 0.4 1.8 0.6 2.7 0.5 0.8-0.1 1.4-0.4 2.2-0.5q0.5-0.1 1 0.1 0.5 0.3 0.8 0.7 0.2 0.7 0.2 1.4c0 2.3 2.7 3.8 5.2 4.2 4.8 0.8 9.8-1.1 13.3-4.2 3.6-3.2 5.7-7.5 6.9-11.9 1.2-4.5 1.6-9.1 1.9-13.7"/>
	<path id="Layer" class="s9" d="m170.4 328.8c-0.7-1.2-1.7-2.2-2.8-3-7.1-5.6-17-7.5-25.9-6-9 1.6-17.1 6.3-23.3 12.5-3.3 3.3-7.6 9.4-8.3 13.9 5.7 0.7 13.7-2 18.6-4.8 4.9-2.7 9.6-5.9 15.2-7.1 6.4-1.3 13.2 0.1 19.8 0.6q2 0.2 3.9-0.1 1-0.2 1.8-0.8 0.8-0.6 1.3-1.4 0.4-0.9 0.3-1.9-0.1-1-0.6-1.9z"/>
	<g id="Layer" style="opacity: .3">
		<path id="Layer" class="s10" d="m170.3 328.9c-0.7-1.2-1.6-2.2-2.8-3-7.1-5.7-17-7.7-25.9-6.2-9 1.5-17 6.2-23.2 12.4-3.3 3.4-7.5 9.5-8.1 14.1 5.7 0.7 13.6-2 18.5-4.7 4.9-2.8 9.6-5.9 15.1-7.1 6.4-1.4 13.1 0.1 19.7 0.7q2 0.2 4-0.1 1-0.2 1.8-0.8 0.8-0.6 1.3-1.4 0.4-0.9 0.3-2-0.1-1-0.7-1.9z"/>
	</g>
	<path id="Layer" class="s9" d="m176.5 402.1l14.3-11.3c0 0 17.3 10 20.1 8.2l-22.9-27.2-23 16.8z"/>
	<path id="Layer" class="s1" d="m182.4 383.4c-0.1-0.3-0.1-0.7 0-1 0.1-0.3 0.4-0.6 0.7-0.8 0.3-0.1 0.7-0.1 1.1 0 0.3 0.1 0.6 0.4 0.8 0.7 0.1 0.3 0.1 0.7 0 1-0.1 0.4-0.4 0.7-0.8 0.8-0.3 0.1-0.7 0.1-1.1-0.1-0.3-0.1-0.6-0.4-0.7-0.7"/>
	<g id="Layer" style="opacity: .6">
		<path id="Layer" class="s11" d="m188.1 371.7l-2.2 1.8 22.8 25.4c0 0 1.5 0.8 2.3 0z"/>
	</g>
	<path id="Layer" class="s7" d="m190.9 391.3c0.2-0.1-0.3-0.8-0.4-1.8-0.1-1 0.2-1.8 0-1.8-0.1-0.1-0.8 0.7-0.6 1.8 0.1 1.2 0.9 1.9 1 1.8z"/>
	<path id="Layer" class="s7" d="m194.6 393.2c0.2-0.1-0.1-0.8 0.1-1.7 0.2-1 0.7-1.5 0.6-1.6-0.1-0.2-1 0.3-1.2 1.4-0.2 1.1 0.4 2 0.5 1.9z"/>
	<path id="Layer" class="s7" d="m199.5 392.1c0-0.1-0.9 0.2-1.3 1.1-0.5 0.9-0.3 1.7-0.1 1.7 0.1 0 0.2-0.7 0.6-1.4 0.4-0.8 0.9-1.3 0.8-1.4z"/>
	<path id="Layer" class="s7" d="m187.3 393.5c0.1-0.1-0.6-0.6-1.2-1.4-0.5-0.8-0.8-1.5-1-1.5-0.1 0-0.2 0.9 0.5 1.8 0.7 1 1.7 1.3 1.7 1.1z"/>
	<path id="Layer" class="s10" d="m175.8 380.8l9.3 14.4-2.1 1.9-10.4-14z"/>
	<path id="Layer" class="s7" d="m157.2 322.5c-0.7 0.1-21.7 2-32 10.3l-8.3 5.8 1.6 8.5c0 0-1.5 3.3-0.8 5 0.7 1.8 1.3 9.5 1.3 9.5 0 0-3.3 0.6-2.9 6.1 0 0-4.4 2.3-6 5.8-1.5 3.4-17.1 42-17.5 48-0.4 6 0.3 16.3 5.5 19.2 5.2 2.9 15.5 0.5 15.5 0.5 0 0 2.2 4.1 11.4 3.2 9.2-0.8 21.8-12.5 21.8-12.5l38.3-32-13.1-19-13.5 10.2 13.2-19.1c0 0 5.6-12.5 1.6-24.6-3-8.9-16.1-24.9-16.1-24.9z"/>
	<path id="Layer" class="s12" d="m162.5 328.4h-0.5l-1.5 0.2c-1.2 0.2-3 0.4-5.2 0.6-2.3 0.3-4.9 0.7-7.8 1.3q-4.7 1-9 2.9c-6.2 2.8-10.9 6.7-14.2 9.4l-3.9 3.4-1.1 0.9q-0.1 0.2-0.4 0.3 0 0 0.4-0.4l1-0.9c0.9-0.9 2.2-2.1 3.8-3.5 3.3-2.8 8-6.7 14.2-9.5q4.4-2 9.1-3 3.9-0.7 7.8-1.2c2.2-0.2 4.1-0.3 5.3-0.4l1.5-0.1q0.2 0 0.5 0z"/>
	<path id="Layer" class="s12" d="m119.8 339.9q-0.4 0.5-0.5 1.2 0 0.3 0.2 0.7 0.2 0.3 0.5 0.5 0.3 0.2 0.8 0.3 0.4 0 0.9-0.2 0.3-0.2 0.5-0.6 0.2-0.4 0.2-0.8 0-0.3-0.2-0.6-0.2-0.3-0.6-0.5-0.6-0.3-1.3-0.3c0 0 0.1-0.1 0.3-0.1 0.4-0.1 0.8 0 1.2 0.2q0.4 0.1 0.7 0.5 0.3 0.4 0.3 0.8 0.1 0.5-0.1 1-0.3 0.5-0.8 0.8-0.5 0.3-1.1 0.2-0.6 0-1.1-0.4-0.3-0.3-0.5-0.7-0.2-0.4-0.2-0.8 0.1-0.6 0.5-1c0.2-0.2 0.3-0.3 0.3-0.2z"/>
	<path id="Layer" class="s12" d="m127.6 340c0 0.1-0.4-0.1-0.8-0.5-0.7-0.4-1.2-1-1.5-1.7-0.3-0.7-0.4-1.5-0.2-2.3 0.2-0.5 0.3-0.8 0.3-0.8 0.1 0 0.1 0.3 0 0.9q-0.1 1 0.3 2 0.4 1 1.3 1.7c0.4 0.4 0.6 0.7 0.6 0.7z"/>
	<path id="Layer" class="s12" d="m129.2 338.8c0.1 0-0.3-0.1-0.7-0.4q-0.9-0.7-1.4-1.7c-0.4-0.9-0.6-1.9-0.4-2.8 0.1 0 0.2 1.3 0.8 2.6q0.7 1.3 1.7 2.3z"/>
	<path id="Layer" class="s12" d="m151.3 329.8c-0.1 0-0.2-0.4-0.3-0.9q-0.3-1.1-0.8-2.1-0.7-0.9-1.6-1.6c-0.4-0.4-0.7-0.6-0.7-0.7 0 0 0.4 0.1 0.9 0.4 0.7 0.5 1.3 1 1.7 1.7q0.6 1 0.8 2.2 0.1 0.5 0 1z"/>
	<path id="Layer" class="s12" d="m154.1 329.4c-0.1 0-0.2-0.3-0.2-0.9q-0.1-1.1-0.5-2.1-0.6-0.9-1.4-1.7c-0.4-0.5-0.6-0.8-0.5-0.8 0-0.1 0.3 0.2 0.7 0.6q1 0.7 1.5 1.8 0.5 1 0.4 2.2c0 0.5 0 0.9 0 0.9z"/>
	<path id="Layer" class="s12" d="m130.4 420.7q0-0.5 0.2-0.9 0.3-1 1-2.7c0.8-2.2 2-5.5 3.6-9.5 3.1-8.1 7.5-19.2 12.4-31.5l3.6-9q1.7-4.1 2.2-8.6c0.6-5 0.1-10.1-1.4-14.9-1-3.3-2.5-6.5-4.4-9.4-0.7-1-1.3-1.8-1.7-2.3l-0.4-0.6q-0.1-0.1-0.1-0.2 0.1 0 0.1 0.1l0.5 0.6c0.4 0.5 1 1.3 1.7 2.3 5 7.3 7.1 16 6 24.5-0.3 3-1.1 5.9-2.2 8.7q-1.7 4.3-3.5 9l-12.5 31.4-3.8 9.5-1 2.6-0.2 0.7q-0.1 0.1-0.1 0.2z"/>
	<path id="Layer" class="s12" d="m173.5 389.1q-0.2 0.2-0.4 0.3l-1.3 1-4.6 3.5c-3.8 3-9.2 7.1-15 11.7-5.8 4.7-11 8.9-14.7 12l-4.5 3.6-1.2 1q-0.3 0.2-0.5 0.3 0.2-0.2 0.4-0.3l1.2-1.1 4.3-3.7c3.8-3.2 9-7.5 14.8-12.1 5.7-4.6 11.2-8.7 15.1-11.6 1.9-1.5 3.6-2.6 4.7-3.4l1.3-1q0.2-0.1 0.4-0.2z"/>
	<path id="Layer" class="s12" d="m182.4 401.9q-0.3-0.3-0.5-0.7l-1.4-2.1c-1.1-1.7-2.7-4.1-4.6-6.7-1.8-2.6-3.4-4.9-4.6-6.7l-1.4-2q-0.3-0.4-0.4-0.8 0.3 0.3 0.6 0.7 0.5 0.7 1.5 2c1.2 1.7 2.9 4 4.7 6.6 1.8 2.7 3.4 5 4.5 6.8 0.6 0.9 1 1.6 1.2 2.2q0.3 0.3 0.4 0.7z"/>
	<path id="Layer" class="s12" d="m130 420.7c-0.1-0.1 6.2-6.9 14.2-15.3 7.9-8.4 14.4-15.2 14.5-15.1 0.1 0.1-6.3 7-14.2 15.3-8 8.4-14.4 15.2-14.5 15.1z"/>
	<path id="Layer" class="s12" d="m122.7 435.8q0.9-0.9 1.5-2c0.7-1.4 1.5-3.4 2.4-5.5 0.9-2.2 1.6-4.2 2.2-5.7q0.3-1.2 0.9-2.3-0.2 1.2-0.6 2.4c-0.5 1.5-1.2 3.5-2.1 5.7-0.9 2.2-1.7 4.2-2.5 5.6q-0.5 0.8-1.2 1.4-0.2 0.3-0.6 0.4z"/>
	<path id="Layer" class="s12" d="m130.8 437.1c-0.1 0 0.2-1 0.5-2.4q0.6-3 0.5-6 0-3-0.9-5.9-0.3-0.8-0.8-1.6-0.2-0.2-0.4-0.5c0 0 0.2 0.1 0.5 0.4q0.7 0.8 1 1.7c0.7 1.9 1 3.9 1 5.9q0.1 3.1-0.6 6-0.2 0.9-0.5 1.8-0.3 0.6-0.3 0.6z"/>
	<path id="Layer" class="s12" d="m120.1 426.5q0.8-0.4 1.6-0.7 1.9-0.7 3.6-1.7c2.7-1.6 4.3-3.5 4.4-3.4q-0.5 0.7-1.1 1.3-1.4 1.4-3.1 2.4-1.8 1.1-3.8 1.7-0.7 0.3-1.6 0.4z"/>
	<path id="Layer" class="s12" d="m122.7 369.6q-0.1 0.1-0.1 0.2l-0.3 0.5q-0.4 0.6-1.1 1.9-1.8 3.6-2.8 7.5-1.4 5.8-2 11.7c-0.5 4.5-1.1 9.4-2.4 14.4-1.3 5-3.3 9.6-4.4 13.9-1 3.9-1.3 7.8-0.8 11.8q0.4 2.3 1.2 4.4 0.7 1.6 1.7 3.1 0.6 0.9 1.3 1.8 0.2 0.3 0.4 0.5 0 0 0.1 0.1-0.1 0-0.2-0.1l-0.4-0.4q-0.7-0.9-1.4-1.8-1-1.5-1.7-3.1-0.9-2.2-1.3-4.5c-0.5-4-0.3-8 0.7-11.9 1.1-4.4 3-8.9 4.4-13.9 1.4-5 1.8-9.9 2.4-14.3q0.6-6 2.1-11.8 1.1-3.9 3-7.5 0.6-1.2 1.1-1.8l0.3-0.5c0.1-0.1 0.1-0.2 0.2-0.2z"/>
	<path id="Layer" class="s12" d="m121.1 345.3q-0.1 0.5-0.3 1-0.4 1.3-0.4 2.7 0 2.1 0.7 4c0.5 1.5 1.4 3 2.1 4.7q0.5 1.3 0.6 2.7 0.1 1.2 0 2.4-0.3 2.1-0.7 4.1c-0.2 1.2-0.5 2.1-0.6 2.8q-0.1 0.5-0.3 0.9 0-0.5 0.1-1 0.2-1.1 0.5-2.7c0.2-1.1 0.4-2.6 0.6-4.1 0.2-1.7 0-3.4-0.6-4.9-0.7-1.7-1.6-3.2-2-4.8q-0.7-2-0.7-4.1 0.1-1.4 0.5-2.8 0.2-0.3 0.3-0.7c0.1-0.1 0.2-0.2 0.2-0.2z"/>
	<path id="Layer" class="s12" d="m125.6 368.2c0.7-1.1 1.2-2.2 1.5-3.5q0.4-2.1 0-4.1-0.5-2.6-1.4-5-0.9-2.4-1.6-5-0.5-2-0.5-4.2-0.1-1.4 0.3-2.8 0.1-0.4 0.2-0.7 0.1-0.3 0.1-0.3c0 0-0.1 0.4-0.2 1q-0.2 1.4-0.1 2.8 0.1 2.1 0.6 4.2c0.3 1.5 1 3.1 1.6 4.9q0.9 2.4 1.4 5c0.2 1.4 0.2 2.9-0.1 4.3q-0.4 1.4-1.2 2.6-0.2 0.3-0.5 0.6-0.1 0.2-0.1 0.2z"/>
	<path id="Layer" class="s12" d="m145.5 359.6q-0.5 0.2-1 0.3c-0.6 0.2-1.5 0.4-2.7 0.7q-4.3 1.3-8.4 3.2-4.1 1.9-7.8 4.3-1.4 1-2.2 1.6-0.4 0.3-0.8 0.5 0.3-0.3 0.7-0.6c0.5-0.5 1.2-1 2.2-1.7 4.8-3.5 10.4-6 16.3-7.5 1.1-0.3 2-0.5 2.7-0.6q0.5-0.2 1-0.2z"/>
	<path id="Layer" class="s12" d="m145.6 351.1c0 0.1-1.2 0.2-3.1 0.7q-1.6 0.5-3.1 1.1c-2.6 1.1-4.9 2.6-6.8 4.5q-1.2 1.2-2.2 2.5c-1.2 1.4-1.7 2.5-1.8 2.4q0.1-0.4 0.3-0.7 0.6-1 1.2-1.9 1-1.4 2.1-2.6 1.5-1.4 3.3-2.5 1.7-1.2 3.7-2 1.6-0.7 3.2-1 1.2-0.3 2.4-0.4 0.4-0.1 0.8-0.1z"/>
	<path id="Layer" class="s12" d="m149.9 368.4q-0.4 0.3-0.8 0.5-0.9 0.3-2.5 1.1-3.9 1.9-7.7 4.2-3.7 2.3-7.1 5-1.3 1-2 1.6-0.3 0.4-0.7 0.6 0.2-0.4 0.6-0.7 0.7-0.6 2-1.8 3.3-2.8 7-5.1 3.7-2.3 7.8-4.1c1-0.5 1.9-0.8 2.5-1q0.4-0.2 0.9-0.3z"/>
	<path id="Layer" class="s12" d="m173.1 345.3q-0.4-0.1-0.9-0.2-0.8-0.2-2.3-0.5-4.1-0.8-8.3-0.8l0.2-0.2c0.5 3.3 1.1 7.3 1.4 11.5q0.5 6.1 0.1 12.3v-0.1q1.6 3.4 3.7 6.5c0.5 0.7 0.9 1.3 1.2 1.7q0.3 0.3 0.5 0.6-0.3-0.2-0.5-0.5-0.8-0.8-1.4-1.7-2.1-3.1-3.8-6.4v-0.1q0.3-6.2-0.2-12.3c-0.3-4.2-0.9-8.1-1.4-11.4v-0.2h0.2q4.2 0 8.4 0.9 1.5 0.3 2.2 0.5 0.5 0.2 0.9 0.4z"/>
	<path id="Layer" class="s12" d="m174.4 348.6q-0.9-0.1-1.8-0.3c-1.1-0.2-2.6-0.4-4.3-0.6-3.4-0.3-6.2-0.5-6.2-0.6q0.9-0.1 1.9-0.1c1.1 0.1 2.6 0.1 4.3 0.3 3.5 0.4 6.2 1.1 6.1 1.3z"/>
	<path id="Layer" class="s12" d="m168.8 337.3c0 0-1-0.1-2.7-0.3q-3.2-0.4-6.5-0.2-3.3 0.1-6.5 0.6-1.3 0.3-2.6 0.4 0.3-0.1 0.6-0.2 0.7-0.2 2-0.5 3.2-0.6 6.5-0.8 3.3-0.1 6.6 0.4 1.2 0.2 1.9 0.4 0.4 0 0.7 0.2z"/>
	<path id="Layer" class="s12" d="m152.4 342.8q-0.5 0.3-1 0.4c-0.7 0.3-1.7 0.6-3 1-3.3 1-6.7 1.5-10.1 1.7-2.1 0-4.1 0-5.8-0.7-0.8-0.4-1.4-0.9-1.9-1.6-0.5-0.6-0.7-1.3-0.6-2q0-1.5 0.5-3 0.1-0.5 0.4-1c0 0-0.1 0.4-0.3 1.1q-0.3 1.4-0.3 2.9c0 0.6 0.2 1.3 0.6 1.8 0.4 0.6 1.1 1.1 1.8 1.4 1.6 0.7 3.6 0.6 5.6 0.6q5.1-0.2 10.1-1.5c1.3-0.4 2.3-0.7 3-0.9q0.5-0.1 1-0.2z"/>
	<path id="Layer" class="s7" d="m130.7 205.7c-5.1-7.6-14.5-4.9-18.9-2.2-4.3 2.6-7.4 6.6-8.7 11.4-0.9 3.2-1.5 6.8-3.9 9q-1.8 1.3-3.6 2.4-1 0.6-1.6 1.5-0.6 1-0.7 2c0 2.8 3.2 4.3 5.7 5.1-1.3 1.1-1.4 3.2-0.6 4.8 0.8 1.5 2 2.8 3.4 3.9 4.9 3.9 10.2 7.1 15.9 9.7 4.9 2.1 7.8 2 12.4-0.4 1.8-1 3.4-2.4 5.5-2.9 2.4-0.5 4.9 0.4 7.3 0.6 2.5 0.2 5.4-0.8 5.8-3.3q0.1-1.4-0.1-2.9c0-0.9 0.4-2 1.2-2.3 0.8-0.3 1.6 0 2.3 0.2 1.8 0.3 6.2 12.1 7.8 11.2 0 0-0.7-20.8-7.1-32.2-2.1-3.7-6.4-11.5-9.4-14.4-4.2-3.9-12.3-2-12.7-1.2"/>
	<path id="Layer" class="s6" d="m125.9 207.6c-6.4-1.3-14 4-15.1 10.1-1.1 6.8-2.2 15.1-1.8 20.3 0.7 10.3 9 12.5 9 12.5l-0.8 16.5 25.4-11.2 3.7-39 0.4-3.3z"/>
	<path id="Layer" class="s7" d="m111.9 225.8c0.2 0.3 1.4-0.2 2.9 0.1 1.5 0.4 2.4 1.4 2.6 1.2 0.2-0.1 0-0.4-0.4-0.8-0.6-0.6-1.3-1-2-1.2-0.8-0.2-1.6-0.1-2.4 0.2-0.5 0.2-0.7 0.4-0.7 0.5z"/>
	<path id="Layer" class="s7" d="m126.4 227.6c0.2 0.1 1.2-0.7 2.7-0.7 1.5-0.1 2.7 0.6 2.9 0.4 0.1-0.2-0.2-0.4-0.7-0.7-0.7-0.4-1.5-0.6-2.3-0.6-0.8 0.1-1.5 0.3-2.1 0.8-0.5 0.4-0.6 0.7-0.5 0.8z"/>
	<path id="Layer" class="s7" d="m121 234.1q-1.2-0.5-2.4-0.7c-0.4 0-0.8-0.2-0.8-0.4q0-0.6 0.4-1l1.4-2.7c1.9-3.7 3.4-6.8 3.2-6.9-0.2 0-1.9 2.9-3.8 6.7q-0.7 1.3-1.4 2.6c-0.3 0.4-0.4 0.9-0.3 1.4q0.1 0.2 0.2 0.4 0.2 0.1 0.4 0.2 0.3 0.1 0.6 0.1 1.2 0.3 2.5 0.3z"/>
	<path id="Layer" class="s13" d="m117.7 250.5c5.3 0.6 10.6-0.1 15.4-2.2 0 0-4.2 6.9-15.5 4.8z"/>
	<path id="Layer" class="s13" d="m120.8 238.7c-0.2-0.1 0.1 0.2 0 0z"/>
	<path id="Layer" class="s13" d="m125.5 237.5q-0.4-0.4-0.8-0.7-0.5-0.3-1.1-0.4-0.8-0.2-1.5 0-0.8 0.2-1.3 0.7-0.2 0.4-0.2 0.8 0 0.4 0.2 0.8c0.6 0.6 0.7 1.1 1.5 1.4q0.8 0.2 1.6 0 0.8-0.2 1.5-0.7 0.3-0.4 0.3-0.9 0.1-0.5-0.2-1z"/>
	<path id="Layer" class="s7" d="m125.3 235.5c-0.3-0.1-0.4 1.5-1.9 2.4-1.6 1-3.3 0.6-3.3 0.8 0 0.1 0.3 0.4 1.1 0.5 0.9 0.1 1.9-0.1 2.7-0.6 0.8-0.5 1.3-1.2 1.5-2.1 0.1-0.6 0-1-0.1-1z"/>
	<path id="Layer" class="s7" d="m128.4 220c0 0.4 1.3 0.6 2.6 1.4 1.4 0.7 2.4 1.5 2.7 1.2 0.2-0.1 0.1-0.5-0.2-1-0.4-0.7-1-1.2-1.8-1.6-0.7-0.3-1.5-0.5-2.2-0.5-0.7 0.1-1.1 0.3-1.1 0.5z"/>
	<path id="Layer" class="s7" d="m112.1 220.5c0.4 0.3 1.5-0.3 2.8-0.6 1.4-0.3 2.6-0.3 2.8-0.7 0.1-0.2-0.2-0.5-0.8-0.7-0.8-0.2-1.6-0.2-2.4 0-0.8 0.1-1.5 0.5-2.1 1.1-0.4 0.4-0.4 0.8-0.3 0.9z"/>
	<path id="Layer" class="s7" d="m148.4 213.3c-0.6-0.7-1.4-1.2-2.3-1.5q-8.6-3.2-17.5-5.3l-2.1 1.5c0 2.2 0.7 4.3 2 6.1 1.3 1.8 3.1 3.2 5.2 4.1 1.7 0.6 3.9 1.2 4.4 2.9 0.4 1.6-1.3 3.1-2.2 4.7-0.6 1-0.8 2.1-0.6 3.2 0.1 1.1 0.6 2.1 1.3 3 0.9 0.9 2.1 1.6 2.9 2.6q0.8 1 1 2.2 0.2 1.3-0.1 2.5c-0.4 1.6-1.2 3.7-2.6 4.8 2.1 0.2 4.2-0.3 6-1.2 1.8-1 3.2-2.5 4-4.3 1-2.1 0.7-4.5 0.5-6.8-0.4-5.3-0.3-10.6 0.4-15.8 0.2-0.9 0.1-1.8-0.3-2.7z"/>
	<path id="Layer" class="s7" d="m129 206.9c-1.2 2-2.7 3.7-4.4 5.2-1.9 1.5-4.4 2.3-6.7 1.7q0.7-0.9 1.4-1.9c-3.6 3-7.8 5.3-12.4 6.6 2.5-3.7 5-7.5 8.7-10.1 3.7-2.7 8.9-3.9 13.1-2.1"/>
	<path id="Layer" class="s7" d="m150.4 223.9l-11.1 10.5c1.6 1.3 1.6 5.1 0.5 6.8-1.2 1.6-2.9 3.1-3.1 5.1-0.3 2.1 1.2 4.2 1.5 6.3 0.5 3.1-1.3 6-2.6 8.8-1.3 2.9-2 6.5 0.3 8.8 2.5 2.6 7.3 1.6 9.9-0.8 2.6-2.4 3.8-5.9 5.5-8.9 1.7-3.1 4.8-5.6 8.5-5.7-0.4-10.8-3.7-21.4-9.4-30.9z"/>
	<path id="Layer" class="s7" d="m156.5 249.1c-0.1-0.1 0.6-0.7 1.7-1.8q2.4-2.2 4-5 1.1-1.9 1.6-4c0.3-1.6 0.3-3.2 0-4.8-0.4-1.8-1.2-3.4-2.5-4.7-1.3-1.5-2.9-2.8-4.7-3.8-3.8-2.1-8-3-11.7-4.1-3.4-0.8-6.7-2-9.8-3.7-2.2-1.1-4-2.6-5.4-4.5-1-1.3-1.3-2.2-1.2-2.2 0.2 0 0.7 0.7 1.8 1.8 1.6 1.5 3.5 2.8 5.5 3.7 3.1 1.4 6.3 2.4 9.6 3.1 1.9 0.5 3.9 1 6 1.6q3.3 1 6.3 2.6c2 1.1 3.8 2.5 5.3 4.2 1.4 1.7 2.4 3.6 2.8 5.7 0.3 1.8 0.2 3.7-0.3 5.5q-0.6 2.3-1.9 4.3c-1.3 1.9-2.9 3.5-4.8 4.9-1.4 0.9-2.3 1.3-2.3 1.2z"/>
	<path id="Layer" class="s12" d="m152.7 221.6q-0.6-0.1-1.1-0.2-1.1-0.3-3.1-0.8c-3.3-0.8-6.6-2.1-9.6-3.7-3-1.7-5.5-4.2-7.1-7.2q-0.7-1.4-1-2.8-0.1-0.4-0.1-0.8-0.1-0.1-0.1-0.3 0.5 2 1.4 3.8c1.7 2.8 4.1 5.2 7.1 6.9 3 1.7 6.2 3 9.5 3.9l3 0.8q0.6 0.2 1.1 0.4z"/>
	<path id="Layer" class="s12" d="m154.8 233.1c-0.1 0 0.1-0.4 0.1-1.3 0-1.3-0.5-2.5-1.2-3.5-1.1-1.6-2.6-2.9-4.4-3.7-2-1-4.3-1.7-6.7-2.8-2.3-0.9-4.4-2.2-6.3-3.7q-2.3-2-4-4.4-1.1-1.6-1.8-3.4c-0.2-0.4-0.3-0.7-0.4-0.9q-0.1-0.2-0.1-0.4 0.3 0.6 0.6 1.3 0.9 1.7 2 3.3 1.7 2.3 4 4.2c1.8 1.6 3.9 2.8 6.1 3.7 2.4 1 4.8 1.7 6.8 2.8 1.8 0.9 3.3 2.2 4.4 3.9 0.8 1.1 1.2 2.3 1.1 3.6q0 0.5-0.1 1c-0.1 0.2-0.1 0.3-0.1 0.3z"/>
	<path id="Layer" class="s12" d="m84.2 233.6c0 0 0 0 0.1-0.1q0.1-0.2 0.2-0.4 0.5-0.7 1.2-1.1 1.3-0.6 2.7-0.8c1-0.2 2.3-0.4 3.6-0.5q2.2-0.2 4.3-0.9c1.5-0.6 2.9-1.5 4-2.6q1.8-2 2.9-4.4 1.2-2.6 2.1-5.3 0.9-2.7 2.2-5.2c0.9-1.6 2-3 3.4-4.3 2.3-2 5.3-3.3 8.5-3.7 2.1-0.3 4.3-0.2 6.4 0.3l1 0.3 0.6 0.2q0.3 0.1 0.6 0.3-0.3-0.1-0.6-0.2l-0.7-0.2-1-0.2c-2-0.5-4.2-0.6-6.3-0.2-3.1 0.4-6 1.7-8.3 3.7-1.3 1.2-2.4 2.6-3.2 4.2q-1.3 2.5-2.2 5.2-0.9 2.7-2.1 5.3-1.1 2.4-3 4.4c-1.2 1.2-2.6 2.1-4.2 2.7q-2.1 0.6-4.3 0.8c-1.4 0.2-2.6 0.3-3.6 0.5q-1.4 0.1-2.7 0.7-0.7 0.4-1.2 1-0.2 0.3-0.4 0.5z"/>
	<path id="Layer" class="s6" d="m77.4 223.9c-6.6-11.1-14.8-21.8-17-30.4l-9.7 1.5c0.7 3.3 6.1 31.1 14.7 41.4 8.5 10.3 35.4 33.5 35.4 33.5l5.2-20.6c0 0-22-14.4-28.6-25.4z"/>
	<path id="Layer" class="s6" d="m54 176.3l-4.3 0.5c0 0 0.7 2.3 2.7 2.2 2-0.1 1.5-0.4 1.5-0.4l-0.4 0.4-2.6 0.8c0 0 0.5 1.9 2.3 2l2.2-2.5z"/>
	<path id="Layer" fill-rule="evenodd" class="s6" d="m67.3 171.9l1 7c0 0-2.2 2.6-3.2 4-0.5 0.7-0.8 1.4-0.8 2.2q-0.1 0.9-0.6 1.6c-1.2 1.5-3.4 5.1-2.8 8.2l-10 0.8c-0.9-3.3 2.3-13.8 2.7-18.1 0.5-4 1.7-3.8 1.7-3.8 2.2-0.5 1.9 1.9 1.9 1.9l1.8-0.1q0.5 0 0.9 0.2 0.4 0.3 0.6 0.8l1.7 4.3 3.4-3.5c0 0 0.1 0.2 0-2.9 0-2.9 1.7-2.6 1.7-2.6zm-8.8 9.1l-1.7 0.3v2l1.9-1.1z"/>
	<path id="Layer" class="s13" d="m56.7 183.6q-0.1-0.4 0-0.8 0-0.8 0.1-2.3l0.2-3.3q0.1-1 0-2c-0.1-0.6-0.4-1.3-1.1-1.3-0.7 0.1-1.2 0.6-1.5 1.2q-0.1 0.4-0.2 0.9l-0.2 1-0.6 3.3c-0.2 0.9-0.4 1.7-0.5 2.2q-0.1 0.4-0.3 0.8 0-0.4 0.2-0.8c0.1-0.5 0.2-1.3 0.3-2.2 0.2-1 0.3-2.1 0.5-3.4q0.1-0.4 0.2-0.9 0.1-0.5 0.3-1 0.2-0.6 0.6-1 0.2-0.2 0.6-0.3 0.3-0.1 0.6-0.1 0.3 0 0.6 0.1 0.4 0.2 0.6 0.4 0.3 0.5 0.4 1.1 0 1-0.1 2l-0.3 3.4c-0.1 0.9-0.2 1.7-0.3 2.2q0 0.4-0.1 0.8z"/>
	<path id="Layer" class="s13" d="m58.6 182.3q-0.3-1.1-0.5-2.3c0-0.3-0.1-0.5-0.2-0.8q0-0.3-0.2-0.5c-0.3-0.2-0.7-0.2-0.7-0.2 0-0.1 0.1-0.1 0.2-0.1q0.3-0.1 0.6 0 0.2 0.1 0.3 0.3 0.2 0.2 0.2 0.4 0.2 0.5 0.3 0.9c0.2 0.8 0.2 1.5 0 2.3z"/>
	<path id="Layer" class="s13" d="m63.2 180c0 0-0.2 0.4-0.7 0.9q-0.9 1-2.1 1.7-1.2 0.7-2.6 0.9-0.6 0.2-1.2 0.1 0.5-0.2 1.1-0.3 1.3-0.4 2.5-1 1.1-0.7 2.1-1.6c0.5-0.5 0.9-0.8 0.9-0.7z"/>
	<path id="Layer" class="s6" d="m154.2 257.1c0 0 11.1-1.6 17.4-4.2 6.4-2.6 31.1-11.3 31.1-11.3l39.9-11.1 2.3 9.9c0 0-36.4 14.8-43.5 18.1-7 3.2-39.1 18-45.7 17.4l-5.1-7.3z"/>
	<path id="Layer" class="s6" d="m260.9 216.6c-0.7-0.1-3.8 1.7-3.8 1.7 0.3-0.4 0.4-0.9 0.3-1.3 0-0.5-0.3-0.9-0.6-1.3l-4.2 2.6q-1.5 1.9-3.3 3.7-2.7 3-4.9 6.5l-2.3 2.7 3.1 9.1c1.2 0 2.3-0.3 3.4-0.8 1.3-0.8 3-3.5 3-3.5l3.8-0.7q0.7-0.1 1.1-0.6 0.5-0.6 0.7-1.2 0.1-0.7-0.1-1.4c2.3-1.6 0.6-3.1 0.6-3.1 0.8-0.2 1.4-0.6 1.8-1.2q0.3-0.6 0.2-1.1-0.1-0.6-0.6-1c-0.6-0.7-4.1 0-4.1 0l-0.3-1c0 0 4.8-4.6 5.9-5.7 1.1-1 0.9-2.4 0.3-2.4z"/>
	<path id="Layer" class="s13" d="m257.2 218.2q-0.4 1.1-1.4 2-0.9 1-1.7 2.1c-0.5 0.9-0.9 1.9-1 2.9q-0.2 1.7-0.7 3.2-0.5 1.3-1.4 2.4-0.5 0.7-1.2 1.4-0.2 0.2-0.5 0.4c-0.1-0.1 0.6-0.7 1.5-2q0.7-1.1 1.2-2.3 0.5-1.5 0.7-3.1c0.1-1.1 0.5-2.2 1.1-3.1q0.8-1.1 1.8-2 0.9-0.9 1.6-1.9z"/>
	<path id="Layer" class="s13" d="m257.2 232q-0.8 0.7-1.7 1-1 0.5-2.1 0.7-0.6 0.1-1.3 0.1-0.8 0.1-1.5-0.3-0.3-0.1-0.5-0.5-0.3-0.3-0.3-0.7c0-0.4 0.2-0.8 0.5-1.2q0.4-0.4 1-0.7 0.5-0.2 1-0.3 0.9-0.4 1.9-0.4c0 0-0.7 0.2-1.8 0.7l-0.9 0.3q-0.5 0.3-0.9 0.7-0.3 0.4-0.4 0.9 0 0.3 0.2 0.5 0.2 0.3 0.5 0.4c0.8 0.3 1.6 0.3 2.4 0.1q1.1-0.2 2.1-0.5c1.1-0.5 1.8-0.8 1.8-0.8z"/>
	<path id="Layer" class="s13" d="m257.9 229q-0.6 0.4-1.4 0.5-0.7 0.2-1.5 0.3-0.5 0.1-1.1 0-0.5-0.1-0.9-0.4-0.4-0.4-0.5-1-0.1-0.5 0.1-1c0.2-0.4 0.6-0.9 1.1-1.1q0.6-0.5 1.3-0.6c0 0.1-0.5 0.3-1.1 0.8q-0.6 0.4-0.9 1.1-0.2 0.3-0.1 0.7 0.1 0.4 0.4 0.8 0.3 0.2 0.8 0.3 0.4 0.1 0.8 0 0.8 0 1.6-0.1 0.7-0.2 1.4-0.3z"/>
	<path id="Layer" class="s13" d="m256 235q-0.5 0.3-1.1 0.5-1.4 0.5-2.8 0.6-0.3 0.1-0.5 0-0.3 0-0.5-0.2-0.3-0.3-0.3-0.7-0.1-0.4 0.1-0.7 0.1-0.3 0.4-0.6c0.6-0.5 1.2-0.3 1.2-0.2q-0.6 0.1-1 0.4-0.2 0.2-0.3 0.5-0.1 0.3 0 0.5 0 0.3 0.2 0.5 0.1 0.1 0.3 0.2 0.2 0 0.3 0 1.4-0.2 2.8-0.5 0.6-0.3 1.2-0.3z"/>
	<path id="Layer" class="s4" d="m139.8 292.4q-0.3 0.3-0.7 0.5-1.1 0.6-2.2 1c-2.5 1-5.2 1.5-7.9 1.3-2.7-0.2-5.4-0.9-7.7-2.3q-1.1-0.6-2-1.3-0.4-0.3-0.7-0.7c0.1 0 1 0.8 2.8 1.8 2.3 1.2 4.9 2 7.6 2.1 2.7 0.2 5.3-0.2 7.8-1.1 1.9-0.7 2.9-1.4 3-1.3z"/>
	<path id="Layer" class="s9" d="m116.9 265.9c0 0 24.7-10.7 25.7-11 0.9-0.4 24-1.1 24-1.1 0 0 1.2 14.4 7.6 18.3l-16 7.6-3.2 14.3c0 0-2.1 6 1 10.9 5.9 9.5 16 24.3 15.1 26.2-0.1 0.2-1.6-5.3-13-7-3.5-0.5-9.5 0.1-14.8 1.8-22.8 7.1-30.3 18.3-32.7 20.4 0 0-0.5-36.3-3.6-41.6-3.1-5.3-6.1-8.7-4.9-13.8 1.1-5.2 2.7-13.5 2.7-13.5l-10.7-8.8 9.9-21.7 13.2 7.9z"/>
	<path id="Layer" class="s7" d="m130.3 298.2q-0.4 0.1-0.8 0.1-1.3 0.1-2.5 0c-2.7-0.3-5.4-1.2-7.6-2.7-2.2-1.5-4-3.6-5-6.1q-0.4-1.1-0.6-2.2-0.1-0.5-0.1-0.9 0.4 1.5 1 3c1.1 2.3 2.8 4.3 4.9 5.8 2.2 1.5 4.8 2.4 7.4 2.8 2.1 0.3 3.3 0.2 3.3 0.2z"/>
	<path id="Layer" class="s7" d="m101.6 271c1.1 1.1 1.9 2.5 2.3 4 0.6 1.5 0.6 3.1 0.3 4.5q-0.1-2.2-0.7-4.4-0.7-2.1-1.9-4.1z"/>
	<path id="Layer" class="s7" d="m157.6 268.6c0 0-0.5 0.4-1.1 1.2-0.9 1.1-1.6 2.3-2 3.5-0.4 1.3-0.5 2.6-0.3 4 0.1 1 0.3 1.6 0.2 1.6q-0.4-0.7-0.5-1.6c-0.3-1.4-0.2-2.8 0.2-4.1 0.4-1.3 1.1-2.6 2.1-3.6q0.6-0.7 1.4-1z"/>
	<g id="Layer" style="opacity: .3">
		<path id="Layer" class="s10" d="m126.4 298.1c-2.5-0.2-5-1.2-7-2.8-1.3-1-2.5-2.1-3.4-3.4-0.2 2.5 4.1 6.5 7.8 7.7 1.9 0.6 3.9 0.8 5.8 0.5 2-0.3 3.8-1 5.4-2q-4.3 0.4-8.6 0z"/>
	</g>
	<path id="Layer" class="s14" d="m160.7 311.8c0 0-0.7-0.4-2.2-0.8-2-0.6-4.1-0.7-6.2-0.5-3.1 0.3-6.1 1.3-8.8 2.8q-4.9 2.8-9.1 6.5c-5.2 4.4-10.8 8.3-16.8 11.6-2.3 1.3-4.2 2.2-5.6 2.8q-1 0.5-1.6 0.7-0.2 0.2-0.5 0.2 0.2-0.1 0.5-0.2l1.5-0.8c1.3-0.7 3.2-1.7 5.5-3 6-3.4 11.5-7.3 16.7-11.7q4.2-3.7 9.2-6.5c2.7-1.5 5.8-2.4 9-2.7 2.1-0.2 4.3 0 6.3 0.6q1.1 0.4 2.1 1z"/>
	<path id="Layer" class="s14" d="m154.3 299.7q-0.8-0.5-1.7-1c-1.7-0.7-3.5-1-5.4-0.9-2.7 0.2-5.3 0.9-7.6 2.2q-4.2 2.4-8.2 5.2-4 2.8-8.3 5.2-3.6 1.8-7.5 2.8-2.7 0.7-5.5 0.8-0.7 0-1.5-0.1-0.3 0-0.5-0.1c0 0 0.7 0 2 0q2.7-0.1 5.4-0.8 3.9-1.1 7.4-3 4.3-2.3 8.3-5.1 4-2.8 8.2-5.2c2.4-1.3 5.1-2 7.8-2.2 1.9-0.1 3.8 0.3 5.4 1.1q1 0.4 1.7 1.1z"/>
	<path id="Layer" class="s14" d="m118.1 294.2c0 0-0.2 0.2-0.5 0.5q-0.3 0.2-0.6 0.5-0.4 0.3-0.9 0.5-1.1 0.7-2.4 1.2-1.6 0.6-3.3 0.8-1.7 0.2-3.5 0.1-1.4-0.1-2.7-0.5-0.5-0.2-1-0.4-0.4-0.1-0.8-0.3-0.6-0.3-0.6-0.3c0.1 0 0.9 0.3 2.5 0.7q1.3 0.3 2.7 0.4 1.6 0.1 3.3-0.1 1.7-0.2 3.2-0.8 1.3-0.4 2.5-1c1.3-0.8 2-1.4 2.1-1.3z"/>
	<path id="Layer" class="s14" d="m156.7 287.7q-0.1 0.2-0.3 0.3-0.4 0.4-0.9 0.7c-1.3 0.9-2.7 1.4-4.2 1.7-2.2 0.5-4.5 0.5-6.7 0.2-2.6-0.3-5.3-0.9-8.2-1.3-4.9-0.7-9.9-0.5-14.7 0.8q-2.2 0.5-4.3 1.3c-0.9 0.4-1.5 0.7-1.5 0.6q0 0 0.4-0.2 0.3-0.2 1.1-0.5 2-0.9 4.2-1.5c4.8-1.4 9.9-1.7 14.9-0.9 2.9 0.4 5.6 1 8.1 1.3 2.2 0.4 4.5 0.3 6.6 0 1.5-0.3 2.9-0.8 4.2-1.6 0.8-0.5 1.3-1 1.3-0.9z"/>
	<path id="Layer" class="s14" d="m154.4 276.4q-0.3 0.1-0.5 0.1c-0.4 0-0.8 0.2-1.5 0.3q-2.8 0.4-5.7 0.3c-2.4-0.1-5.2-0.5-8.4-0.9q-5-0.8-10.2-0.8-1.3 0-2.6 0.2-0.7 0.1-1.3 0.2l-1.3 0.3q-2.3 0.6-4.5 1.7c-2.8 1.3-5.2 2.8-7.4 3.8q-2.5 1.2-5.3 1.8-0.7 0.1-1.5 0.1-0.3 0.1-0.6 0 0.3 0 0.6 0 0.7-0.1 1.5-0.3 2.7-0.6 5.2-1.9c2.1-1 4.5-2.5 7.3-3.9q2.2-1.1 4.6-1.7l1.3-0.3q0.6-0.1 1.3-0.2 1.3-0.1 2.7-0.2 5.2 0 10.3 0.9c3.1 0.4 5.9 0.8 8.3 1q2.9 0.1 5.7-0.2l1.5-0.2q0.2-0.1 0.5-0.1z"/>
	<path id="Layer" class="s14" d="m159.7 254.6c0 0.1-0.6 1.3-1.1 3.4-0.6 2.8-0.5 5.7 0.4 8.4 1 2.7 2.6 5.2 4.8 7.1 1.7 1.6 3 2.2 2.9 2.3q-0.5-0.2-0.9-0.5-1.2-0.7-2.2-1.6c-2.3-1.9-4-4.4-5-7.2-0.9-2.8-1-5.7-0.3-8.5q0.3-1.3 0.9-2.5 0.2-0.4 0.5-0.9z"/>
	<path id="Layer" class="s14" d="m116.4 262.5q-0.3 0.2-0.7 0.2-0.9 0.3-2 0.5-1.5 0.2-3 0.1c-1.3-0.1-2.6-0.6-3.6-1.4-1.1-0.8-1.9-1.7-2.8-2.4q-1.1-0.9-2.5-1.5c-0.8-0.4-1.8-0.5-2.7-0.5q0.4-0.1 0.8-0.1 1-0.1 2 0.3 1.5 0.6 2.7 1.6c0.9 0.6 1.7 1.5 2.8 2.3 0.9 0.7 2.1 1.2 3.3 1.3q1.5 0.2 3 0c1.7-0.3 2.7-0.5 2.7-0.4z"/>
	<path id="Layer" class="s4" d="m300.4 239.6l25.3-3.5-12-15.8-6.5 0.4c-2.2 0.1-4.2 0.7-6 1.9-1.7 1.1-3.1 2.7-4 4.5-0.9 2-1.1 4.2-0.7 6.3z"/>
	<path id="Layer" class="s15" d="m300.4 239.6l25.3-3.5-12-15.8-6.5 0.4c-2.2 0.1-4.2 0.7-6 1.9-1.7 1.1-3.1 2.7-4 4.5-0.9 2-1.1 4.2-0.7 6.3z"/>
	<path id="Layer" class="s6" d="m409 265.5q0.4 1 0.9 2.4 0.3 1.2 0.2 2.5 0 1.6-0.6 3.1c-0.4 0.9 0.6 1.8 1.4 1.3 0.8-0.4 2-2.8 2-5.9 0-3.1 3.4 0.6 4.7 1.9 1.2 1.4 5.4 5.3 6.2 5.3 1.1-0.1 1.2-1.2-0.1-2.5-1.3-1.3-4.9-5.5-4.1-6.1 0.7-0.6 7.1 6.4 7.1 6.4 0 0 1.1 1.6 2 1 1.8-1.2-5.6-8.1-6.4-8.7-0.4-0.4 0.4-1.1 0.9-0.6 0.5 0.5 6.2 7 8 5.8 1.3-0.9-6.1-5.7-6.4-7.6-0.4-2 5.2 4.1 6.4 3.2 0.5-0.3 0.8-0.6-3-3.7-1.8-1.5-8.7-6-8.7-6l-20.8-54.9-16 8.5z"/>
	<path id="Layer" class="s6" d="m285.5 161.6l-23.2-25.6q-0.4-1.3-1.1-2.6c-0.5-1-1.3-1.9-2.3-2.6-0.9-0.7-2-1.3-3.2-1.6-1.4-0.3-3.1-0.1-4.3-1-0.5-0.4-0.8-1-1.4-1.4-0.5-0.4-1.4-0.4-1.8 0.1q-0.1 0.3-0.1 0.7 0 0.3 0.2 0.6c0.9 1.9 2.3 3.5 4 4.8-2.1 0.6-5.2 1.5-5.2 1.5 0 0-4.9-4.9-7.4-4.9-2.6 0 2 4.4 2 4.4 0 0-4.1-3.4-5.3-2.4-1.2 0.9 1.9 3.5 1.9 3.5-0.9-0.6-2.1-0.9-3.2-0.9-1.2 0.2-2.1 1.5-1.5 2.4q0.4 0.4 1 0.7l6.2 3.2c0.9 0.6 2.1 1 3.3 1.1 3.1 0.1 5.5-1.7 8.6-1.6 0 0 17.5 34 19.3 35.8 1.7 1.7 40.2 4.1 40.2 4.1l22.2-17.7z"/>
	<path id="Layer" class="s4" d="m355.1 347l23.7 9.5-12.6 27.4c-2.8-1.3-1.9-17.7-1.9-17.7l-15.4-5.5z"/>
	<g id="Layer" style="opacity: .6">
		<path id="Layer" class="s11" d="m366.9 357.2q0.4-0.3 0.9-0.4c0.3 0 0.6 0.1 0.9 0.2 0.2 0.2 0.4 0.5 0.4 0.8q0.1 0.4-0.2 0.8c-0.2 0.2-0.5 0.4-0.8 0.4-0.4 0.1-0.7 0-1-0.2-0.3-0.2-0.4-0.5-0.4-0.8 0-0.3 0.1-0.6 0.3-0.8"/>
	</g>
	<path id="Layer" class="s11" d="m378.8 356.5l-2.4-0.8-11.2 26.5c0 0 0 1.4 1 1.7z"/>
	<path id="Layer" class="s7" d="m363.9 366.6c0.2 0 0.6-0.6 1.3-1.1 0.8-0.4 1.6-0.6 1.6-0.7 0-0.1-1-0.3-1.9 0.3-0.9 0.6-1.1 1.5-1 1.5z"/>
	<path id="Layer" class="s7" d="m363.9 369.9c0.1 0.1 0.6-0.3 1.4-0.6 0.9-0.2 1.6 0 1.6-0.2 0.1-0.1-0.7-0.5-1.7-0.2-1 0.2-1.4 1-1.3 1z"/>
	<path id="Layer" class="s7" d="m366.8 373.1c0.1-0.2-0.5-0.6-1.5-0.6-0.9 0-1.5 0.5-1.4 0.6 0.1 0.1 0.7-0.1 1.5-0.1 0.8 0 1.4 0.2 1.4 0.1z"/>
	<path id="Layer" class="s7" d="m360.6 365c0.1 0 0.2-0.7 0.6-1.5 0.4-0.7 1-1.2 0.9-1.3-0.1-0.1-0.9 0.2-1.4 1.1-0.4 0.9-0.3 1.7-0.1 1.7z"/>
	<path id="Layer" class="s7" d="m357.4 362.9c0 0 0.4-0.5 0.6-1.4q0.2-0.8 0.2-1.6 0-0.4-0.1-0.9 0-0.3-0.2-0.6-0.1-0.1-0.2-0.3-0.3-0.1-0.5 0-0.2 0-0.4 0.1-0.1 0.2-0.2 0.3-0.1 0.3-0.1 0.6c-0.2 0.8-0.1 1.7 0.2 2.6 0.3 0.9 0.8 1.3 0.8 1.2 0 0-0.2-0.5-0.5-1.3q-0.1-0.8-0.1-1.5 0-0.5 0.1-1c0-0.3 0.1-0.5 0.3-0.6 0.2 0 0.1 0 0.2 0.1q0 0.2 0.1 0.4 0.1 0.5 0.1 1 0 0.7-0.1 1.5-0.2 0.7-0.2 1.4z"/>
	<path id="Layer" class="s7" d="m357.7 362.8c0 0-0.4-0.5-1.3-0.9q-0.8-0.4-1.7-0.5-0.5 0-1 0-0.4 0-0.7 0.2-0.3 0.1-0.5 0.4-0.1 0.2 0 0.4 0 0.2 0.2 0.4 0.2 0.2 0.5 0.3 0.4 0.3 1 0.4c0.6 0.1 1.2 0.1 1.8 0 1-0.2 1.4-0.7 1.4-0.7q-0.8 0.2-1.5 0.4-0.8 0.1-1.6-0.2-0.5-0.1-0.8-0.3c-0.3-0.2-0.5-0.4-0.5-0.5q0.2-0.1 0.4-0.2 0.1-0.1 0.3-0.1 0.5 0 1.1 0 0.8 0.1 1.5 0.3c0.8 0.3 1.3 0.7 1.4 0.6z"/>
	<path id="Layer" class="s4" d="m336.9 384.5l9.8 19 3.1 17.1q0.1 0.5 0.3 0.8 0.3 0.4 0.7 0.7 0.4 0.2 0.9 0.3 0.4 0.1 0.9 0 0.6-0.2 1-0.5 0.4-0.3 0.6-0.8c1.8-4.1 8.4-19.3 7.6-20.7-1-1.6-8.9-20.6-8.9-20.6z"/>
	<path id="Layer" class="s11" d="m352.6 422.3l8.5-23.2 0.4 0.8c0.4 0.7 0.4 1.5 0.2 2.2-0.6 2-2.5 7.4-7.4 18.9q-0.2 0.5-0.7 0.9-0.4 0.3-1 0.4z"/>
	<g id="Layer" style="opacity: .6">
		<path id="Layer" class="s11" d="m353.9 394.7q-0.3 0.4-0.2 0.9 0.1 0.5 0.6 0.7c0.3 0.2 0.6 0.3 1 0.2 0.3-0.1 0.6-0.2 0.8-0.5 0.2-0.3 0.2-0.7 0.2-1-0.1-0.3-0.3-0.6-0.6-0.8q-0.5-0.2-1.1-0.1c-0.3 0.1-0.6 0.4-0.8 0.7"/>
	</g>
	<path id="Layer" class="s7" d="m353.3 412c-0.8-0.5-1.7-0.7-2.6-0.8-0.9 0-1.8 0.2-2.6 0.6 0 0 0.2-0.3 0.6-0.6 0.6-0.3 1.3-0.5 2-0.4 0.8 0 1.4 0.2 2 0.6 0.4 0.3 0.6 0.5 0.6 0.6z"/>
	<path id="Layer" class="s7" d="m353.1 415.1q-1.1 0-2.2 0-1.1 0.2-2.2 0.6c-0.1-0.1 0.7-0.9 2.1-1.1q0.6-0.1 1.2 0 0.6 0.2 1.1 0.5z"/>
	<path id="Layer" class="s7" d="m354.4 407.5q-1.7-0.2-3.4-0.3-1.7 0.2-3.4 0.6c1-0.6 2.1-1 3.4-1 1.2-0.1 2.4 0.2 3.4 0.7z"/>
	<path id="Layer" class="s7" d="m352 401.5c0 0.2-1.4 0.2-2.9 0.8-1.5 0.6-2.5 1.4-2.6 1.3 0.5-0.9 1.4-1.5 2.4-1.8 1-0.4 2-0.5 3.1-0.3z"/>
	<path id="Layer" class="s7" d="m349.2 395.9q-1.5 0.2-3 0.7-1.3 0.7-2.4 1.8c-0.1 0 0-0.4 0.4-0.8 0.5-0.6 1.1-1.1 1.8-1.4q1.1-0.5 2.3-0.5c0.6 0 1 0.1 0.9 0.2z"/>
	<path id="Layer" class="s7" d="m345.7 395.5q-0.2-0.3-0.3-0.7-0.4-1-0.3-2.2c0-0.5 0.1-1 0.5-1.5q0.2-0.1 0.4-0.2 0.3-0.1 0.6 0c0.3 0.2 0.6 0.4 0.7 0.8 0.3 0.6 0.3 1.3 0.1 2-0.3 0.7-0.8 1.2-1.4 1.6-0.7 0.4-1.5 0.5-2.2 0.5-0.8-0.1-1.5-0.3-2.1-0.7q-0.2-0.2-0.3-0.5-0.2-0.2-0.2-0.5 0-0.2 0.2-0.5 0.2-0.2 0.5-0.2 0.8-0.2 1.7 0 1.1 0.3 2.1 1c0.5 0.3 0.7 0.5 0.6 0.5q-1.3-0.8-2.8-1.1-0.7-0.2-1.5-0.1-0.1 0.1-0.2 0.2-0.2 0.1-0.2 0.3 0.1 0.1 0.2 0.3 0.1 0.1 0.2 0.2c0.5 0.4 1.2 0.6 1.8 0.6 0.7 0.1 1.3-0.1 1.9-0.4 0.6-0.3 1-0.8 1.2-1.3 0.3-0.6 0.3-1.2 0.1-1.8q-0.2-0.4-0.5-0.5-0.2-0.1-0.4-0.1-0.1 0.1-0.2 0.2c-0.3 0.3-0.5 0.8-0.5 1.2q-0.1 1.5 0.3 2.9z"/>
	<path id="Layer" fill-rule="evenodd" class="s7" d="m358.3 369.6l-7.8-4.2 7.5 23.8-23.3 10c0 0-15.4-27.9-20.4-49q-0.5-2.4-0.8-4.8c-14.7-8.1-38-22.7-38.5-28.5-1.4-18.5 5-27.6 14.2-53 4.3-12 14.1-30.7 14.1-30.7l23.2 5 25.4 13.7-8.8 80.7 26.8 16.7zm-46.1-72.3c-0.6 4.1-0.1 8.2 1.4 12.1 0.4-8.2 1-16.8 1.7-25l-3.1 12.9z"/>
	<path id="Layer" class="s12" d="m334.7 399.2q-0.1-0.1-0.2-0.3l-0.5-1-1.7-4c-1.6-3.4-3.8-8.3-6.5-14.5-2.6-6.2-5.8-13.5-9-21.8q-1.2-3.1-2.3-6.4c-0.4-1.1-0.8-2.2-1-3.4q-0.1-0.4-0.2-0.9l-0.1-0.8-0.2-1.8q-0.4-3.6-0.7-7.3-0.1-1.8-0.2-3.7c0-1.2-0.1-2.5 0-3.8 0.4-10.1 1.4-19.7 2.1-28.5 0.8-8.7 1.5-16.6 2.1-23.2 0.6-6.7 1-12 1.2-15.7q0.2-2.8 0.3-4.3v-1.1q0-0.2 0-0.4 0.1 0.2 0 0.4 0 0.4 0 1.1 0 1.5-0.1 4.3c-0.2 3.7-0.5 9.1-1.1 15.7-0.5 6.6-1.2 14.5-2 23.2-0.7 8.8-1.6 18.4-2 28.5-0.1 1.3 0 2.5 0 3.8 0 1.2 0.1 2.5 0.2 3.7q0.3 3.7 0.7 7.2l0.2 1.8 0.1 0.9q0.1 0.4 0.2 0.8c0.2 1.2 0.6 2.3 0.9 3.4q1.1 3.3 2.3 6.4c3.1 8.2 6.3 15.6 8.9 21.8 2.6 6.2 4.8 11.1 6.3 14.6q1.1 2.5 1.7 3.9 0.3 0.7 0.4 1.1c0.1 0.2 0.2 0.3 0.2 0.3z"/>
	<path id="Layer" class="s12" d="m316.8 253.6c0 0-0.3-0.1-0.6-0.5q-0.8-0.7-1.2-1.6c-0.8-2.1-1.2-4.3-1.1-6.4q-0.1-3.3 0.3-6.5 0.1-1.4 0.4-2.7 0.1 1.3 0 2.7c-0.1 1.6-0.2 3.9-0.2 6.4 0 2.1 0.3 4.3 1 6.3q0.4 0.9 1 1.7c0.2 0.4 0.4 0.6 0.4 0.6z"/>
	<path id="Layer" class="s12" d="m306.7 234.4q0.4 1.1 0.2 2.3c-0.1 1.8-0.8 3.6-1.9 5.1-1.1 1.6-2.7 2.8-4.5 3.6q-1.1 0.5-2.3 0.6c0 0 0.8-0.3 2.2-0.9 1.7-0.8 3.1-2 4.2-3.5 1.1-1.5 1.8-3.2 2-5 0.2-1.3 0-2.2 0.1-2.2z"/>
	<path id="Layer" class="s12" d="m348.5 281.3q0 0 0 0.3c0 0.1 0 0.4-0.1 0.7q-0.1 1-0.3 2.8c-0.3 2.4-0.7 5.8-1.2 10.1-1 8.6-2.5 20.3-4.1 33.4-0.6 6.1-0.1 12.3 1.3 18.3q1 3.9 2.4 7.7 1.4 3.6 2.6 6.6c1.5 4.1 2.7 7.4 3.6 9.7q0.6 1.6 1 2.6l0.2 0.7q0.1 0.1 0.1 0.2c0 0 0-0.1-0.1-0.2-0.1-0.2-0.2-0.4-0.3-0.7q-0.4-0.9-1-2.6l-3.8-9.5q-1.2-3.1-2.6-6.7-1.5-3.8-2.4-7.7c-1.5-6.1-2-12.3-1.4-18.5 1.6-13 3.1-24.8 4.2-33.4 0.6-4.2 1-7.6 1.4-10.1q0.2-1.7 0.4-2.7c0-0.3 0.1-0.6 0.1-0.8q0-0.1 0-0.2z"/>
	<path id="Layer" class="s6" d="m303.3 233l4.1-9.7 9.4 13-12.6-2.9"/>
	<path id="Layer" class="s4" d="m401.6 203.8l-11.2-23.1c-1.3-3.8-3.8-4.3-5.9-6.5l-27.9-14.6c-20.4-7.7-31.5 18.2-31.5 18.2l-18.5 39c-21.7 6.7-6.3 22.2-6.3 22.2 0 0-6-9.6-0.1-13 6.1-3.6 12.8 5.9 19.3 14.9 7.7 10.6 32.6 17.5 32.6 17.5 2.9-2.8 2.1-12.8 4.4-18.1 0.7-1.7 18-38.7 18-38.7l6.6 15c0 0 8.6-9.3 12.8-10.8q3.7-1.3 7.7-2z"/>
	<path id="Layer" class="s7" d="m352.1 220.2q-0.4 0.3-0.9 0.6-1.2 0.6-2.5 1.1c-2.9 1-6.1 1.3-9.2 0.9-3.1-0.5-6-1.7-8.5-3.4q-1.1-0.8-2-1.8-0.4-0.3-0.6-0.8c0 0 1 1 2.9 2.3 2.4 1.7 5.3 2.8 8.3 3.2 3 0.4 6.1 0.2 9-0.7 2.2-0.7 3.5-1.5 3.5-1.4z"/>
	<path id="Layer" class="s4" d="m305.8 183.5l17.3 1.5 27.6-26.9-16.3-0.6-28.8 2.7c1.5 7.7 1.6 15.6 0.2 23.3z"/>
	<path id="Layer" class="s7" d="m329.7 169.3q0 0.3-0.2 0.5l-0.7 1.4c-0.6 1.3-1.5 3-2.5 5.1-2.2 4.2-5 10.2-8.1 16.8-3 6.6-5.9 12.6-8 16.8-1.1 2.2-1.9 3.9-2.6 5.1l-0.7 1.4q-0.1 0.2-0.3 0.4 0.1-0.2 0.2-0.5l0.7-1.4 2.4-5.1c2-4.4 4.8-10.3 7.8-16.9 3.1-6.6 6.1-12.5 8.3-16.8 1.1-2.1 2-3.8 2.7-5q0.4-0.8 0.7-1.3 0.2-0.3 0.3-0.5z"/>
	<path id="Layer" class="s7" d="m382.4 177.2c0 0.1-1 0.6-2.5 1.7q-1.3 1-2.3 2.2-1.3 1.5-2.2 3.3-0.9 1.7-1.4 3.5-0.4 1.5-0.4 3.1c-0.1 1.8 0.1 2.9 0 2.9q-0.2-0.4-0.2-0.8-0.1-0.4-0.1-0.9-0.1-0.6-0.1-1.2 0-1.6 0.3-3.2 0.5-1.9 1.4-3.7 1-1.8 2.3-3.3 1.1-1.2 2.5-2.2 0.5-0.4 1-0.7 0.4-0.3 0.9-0.5 0.3-0.2 0.8-0.2z"/>
	<path id="Layer" class="s6" d="m387.2 140.1l-16.2 28c-1.3 2.2-3.4 3.9-6 4.7-2.5 0.8-5.3 0.7-7.8-0.3-1.3-0.6-2.5-1.4-3.5-2.4-0.9-1-1.7-2.2-2.2-3.4-0.4-1.3-0.6-2.7-0.5-4 0.1-1.4 0.5-2.7 1.2-3.9l2.8-4.8c0 0-7-4.2-3.7-11.2 2.9-6.3 13.7-24 16-27.8l13.6 5.7c1.8 0.9 3.4 2.1 4.7 3.5 1.3 1.5 2.3 3.2 2.9 5 0.6 1.8 0.8 3.7 0.5 5.6-0.2 1.9-0.8 3.7-1.8 5.3z"/>
	<path id="Layer" class="s13" d="m355 153.9c3.5 1.5 7.3 2 11.1 1.5 0 0-4.8 4-12 0.3z"/>
	<path id="Layer" class="s7" d="m360.2 131.5c-0.1 0.3-0.2 0.6 0 0.9q0.1 0.4 0.6 0.6 0.2 0.1 0.4 0.1 0.2 0 0.4 0 0.2-0.1 0.4-0.2 0.2-0.2 0.3-0.4c0.1-0.2 0.1-0.5 0-0.8q-0.1-0.4-0.6-0.6-0.2-0.1-0.4-0.1-0.2 0-0.4 0-0.2 0.1-0.4 0.2-0.2 0.1-0.3 0.3z"/>
	<path id="Layer" class="s7" d="m360.3 130.6c0 0.2 1.1 0 2.3 0.5 1.1 0.4 1.7 1.4 1.9 1.3 0.2-0.1 0.1-0.3-0.2-0.7-0.3-0.6-0.8-1-1.4-1.2-0.7-0.3-1.3-0.4-2-0.2-0.4 0.1-0.7 0.2-0.6 0.3z"/>
	<path id="Layer" class="s7" d="m371.1 136.5c-0.2 0.2-0.2 0.5-0.1 0.8 0.1 0.3 0.3 0.5 0.6 0.6q0.2 0.1 0.4 0.1 0.3 0.1 0.5 0 0.2-0.1 0.4-0.2 0.2-0.1 0.3-0.3 0.2-0.4 0-0.8c-0.1-0.3-0.3-0.5-0.6-0.7q-0.2-0.1-0.4-0.1-0.2 0-0.5 0.1-0.2 0-0.4 0.2-0.1 0.1-0.2 0.3z"/>
	<path id="Layer" class="s7" d="m371.6 135.6c0.1 0.2 1.1 0 2.3 0.4 1.2 0.5 1.8 1.4 1.9 1.3 0.2-0.1 0.1-0.3-0.1-0.7-0.4-0.5-0.9-1-1.5-1.2-0.6-0.3-1.3-0.3-2-0.2-0.4 0.1-0.7 0.3-0.6 0.4z"/>
	<path id="Layer" class="s7" d="m363.5 141.8q-0.8-0.7-1.7-1.1c-0.3-0.2-0.6-0.3-0.5-0.5 0-0.2 0.3-0.5 0.6-0.8l1.9-1.7q2.5-2.2 4.6-4.6-2.7 1.9-5.1 4.2l-1.8 1.8c-0.4 0.3-0.6 0.6-0.7 1q0 0.2 0.1 0.3 0.1 0.2 0.2 0.3 0.2 0.2 0.5 0.3 0.9 0.5 1.9 0.8z"/>
	<path id="Layer" class="s7" d="m366.6 143.9c-0.2 0-0.8 1.1-2.3 1.5-1.4 0.4-2.7-0.3-2.8-0.1-0.1 0.1 0.2 0.3 0.7 0.6 0.8 0.3 1.6 0.3 2.4 0.1 0.7-0.1 1.4-0.6 1.8-1.2 0.3-0.5 0.3-0.8 0.2-0.9z"/>
	<path id="Layer" class="s7" d="m373.3 131.2c0 0.4 1.2 0.7 2.5 1.4 1.3 0.7 2.2 1.5 2.5 1.4 0.2-0.1 0.1-0.5-0.2-1q-0.6-0.9-1.6-1.4-1.1-0.6-2.2-0.6c-0.6 0-1 0.1-1 0.2z"/>
	<path id="Layer" class="s7" d="m362.2 127.7c0.1 0.4 1 0.4 2 0.8 1 0.4 1.7 1 2 0.8 0.3-0.3 0.1-0.4-0.1-0.8-0.3-0.5-0.8-0.9-1.4-1.1-0.6-0.2-1.2-0.3-1.8-0.1-0.5 0-0.8 0.3-0.7 0.4z"/>
	<path id="Layer" class="s6" d="m382.1 144.3c0.1 0 5.9 0.8 3.4 5.5-2.5 4.7-7 1.4-7 1.3 0-0.2 3.6-6.8 3.6-6.8z"/>
	<path id="Layer" class="s13" d="m381 150q0 0 0.2 0.2 0.2 0.3 0.6 0.3 0.7 0 1.2-0.4 0.6-0.4 0.8-0.9 0.4-0.6 0.4-1.3 0-0.3-0.1-0.5-0.1-0.3-0.3-0.5-0.1-0.1-0.3-0.1-0.2 0-0.3 0.1c-0.1 0.2-0.1 0.3-0.2 0.3 0 0 0-0.2 0.1-0.4q0.1-0.1 0.4-0.2 0.3 0 0.5 0.1 0.3 0.2 0.4 0.6 0.2 0.3 0.1 0.6 0.1 0.8-0.3 1.4c-0.2 0.5-0.5 0.8-1 1.1-0.4 0.3-0.9 0.4-1.4 0.4q-0.2 0-0.4-0.2-0.2-0.1-0.3-0.3c-0.2-0.2-0.1-0.3-0.1-0.3z"/>
	<path id="Layer" class="s7" d="m385 145.4q-0.7-0.3-1.5-0.3c-0.5 0-1 0.2-1.5 0.5-0.6 0.5-1.1 1.2-1.8 1.8-0.2 0.3-0.7 0.5-1.1 0.6-0.4 0-0.9 0-1.3-0.2q-0.3-0.3-0.5-0.7-0.1-0.4 0-0.9 0.2-0.8 0.7-1.5c1.4-2.1 3-4.1 4.2-6.3 1.2-2.2 1.8-4.7 1.6-7.2-0.2-1.2-0.7-2.4-1.5-3.4-0.8-0.9-1.8-1.7-3-2.2-1.7-0.5-3.6-0.4-5.3-0.8-1-0.3-1.9-0.8-2.7-1.5-0.7-0.6-1.3-1.4-1.7-2.3q-0.3-0.6-0.7-1.1c0.1-0.1 0.7-1 1.3-1.2 4.5-1.4 10.5 0.2 14.2 2.9 1.9 1.3 3.5 3.1 4.6 5 1.1 2 1.7 4.2 1.8 6.4 0 4.4-3 9.2-5.7 12.4"/>
	<path id="Layer" class="s7" d="m385.1 144.9c1.4-2.2 3.7-3.8 5.5-5.9 1.7-2 3-4.8 1.7-7.1-0.5-0.8-1.1-1.5-1.5-2.3q-0.4-1.3-0.5-2.6c-0.2-1.3-0.8-2.6-1.6-3.8-0.9-1.1-2-2-3.3-2.7-1.7-0.9-3.8-1.3-5.6-2.2-2.9-1.4-5-4-8.1-5.1q-0.7-0.3-1.5-0.3-0.8 0-1.6 0.2-0.4 0.2-0.6 0.5-0.3 0.3-0.4 0.6-0.1 0.4 0 0.8 0 0.3 0.2 0.6-0.1-0.3-0.3-0.5-0.2-0.3-0.5-0.4-0.4-0.2-0.7-0.2-0.4 0-0.7 0.1c-0.5 0.3-0.8 0.6-1 1q-0.4 0.6-0.3 1.3c0.1 0.9 0.5 1.7 1.1 2.4 1.8 2.5 4.6 4.2 7.7 5l7-0.5 5.7 3.9 4.2 6.2-7.7 9.1z"/>
	<path id="Layer" class="s4" d="m199.9 349.6l0.6 0.9c0.7 1.1 1.6 1.9 2.8 2.5l1 0.4-1 0.6c-1.1 0.6-2 1.5-2.6 2.6l-0.5 1-0.6-0.9c-0.7-1.1-1.7-1.9-2.9-2.5l-1-0.4 1-0.6c1.1-0.6 2-1.5 2.6-2.6z"/>
	<path id="Layer" class="s4" d="m144.1 157.8l0.6 0.9c0.7 1.1 1.7 1.9 2.9 2.5l1 0.4-1 0.6c-1.1 0.6-2.1 1.6-2.6 2.6l-0.6 1-0.6-1c-0.6-1-1.6-1.8-2.8-2.4l-1.1-0.5 1-0.5c1.2-0.7 2.1-1.6 2.7-2.7z"/>
	<path id="Layer" class="s4" d="m402.1 190.9l0.6 0.9c0.7 1.1 1.6 1.9 2.8 2.5l1.1 0.4-1 0.6c-1.1 0.6-2.1 1.6-2.6 2.6l-0.6 1-0.6-1c-0.6-1-1.6-1.8-2.8-2.4l-1.1-0.4 1-0.6c1.1-0.6 2.1-1.6 2.6-2.7z"/>
	<path id="Layer" class="s4" d="m371.6 361.6l0.6 1c0.7 1 1.7 1.8 2.9 2.4l1 0.5-1 0.5c-1.1 0.7-2 1.6-2.6 2.7l-0.5 1-0.6-1c-0.7-1-1.7-1.9-2.9-2.4l-1-0.5 1-0.6c1.1-0.6 2-1.5 2.6-2.6z"/>
	<path id="Layer" class="s4" d="m377.4 397.5l0.3 0.1q0.5 0.2 1 0.1h0.3l-0.1 0.2q-0.2 0.5-0.1 1l0.1 0.2-0.3-0.1q-0.5-0.1-1-0.1l-0.3 0.1 0.1-0.3q0.2-0.4 0.1-0.9z"/>
	<path id="Layer" class="s4" d="m395 154.9l0.2 0.1q0.5 0.2 1 0.1l0.3-0.1-0.1 0.3q-0.2 0.5-0.1 0.9l0.1 0.3-0.3-0.1q-0.5-0.1-1-0.1l-0.3 0.1 0.1-0.3q0.2-0.4 0.1-0.9z"/>
	<path id="Layer" class="s4" d="m155.5 132.8l0.3 0.1q0.5 0.1 1 0.1h0.3l-0.1 0.2q-0.2 0.5-0.1 0.9v0.3l-0.3-0.1q-0.5-0.2-1-0.1h-0.3l0.1-0.2q0.2-0.5 0.1-1z"/>
	<path id="Layer" class="s4" d="m185 321.7l0.3 0.1q0.5 0.1 1 0.1l0.3-0.1-0.1 0.3q-0.2 0.4-0.1 0.9v0.3l-0.2-0.1q-0.5-0.2-1.1-0.1h-0.3l0.2-0.2q0.1-0.5 0.1-1z"/>
	<path id="Layer" class="s4" d="m217.1 394.7l-0.3 0.2-0.8 0.8-3.3 3-12.1 10.7v-0.1c0.7 11.7 1.5 27.5 2.3 45.2v0.4l-0.3-0.3-4.4-2.6-27.6-17.1v-0.1c-4.2-11.4-7.6-21-10.1-27.7-1.2-3.4-2.1-6-2.8-7.9l-0.7-2.1q-0.1-0.3-0.2-0.5c0-0.1-0.1-0.2-0.1-0.2l0.1 0.2 0.2 0.5q0.3 0.7 0.8 2.1l2.9 7.8c2.5 6.8 6.1 16.3 10.2 27.7v-0.1l27.6 17.1 4.3 2.6-0.3 0.2c-0.8-17.6-1.6-33.5-2.1-45.1v-0.1l12.2-10.7 3.3-2.8 0.9-0.8c0.2-0.2 0.3-0.3 0.3-0.3z"/>
	<path id="Layer" class="s4" d="m204.2 449.1l-0.1 2.7 2.3 1.5-2.7 0.8-0.9 2.5-1.6-2.2h-2.8l1.7-2.1-0.9-2.5 2.7 0.9z"/>
	<path id="Layer" class="s4" d="m171 431.3l0.1 1.7 1.5 0.9-1.7 0.6-0.5 1.6-1.1-1.3-1.9 0.1 1.1-1.5-0.7-1.5 1.8 0.4z"/>
	<path id="Layer" class="s4" d="m156.7 393.2l1.4 1.7 2.2-0.2-1.2 1.8 0.8 1.9-2.2-0.6-1.7 1.4-0.1-2.1-1.9-1.2 2.1-0.7z"/>
	<path id="Layer" class="s4" d="m215.7 391.6l1.4 1.6 2.2-0.1-1.2 1.7 0.8 2-2.2-0.6-1.7 1.3-0.1-2.1-1.9-1.1 2.1-0.7z"/>
	<path id="Layer" class="s4" d="m200.2 407.5l0.9 1.1 1.4-0.1-0.8 1.1 0.5 1.2-1.4-0.3-1.1 0.8v-1.3l-1.2-0.8 1.3-0.4z"/>
</svg>