<svg width="65" height="62" viewBox="0 0 65 62" fill="none" xmlns="http://www.w3.org/2000/svg">
<ellipse cx="22.5" cy="22" rx="22.5" ry="22" fill="#FCB316"/>
<path d="M62.0434 21.4146C61.8304 21.1998 61.5769 21.0293 61.2977 20.913C61.0184 20.7966 60.7189 20.7367 60.4163 20.7367C60.1138 20.7367 59.8143 20.7966 59.535 20.913C59.2558 21.0293 59.0023 21.1998 58.7893 21.4146L55.833 24.3938V11.5834C55.833 10.9756 55.5916 10.3927 55.1618 9.9629C54.732 9.53313 54.1491 9.29169 53.5413 9.29169C52.9336 9.29169 52.3507 9.53313 51.9209 9.9629C51.4911 10.3927 51.2497 10.9756 51.2497 11.5834V24.3938L48.2934 21.4146C47.8619 20.9831 47.2766 20.7406 46.6663 20.7406C46.0561 20.7406 45.4708 20.9831 45.0393 21.4146C44.6077 21.8461 44.3653 22.4314 44.3653 23.0417C44.3653 23.652 44.6077 24.2372 45.0393 24.6688L51.9143 31.5438C52.1322 31.7524 52.3892 31.916 52.6705 32.025C52.9448 32.1463 53.2414 32.2089 53.5413 32.2089C53.8413 32.2089 54.1379 32.1463 54.4122 32.025C54.6935 31.916 54.9505 31.7524 55.1684 31.5438L62.0434 24.6688C62.2582 24.4557 62.4287 24.2023 62.545 23.923C62.6614 23.6437 62.7213 23.3442 62.7213 23.0417C62.7213 22.7392 62.6614 22.4396 62.545 22.1604C62.4287 21.8811 62.2582 21.6276 62.0434 21.4146ZM53.5413 36.7917C52.9336 36.7917 52.3507 37.0331 51.9209 37.4629C51.4911 37.8927 51.2497 38.4756 51.2497 39.0834V39.9542L47.858 36.5625C46.6604 35.3744 45.0418 34.7077 43.3549 34.7077C41.6679 34.7077 40.0493 35.3744 38.8518 36.5625L37.2476 38.1667L31.5643 32.4834C30.3499 31.3274 28.7376 30.6828 27.0611 30.6828C25.3846 30.6828 23.7723 31.3274 22.558 32.4834L19.1663 35.875V23.0417C19.1663 22.4339 19.4078 21.851 19.8376 21.4212C20.2673 20.9915 20.8502 20.75 21.458 20.75H39.7913C40.3991 20.75 40.982 20.5086 41.4118 20.0788C41.8416 19.649 42.083 19.0661 42.083 18.4584C42.083 17.8506 41.8416 17.2677 41.4118 16.8379C40.982 16.4081 40.3991 16.1667 39.7913 16.1667H21.458C19.6346 16.1667 17.886 16.891 16.5966 18.1803C15.3073 19.4696 14.583 21.2183 14.583 23.0417V50.5417C14.583 52.3651 15.3073 54.1137 16.5966 55.403C17.886 56.6924 19.6346 57.4167 21.458 57.4167H48.958C50.7814 57.4167 52.5301 56.6924 53.8194 55.403C55.1087 54.1137 55.833 52.3651 55.833 50.5417V39.0834C55.833 38.4756 55.5916 37.8927 55.1618 37.4629C54.732 37.0331 54.1491 36.7917 53.5413 36.7917ZM21.458 52.8334C20.8502 52.8334 20.2673 52.5919 19.8376 52.1621C19.4078 51.7324 19.1663 51.1495 19.1663 50.5417V42.3604L25.8122 35.7146C26.1488 35.3938 26.5961 35.2148 27.0611 35.2148C27.5262 35.2148 27.9734 35.3938 28.3101 35.7146L35.5747 42.9792L45.4288 52.8334H21.458ZM51.2497 50.5417C51.2464 50.9804 51.1017 51.4063 50.8372 51.7563L40.5018 41.375L42.1059 39.7709C42.2702 39.6032 42.4663 39.47 42.6828 39.379C42.8992 39.2881 43.1316 39.2412 43.3663 39.2412C43.6011 39.2412 43.8335 39.2881 44.0499 39.379C44.2664 39.47 44.4625 39.6032 44.6268 39.7709L51.2497 46.4396V50.5417Z" fill="black"/>
</svg>
