<svg width="63" height="71" viewBox="0 0 63 71" fill="none" xmlns="http://www.w3.org/2000/svg">
<ellipse cx="40.5" cy="22" rx="22.5" ry="22" fill="#FCB316"/>
<path d="M27.5003 66.4167H11.4587C10.8509 66.4167 10.268 66.1753 9.83821 65.7455C9.40844 65.3157 9.16699 64.7328 9.16699 64.125V22.875C9.16699 22.2673 9.40844 21.6844 9.83821 21.2546C10.268 20.8248 10.8509 20.5834 11.4587 20.5834H43.542C44.1498 20.5834 44.7327 20.8248 45.1624 21.2546C45.5922 21.6844 45.8337 22.2673 45.8337 22.875V43.5M40.6774 66.4167V51.5209" stroke="black" stroke-width="4" stroke-linecap="round" stroke-linejoin="round"/>
<path d="M35.5215 55.5313L37.2402 53.8125L40.6777 50.375L44.1152 53.8125L45.834 55.5313" stroke="black" stroke-width="4" stroke-linecap="round" stroke-linejoin="round"/>
<path d="M18.334 34.3334H36.6673M18.334 43.5H27.5007" stroke="black" stroke-width="4" stroke-linecap="round"/>
</svg>
