<svg width="120" height="120" viewBox="0 0 120 120" fill="none" xmlns="http://www.w3.org/2000/svg">
<path d="M112.031 50.8875C110.606 48.538 108.377 46.7846 105.758 45.9515C103.139 45.1184 100.307 45.2621 97.7859 46.3559C95.2647 47.4498 93.2251 49.4198 92.0443 51.9015C90.8636 54.3832 90.6216 57.2085 91.3632 59.8548C92.1049 62.5011 93.7799 64.7892 96.0784 66.2958C98.3769 67.8024 101.143 68.4255 103.866 68.0498C106.588 67.6741 109.082 66.325 110.887 64.2523C112.691 62.1795 113.684 59.5232 113.681 56.775C113.679 54.6986 113.109 52.6626 112.031 50.8875Z" fill="#FCB316"/>
<path d="M75.3752 75.7032V38.3532C75.3745 38.2937 75.3505 38.2369 75.3085 38.1949C75.2665 38.1528 75.2097 38.1289 75.1502 38.1282H44.4565C44.397 38.1289 44.3402 38.1528 44.2982 38.1949C44.2561 38.2369 44.2322 38.2937 44.2315 38.3532V53.25C44.2408 53.2688 44.2502 53.2782 44.269 53.2782L44.4471 53.4563C44.532 53.5239 44.6104 53.5992 44.6815 53.6813C44.7377 53.7469 44.794 53.8219 44.8502 53.8876C44.9204 53.965 44.9861 54.0464 45.0471 54.1313C45.1015 54.1967 45.1516 54.2656 45.1971 54.3375C45.2557 54.4248 45.3089 54.5156 45.3565 54.6094C45.4033 54.6844 45.4408 54.7594 45.4783 54.8251C45.5252 54.9188 45.5721 55.0313 45.6096 55.125C45.6448 55.1983 45.6761 55.2734 45.7033 55.3501C45.7434 55.4544 45.7779 55.5608 45.8065 55.6688C45.8326 55.7425 45.8546 55.8176 45.8721 55.8938C45.9002 56.0157 45.919 56.1376 45.9471 56.2688C45.9565 56.3344 45.9658 56.4001 45.9752 56.4563C45.994 56.6626 46.0127 56.8501 46.0127 57.0376C46.0151 57.6891 45.8878 58.3347 45.6384 58.9367C45.3889 59.5386 45.0222 60.0849 44.5596 60.5438C44.4565 60.6376 44.344 60.7501 44.2315 60.8438V62.3813C44.2408 62.4001 44.2502 62.4001 44.269 62.4188C44.3346 62.4751 44.3908 62.5313 44.4471 62.5782C44.5298 62.6515 44.6081 62.7298 44.6815 62.8126C44.7377 62.8876 44.794 62.9438 44.8502 63.0188C44.9204 63.0963 44.9861 63.1777 45.0471 63.2626C45.1015 63.328 45.1516 63.3969 45.1971 63.4688C45.2533 63.5625 45.3096 63.6376 45.3565 63.7313C45.4033 63.8063 45.4408 63.8813 45.4783 63.9563C45.5252 64.0594 45.5721 64.1626 45.6096 64.2563C45.6448 64.3296 45.6761 64.4047 45.7033 64.4813C45.7434 64.5856 45.7779 64.692 45.8065 64.8001C45.8326 64.8737 45.8546 64.9489 45.8721 65.0251C45.9002 65.1563 45.919 65.2688 45.9471 65.4001C45.9565 65.4657 45.9658 65.5313 45.9752 65.5875C45.994 65.7844 46.0127 65.9813 46.0127 66.1688C46.0164 66.817 45.8906 67.4593 45.6426 68.0582C45.3947 68.6571 45.0297 69.2004 44.569 69.6563C44.4565 69.7688 44.344 69.8813 44.2315 69.975V71.5125C44.2408 71.5313 44.2502 71.5313 44.269 71.5501C44.3346 71.6063 44.3908 71.6626 44.4471 71.7188C44.5298 71.7922 44.6081 71.8704 44.6815 71.9532C44.7377 72.0188 44.794 72.075 44.8502 72.15C44.9204 72.2275 44.9861 72.3089 45.0471 72.3938C45.1015 72.4592 45.1516 72.5281 45.1971 72.6001C45.2533 72.6938 45.3096 72.7876 45.3565 72.8626C45.4033 72.9376 45.4408 73.0125 45.4783 73.0875C45.5277 73.185 45.5715 73.2852 45.6096 73.3875C45.6448 73.4608 45.6761 73.5359 45.7033 73.6125C45.7448 73.7164 45.7792 73.8229 45.8065 73.9313C45.8326 74.005 45.8546 74.0801 45.8721 74.1563C45.9002 74.2875 45.919 74.4001 45.9471 74.5313C45.9565 74.6063 45.9658 74.6625 45.9752 74.7188C45.994 74.9157 46.0127 75.1126 46.0127 75.3094C46.015 75.9596 45.8877 76.6038 45.6382 77.2042C45.3887 77.8046 45.022 78.3492 44.5596 78.8063C44.4565 78.9 44.344 79.0125 44.2315 79.1063V80.6626C44.2408 80.6626 44.2502 80.6813 44.269 80.6813C44.3329 80.7359 44.3925 80.7954 44.4471 80.8594C44.5298 80.9328 44.6081 81.0111 44.6815 81.0938C44.7377 81.1501 44.794 81.225 44.8502 81.2813C44.9158 81.3563 44.9815 81.45 45.0471 81.525C45.094 81.6 45.1502 81.675 45.1971 81.75C45.2577 81.8328 45.311 81.9206 45.3565 82.0126C45.4033 82.0876 45.4408 82.1626 45.4783 82.2376L45.619 82.5188C45.6471 82.5938 45.6752 82.6688 45.7033 82.7625C45.7489 82.8649 45.7834 82.9717 45.8065 83.0813C45.8326 83.155 45.8546 83.2301 45.8721 83.3063C45.9002 83.4188 45.919 83.5501 45.9471 83.6719C45.9565 83.7469 45.9658 83.7938 45.9752 83.8688C45.9976 84.0618 46.0102 84.2558 46.0127 84.4501C46.0064 85.7585 45.4843 87.0117 44.5596 87.9376C44.4565 88.0407 44.344 88.1438 44.2315 88.2376V90.825C44.2311 90.8547 44.2366 90.8841 44.2478 90.9116C44.259 90.9391 44.2756 90.964 44.2965 90.985C44.3175 91.006 44.3424 91.0225 44.3699 91.0337C44.3974 91.0449 44.4268 91.0504 44.4565 91.0501H71.3721C71.1293 89.8306 71.0069 88.5903 71.0065 87.3469C71.0051 86.2809 71.1024 85.2169 71.2971 84.1688C71.887 81.0369 73.2938 78.1165 75.3752 75.7032ZM59.5596 75.9C57.3508 75.9 55.1917 75.245 53.3553 74.0177C51.5189 72.7903 50.0878 71.046 49.243 69.0052C48.3982 66.9644 48.1776 64.7188 48.6092 62.5527C49.0408 60.3865 50.1051 58.397 51.6676 56.8358C53.2301 55.2747 55.2205 54.212 57.387 53.7822C59.5536 53.3524 61.7989 53.5749 63.839 54.4214C65.8791 55.268 67.6223 56.7006 68.848 58.538C70.0738 60.3754 70.7271 62.535 70.7252 64.7438C70.7188 67.7023 69.54 70.5376 67.4472 72.6286C65.3544 74.7197 62.5181 75.8961 59.5596 75.9Z" fill="white"/>
<path d="M99.7127 73.5984L100.997 74.9578C100.24 75.6593 99.38 76.241 98.4471 76.6828L97.6221 74.9953C98.3852 74.6375 99.0901 74.1665 99.7127 73.5984Z" fill="#2C3656"/>
<path d="M107.541 54.8062C107.531 55.0124 107.522 55.228 107.494 55.4437C107.455 55.8538 107.389 56.2609 107.297 56.6624C106.883 58.4341 105.882 60.0135 104.456 61.1437C103.147 62.0957 101.599 62.6668 99.9846 62.7937C99.3628 62.8722 98.7324 62.8468 98.1189 62.7187C98.7213 62.47 99.2911 62.1488 99.8158 61.7624C99.9533 61.6489 100.056 61.4991 100.112 61.33C100.169 61.1609 100.176 60.9794 100.135 60.8062C100.091 60.6316 99.9976 60.4734 99.8662 60.3504C99.7349 60.2274 99.571 60.1448 99.3939 60.1124C98.8724 60.0517 98.3753 59.858 97.9502 59.5499C98.1582 59.4652 98.3259 59.3042 98.4189 59.0999C98.4848 58.961 98.5159 58.8082 98.5093 58.6546C98.5028 58.5011 98.4589 58.3514 98.3814 58.2186L98.3252 58.1249C98.2607 58.0171 98.1751 57.9234 98.0737 57.8493C97.9722 57.7752 97.8569 57.7223 97.7346 57.6937C97.4894 57.6439 97.2567 57.5452 97.0505 57.4034C96.8443 57.2617 96.6689 57.0798 96.5346 56.8687C96.7159 56.861 96.8909 56.8 97.0377 56.6932C97.1844 56.5865 97.2964 56.4388 97.3596 56.2687C97.4264 56.0898 97.4381 55.895 97.3929 55.7094C97.3478 55.5239 97.248 55.3562 97.1064 55.228C96.8665 55.0302 96.6683 54.7865 96.5234 54.5113C96.3786 54.236 96.2899 53.9347 96.2627 53.6249C97.9929 55.0557 100.15 55.8704 102.394 55.9405C102.538 55.9491 102.682 55.9219 102.813 55.8614C102.943 55.8008 103.057 55.7089 103.144 55.5937C103.235 55.4829 103.3 55.3525 103.332 55.2126C103.365 55.0727 103.365 54.9271 103.331 54.7874C103.286 54.6161 103.264 54.4396 103.266 54.2624C103.268 53.6847 103.5 53.1315 103.909 52.7239C104.318 52.3162 104.872 52.0874 105.45 52.0874C105.748 52.0874 106.042 52.1491 106.315 52.2685C106.588 52.3879 106.833 52.5624 107.035 52.7812C107.109 52.86 107.198 52.9236 107.297 52.9687C107.249 53.1845 107.279 53.4102 107.381 53.6062C107.436 53.7253 107.52 53.8286 107.625 53.9062C107.534 54.1969 107.506 54.5036 107.541 54.8062Z" fill="#25AAE3"/>
<path d="M95.1465 75.9141L95.6434 77.7141C94.7015 77.9774 93.7431 78.1779 92.7747 78.3141L92.6809 77.6954L92.5028 76.4579C93.3944 76.3312 94.2773 76.1496 95.1465 75.9141ZM110.803 51.8813C110.722 51.8105 110.634 51.7477 110.54 51.6938C110.588 51.5725 110.612 51.4427 110.608 51.3122C110.605 51.1817 110.576 51.0532 110.522 50.9344C110.463 50.8075 110.376 50.6954 110.268 50.6063C110.102 50.4639 109.889 50.3872 109.67 50.3906C109.45 50.3941 109.24 50.4774 109.078 50.6251C108.721 50.8162 108.343 50.9671 107.953 51.0751C107.235 50.5219 106.356 50.219 105.45 50.2126C104.427 50.2139 103.442 50.6006 102.691 51.2956C101.941 51.9905 101.48 52.9428 101.4 53.9626C99.4671 53.6977 97.7145 52.6885 96.5153 51.1501C96.424 51.0387 96.3097 50.9484 96.1802 50.8853C96.0508 50.8222 95.9093 50.7878 95.7653 50.7844C95.6193 50.7872 95.4758 50.8233 95.3459 50.8899C95.2159 50.9565 95.1028 51.0519 95.0153 51.1688C94.687 51.7091 94.4808 52.3146 94.4111 52.9429C94.3415 53.5713 94.4101 54.2073 94.6122 54.8063C94.5127 54.8931 94.4321 54.9995 94.3757 55.1189C94.3192 55.2383 94.288 55.3681 94.284 55.5001C94.2713 56.6323 94.7059 57.7239 95.4934 58.5376C95.4352 58.7389 95.4485 58.9542 95.5309 59.1469C95.7869 59.9444 96.285 60.6424 96.9559 61.1438C96.2481 61.3698 95.5011 61.4464 94.7622 61.3688C94.5922 61.3525 94.421 61.383 94.2671 61.4569C94.1132 61.5308 93.9824 61.6453 93.8888 61.7881C93.7952 61.9309 93.7424 62.0966 93.736 62.2672C93.7297 62.4378 93.7701 62.6069 93.8528 62.7563C93.9191 62.8977 94.027 63.0155 94.1622 63.0938C95.7154 64.0721 97.4944 64.6339 99.3278 64.7251C99.6415 64.7187 99.9546 64.6937 100.265 64.6501C102.214 64.479 104.075 63.7644 105.637 62.5876C107.381 61.2035 108.607 59.271 109.115 57.1032C109.232 56.616 109.314 56.1209 109.359 55.6219C109.387 55.3876 109.406 55.1438 109.415 54.8813V54.7126C109.963 54.2337 110.459 53.6997 110.897 53.1188C111.029 52.9345 111.092 52.7093 111.075 52.483C111.058 52.2566 110.962 52.0436 110.803 51.8813ZM98.1184 62.7188C98.7208 62.4701 99.2906 62.149 99.8153 61.7626C99.9527 61.6491 100.055 61.4992 100.112 61.3302C100.168 61.1611 100.176 60.9795 100.134 60.8063C100.09 60.6318 99.997 60.4736 99.8657 60.3506C99.7344 60.2275 99.5704 60.1449 99.3934 60.1126C98.8719 60.0519 98.3747 59.8582 97.9497 59.5501C98.1576 59.4654 98.3253 59.3044 98.4184 59.1001C98.4843 58.9612 98.5153 58.8083 98.5088 58.6548C98.5023 58.5012 98.4584 58.3516 98.3809 58.2188L98.3247 58.1251C98.2601 58.0173 98.1746 57.9235 98.0731 57.8495C97.9717 57.7754 97.8564 57.7224 97.734 57.6938C97.4888 57.644 97.2562 57.5453 97.05 57.4036C96.8438 57.2618 96.6683 57.0799 96.534 56.8688C96.7154 56.8611 96.8904 56.8001 97.0371 56.6934C97.1839 56.5866 97.2959 56.4389 97.359 56.2688C97.4259 56.0899 97.4375 55.8951 97.3924 55.7096C97.3473 55.5241 97.2475 55.3563 97.1059 55.2282C96.8659 55.0303 96.6677 54.7867 96.5229 54.5114C96.378 54.2362 96.2894 53.9349 96.2622 53.6251C97.9923 55.0559 100.149 55.8705 102.393 55.9407C102.537 55.9492 102.681 55.922 102.812 55.8615C102.943 55.801 103.057 55.709 103.143 55.5938C103.235 55.4831 103.299 55.3526 103.332 55.2127C103.364 55.0728 103.364 54.9273 103.331 54.7876C103.286 54.6163 103.263 54.4397 103.265 54.2626C103.268 53.6848 103.499 53.1316 103.908 52.724C104.318 52.3164 104.872 52.0875 105.45 52.0876C105.747 52.0876 106.042 52.1492 106.314 52.2686C106.587 52.388 106.832 52.5626 107.034 52.7813C107.109 52.8601 107.198 52.9238 107.297 52.9688C107.249 53.1846 107.279 53.4104 107.381 53.6063C107.435 53.7255 107.519 53.8287 107.625 53.9063C107.534 54.1971 107.505 54.5037 107.54 54.8063C107.531 55.0126 107.522 55.2282 107.493 55.4438C107.454 55.8539 107.389 56.261 107.297 56.6626C106.883 58.4342 105.882 60.0137 104.456 61.1438C103.146 62.0959 101.598 62.6669 99.984 62.7938C99.3623 62.8723 98.7318 62.847 98.1184 62.7188ZM92.334 15.586C92.3322 15.4183 92.3803 15.2539 92.4723 15.1137C92.5643 14.9735 92.696 14.864 92.8505 14.7989C93.0051 14.7339 93.1755 14.7164 93.3401 14.7487C93.5046 14.7809 93.6558 14.8615 93.7744 14.98C93.8929 15.0986 93.9735 15.2498 94.0057 15.4143C94.038 15.5789 94.0205 15.7493 93.9555 15.9039C93.8904 16.0584 93.7808 16.1901 93.6407 16.2821C93.5005 16.3741 93.3361 16.4222 93.1684 16.4204C92.9474 16.4194 92.7358 16.3311 92.5795 16.1749C92.4232 16.0186 92.335 15.807 92.334 15.586Z" fill="#2C3656"/>
<path d="M102.309 43.5375C98.8805 43.537 95.5854 44.8669 93.1178 47.2474C90.6501 49.6278 89.2025 52.873 89.0798 56.2994C88.9571 59.7259 90.1688 63.0663 92.4598 65.6172C94.7509 68.1681 97.9424 69.7304 101.362 69.975C101.339 70.5409 101.231 71.1001 101.044 71.6344L102.797 72.3001C103.074 71.5551 103.226 70.7695 103.247 69.975C106.671 69.737 109.868 68.1781 112.165 65.6273C114.461 63.0765 115.677 59.7333 115.555 56.3032C115.434 52.8731 113.984 49.6244 111.513 47.2427C109.041 44.8609 105.741 43.5324 102.309 43.5375ZM102.309 68.1563C100.061 68.1559 97.8633 67.4891 95.994 66.24C94.1248 64.9909 92.6677 63.2157 91.8071 61.1387C90.9465 59.0617 90.7209 56.7762 91.159 54.5711C91.597 52.366 92.6789 50.3402 94.268 48.7498C95.857 47.1594 97.8819 46.0758 100.087 45.636C102.291 45.1962 104.577 45.4198 106.655 46.2787C108.733 47.1376 110.509 48.5932 111.76 50.4615C113.01 52.3297 113.679 54.5268 113.681 56.775C113.687 58.2706 113.397 59.7526 112.828 61.1356C112.259 62.5186 111.422 63.7753 110.365 64.8333C109.308 65.8913 108.052 66.7295 106.669 67.2999C105.287 67.8702 103.805 68.1613 102.309 68.1563ZM89.0811 15.586C89.0792 15.4183 89.1274 15.2539 89.2194 15.1137C89.3114 14.9735 89.443 14.864 89.5976 14.7989C89.7521 14.7339 89.9226 14.7164 90.0871 14.7487C90.2516 14.7809 90.4028 14.8615 90.5214 14.98C90.64 15.0986 90.7205 15.2498 90.7528 15.4143C90.785 15.5789 90.7675 15.7493 90.7025 15.9039C90.6375 16.0584 90.5279 16.1901 90.3877 16.2821C90.2475 16.3741 90.0831 16.4222 89.9155 16.4204C89.6945 16.4194 89.4828 16.3311 89.3265 16.1749C89.1703 16.0186 89.0821 15.807 89.0811 15.586Z" fill="#2C3656"/>
<path d="M94.575 12.8906C94.4812 12.75 92.9437 10.5375 88.6875 10.8375H88.65C87.3281 11.0438 84.1781 11.85 83.5312 15C83.5125 15.1313 82.9969 18.8625 88.1531 20.175C88.8562 20.2313 89.7 20.4656 89.9344 21.1781C89.9905 21.3571 90.019 21.5437 90.0187 21.7313C91.4591 20.9044 92.7965 19.91 94.0031 18.7688C95.85 16.7625 96.0375 14.8406 94.575 12.8906ZM86.6719 16.425C86.5046 16.4269 86.3406 16.379 86.2006 16.2874C86.0606 16.1958 85.951 16.0647 85.8857 15.9107C85.8204 15.7567 85.8023 15.5867 85.8338 15.4225C85.8653 15.2582 85.9449 15.107 86.0625 14.988C86.1802 14.8691 86.3305 14.7878 86.4944 14.7545C86.6583 14.7211 86.8285 14.7373 86.9832 14.8009C87.1379 14.8644 87.2702 14.9726 87.3634 15.1115C87.4565 15.2505 87.5062 15.414 87.5062 15.5813C87.5063 15.8034 87.4186 16.0166 87.2624 16.1746C87.1062 16.3325 86.894 16.4225 86.6719 16.425ZM89.9156 16.425C89.7487 16.425 89.5856 16.3755 89.4469 16.2828C89.3081 16.1901 89.2 16.0583 89.1361 15.9041C89.0722 15.75 89.0555 15.5803 89.0881 15.4166C89.1206 15.253 89.201 15.1026 89.319 14.9846C89.437 14.8666 89.5873 14.7863 89.751 14.7537C89.9147 14.7212 90.0843 14.7379 90.2385 14.8017C90.3927 14.8656 90.5245 14.9737 90.6172 15.1125C90.7099 15.2512 90.7594 15.4144 90.7594 15.5813C90.7601 15.6923 90.7388 15.8023 90.6967 15.905C90.6545 16.0077 90.5924 16.101 90.5139 16.1795C90.4354 16.258 90.3421 16.3202 90.2394 16.3623C90.1367 16.4044 90.0266 16.4257 89.9156 16.425ZM93.1687 16.425C93.0019 16.425 92.8387 16.3755 92.7 16.2828C92.5612 16.1901 92.4531 16.0583 92.3892 15.9041C92.3254 15.75 92.3086 15.5803 92.3412 15.4166C92.3738 15.253 92.4541 15.1026 92.5721 14.9846C92.6901 14.8666 92.8405 14.7863 93.0041 14.7537C93.1678 14.7212 93.3375 14.7379 93.4916 14.8017C93.6458 14.8656 93.7776 14.9737 93.8703 15.1125C93.963 15.2512 94.0125 15.4144 94.0125 15.5813C94.0132 15.6923 93.9919 15.8023 93.9498 15.905C93.9077 16.0077 93.8455 16.101 93.767 16.1795C93.6885 16.258 93.5952 16.3202 93.4925 16.3623C93.3898 16.4044 93.2798 16.4257 93.1687 16.425Z" fill="#25AAE3"/>
<path d="M92.841 107.7L68.7754 112.706L66.6941 104.494C66.781 104.408 66.8499 104.306 66.8966 104.193C66.9433 104.08 66.9669 103.959 66.966 103.837C66.9638 103.589 66.8643 103.352 66.689 103.177C66.5137 103.002 66.2765 102.902 66.0285 102.9C64.9664 102.941 63.9085 102.744 62.9321 102.324C61.9557 101.904 61.0854 101.271 60.3848 100.472H74.0535C74.4457 100.477 74.8317 100.373 75.169 100.173C75.5064 99.973 75.7821 99.6839 75.966 99.3374C76.1514 98.9903 76.2389 98.5992 76.2191 98.2062C76.1993 97.8131 76.0729 97.4329 75.8535 97.1062C75.8226 97.0479 75.7881 96.9915 75.7504 96.9374C75.6379 96.7499 75.516 96.5812 75.4129 96.3937C75.2686 96.1636 75.1371 95.9257 75.0191 95.6811C74.9441 95.5499 74.8691 95.4186 74.7848 95.2405C74.5316 94.7436 74.316 94.2374 74.1098 93.7124L73.941 93.2624C73.8473 92.9999 73.7723 92.728 73.6879 92.4562C73.6129 92.2312 73.5285 91.9874 73.4723 91.7437L73.4254 91.5655C72.8259 89.2665 72.7268 86.8655 73.1348 84.5249C73.412 83.0667 73.8883 81.6534 74.5504 80.3249C75.1948 79.0034 76.0216 77.7789 77.0066 76.6874C77.7377 75.8781 78.5586 75.1546 79.4535 74.5312L79.8566 74.2499L80.0254 58.7249C80.0346 58.2117 80.1071 57.7016 80.241 57.2062L80.316 57.028V56.9812C80.6387 55.9168 81.2534 54.9643 82.0903 54.2319C82.9272 53.4994 83.9527 53.0163 85.0504 52.8374V64.4624C85.0493 65.398 85.1948 66.3281 85.4816 67.2186L87.0379 71.9999C87.5535 73.6124 88.0598 75.1874 88.4348 76.7812C87.6098 76.7905 87.0848 76.7624 87.0754 76.7624L86.9723 78.6374C86.9723 78.6374 87.366 78.6562 88.0316 78.6562C88.2566 78.6562 88.5191 78.6561 88.8098 78.6374C88.9035 79.2374 88.9879 79.8468 89.0348 80.4655C89.1895 83.3828 89.1707 86.3067 88.9785 89.2218C88.9035 90.8999 88.8191 92.6249 88.8098 94.3124C88.791 94.7062 88.9691 95.2874 90.0285 98.0249C90.2629 98.6436 90.4691 99.1499 90.5254 99.3374L92.841 107.7Z" fill="#F6F8F9"/>
<path d="M86.6714 16.4204C86.5038 16.4222 86.3394 16.3741 86.1992 16.2821C86.059 16.1901 85.9494 16.0584 85.8844 15.9039C85.8194 15.7493 85.8019 15.5789 85.8341 15.4143C85.8664 15.2498 85.9469 15.0986 86.0655 14.98C86.184 14.8615 86.3352 14.7809 86.4998 14.7487C86.6643 14.7164 86.8347 14.7339 86.9893 14.7989C87.1439 14.864 87.2755 14.9735 87.3675 15.1137C87.4595 15.2539 87.5077 15.4183 87.5058 15.586C87.5048 15.807 87.4166 16.0186 87.2603 16.1749C87.1041 16.3311 86.8924 16.4194 86.6714 16.4204Z" fill="#2C3656"/>
<path d="M89.4098 7.1438C87.6752 7.14287 85.9792 7.65634 84.5365 8.61926C83.0937 9.58218 81.9688 10.9513 81.3042 12.5535C80.6395 14.1557 80.4649 15.9191 80.8024 17.6205C81.1399 19.322 81.9743 20.8851 83.2002 22.1123C84.4261 23.3395 85.9884 24.1757 87.6895 24.515C89.3906 24.8543 91.1541 24.6816 92.757 24.0186C94.3599 23.3557 95.7303 22.2323 96.6947 20.7905C97.6592 19.3488 98.1745 17.6534 98.1754 15.9188C98.1724 13.5941 97.2482 11.3652 95.6053 9.72053C93.9623 8.07581 91.7345 7.14926 89.4098 7.1438ZM95.3816 20.0438C93.7161 21.6029 91.8458 22.9276 89.8223 23.9813C89.6182 24.0591 89.4029 24.1034 89.1848 24.1125C88.9231 24.1177 88.6678 24.0315 88.4629 23.8688C88.3016 23.7441 88.1742 23.5809 88.0923 23.3942C88.0104 23.2075 87.9766 23.0032 87.9941 22.8L88.041 22.2938C88.0502 22.243 88.0627 22.1929 88.0785 22.1438C88.0811 22.1119 88.0874 22.0805 88.0973 22.05C88.041 22.05 87.9848 22.0313 87.9285 22.0313C87.878 22.0297 87.8278 22.0234 87.7785 22.0125C80.8129 20.2875 81.6754 14.7188 81.6848 14.6625C82.6035 10.1813 87.0379 9.18755 88.3785 8.9813C88.3973 8.9813 88.491 8.9813 88.5098 8.96255C93.9754 8.5688 96.0379 11.7 96.1223 11.8313C98.0816 14.4469 97.8379 17.3813 95.3816 20.0438Z" fill="#FCB316"/>
<path d="M89.4098 5.2688C87.3043 5.26787 85.2459 5.8913 83.4948 7.06025C81.7436 8.22921 80.3785 9.89118 79.5719 11.836C78.7653 13.7808 78.5536 15.9211 78.9634 17.9863C79.3732 20.0515 80.3863 21.9487 81.8744 23.4382C83.3625 24.9276 85.2589 25.9423 87.3237 26.354C89.3885 26.7656 91.529 26.5558 93.4745 25.7509C95.4201 24.946 97.0832 23.5823 98.2537 21.8322C99.4242 20.0821 100.049 18.0242 100.05 15.9188C100.051 13.0958 98.93 10.3882 96.9347 8.39115C94.9394 6.3941 92.2328 5.27104 89.4098 5.2688ZM89.4098 24.6844C87.6748 24.6854 85.9785 24.1717 84.5355 23.2083C83.0925 22.245 81.9677 20.8753 81.3033 19.2725C80.6389 17.6698 80.4648 15.906 80.8031 14.2043C81.1413 12.5025 81.9767 10.9394 83.2035 9.71257C84.4304 8.48573 85.9935 7.65035 87.6952 7.31209C89.3969 6.97384 91.1607 7.14791 92.7635 7.8123C94.3663 8.47668 95.7359 9.60152 96.6993 11.0445C97.6626 12.4875 98.1763 14.1838 98.1754 15.9188C98.1722 18.2426 97.2476 20.4703 95.6044 22.1135C93.9613 23.7566 91.7336 24.6812 89.4098 24.6844Z" fill="#2C3656"/>
<path d="M96.1223 11.8312C96.0379 11.6999 93.9754 8.56869 88.5098 8.96244C88.491 8.98119 88.3973 8.98119 88.3785 8.98119C87.0379 9.18744 82.6035 10.1812 81.6848 14.6624C81.6754 14.7187 80.8129 20.2874 87.7785 22.0124C87.8278 22.0233 87.878 22.0296 87.9285 22.0312C87.9848 22.0312 88.041 22.0499 88.0973 22.0499C88.0874 22.0804 88.0811 22.1118 88.0785 22.1437C88.0627 22.1928 88.0502 22.2429 88.041 22.2937L87.9941 22.7999C87.9766 23.0031 88.0104 23.2074 88.0923 23.3941C88.1742 23.5808 88.3016 23.744 88.4629 23.8687C88.6678 24.0314 88.9231 24.1176 89.1848 24.1124C89.4029 24.1033 89.6182 24.059 89.8223 23.9812C91.8458 22.9275 93.7161 21.6028 95.3816 20.0437C97.8379 17.3812 98.0816 14.4468 96.1223 11.8312ZM90.0191 21.7312C90.0194 21.5436 89.9909 21.3571 89.9348 21.1781C89.7004 20.4656 88.8566 20.2312 88.1535 20.1749C82.9973 18.8624 83.5129 15.1312 83.5316 14.9999C84.1785 11.8499 87.3285 11.0437 88.6504 10.8374H88.6879C92.9441 10.5374 94.4816 12.7499 94.5754 12.8906C96.0379 14.8406 95.8504 16.7624 94.0035 18.7687C92.7969 19.9099 91.4595 20.9044 90.0191 21.7312ZM78.4035 15.5859L78.6191 17.4421C77.8504 17.5359 77.1191 17.6484 76.4348 17.7984L76.041 15.9703C76.7816 15.8109 77.5785 15.6796 78.4035 15.5859ZM73.2004 16.8234L73.9035 18.5671C73.0975 18.8859 72.3302 19.2947 71.616 19.7859L70.5379 18.2484C71.3685 17.6739 72.2617 17.1959 73.2004 16.8234ZM68.3066 20.3578L69.7879 21.5109C69.2663 22.1753 68.8549 22.9191 68.5691 23.714L66.8066 23.0671C67.1638 22.092 67.6698 21.1781 68.3066 20.3578Z" fill="#2C3656"/>
<path d="M68.8027 63.9H63.9465C63.8986 63.0483 63.7826 62.2018 63.5996 61.3687C65.0174 61.1669 66.4181 60.8598 67.7902 60.45C68.3484 61.5233 68.6923 62.6951 68.8027 63.9Z" fill="#FCB316"/>
<path d="M66.3558 29.1562C66.205 28.438 66.1328 27.7056 66.1402 26.9718C66.1402 26.6905 66.1495 26.3905 66.1777 26.0718L68.0433 26.203C68.0245 26.4749 68.0152 26.728 68.0152 26.9718C68.0039 27.5607 68.0605 28.1489 68.1839 28.7249L66.3558 29.1562Z" fill="#2C3656"/>
<path d="M68.7848 65.7749C68.6583 66.9158 68.318 68.0226 67.7816 69.0374C66.4371 68.6314 65.0647 68.3243 63.6754 68.1187C63.8256 67.3452 63.9196 66.5619 63.9566 65.7749H68.7848ZM66.7035 70.6686C65.3236 72.3345 63.4024 73.4626 61.2754 73.8561C62.1078 72.6598 62.7557 71.3451 63.1973 69.9562C64.3817 70.1088 65.5535 70.3469 66.7035 70.6686Z" fill="#FCB316"/>
<path d="M64.4529 95.6812C64.452 95.7903 64.4082 95.8947 64.331 95.9719C64.2539 96.049 64.1495 96.0928 64.0404 96.0938H55.4154C55.3063 96.0928 55.202 96.049 55.1248 95.9719C55.0477 95.8947 55.0039 95.7903 55.0029 95.6812C55.0031 95.6238 55.0126 95.5669 55.0311 95.5125C55.0633 95.4366 55.1167 95.3715 55.1848 95.3249C55.2529 95.2784 55.333 95.2524 55.4154 95.25H64.0404C64.1514 95.2553 64.256 95.303 64.3328 95.3833C64.4096 95.4635 64.4526 95.5702 64.4529 95.6812Z" fill="#F6F8F9"/>
<path d="M66.7035 58.8187C65.5176 59.1363 64.3118 59.3744 63.0941 59.5312C62.6165 58.1114 61.9172 56.7762 61.0223 55.575C63.249 55.925 65.2702 57.079 66.7035 58.8187ZM61.2848 69.7687C60.8573 71.0271 60.2237 72.2056 59.4098 73.2562C58.6028 72.2011 57.9698 71.0238 57.5348 69.7687C58.7835 69.6889 60.036 69.6889 61.2848 69.7687ZM61.1723 59.7C60.0016 59.7715 58.828 59.7777 57.6566 59.7187C58.0805 58.5842 58.6714 57.5193 59.4098 56.5593C60.1471 57.5148 60.7409 58.5728 61.1723 59.7ZM62.0816 63.9H56.7473C56.7972 63.1172 56.9101 62.3396 57.0848 61.575C57.8066 61.6312 58.566 61.6687 59.3723 61.6687C60.1316 61.6687 60.9285 61.6406 61.7441 61.5656C61.9149 62.3342 62.0277 63.1145 62.0816 63.9ZM62.091 65.775C62.0459 66.493 61.9519 67.2072 61.8098 67.9125C60.215 67.7951 58.6139 67.7951 57.0191 67.9125C56.877 67.2072 56.783 66.493 56.7379 65.775H62.091ZM57.7691 55.6218C56.8886 56.8175 56.1991 58.1426 55.7254 59.55C54.5773 59.4069 53.4381 59.2003 52.3129 58.9312C53.6903 57.2258 55.6202 56.0552 57.7691 55.6218ZM57.5066 73.8C55.4586 73.331 53.6287 72.1849 52.3129 70.5468C53.4075 70.2896 54.5154 70.0924 55.6316 69.9562C56.065 71.3224 56.6968 72.6174 57.5066 73.8ZM55.2191 61.3875C55.042 62.2153 54.926 63.0551 54.8723 63.9H50.3066C50.4133 62.7516 50.7312 61.6329 51.2441 60.6C52.5473 60.9629 53.8761 61.2261 55.2191 61.3875ZM55.1441 68.1C53.8299 68.2777 52.5275 68.5345 51.2441 68.8687C50.7574 67.8999 50.4463 66.8524 50.3254 65.775H54.8723C54.9057 66.5556 54.9965 67.3327 55.1441 68.1Z" fill="#FCB316"/>
<path d="M49.3402 30.4359L47.484 30.689C47.3696 29.803 47.1942 28.9259 46.959 28.064L48.7684 27.5578C49.0228 28.5034 49.2138 29.4649 49.3402 30.4359ZM47.7277 24.7734L46.0402 25.589C45.6631 24.8092 45.2009 24.0735 44.6621 23.3953L46.1246 22.2234C46.7545 23.0095 47.2924 23.865 47.7277 24.7734Z" fill="#2C3656"/>
<path d="M44.1371 66.1687C44.1387 66.5728 44.06 66.9732 43.9055 67.3466C43.751 67.72 43.5238 68.0589 43.2371 68.3437C43.0893 68.4789 42.9327 68.6041 42.7684 68.7187C42.2715 69.0596 41.6834 69.2425 41.0809 69.2437H38.184C37.9121 69.2412 37.6522 69.1315 37.4608 68.9384C37.2695 68.7452 37.1621 68.4844 37.1621 68.2125V64.1343C37.1646 63.865 37.2733 63.6074 37.4647 63.4178C37.6561 63.2282 37.9146 63.1218 38.184 63.1218H41.0809C41.6825 63.1197 42.2707 63.2995 42.7684 63.6375C43.1876 63.9137 43.532 64.2894 43.7708 64.7311C44.0097 65.1727 44.1355 65.6666 44.1371 66.1687ZM44.1371 75.3093C44.1378 75.7119 44.0586 76.1106 43.9041 76.4823C43.7496 76.8541 43.5229 77.1915 43.2371 77.475C42.6583 78.0361 41.8869 78.3547 41.0809 78.3656H38.184C37.9132 78.3648 37.6537 78.257 37.4622 78.0655C37.2708 77.874 37.1629 77.6145 37.1621 77.3437V73.275C37.1621 73.0031 37.2695 72.7422 37.4608 72.5491C37.6522 72.3559 37.9121 72.2462 38.184 72.2437H41.0809C41.6841 72.2404 42.2735 72.4238 42.7684 72.7687C43.1887 73.0461 43.5337 73.4233 43.7726 73.8667C44.0115 74.3101 44.1367 74.8057 44.1371 75.3093ZM44.1371 84.45C44.1369 84.851 44.0572 85.248 43.9027 85.6181C43.7483 85.9882 43.522 86.324 43.2371 86.6062C43.0941 86.7469 42.937 86.8726 42.7684 86.9812C42.2707 87.3192 41.6825 87.4989 41.0809 87.4968H38.184C37.9146 87.4969 37.6561 87.3905 37.4647 87.2009C37.2733 87.0112 37.1646 86.7537 37.1621 86.4843V82.4156C37.1616 82.2813 37.1877 82.1482 37.2389 82.0239C37.2901 81.8997 37.3653 81.7869 37.4603 81.6919C37.5553 81.5969 37.6681 81.5217 37.7924 81.4705C37.9166 81.4193 38.0497 81.3932 38.184 81.3937H41.0809C41.6816 81.3883 42.2698 81.5648 42.7684 81.9C43.1882 82.1801 43.5327 82.5592 43.7714 83.0039C44.0101 83.4486 44.1357 83.9453 44.1371 84.45Z" fill="#F6F8F9"/>
<path d="M43.9217 20.1141L42.8154 21.6329C42.1223 21.1244 41.366 20.7084 40.5654 20.3954L41.2592 18.6516C42.2059 19.0226 43.1007 19.5142 43.9217 20.1141Z" fill="#2C3656"/>
<path d="M44.1371 57.0374C44.1387 57.4415 44.06 57.8419 43.9055 58.2153C43.751 58.5887 43.5238 58.9276 43.2371 59.2124C43.0893 59.3476 42.9327 59.4729 42.7684 59.5875C42.2698 59.9226 41.6816 60.0991 41.0809 60.0937H38.184C38.0504 60.0944 37.9179 60.0688 37.7942 60.0183C37.6705 59.9678 37.558 59.8934 37.4631 59.7994C37.3682 59.7053 37.2927 59.5935 37.2411 59.4703C37.1894 59.347 37.1626 59.2148 37.1621 59.0812V54.9937C37.167 54.7251 37.2765 54.469 37.4674 54.2799C37.6582 54.0908 37.9153 53.9836 38.184 53.9812H41.0809C41.6834 53.9824 42.2715 54.1654 42.7684 54.5062H42.7777C43.1958 54.7829 43.5389 55.159 43.7761 55.6007C44.0133 56.0424 44.1373 56.5361 44.1371 57.0374Z" fill="#F6F8F9"/>
<path d="M78.4409 54.8062C78.4409 55.5375 78.4315 56.2125 78.4409 56.7C78.2532 57.3524 78.1555 58.0274 78.1503 58.7062L77.9909 73.275C77.7378 73.4625 77.494 73.65 77.2503 73.8563V38.3531C77.2508 38.0772 77.1968 37.8039 77.0914 37.5489C76.9861 37.2939 76.8314 37.0622 76.6363 36.8671C76.4412 36.672 76.2095 36.5173 75.9545 36.412C75.6995 36.3066 75.4262 36.2526 75.1503 36.2531H44.4565C43.8998 36.2539 43.3661 36.4754 42.9724 36.869C42.5788 37.2627 42.3573 37.7964 42.3565 38.3531V52.275C42.2367 52.241 42.1145 52.216 41.9909 52.2C41.9207 52.1792 41.8484 52.1666 41.7753 52.1625C41.5459 52.1252 41.3139 52.1063 41.0815 52.1063L41.044 34.6875C41.0432 34.6511 41.0495 34.6149 41.0628 34.581C41.076 34.5471 41.0958 34.5162 41.1211 34.49C41.1464 34.4638 41.1767 34.443 41.2101 34.4286C41.2435 34.4142 41.2795 34.4066 41.3159 34.4062H78.1503C78.1867 34.4066 78.2226 34.4142 78.2561 34.4286C78.2895 34.443 78.3197 34.4638 78.345 34.49C78.3703 34.5162 78.3902 34.5471 78.4034 34.581C78.4167 34.6149 78.423 34.6511 78.4221 34.6875L78.4503 52.8937C78.4503 53.5125 78.4503 54.1687 78.4409 54.8062ZM74.2971 98.1281C73.9595 97.6383 73.6527 97.1279 73.3784 96.6C73.2751 96.4238 73.1812 96.2423 73.0971 96.0562C72.9846 95.8312 72.8628 95.5875 72.7503 95.3156C72.6835 95.1878 72.6241 95.0564 72.5721 94.9219C72.5346 94.8375 72.4971 94.7437 72.4596 94.65C72.2272 94.0858 72.0238 93.51 71.8503 92.925H44.4565C43.8998 92.9243 43.3661 92.7028 42.9724 92.3091C42.5788 91.9154 42.3573 91.3817 42.3565 90.825V89.2125C42.244 89.2313 42.1221 89.25 42.0003 89.2688C41.9264 89.2919 41.8513 89.3107 41.7753 89.325C41.5456 89.359 41.3137 89.3746 41.0815 89.3719H41.044V98.3438C41.0481 98.4128 41.0786 98.4776 41.1293 98.5248C41.1799 98.5719 41.2467 98.5977 41.3159 98.5969H74.0534C74.1056 98.5984 74.1573 98.5862 74.2034 98.5616C74.2495 98.5369 74.2882 98.5006 74.3159 98.4562C74.3309 98.4132 74.3434 98.3694 74.3534 98.325C74.3533 98.2554 74.3338 98.1873 74.2971 98.1281ZM64.0409 97.9688H55.4159C55.1152 97.9699 54.8172 97.9115 54.5392 97.7969C54.2612 97.6823 54.0085 97.5139 53.7959 97.3013C53.5833 97.0886 53.4148 96.836 53.3003 96.558C53.1857 96.2799 53.1273 95.982 53.1284 95.6813C53.129 95.222 53.2625 94.7726 53.5128 94.3875C53.7258 94.0788 54.0099 93.8257 54.341 93.6495C54.6722 93.4733 55.0408 93.3792 55.4159 93.375H64.0409C64.6501 93.375 65.2343 93.617 65.665 94.0477C66.0958 94.4785 66.3378 95.0627 66.3378 95.6719C66.3378 96.2811 66.0958 96.8653 65.665 97.296C65.2343 97.7268 64.6501 97.9688 64.0409 97.9688Z" fill="#DEE1E9"/>
<path d="M38.944 100.636L36.4688 101.639L37.1718 103.373L39.6471 102.37L38.944 100.636Z" fill="#2C3656"/>
<path d="M38.3346 17.8642L38.0533 19.7204C37.4641 19.6278 36.8686 19.5808 36.2721 19.5798C35.8127 19.5798 35.5314 19.6173 35.5033 19.6173L35.2783 17.7517C35.6084 17.717 35.9402 17.7014 36.2721 17.7048C36.9626 17.7066 37.652 17.7599 38.3346 17.8642ZM94.9221 108.169L92.3252 98.8126C92.2408 98.5689 92.0346 98.0064 91.7814 97.3501C91.4252 96.4314 90.7689 94.7439 90.6846 94.3314C90.6939 92.6532 90.7783 90.9564 90.8533 89.3064C91.0473 86.3162 91.063 83.3171 90.9002 80.3251C90.8346 79.5282 90.7408 78.7501 90.6096 78.0001C90.1669 75.7734 89.5686 73.5805 88.8189 71.4376L87.2627 66.6376C87.0389 65.9343 86.925 65.2007 86.9252 64.4626V51.8064C86.9207 51.5538 86.8202 51.3124 86.6439 51.1314C86.5545 51.045 86.4487 50.9774 86.3328 50.9323C86.2169 50.8872 86.0932 50.8657 85.9689 50.8689C84.9124 50.8836 83.8693 51.1084 82.9003 51.5301C81.9314 51.9518 81.0561 52.562 80.3252 53.3251V52.8939L80.2971 34.6876C80.2971 34.1174 80.0712 33.5703 79.6688 33.1662C79.2665 32.7621 78.7204 32.5338 78.1502 32.5314H41.3158C40.7456 32.5338 40.1995 32.7621 39.7972 33.1662C39.3948 33.5703 39.1689 34.1174 39.1689 34.6876V52.1064H38.1846C37.4179 52.1064 36.6825 52.4103 36.1395 52.9515C35.5965 53.4928 35.2902 54.2272 35.2877 54.9939V59.0814C35.2902 59.5997 35.4315 60.1078 35.697 60.553C35.9624 60.9981 36.3423 61.364 36.7971 61.6126C36.3434 61.8601 35.9642 62.2245 35.6988 62.6679C35.4334 63.1114 35.2915 63.6177 35.2877 64.1345V68.2126C35.2902 68.7309 35.4315 69.2391 35.697 69.6842C35.9624 70.1294 36.3423 70.4953 36.7971 70.7439C36.3407 70.9906 35.9595 71.3561 35.6938 71.8016C35.4281 72.2472 35.2878 72.7563 35.2877 73.2751V77.3439C35.29 77.8633 35.4323 78.3726 35.6996 78.818C35.9668 79.2634 36.3492 79.6286 36.8064 79.8751C36.3481 80.1227 35.965 80.4894 35.6977 80.9366C35.4304 81.3837 35.2887 81.8948 35.2877 82.4157V86.4845C35.2926 87.2504 35.5997 87.9834 36.1422 88.5241C36.6847 89.0648 37.4186 89.3695 38.1846 89.372H39.1689V98.3439C39.17 98.6246 39.2265 98.9024 39.335 99.1613C39.4435 99.4202 39.602 99.6552 39.8014 99.8528C40.0007 100.05 40.2371 100.207 40.497 100.313C40.7568 100.419 41.0351 100.473 41.3158 100.472H57.8533C59.6533 102.6 61.5283 104.344 64.8096 104.7L67.1814 114.038C67.234 114.236 67.3507 114.412 67.5135 114.538C67.6762 114.663 67.8759 114.731 68.0814 114.731C68.1476 114.734 68.2139 114.728 68.2783 114.713L94.2096 109.331C94.3357 109.31 94.4556 109.261 94.5608 109.188C94.6661 109.115 94.7542 109.02 94.8189 108.909C94.8847 108.799 94.9276 108.677 94.9453 108.55C94.9631 108.422 94.9551 108.293 94.9221 108.169ZM41.3158 34.4064H78.1502C78.1866 34.4067 78.2225 34.4143 78.256 34.4287C78.2894 34.4431 78.3197 34.464 78.345 34.4901C78.3703 34.5163 78.3901 34.5472 78.4033 34.5811C78.4166 34.615 78.4229 34.6512 78.4221 34.6876L78.4502 52.8939C78.4502 53.5126 78.4502 54.1689 78.4408 54.8064C78.4408 55.5376 78.4314 56.2126 78.4408 56.7001C78.2532 57.3525 78.1554 58.0275 78.1502 58.7064L77.9908 73.2751C77.7377 73.4626 77.4939 73.6501 77.2502 73.8564V38.3532C77.2507 38.0773 77.1967 37.804 77.0913 37.549C76.986 37.294 76.8313 37.0623 76.6362 36.8672C76.4411 36.6721 76.2094 36.5175 75.9544 36.4121C75.6994 36.3067 75.4261 36.2527 75.1502 36.2532H44.4564C43.8997 36.254 43.366 36.4755 42.9723 36.8691C42.5787 37.2628 42.3572 37.7965 42.3564 38.3532V52.2751C42.2366 52.2412 42.1144 52.2161 41.9908 52.2001C41.9206 52.1793 41.8483 52.1667 41.7752 52.1626C41.5458 52.1253 41.3138 52.1065 41.0814 52.1064L41.0439 34.6876C41.0431 34.6512 41.0494 34.615 41.0627 34.5811C41.0759 34.5472 41.0958 34.5163 41.1211 34.4901C41.1464 34.464 41.1766 34.4431 41.21 34.4287C41.2435 34.4143 41.2794 34.4067 41.3158 34.4064ZM41.0439 98.3439V89.372H41.0814C41.3136 89.3748 41.5455 89.3591 41.7752 89.3251C41.8512 89.3108 41.9264 89.292 42.0002 89.2689C42.1221 89.2501 42.2439 89.2314 42.3564 89.2126V90.8251C42.3572 91.3818 42.5787 91.9156 42.9723 92.3092C43.366 92.7029 43.8997 92.9244 44.4564 92.9251H71.8502C72.0238 93.5101 72.2272 94.0859 72.4596 94.6501C72.4971 94.7439 72.5346 94.8376 72.5721 94.922C72.624 95.0565 72.6835 95.188 72.7502 95.3157C72.8627 95.5876 72.9846 95.8314 73.0971 96.0564C73.1812 96.2425 73.275 96.424 73.3783 96.6001C73.6526 97.1281 73.9594 97.6384 74.2971 98.1282C74.3337 98.1874 74.3532 98.2555 74.3533 98.3251C74.3433 98.3695 74.3308 98.4134 74.3158 98.4564C74.2882 98.5007 74.2494 98.537 74.2033 98.5617C74.1573 98.5864 74.1055 98.5985 74.0533 98.597H41.3158C41.2467 98.5978 41.1798 98.572 41.1292 98.5249C41.0786 98.4777 41.048 98.4129 41.0439 98.3439ZM71.2971 84.1689C71.1024 85.217 71.0051 86.2809 71.0064 87.347C71.0069 88.5904 71.1293 89.8307 71.3721 91.0501H44.4564C44.4268 91.0505 44.3974 91.0449 44.3699 91.0338C44.3424 91.0226 44.3175 91.006 44.2965 90.9851C44.2755 90.9641 44.259 90.9391 44.2478 90.9117C44.2366 90.8842 44.2311 90.8548 44.2314 90.8251V88.2376C44.3439 88.1439 44.4564 88.0407 44.5596 87.9376C45.4843 87.0118 46.0064 85.7586 46.0127 84.4501C46.0101 84.2559 45.9976 84.0619 45.9752 83.8689C45.9658 83.7939 45.9564 83.747 45.9471 83.672C45.9189 83.5501 45.9002 83.4189 45.8721 83.3064C45.8545 83.2302 45.8326 83.1551 45.8064 83.0814C45.7834 82.9718 45.7488 82.8649 45.7033 82.7626C45.6752 82.6689 45.6471 82.5939 45.6189 82.5189L45.4783 82.2376C45.4408 82.1626 45.4033 82.0876 45.3564 82.0126C45.311 81.9207 45.2577 81.8328 45.1971 81.7501C45.1502 81.6751 45.0939 81.6001 45.0471 81.5251C44.9814 81.4501 44.9158 81.3564 44.8502 81.2814C44.7939 81.2251 44.7377 81.1501 44.6814 81.0939C44.6081 81.0111 44.5298 80.9329 44.4471 80.8595C44.3925 80.7955 44.3329 80.736 44.2689 80.6814C44.2502 80.6814 44.2408 80.6626 44.2314 80.6626V79.1064C44.3439 79.0126 44.4564 78.9001 44.5596 78.8064C45.022 78.3493 45.3887 77.8047 45.6382 77.2042C45.8877 76.6038 46.015 75.9597 46.0127 75.3095C46.0127 75.1126 45.9939 74.9157 45.9752 74.7189C45.9658 74.6626 45.9564 74.6064 45.9471 74.5314C45.9189 74.4001 45.9002 74.2876 45.8721 74.1564C45.8545 74.0802 45.8326 74.005 45.8064 73.9314C45.7792 73.8229 45.7448 73.7164 45.7033 73.6126C45.6761 73.536 45.6448 73.4609 45.6096 73.3876C45.5715 73.2852 45.5277 73.1851 45.4783 73.0876C45.4408 73.0126 45.4033 72.9376 45.3564 72.8626C45.3096 72.7876 45.2533 72.6939 45.1971 72.6001C45.1516 72.5282 45.1015 72.4593 45.0471 72.3939C44.9861 72.309 44.9204 72.2276 44.8502 72.1501C44.7939 72.0751 44.7377 72.0189 44.6814 71.9532C44.6081 71.8705 44.5298 71.7922 44.4471 71.7189C44.3908 71.6626 44.3346 71.6064 44.2689 71.5501C44.2502 71.5314 44.2408 71.5314 44.2314 71.5126V69.9751C44.3439 69.8814 44.4564 69.7689 44.5689 69.6564C45.0297 69.2005 45.3947 68.6571 45.6426 68.0583C45.8906 67.4594 46.0164 66.817 46.0127 66.1689C46.0127 65.9814 45.9939 65.7845 45.9752 65.5876C45.9658 65.5314 45.9564 65.4657 45.9471 65.4001C45.9189 65.2689 45.9002 65.1564 45.8721 65.0251C45.8545 64.9489 45.8326 64.8738 45.8064 64.8001C45.7779 64.6921 45.7434 64.5857 45.7033 64.4814C45.6761 64.4048 45.6448 64.3297 45.6096 64.2564C45.5721 64.1626 45.5252 64.0595 45.4783 63.9564C45.4408 63.8814 45.4033 63.8064 45.3564 63.7314C45.3096 63.6376 45.2533 63.5626 45.1971 63.4689C45.1516 63.3969 45.1015 63.3281 45.0471 63.2626C44.9861 63.1777 44.9204 63.0963 44.8502 63.0189C44.7939 62.9439 44.7377 62.8876 44.6814 62.8126C44.6081 62.7299 44.5298 62.6516 44.4471 62.5782C44.3908 62.5314 44.3346 62.4751 44.2689 62.4189C44.2502 62.4001 44.2408 62.4001 44.2314 62.3814V60.8439C44.3439 60.7501 44.4564 60.6376 44.5596 60.5439C45.0222 60.085 45.3889 59.5387 45.6384 58.9367C45.8878 58.3348 46.0151 57.6892 46.0127 57.0376C46.0127 56.8501 45.9939 56.6626 45.9752 56.4564C45.9658 56.4001 45.9564 56.3345 45.9471 56.2689C45.9189 56.1376 45.9002 56.0157 45.8721 55.8939C45.8545 55.8177 45.8326 55.7425 45.8064 55.6689C45.7779 55.5608 45.7434 55.4544 45.7033 55.3501C45.6761 55.2735 45.6448 55.1984 45.6096 55.1251C45.5721 55.0314 45.5252 54.9189 45.4783 54.8251C45.4408 54.7595 45.4033 54.6845 45.3564 54.6095C45.3089 54.5157 45.2557 54.4249 45.1971 54.3376C45.1516 54.2657 45.1015 54.1968 45.0471 54.1314C44.9861 54.0465 44.9204 53.9651 44.8502 53.8876C44.7939 53.822 44.7377 53.747 44.6814 53.6814C44.6104 53.5993 44.532 53.524 44.4471 53.4564L44.2689 53.2782C44.2502 53.2782 44.2408 53.2689 44.2314 53.2501V38.3532C44.2322 38.2938 44.2561 38.237 44.2982 38.195C44.3402 38.1529 44.397 38.129 44.4564 38.1282H75.1502C75.2096 38.129 75.2664 38.1529 75.3085 38.195C75.3505 38.237 75.3745 38.2938 75.3752 38.3532V75.7032C73.2938 78.1166 71.8869 81.037 71.2971 84.1689ZM37.1627 54.9939C37.1676 54.7252 37.2771 54.4691 37.4679 54.28C37.6588 54.0909 37.9159 53.9838 38.1846 53.9814H41.0814C41.684 53.9826 42.2721 54.1655 42.7689 54.5064H42.7783C43.1548 54.7575 43.4707 55.0891 43.7033 55.4772C43.9359 55.8653 44.0794 56.3003 44.1234 56.7506C44.1673 57.201 44.1107 57.6555 43.9575 58.0813C43.8043 58.507 43.5585 58.8935 43.2377 59.2126C43.0898 59.3478 42.9333 59.473 42.7689 59.5876C42.2704 59.9228 41.6821 60.0993 41.0814 60.0939H38.1846C38.051 60.0946 37.9185 60.069 37.7948 60.0185C37.6711 59.968 37.5586 59.8936 37.4637 59.7995C37.3687 59.7055 37.2933 59.5937 37.2417 59.4704C37.19 59.3472 37.1632 59.215 37.1627 59.0814V54.9939ZM37.1627 64.1345C37.1652 63.8651 37.2739 63.6076 37.4653 63.418C37.6567 63.2284 37.9152 63.122 38.1846 63.122H41.0814C41.6831 63.1199 42.2713 63.2996 42.7689 63.6376C43.147 63.8872 43.4647 64.2178 43.6989 64.6056C43.9331 64.9934 44.0779 65.4285 44.1228 65.8792C44.1677 66.33 44.1116 66.7851 43.9585 67.2115C43.8053 67.6378 43.5591 68.0247 43.2377 68.3439C43.0898 68.479 42.9333 68.6043 42.7689 68.7189C42.2721 69.0597 41.684 69.2427 41.0814 69.2439H38.1846C37.9127 69.2414 37.6528 69.1317 37.4614 68.9385C37.27 68.7454 37.1627 68.4845 37.1627 68.2126V64.1345ZM37.1627 73.2751C37.1627 73.0032 37.27 72.7423 37.4614 72.5492C37.6528 72.3561 37.9127 72.2463 38.1846 72.2439H41.0814C41.6846 72.2406 42.2741 72.4239 42.7689 72.7689C43.147 73.0184 43.4647 73.3491 43.6989 73.7369C43.9331 74.1246 44.0779 74.5597 44.1228 75.0105C44.1677 75.4613 44.1116 75.9164 43.9585 76.3427C43.8053 76.7691 43.5591 77.1559 43.2377 77.4751C42.6589 78.0362 41.8875 78.3548 41.0814 78.3657H38.1846C37.9138 78.365 37.6543 78.2571 37.4628 78.0656C37.2713 77.8742 37.1634 77.6147 37.1627 77.3439V73.2751ZM38.1846 87.497C37.9152 87.497 37.6567 87.3906 37.4653 87.201C37.2739 87.0114 37.1652 86.7539 37.1627 86.4845V82.4157C37.1622 82.2814 37.1883 82.1483 37.2395 82.0241C37.2906 81.8999 37.3659 81.7871 37.4609 81.6921C37.5559 81.5971 37.6687 81.5218 37.7929 81.4706C37.9171 81.4195 38.0502 81.3934 38.1846 81.3939H41.0814C41.6821 81.3885 42.2704 81.565 42.7689 81.9001C43.1888 82.1802 43.5333 82.5594 43.772 83.0041C44.0107 83.4488 44.1363 83.9454 44.1377 84.4501C44.1374 84.8512 44.0578 85.2482 43.9033 85.6182C43.7489 85.9883 43.5226 86.3242 43.2377 86.6064C43.0947 86.747 42.9376 86.8727 42.7689 86.9814C42.2713 87.3194 41.6831 87.4991 41.0814 87.497H38.1846ZM68.7752 112.706L66.6939 104.494C66.7808 104.408 66.8497 104.306 66.8964 104.193C66.9431 104.081 66.9667 103.96 66.9658 103.838C66.9636 103.59 66.8641 103.352 66.6888 103.177C66.5135 103.002 66.2763 102.902 66.0283 102.9C64.9662 102.941 63.9083 102.744 62.9319 102.324C61.9555 101.904 61.0852 101.271 60.3846 100.472H74.0533C74.4455 100.477 74.8315 100.373 75.1689 100.173C75.5062 99.9733 75.782 99.6841 75.9658 99.3376C76.1512 98.9905 76.2387 98.5994 76.2189 98.2064C76.1991 97.8134 76.0727 97.4331 75.8533 97.1064C75.8224 97.0481 75.788 96.9917 75.7502 96.9376C75.6377 96.7501 75.5158 96.5814 75.4127 96.3939C75.2684 96.1638 75.137 95.9259 75.0189 95.6814C74.9439 95.5501 74.8689 95.4189 74.7846 95.2407C74.5314 94.7439 74.3158 94.2376 74.1096 93.7126L73.9408 93.2626C73.8471 93.0001 73.7721 92.7282 73.6877 92.4564C73.6127 92.2314 73.5283 91.9876 73.4721 91.7439L73.4252 91.5657C72.8257 89.2667 72.7266 86.8658 73.1346 84.5251C73.4118 83.0669 73.8881 81.6536 74.5502 80.3251C75.1946 79.0036 76.0214 77.7791 77.0064 76.6876C77.7375 75.8783 78.5584 75.1549 79.4533 74.5314L79.8564 74.2501L80.0252 58.7251C80.0344 58.2119 80.1069 57.7018 80.2408 57.2064L80.3158 57.0282V56.9814C80.6385 55.917 81.2532 54.9646 82.0901 54.2321C82.927 53.4996 83.9525 53.0165 85.0502 52.8376V64.4626C85.0491 65.3983 85.1946 66.3283 85.4814 67.2189L87.0377 72.0001C87.5533 73.6126 88.0596 75.1876 88.4346 76.7814C87.6096 76.7907 87.0846 76.7626 87.0752 76.7626L86.9721 78.6376C86.9721 78.6376 87.3658 78.6564 88.0314 78.6564C88.2564 78.6564 88.5189 78.6564 88.8096 78.6376C88.9033 79.2376 88.9877 79.847 89.0346 80.4657C89.1893 83.383 89.1705 86.3069 88.9783 89.222C88.9033 90.9001 88.8189 92.6251 88.8096 94.3126C88.7908 94.7064 88.9689 95.2876 90.0283 98.0251C90.2627 98.6439 90.4689 99.1501 90.5252 99.3376L92.8408 107.7L68.7752 112.706Z" fill="#2C3656"/>
<path d="M64.0406 93.3751H55.4156C55.0405 93.3793 54.6719 93.4734 54.3407 93.6496C54.0096 93.8258 53.7255 94.0789 53.5125 94.3876C53.2622 94.7727 53.1287 95.222 53.1281 95.6813C53.127 95.9821 53.1854 96.28 53.3 96.5581C53.4145 96.8361 53.583 97.0887 53.7956 97.3013C54.0083 97.514 54.2609 97.6824 54.5389 97.797C54.817 97.9116 55.1149 97.97 55.4156 97.9689H64.0406C64.6498 97.9689 65.234 97.7269 65.6648 97.2961C66.0955 96.8654 66.3375 96.2811 66.3375 95.672C66.3375 95.0628 66.0955 94.4786 65.6648 94.0478C65.234 93.6171 64.6498 93.3751 64.0406 93.3751ZM64.0406 96.0939H55.4156C55.3065 96.0929 55.2022 96.0491 55.125 95.9719C55.0479 95.8948 55.0041 95.7904 55.0031 95.6813C55.0033 95.6239 55.0128 95.567 55.0313 95.5126C55.0635 95.4367 55.1169 95.3716 55.185 95.325C55.2531 95.2785 55.3332 95.2525 55.4156 95.2501H64.0406C64.1516 95.2554 64.2562 95.3031 64.333 95.3834C64.4098 95.4636 64.4528 95.5703 64.4531 95.6813C64.4521 95.7904 64.4084 95.8948 64.3312 95.9719C64.2541 96.0491 64.1497 96.0929 64.0406 96.0939ZM59.5594 53.5688C57.3514 53.5688 55.193 54.2235 53.3571 55.4499C51.5211 56.6764 50.09 58.4197 49.2446 60.4594C48.3992 62.4991 48.1775 64.7437 48.6076 66.9093C49.0377 69.075 50.1002 71.0645 51.6608 72.6265C53.2214 74.1884 55.21 75.2525 57.3753 75.6844C59.5406 76.1163 61.7854 75.8965 63.8258 75.0529C65.8662 74.2092 67.6107 72.7795 68.8387 70.9446C70.0667 69.1096 70.7231 66.9518 70.725 64.7438C70.7223 61.7825 69.5453 58.9431 67.4522 56.8483C65.3591 54.7534 62.5207 53.5741 59.5594 53.5688ZM61.275 73.8563C62.1074 72.66 62.7553 71.3453 63.1969 69.9564C64.3813 70.109 65.5531 70.3471 66.7031 70.6688C65.3232 72.3347 63.402 73.4628 61.275 73.8563ZM66.7031 58.8189C65.5172 59.1365 64.3114 59.3745 63.0938 59.5313C62.6161 58.1116 61.9168 56.7763 61.0219 55.5751C63.2486 55.9252 65.2698 57.0792 66.7031 58.8189ZM62.0906 65.7751C62.0455 66.4932 61.9515 67.2073 61.8094 67.9126C60.2147 67.7952 58.6135 67.7952 57.0187 67.9126C56.8766 67.2073 56.7826 66.4932 56.7375 65.7751H62.0906ZM56.7469 63.9001C56.7968 63.1173 56.9097 62.3398 57.0844 61.5751C57.8062 61.6313 58.5656 61.6688 59.3719 61.6688C60.1313 61.6688 60.9281 61.6407 61.7438 61.5657C61.9145 62.3343 62.0273 63.1146 62.0813 63.9001H56.7469ZM61.1719 59.7001C60.0013 59.7716 58.8276 59.7779 57.6562 59.7188C58.0801 58.5843 58.671 57.5195 59.4094 56.5595C60.1467 57.5149 60.7405 58.573 61.1719 59.7001ZM57.7687 55.622C56.8882 56.8176 56.1987 58.1428 55.725 59.5501C54.5769 59.407 53.4377 59.2005 52.3125 58.9313C53.6899 57.2259 55.6198 56.0554 57.7687 55.622ZM55.2188 61.3876C55.0416 62.2154 54.9256 63.0552 54.8719 63.9001H50.3062C50.4129 62.7518 50.7308 61.633 51.2437 60.6001C52.5469 60.963 53.8757 61.2263 55.2188 61.3876ZM54.8719 65.7751C54.9053 66.5557 54.9961 67.3328 55.1437 68.1001C53.8295 68.2779 52.5272 68.5346 51.2437 68.8688C50.757 67.9 50.446 66.8526 50.325 65.7751H54.8719ZM55.6313 69.9564C56.0647 71.3225 56.6964 72.6176 57.5063 73.8001C55.4582 73.3312 53.6283 72.185 52.3125 70.547C53.4071 70.2897 54.5151 70.0925 55.6313 69.9564ZM61.2844 69.7688C60.8569 71.0272 60.2233 72.2058 59.4094 73.2563C58.6024 72.2013 57.9694 71.0239 57.5344 69.7688C58.7831 69.6891 60.0357 69.6891 61.2844 69.7688ZM63.675 68.1189C63.8252 67.3454 63.9192 66.5621 63.9563 65.7751H68.7844C68.6579 66.916 68.3176 68.0228 67.7813 69.0376C66.4368 68.6316 65.0643 68.3245 63.675 68.1189ZM63.9469 63.9001C63.899 63.0484 63.783 62.202 63.6 61.3688C65.0177 61.167 66.4185 60.8599 67.7906 60.4501C68.3488 61.5235 68.6927 62.6953 68.8031 63.9001H63.9469ZM34.575 104.438L33.9844 104.681C33.9262 104.701 33.8667 104.717 33.8063 104.728C33.0469 104.878 32.3062 105 31.6031 105.094L31.3594 103.238C31.9969 103.144 32.6719 103.041 33.3563 102.909L33.8625 102.703L34.575 104.438ZM28.65 103.467L28.7156 105.333C28.425 105.352 28.1531 105.352 27.8812 105.352C27.15 105.352 26.4469 105.314 25.7812 105.249L25.9688 103.383C26.8597 103.47 27.7554 103.498 28.65 103.467Z" fill="#2C3656"/>
<path d="M17.6902 71.1562C15.4407 71.1563 13.2417 71.8234 11.3714 73.0734C9.50109 74.3234 8.04353 76.1 7.1831 78.1785C6.32267 80.257 6.09801 82.5439 6.53756 84.7501C6.97711 86.9563 8.0611 88.9826 9.65243 90.5726C11.2437 92.1626 13.2709 93.2449 15.4774 93.6826C17.684 94.1204 19.9708 93.8938 22.0486 93.0317C24.1263 92.1695 25.9017 90.7105 27.1502 88.8392C28.3986 86.9678 29.064 84.7683 29.0621 82.5187C29.0589 79.5046 27.8594 76.615 25.7272 74.4845C23.595 72.354 20.7044 71.157 17.6902 71.1562ZM21.609 75.9375C21.5618 76.0515 21.4925 76.1551 21.4052 76.2423C21.3179 76.3295 21.2142 76.3986 21.1001 76.4457C20.986 76.4927 20.8637 76.5167 20.7403 76.5164C20.6168 76.5161 20.4947 76.4914 20.3809 76.4437C20.217 76.3649 20.0377 76.3233 19.8559 76.3219H18.8152C18.6373 76.3222 18.4611 76.3577 18.2969 76.4263C18.1326 76.4948 17.9836 76.5951 17.8581 76.7214C17.7327 76.8477 17.6335 76.9975 17.5661 77.1622C17.4986 77.3269 17.4644 77.5033 17.4652 77.6812V80.1375H19.6684C19.917 80.1375 20.1555 80.2363 20.3313 80.4121C20.5071 80.5879 20.6059 80.8264 20.6059 81.075C20.6059 81.3236 20.5071 81.5621 20.3313 81.7379C20.1555 81.9137 19.917 82.0125 19.6684 82.0125H17.4652V89.6438C17.4652 89.8924 17.3665 90.1308 17.1906 90.3067C17.0148 90.4825 16.7764 90.5813 16.5277 90.5813C16.2791 90.5813 16.0406 90.4825 15.8648 90.3067C15.689 90.1308 15.5902 89.8924 15.5902 89.6438V82.0125H14.634C14.3853 82.0125 14.1469 81.9137 13.9711 81.7379C13.7953 81.5621 13.6965 81.3236 13.6965 81.075C13.6965 80.8264 13.7953 80.5879 13.9711 80.4121C14.1469 80.2363 14.3853 80.1375 14.634 80.1375H15.5902V77.6812C15.5897 76.8249 15.9291 76.0034 16.5337 75.397C17.1383 74.7906 17.9589 74.4489 18.8152 74.4469H19.8559C20.2887 74.4511 20.7162 74.5436 21.1121 74.7187C21.2255 74.7653 21.3284 74.8339 21.4149 74.9206C21.5015 75.0074 21.5699 75.1105 21.6161 75.2239C21.6624 75.3374 21.6856 75.4589 21.6844 75.5814C21.6831 75.7039 21.6575 75.825 21.609 75.9375Z" fill="#FCB316"/>
<path d="M24.9934 19.9735C25.3403 19.9735 25.6215 19.6923 25.6215 19.3454C25.6215 18.9985 25.3403 18.7173 24.9934 18.7173C24.6465 18.7173 24.3652 18.9985 24.3652 19.3454C24.3652 19.6923 24.6465 19.9735 24.9934 19.9735Z" fill="#2C3656"/>
<path d="M23.4098 102.867L22.8473 104.658C21.8639 104.356 20.9293 103.914 20.0723 103.345L21.1223 101.789C21.8275 102.259 22.5983 102.623 23.4098 102.867Z" fill="#2C3656"/>
<path d="M22.791 23.4188C22.7938 23.86 22.6654 24.292 22.4223 24.6601C22.1791 25.0282 21.8321 25.3158 21.4252 25.4863C21.0183 25.6569 20.5699 25.7027 20.137 25.618C19.704 25.5333 19.306 25.3219 18.9934 25.0106C18.6808 24.6993 18.4677 24.3022 18.3811 23.8696C18.2946 23.437 18.3385 22.9884 18.5074 22.5808C18.6762 22.1732 18.9623 21.825 19.3294 21.5803C19.6964 21.3355 20.1279 21.2054 20.5691 21.2063C21.1562 21.208 21.719 21.4414 22.135 21.8557C22.551 22.2699 22.7868 22.8317 22.791 23.4188Z" fill="#F6F8F9"/>
<path d="M19.3779 100.073L17.831 101.133C17.196 100.232 16.7817 99.195 16.6217 98.1047L18.4873 97.9172C18.6217 98.6928 18.9259 99.4291 19.3779 100.073ZM20.5685 19.3313C19.7579 19.3313 18.9654 19.5718 18.2915 20.0224C17.6175 20.473 17.0924 21.1134 16.7826 21.8625C16.4728 22.6117 16.3923 23.4359 16.5511 24.2309C16.7099 25.0259 17.1011 25.7558 17.6749 26.3284C18.2488 26.901 18.9797 27.2904 19.775 27.4475C20.5704 27.6045 21.3944 27.522 22.1429 27.2105C22.8913 26.899 23.5305 26.3724 23.9795 25.6974C24.4286 25.0225 24.6673 24.2295 24.6654 23.4188C24.6602 22.3347 24.2266 21.2966 23.4592 20.5309C22.6917 19.7652 21.6527 19.334 20.5685 19.3313ZM20.5685 25.65C20.1295 25.65 19.7003 25.52 19.3351 25.2762C18.9699 25.0325 18.6852 24.686 18.5167 24.2806C18.3483 23.8751 18.3037 23.4289 18.3887 22.9981C18.4737 22.5674 18.6844 22.1715 18.9942 21.8604C19.304 21.5493 19.699 21.3369 20.1294 21.2501C20.5597 21.1634 21.0062 21.206 21.4123 21.3727C21.8185 21.5395 22.1662 21.8228 22.4114 22.187C22.6567 22.5511 22.7886 22.9798 22.7904 23.4188C22.7907 24.009 22.557 24.5753 22.1405 24.9935C21.724 25.4117 21.1588 25.6478 20.5685 25.65Z" fill="#2C3656"/>
<path d="M25.603 17.7188H15.5249C15.3913 17.718 15.2588 17.7436 15.1351 17.7941C15.0114 17.8447 14.8989 17.9191 14.804 18.0131C14.709 18.1071 14.6336 18.219 14.582 18.3422C14.5303 18.4654 14.5035 18.5977 14.503 18.7313V27.5063C14.5015 27.6413 14.5268 27.7753 14.5776 27.9005C14.6283 28.0257 14.7033 28.1395 14.7984 28.2355C14.8935 28.3314 15.0066 28.4075 15.1313 28.4594C15.256 28.5112 15.3898 28.5378 15.5249 28.5375H25.603C25.738 28.5378 25.8718 28.5112 25.9965 28.4594C26.1212 28.4075 26.2344 28.3314 26.3295 28.2355C26.4245 28.1395 26.4996 28.0257 26.5503 27.9005C26.601 27.7753 26.6264 27.6413 26.6249 27.5063V18.7313C26.6244 18.5977 26.5975 18.4654 26.5459 18.3422C26.4943 18.219 26.4188 18.1071 26.3239 18.0131C26.229 17.9191 26.1165 17.8447 25.9928 17.7941C25.8691 17.7436 25.7366 17.718 25.603 17.7188ZM20.5686 27.525C19.7587 27.525 18.967 27.285 18.2935 26.8352C17.62 26.3855 17.0949 25.7462 16.7845 24.9981C16.4741 24.25 16.3925 23.4268 16.5498 22.6323C16.7071 21.8379 17.0964 21.1079 17.6684 20.5345C18.2404 19.9612 18.9695 19.5703 19.7636 19.4111C20.5577 19.252 21.3812 19.3318 22.1299 19.6404C22.8787 19.9491 23.5192 20.4727 23.9705 21.1452C24.4218 21.8177 24.6636 22.6089 24.6655 23.4188C24.6643 24.5058 24.2325 25.5481 23.4647 26.3177C22.697 27.0872 21.6557 27.5213 20.5686 27.525ZM24.9936 19.9688C24.869 19.9688 24.7472 19.9317 24.6437 19.8622C24.5402 19.7928 24.4597 19.6941 24.4125 19.5788C24.3652 19.4635 24.3533 19.3367 24.3783 19.2146C24.4033 19.0925 24.4641 18.9806 24.5529 18.8932C24.6417 18.8057 24.7545 18.7466 24.8769 18.7235C24.9994 18.7003 25.126 18.7141 25.2406 18.7631C25.3552 18.812 25.4526 18.894 25.5205 18.9985C25.5883 19.1031 25.6236 19.2254 25.6217 19.35C25.6198 19.5151 25.5527 19.6728 25.435 19.7887C25.3174 19.9045 25.1587 19.9693 24.9936 19.9688Z" fill="#25AAE3"/>
<path d="M15.591 77.6767C15.5925 76.8218 15.9328 76.0024 16.5372 75.3979C17.1417 74.7934 17.9611 74.4531 18.816 74.4517H19.8566C20.2889 74.4527 20.7164 74.542 21.1129 74.7142C21.2309 74.7589 21.3386 74.8269 21.4297 74.9143C21.5207 75.0016 21.5932 75.1064 21.6428 75.2225C21.6924 75.3385 21.718 75.4633 21.7182 75.5895C21.7184 75.7157 21.6931 75.8406 21.6438 75.9567C21.5946 76.0729 21.5224 76.1779 21.4316 76.2655C21.3408 76.3531 21.2333 76.4215 21.1154 76.4665C20.9975 76.5116 20.8718 76.5324 20.7457 76.5277C20.6196 76.523 20.4958 76.4929 20.3816 76.4392C20.2171 76.3634 20.0378 76.3249 19.8566 76.3267H18.816C18.458 76.3267 18.1146 76.4689 17.8614 76.7221C17.6082 76.9752 17.466 77.3186 17.466 77.6767V80.1329H19.6691C19.9178 80.1329 20.1562 80.2317 20.3321 80.4075C20.5079 80.5833 20.6066 80.8218 20.6066 81.0704C20.6066 81.319 20.5079 81.5575 20.3321 81.7333C20.1562 81.9091 19.9178 82.0079 19.6691 82.0079H17.466V89.6485C17.466 89.8972 17.3672 90.1356 17.1914 90.3114C17.0156 90.4873 16.7772 90.586 16.5285 90.586C16.2799 90.586 16.0414 90.4873 15.8656 90.3114C15.6898 90.1356 15.591 89.8972 15.591 89.6485V82.0079H14.6348C14.3861 82.0079 14.1477 81.9091 13.9719 81.7333C13.796 81.5575 13.6973 81.319 13.6973 81.0704C13.6973 80.8218 13.796 80.5833 13.9719 80.4075C14.1477 80.2317 14.3861 80.1329 14.6348 80.1329H15.591V77.6767Z" fill="#25AAE3"/>
<path d="M20.5688 11.7564C18.3188 11.7545 16.1189 12.4201 14.2474 13.669C12.3758 14.9178 10.9168 16.6937 10.0549 18.7721C9.19306 20.8504 8.96707 23.1377 9.40556 25.3445C9.84404 27.5513 10.9273 29.5784 12.5182 31.1694C14.1092 32.7603 16.1363 33.8436 18.3431 34.282C20.5499 34.7205 22.8372 34.4945 24.9155 33.6327C26.9939 32.7708 28.7698 31.3118 30.0187 29.4403C31.2675 27.5687 31.9331 25.3688 31.9313 23.1189C31.9263 20.1069 30.7276 17.2196 28.5978 15.0898C26.468 12.96 23.5808 11.7613 20.5688 11.7564ZM28.5 27.5064C28.5007 27.8874 28.4264 28.2649 28.2812 28.6172C28.136 28.9696 27.9228 29.2898 27.6537 29.5597C27.3847 29.8296 27.0651 30.0438 26.7133 30.1902C26.3614 30.3365 25.9842 30.4121 25.6031 30.4126H15.525C15.1439 30.4121 14.7667 30.3365 14.4148 30.1902C14.063 30.0438 13.7434 29.8296 13.4744 29.5597C13.2054 29.2898 12.9922 28.9696 12.8469 28.6172C12.7017 28.2649 12.6274 27.8874 12.6281 27.5064V18.7314C12.6306 17.9647 12.9369 17.2303 13.4799 16.689C14.0229 16.1478 14.7583 15.8438 15.525 15.8439H25.6031C26.3698 15.8438 27.1052 16.1478 27.6482 16.689C28.1912 17.2303 28.4975 17.9647 28.5 18.7314V27.5064Z" fill="#FCB316"/>
<path d="M20.5688 9.88135C17.948 9.8795 15.3855 10.6551 13.2057 12.1099C11.0258 13.5648 9.32644 15.6336 8.32266 18.0545C7.31887 20.4755 7.05575 23.1397 7.56658 25.7103C8.07742 28.2808 9.33925 30.642 11.1924 32.4952C13.0456 34.3484 15.4068 35.6102 17.9773 36.121C20.5479 36.6319 23.2121 36.3687 25.6331 35.3649C28.054 34.3612 30.1228 32.6618 31.5777 30.4819C33.0325 28.3021 33.8081 25.7396 33.8063 23.1189C33.8015 19.6095 32.4054 16.2452 29.9239 13.7637C27.4424 11.2822 24.0781 9.88606 20.5688 9.88135ZM20.5688 34.5001C18.3196 34.502 16.1204 33.8368 14.2493 32.5888C12.3782 31.3408 10.9192 29.5659 10.0567 27.4887C9.19431 25.4115 8.96722 23.1252 9.40419 20.9189C9.84116 18.7126 10.9226 16.6854 12.5116 15.0937C14.1007 13.502 16.1261 12.4173 18.3316 11.9767C20.5372 11.5361 22.8239 11.7594 24.9025 12.6184C26.9812 13.4774 28.7584 14.9335 30.0095 16.8026C31.2606 18.6716 31.9294 20.8697 31.9313 23.1189C31.9303 26.1338 30.7334 29.0252 28.6033 31.1589C26.4732 33.2925 23.5837 34.4941 20.5688 34.5001Z" fill="#2C3656"/>
<path d="M25.6027 15.8438H15.5246C14.7579 15.8437 14.0225 16.1477 13.4795 16.6889C12.9365 17.2302 12.6302 17.9646 12.6277 18.7313V27.5063C12.627 27.8873 12.7014 28.2648 12.8466 28.6171C12.9918 28.9695 13.205 29.2897 13.474 29.5596C13.743 29.8295 14.0626 30.0437 14.4144 30.1901C14.7663 30.3364 15.1435 30.412 15.5246 30.4125H25.6027C25.9838 30.412 26.3611 30.3364 26.7129 30.1901C27.0648 30.0437 27.3843 29.8295 27.6534 29.5596C27.9224 29.2897 28.1356 28.9695 28.2808 28.6171C28.426 28.2648 28.5004 27.8873 28.4996 27.5063V18.7313C28.4971 17.9646 28.1908 17.2302 27.6478 16.6889C27.1048 16.1477 26.3694 15.8437 25.6027 15.8438ZM26.6246 27.5063C26.6261 27.6413 26.6008 27.7753 26.55 27.9005C26.4993 28.0257 26.4243 28.1395 26.3292 28.2355C26.2341 28.3314 26.121 28.4075 25.9963 28.4593C25.8716 28.5112 25.7378 28.5378 25.6027 28.5375H15.5246C15.3896 28.5378 15.2558 28.5112 15.1311 28.4593C15.0064 28.4075 14.8932 28.3314 14.7981 28.2355C14.7031 28.1395 14.628 28.0257 14.5773 27.9005C14.5266 27.7753 14.5012 27.6413 14.5027 27.5063V18.7313C14.5032 18.5976 14.5301 18.4654 14.5817 18.3422C14.6333 18.219 14.7088 18.1071 14.8037 18.0131C14.8986 17.919 15.0111 17.8446 15.1348 17.7941C15.2586 17.7436 15.391 17.718 15.5246 17.7188H25.6027C25.7363 17.718 25.8688 17.7436 25.9925 17.7941C26.1162 17.8446 26.2287 17.919 26.3236 18.0131C26.4186 18.1071 26.494 18.219 26.5456 18.3422C26.5973 18.4654 26.6241 18.5976 26.6246 18.7313V27.5063ZM17.6902 69.2813C15.0699 69.2813 12.5083 70.0584 10.3297 71.5144C8.15105 72.9704 6.45317 75.0398 5.45083 77.4609C4.44848 79.882 4.18669 82.546 4.69859 85.1159C5.21048 87.6858 6.47305 90.0462 8.3266 91.8984C10.1801 93.7506 12.5414 95.0115 15.1117 95.5216C17.6819 96.0317 20.3457 95.768 22.7661 94.764C25.1865 93.7599 27.2547 92.0606 28.7092 89.8809C30.1636 87.7012 30.939 85.1391 30.9371 82.5188C30.9307 79.0083 29.5326 75.6436 27.0495 73.1622C24.5664 70.6809 21.2007 69.2852 17.6902 69.2813ZM17.6902 93.9C15.4415 93.9 13.2432 93.2333 11.3733 91.9841C9.50345 90.735 8.04588 88.9595 7.18489 86.8821C6.32391 84.8047 6.09816 82.5187 6.53619 80.313C6.97422 78.1074 8.05635 76.0811 9.6458 74.4903C11.2352 72.8996 13.2606 71.8158 15.466 71.3759C17.6713 70.9361 19.9575 71.1599 22.0356 72.0192C24.1137 72.8785 25.8904 74.3346 27.141 76.2034C28.3917 78.0723 29.0603 80.27 29.0621 82.5188C29.0611 85.5353 27.863 88.4282 25.7308 90.5621C23.5987 92.696 20.7068 93.8965 17.6902 93.9Z" fill="#2C3656"/>
</svg>
