<svg width="128" height="128" viewBox="0 0 128 128" fill="none" xmlns="http://www.w3.org/2000/svg">
<path d="M119.5 54.28C117.979 51.774 115.602 49.9036 112.808 49.015C110.015 48.1264 106.994 48.2796 104.305 49.4464C101.615 50.6132 99.4398 52.7145 98.1803 55.3616C96.9209 58.0088 96.6628 61.0225 97.4539 63.8452C98.2449 66.6679 100.032 69.1085 102.483 70.7156C104.935 72.3226 107.886 72.9872 110.79 72.5865C113.694 72.1858 116.354 70.7468 118.279 68.5358C120.204 66.3248 121.263 63.4915 121.26 60.56C121.258 58.3453 120.649 56.1735 119.5 54.28Z" fill="#FCB316"/>
<path d="M80.3997 80.7499V40.9099C80.3989 40.8465 80.3734 40.7859 80.3285 40.7411C80.2837 40.6962 80.2231 40.6707 80.1597 40.6699H47.4197C47.3563 40.6707 47.2957 40.6962 47.2509 40.7411C47.206 40.7859 47.1805 40.8465 47.1797 40.9099V56.7999C47.1897 56.8199 47.1997 56.8299 47.2197 56.8299L47.4097 57.0199C47.5003 57.092 47.5839 57.1724 47.6597 57.2599C47.7197 57.3299 47.7797 57.4099 47.8397 57.4799C47.9145 57.5626 47.9847 57.6494 48.0497 57.7399C48.1077 57.8097 48.1612 57.8832 48.2097 57.9599C48.2722 58.053 48.329 58.1499 48.3797 58.2499C48.4297 58.3299 48.4697 58.4099 48.5097 58.4799C48.5597 58.5799 48.6097 58.6999 48.6497 58.7999C48.6873 58.8781 48.7207 58.9582 48.7497 59.0399C48.7925 59.1512 48.8292 59.2647 48.8597 59.3799C48.8876 59.4585 48.911 59.5386 48.9297 59.6199C48.9597 59.7499 48.9797 59.8799 49.0097 60.0199C49.0197 60.0899 49.0297 60.1599 49.0397 60.2199C49.0597 60.4399 49.0797 60.6399 49.0797 60.8399C49.0822 61.535 48.9465 62.2236 48.6804 62.8656C48.4143 63.5077 48.0231 64.0904 47.5297 64.5799C47.4197 64.6799 47.2997 64.7999 47.1797 64.8999V66.5399C47.1897 66.5599 47.1997 66.5599 47.2197 66.5799C47.2897 66.6399 47.3497 66.6999 47.4097 66.7499C47.498 66.8282 47.5814 66.9117 47.6597 66.9999C47.7197 67.0799 47.7797 67.1399 47.8397 67.2199C47.9145 67.3026 47.9847 67.3894 48.0497 67.4799C48.1077 67.5497 48.1612 67.6232 48.2097 67.6999C48.2697 67.7999 48.3297 67.8799 48.3797 67.9799C48.4297 68.0599 48.4697 68.1399 48.5097 68.2199C48.5597 68.3299 48.6097 68.4399 48.6497 68.5399C48.6873 68.6181 48.7207 68.6982 48.7497 68.7799C48.7925 68.8912 48.8292 69.0047 48.8597 69.1199C48.8876 69.1985 48.911 69.2786 48.9297 69.3599C48.9597 69.4999 48.9797 69.6199 49.0097 69.7599C49.0197 69.8299 49.0297 69.8999 49.0397 69.9599C49.0597 70.1699 49.0797 70.3799 49.0797 70.5799C49.0836 71.2713 48.9494 71.9565 48.685 72.5953C48.4205 73.2341 48.0312 73.8136 47.5397 74.2999C47.4197 74.4199 47.2997 74.5399 47.1797 74.6399V76.2799C47.1897 76.2999 47.1997 76.2999 47.2197 76.3199C47.2897 76.3799 47.3497 76.4399 47.4097 76.4999C47.498 76.5782 47.5814 76.6617 47.6597 76.7499C47.7197 76.8199 47.7797 76.8799 47.8397 76.9599C47.9145 77.0426 47.9847 77.1294 48.0497 77.2199C48.1077 77.2897 48.1612 77.3632 48.2097 77.4399C48.2697 77.5399 48.3297 77.6399 48.3797 77.7199C48.4297 77.7999 48.4697 77.8799 48.5097 77.9599C48.5624 78.0639 48.6091 78.1707 48.6497 78.2799C48.6873 78.3581 48.7207 78.4382 48.7497 78.5199C48.7939 78.6307 48.8307 78.7443 48.8597 78.8599C48.8876 78.9385 48.911 79.0186 48.9297 79.0999C48.9597 79.2399 48.9797 79.3599 49.0097 79.4999C49.0197 79.5799 49.0297 79.6399 49.0397 79.6999C49.0597 79.9099 49.0797 80.1199 49.0797 80.3299C49.0822 81.0235 48.9464 81.7105 48.6803 82.351C48.4141 82.9914 48.023 83.5724 47.5297 84.0599C47.4197 84.1599 47.2997 84.2799 47.1797 84.3799V86.0399C47.1897 86.0399 47.1997 86.0599 47.2197 86.0599C47.288 86.1181 47.3515 86.1817 47.4097 86.2499C47.498 86.3282 47.5814 86.4117 47.6597 86.4999C47.7197 86.5599 47.7797 86.6399 47.8397 86.6999C47.9097 86.7799 47.9797 86.8799 48.0497 86.9599C48.0997 87.0399 48.1597 87.1199 48.2097 87.1999C48.2744 87.2882 48.3312 87.3819 48.3797 87.4799C48.4297 87.5599 48.4697 87.6399 48.5097 87.7199L48.6597 88.0199C48.6897 88.0999 48.7197 88.1799 48.7497 88.2799C48.7983 88.3891 48.8351 88.503 48.8597 88.6199C48.8876 88.6985 48.911 88.7786 48.9297 88.8599C48.9597 88.9799 48.9797 89.1199 49.0097 89.2499C49.0197 89.3299 49.0297 89.3799 49.0397 89.4599C49.0636 89.6658 49.077 89.8727 49.0797 90.0799C49.073 91.4756 48.516 92.8124 47.5297 93.7999C47.4197 93.9099 47.2997 94.0199 47.1797 94.1199V96.8799C47.1793 96.9115 47.1852 96.9429 47.1972 96.9722C47.2091 97.0015 47.2267 97.0282 47.2491 97.0505C47.2715 97.0729 47.2981 97.0906 47.3274 97.1025C47.3567 97.1144 47.3881 97.1203 47.4197 97.1199H76.1297C75.8708 95.8192 75.7402 94.4962 75.7397 93.1699C75.7382 92.0328 75.842 90.8979 76.0497 89.7799C76.6789 86.4393 78.1795 83.3242 80.3997 80.7499ZM63.5297 80.9599C61.1737 80.9599 58.8706 80.2612 56.9118 78.952C54.953 77.6429 53.4265 75.7822 52.5253 73.6054C51.6242 71.4285 51.3889 69.0333 51.8493 66.7227C52.3096 64.4121 53.445 62.29 55.1116 60.6247C56.7783 58.9595 58.9013 57.826 61.2123 57.3676C63.5233 56.9091 65.9183 57.1464 68.0944 58.0494C70.2705 58.9524 72.1299 60.4805 73.4374 62.4404C74.7449 64.4003 75.4417 66.7039 75.4397 69.0599C75.4328 72.2156 74.1755 75.2399 71.9431 77.4704C69.7108 79.7009 66.6854 80.9557 63.5297 80.9599Z" fill="white"/>
<path d="M106.36 78.5049L107.73 79.9549C106.922 80.7032 106.005 81.3237 105.01 81.7949L104.13 79.9949C104.944 79.6132 105.696 79.1109 106.36 78.5049Z" fill="#2C3656"/>
<path d="M114.71 58.4601C114.7 58.6801 114.69 58.9101 114.66 59.1401C114.618 59.5775 114.548 60.0118 114.45 60.4401C114.008 62.3298 112.94 64.0146 111.42 65.2201C110.023 66.2356 108.372 66.8447 106.65 66.9801C105.987 67.0638 105.314 67.0368 104.66 66.9001C105.302 66.6348 105.91 66.2923 106.47 65.8801C106.616 65.759 106.726 65.5992 106.786 65.4188C106.846 65.2385 106.854 65.0449 106.81 64.8601C106.763 64.6739 106.664 64.5051 106.523 64.3739C106.383 64.2427 106.208 64.1546 106.02 64.1201C105.463 64.0554 104.933 63.8487 104.48 63.5201C104.702 63.4298 104.88 63.258 104.98 63.0401C105.05 62.8919 105.083 62.7289 105.076 62.5651C105.069 62.4013 105.022 62.2417 104.94 62.1001L104.88 62.0001C104.811 61.8851 104.72 61.7851 104.611 61.7061C104.503 61.6271 104.38 61.5706 104.25 61.5401C103.988 61.487 103.74 61.3817 103.52 61.2305C103.3 61.0793 103.113 60.8853 102.97 60.6601C103.163 60.6519 103.35 60.5868 103.506 60.4729C103.663 60.3591 103.782 60.2015 103.85 60.0201C103.921 59.8293 103.933 59.6215 103.885 59.4236C103.837 59.2257 103.731 59.0468 103.58 58.9101C103.324 58.699 103.112 58.4391 102.958 58.1455C102.803 57.8519 102.709 57.5305 102.68 57.2001C104.525 58.7263 106.826 59.5952 109.22 59.6701C109.373 59.6792 109.527 59.6502 109.666 59.5856C109.806 59.521 109.927 59.4229 110.02 59.3001C110.117 59.1819 110.186 59.0428 110.221 58.8936C110.255 58.7443 110.255 58.5891 110.22 58.4401C110.171 58.2574 110.148 58.069 110.15 57.8801C110.152 57.2638 110.399 56.6738 110.836 56.239C111.272 55.8042 111.863 55.5601 112.48 55.5601C112.797 55.5601 113.111 55.6258 113.402 55.7532C113.693 55.8805 113.954 56.0667 114.17 56.3001C114.249 56.3841 114.344 56.452 114.45 56.5001C114.399 56.7302 114.43 56.9711 114.54 57.1801C114.598 57.3072 114.687 57.4173 114.8 57.5001C114.703 57.8102 114.672 58.1373 114.71 58.4601Z" fill="#25AAE3"/>
<path d="M101.49 80.975L102.02 82.895C101.016 83.1759 99.9933 83.3897 98.9603 83.535L98.8603 82.875L98.6703 81.555C99.6213 81.4199 100.563 81.2262 101.49 80.975ZM118.19 55.34C118.104 55.2645 118.01 55.1976 117.91 55.14C117.962 55.0106 117.986 54.8722 117.983 54.733C117.979 54.5938 117.948 54.4568 117.89 54.33C117.828 54.1947 117.735 54.0751 117.62 53.98C117.442 53.8281 117.215 53.7463 116.982 53.75C116.748 53.7537 116.523 53.8426 116.35 54C115.969 54.2039 115.567 54.3649 115.15 54.48C114.385 53.89 113.447 53.5669 112.48 53.56C111.389 53.5615 110.339 53.9739 109.538 54.7152C108.737 55.4565 108.246 56.4723 108.16 57.56C106.099 57.2775 104.229 56.201 102.95 54.56C102.853 54.4413 102.731 54.345 102.593 54.2776C102.455 54.2103 102.304 54.1736 102.15 54.17C101.995 54.173 101.842 54.2115 101.703 54.2826C101.564 54.3536 101.444 54.4553 101.35 54.58C101 55.1563 100.78 55.8022 100.706 56.4724C100.632 57.1427 100.705 57.8211 100.92 58.46C100.814 58.5526 100.728 58.6662 100.668 58.7935C100.608 58.9208 100.575 59.0592 100.57 59.2C100.557 60.4078 101.02 61.5721 101.86 62.44C101.798 62.6548 101.812 62.8845 101.9 63.09C102.173 63.9407 102.705 64.6852 103.42 65.22C102.665 65.4611 101.868 65.5428 101.08 65.46C100.899 65.4427 100.716 65.4752 100.552 65.554C100.388 65.6328 100.249 65.755 100.149 65.9073C100.049 66.0597 99.9925 66.2363 99.9857 66.4183C99.979 66.6003 100.022 66.7807 100.11 66.94C100.181 67.0909 100.296 67.2165 100.44 67.3C102.097 68.3436 103.995 68.9429 105.95 69.04C106.285 69.0333 106.619 69.0065 106.95 68.96C109.029 68.7776 111.014 68.0154 112.68 66.76C114.541 65.2837 115.848 63.2223 116.39 60.91C116.515 60.3903 116.602 59.8623 116.65 59.33C116.68 59.08 116.7 58.82 116.71 58.54V58.36C117.294 57.8493 117.824 57.2796 118.29 56.66C118.432 56.4634 118.499 56.2233 118.481 55.9818C118.462 55.7404 118.36 55.5131 118.19 55.34ZM104.66 66.9C105.303 66.6348 105.911 66.2922 106.47 65.88C106.617 65.759 106.726 65.5992 106.787 65.4188C106.847 65.2384 106.855 65.0448 106.81 64.86C106.764 64.6739 106.664 64.5051 106.524 64.3739C106.384 64.2427 106.209 64.1546 106.02 64.12C105.464 64.0553 104.934 63.8487 104.48 63.52C104.702 63.4297 104.881 63.258 104.98 63.04C105.051 62.8919 105.084 62.7289 105.077 62.5651C105.07 62.4013 105.023 62.2416 104.94 62.1L104.88 62C104.811 61.8851 104.72 61.7851 104.612 61.7061C104.504 61.627 104.381 61.5706 104.25 61.54C103.989 61.4869 103.741 61.3816 103.521 61.2304C103.301 61.0792 103.114 60.8852 102.97 60.66C103.164 60.6519 103.35 60.5868 103.507 60.4729C103.663 60.359 103.783 60.2015 103.85 60.02C103.922 59.8293 103.934 59.6214 103.886 59.4235C103.838 59.2256 103.731 59.0467 103.58 58.91C103.324 58.699 103.113 58.4391 102.958 58.1455C102.804 57.8519 102.709 57.5305 102.68 57.2C104.526 58.7263 106.827 59.5952 109.22 59.67C109.374 59.6792 109.527 59.6501 109.667 59.5856C109.806 59.521 109.928 59.4229 110.02 59.3C110.118 59.1819 110.187 59.0428 110.221 58.8935C110.256 58.7443 110.256 58.5891 110.22 58.44C110.172 58.2574 110.148 58.069 110.15 57.88C110.153 57.2638 110.4 56.6737 110.836 56.2389C111.273 55.8041 111.864 55.56 112.48 55.56C112.798 55.56 113.112 55.6258 113.403 55.7532C113.694 55.8805 113.955 56.0667 114.17 56.3C114.25 56.3841 114.345 56.452 114.45 56.5C114.399 56.7302 114.431 56.9711 114.54 57.18C114.598 57.3071 114.688 57.4173 114.8 57.5C114.703 57.8102 114.673 58.1373 114.71 58.46C114.7 58.68 114.69 58.91 114.66 59.14C114.619 59.5775 114.549 60.0117 114.45 60.44C114.009 62.3298 112.941 64.0146 111.42 65.22C110.023 66.2356 108.372 66.8447 106.65 66.98C105.987 67.0638 105.315 67.0367 104.66 66.9ZM98.4903 16.625C98.4883 16.4462 98.5397 16.2708 98.6378 16.1213C98.7359 15.9718 98.8764 15.8549 99.0412 15.7855C99.2061 15.7162 99.3879 15.6975 99.5634 15.7319C99.7389 15.7663 99.9002 15.8522 100.027 15.9787C100.153 16.1052 100.239 16.2664 100.273 16.4419C100.308 16.6175 100.289 16.7992 100.22 16.9641C100.15 17.1289 100.034 17.2694 99.884 17.3675C99.7345 17.4657 99.5591 17.517 99.3803 17.515C99.1446 17.514 98.9188 17.4199 98.7521 17.2532C98.5855 17.0865 98.4913 16.8608 98.4903 16.625Z" fill="#2C3656"/>
<path d="M109.13 46.44C105.473 46.4394 101.958 47.858 99.326 50.3972C96.6938 52.9363 95.1497 56.3978 95.0188 60.0527C94.8879 63.7076 96.1804 67.2707 98.6242 69.9916C101.068 72.7126 104.472 74.379 108.12 74.64C108.095 75.2436 107.98 75.8401 107.78 76.41L109.65 77.12C109.946 76.3254 110.108 75.4875 110.13 74.64C113.782 74.3862 117.193 72.7233 119.643 70.0025C122.092 67.2816 123.389 63.7155 123.259 60.0567C123.13 56.3979 121.584 52.9327 118.947 50.3922C116.311 47.8516 112.791 46.4346 109.13 46.44ZM109.13 72.7C106.732 72.6996 104.388 71.9883 102.394 70.656C100.4 69.3236 98.846 67.43 97.928 65.2146C97.01 62.9992 96.7694 60.5613 97.2366 58.2092C97.7038 55.857 98.8579 53.6962 100.553 51.9998C102.248 50.3034 104.408 49.1475 106.76 48.6784C109.111 48.2092 111.549 48.4478 113.766 49.364C115.982 50.2801 117.877 51.8327 119.211 53.8256C120.545 55.8184 121.258 58.1619 121.26 60.56C121.267 62.1553 120.958 63.7361 120.351 65.2113C119.743 66.6865 118.85 68.027 117.723 69.1555C116.595 70.284 115.255 71.1782 113.781 71.7865C112.306 72.3949 110.725 72.7053 109.13 72.7ZM95.0202 16.625C95.0182 16.4462 95.0696 16.2708 95.1677 16.1213C95.2658 15.9718 95.4063 15.8549 95.5711 15.7855C95.736 15.7162 95.9178 15.6975 96.0933 15.7319C96.2688 15.7663 96.4301 15.8522 96.5565 15.9787C96.683 16.1052 96.7689 16.2664 96.8033 16.4419C96.8377 16.6175 96.8191 16.7992 96.7497 16.9641C96.6804 17.1289 96.5635 17.2694 96.4139 17.3675C96.2644 17.4657 96.089 17.517 95.9102 17.515C95.6745 17.514 95.4487 17.4199 95.282 17.2532C95.1154 17.0865 95.0213 16.8608 95.0202 16.625Z" fill="#2C3656"/>
<path d="M100.88 13.7501C100.78 13.6001 99.1401 11.2401 94.6001 11.5601H94.5601C93.1501 11.7801 89.7901 12.6401 89.1001 16.0001C89.0801 16.1401 88.5301 20.1201 94.0301 21.5201C94.7801 21.5801 95.6801 21.8301 95.9301 22.5901C95.99 22.781 96.0203 22.98 96.0201 23.1801C97.5565 22.2981 98.9831 21.2374 100.27 20.0201C102.24 17.8801 102.44 15.8301 100.88 13.7501ZM92.4501 17.5201C92.2717 17.522 92.0967 17.471 91.9474 17.3733C91.7981 17.2756 91.6812 17.1357 91.6115 16.9715C91.5419 16.8072 91.5226 16.6259 91.5562 16.4507C91.5898 16.2755 91.6747 16.1142 91.8002 15.9873C91.9256 15.8604 92.086 15.7737 92.2608 15.7382C92.4357 15.7026 92.6172 15.7198 92.7822 15.7877C92.9472 15.8555 93.0884 15.9708 93.1877 16.119C93.2871 16.2672 93.3401 16.4416 93.3401 16.6201C93.3401 16.857 93.2467 17.0845 93.0801 17.253C92.9134 17.4214 92.6871 17.5174 92.4501 17.5201ZM95.9101 17.5201C95.7321 17.5201 95.5581 17.4673 95.4101 17.3684C95.2621 17.2695 95.1467 17.1289 95.0786 16.9645C95.0105 16.8 94.9927 16.6191 95.0274 16.4445C95.0621 16.2699 95.1479 16.1095 95.2737 15.9837C95.3996 15.8578 95.56 15.7721 95.7345 15.7374C95.9091 15.7026 96.0901 15.7205 96.2545 15.7886C96.419 15.8567 96.5596 15.972 96.6584 16.1201C96.7573 16.2681 96.8101 16.4421 96.8101 16.6201C96.8109 16.7385 96.7882 16.8559 96.7432 16.9654C96.6983 17.075 96.632 17.1745 96.5483 17.2582C96.4646 17.342 96.365 17.4082 96.2555 17.4532C96.1459 17.4981 96.0285 17.5209 95.9101 17.5201ZM99.3801 17.5201C99.2021 17.5201 99.0281 17.4673 98.8801 17.3684C98.7321 17.2695 98.6167 17.1289 98.5486 16.9645C98.4805 16.8 98.4627 16.6191 98.4974 16.4445C98.5321 16.2699 98.6179 16.1095 98.7437 15.9837C98.8696 15.8578 99.03 15.7721 99.2045 15.7374C99.3791 15.7026 99.5601 15.7205 99.7245 15.7886C99.889 15.8567 100.03 15.972 100.128 16.1201C100.227 16.2681 100.28 16.4421 100.28 16.6201C100.281 16.7385 100.258 16.8559 100.213 16.9654C100.168 17.075 100.102 17.1745 100.018 17.2582C99.9346 17.342 99.835 17.4082 99.7255 17.4532C99.6159 17.4981 99.4985 17.5209 99.3801 17.5201Z" fill="#25AAE3"/>
<path d="M99.0302 114.88L73.3602 120.22L71.1402 111.46C71.2328 111.369 71.3063 111.26 71.3561 111.139C71.4059 111.019 71.4311 110.89 71.4302 110.76C71.4278 110.496 71.3217 110.243 71.1347 110.056C70.9476 109.869 70.6946 109.762 70.4302 109.76C69.2972 109.804 68.1688 109.594 67.1273 109.146C66.0858 108.698 65.1575 108.023 64.4102 107.17H78.9902C79.4085 107.175 79.8202 107.065 80.1801 106.852C80.5399 106.638 80.834 106.33 81.0302 105.96C81.2279 105.59 81.3212 105.173 81.3001 104.753C81.2789 104.334 81.1442 103.929 80.9102 103.58C80.8772 103.518 80.8404 103.458 80.8002 103.4C80.6802 103.2 80.5502 103.02 80.4402 102.82C80.2862 102.575 80.146 102.321 80.0201 102.06C79.9401 101.92 79.8601 101.78 79.7701 101.59C79.5001 101.06 79.2702 100.52 79.0502 99.9601L78.8702 99.4801C78.7702 99.2001 78.6902 98.9101 78.6002 98.6201C78.5202 98.3801 78.4302 98.1201 78.3702 97.8601L78.3202 97.6701C77.6807 95.2178 77.575 92.6568 78.0102 90.1601C78.3058 88.6046 78.8139 87.0972 79.5201 85.6801C80.2075 84.2705 81.0894 82.9644 82.1402 81.8001C82.92 80.9368 83.7956 80.1652 84.7502 79.5001L85.1802 79.2001L85.3602 62.6401C85.37 62.0927 85.4473 61.5486 85.5901 61.0201L85.6702 60.8301V60.7801C86.0144 59.6448 86.67 58.6288 87.5627 57.8475C88.4554 57.0662 89.5493 56.5509 90.7202 56.3601V68.7601C90.719 69.7581 90.8742 70.7502 91.1802 71.7001L92.8401 76.8001C93.3901 78.5201 93.9302 80.2001 94.3302 81.9001C93.4502 81.9101 92.8902 81.8801 92.8801 81.8801L92.7701 83.8801C92.7701 83.8801 93.1902 83.9001 93.9002 83.9001C94.1402 83.9001 94.4202 83.9001 94.7302 83.8801C94.8302 84.5201 94.9202 85.1701 94.9702 85.8301C95.1352 88.9419 95.1152 92.0607 94.9102 95.1701C94.8302 96.9601 94.7402 98.8001 94.7302 100.6C94.7102 101.02 94.9002 101.64 96.0302 104.56C96.2802 105.22 96.5001 105.76 96.5602 105.96L99.0302 114.88Z" fill="#F6F8F9"/>
<path d="M92.45 17.515C92.2711 17.517 92.0958 17.4657 91.9462 17.3675C91.7967 17.2694 91.6798 17.1289 91.6105 16.9641C91.5411 16.7992 91.5224 16.6175 91.5569 16.4419C91.5913 16.2664 91.6772 16.1052 91.8036 15.9787C91.9301 15.8522 92.0914 15.7663 92.2669 15.7319C92.4424 15.6975 92.6242 15.7162 92.789 15.7855C92.9539 15.8549 93.0944 15.9718 93.1925 16.1213C93.2906 16.2708 93.342 16.4462 93.34 16.625C93.3389 16.8608 93.2448 17.0865 93.0781 17.2532C92.9115 17.4199 92.6857 17.514 92.45 17.515Z" fill="#2C3656"/>
<path d="M95.3698 7.62012C93.5195 7.61913 91.7105 8.16682 90.1716 9.19394C88.6326 10.2211 87.4328 11.6815 86.7238 13.3905C86.0148 15.0995 85.8286 16.9804 86.1885 18.7953C86.5485 20.6102 87.4386 22.2775 88.7463 23.5866C90.0539 24.8956 91.7203 25.7875 93.5348 26.1494C95.3493 26.5113 97.2304 26.3271 98.9402 25.6199C100.65 24.9128 102.112 23.7145 103.14 22.1766C104.169 20.6388 104.719 18.8304 104.72 16.9801C104.717 14.5004 103.731 12.123 101.978 10.3686C100.226 8.61426 97.8495 7.62594 95.3698 7.62012ZM101.74 21.3801C99.9632 23.0432 97.9682 24.4562 95.8098 25.5801C95.5921 25.6631 95.3625 25.7103 95.1298 25.7201C94.8507 25.7256 94.5784 25.6337 94.3598 25.4601C94.1877 25.3271 94.0518 25.153 93.9644 24.9539C93.8771 24.7547 93.8411 24.5368 93.8598 24.3201L93.9098 23.7801C93.9196 23.726 93.9329 23.6725 93.9498 23.6201C93.9525 23.5861 93.9592 23.5526 93.9698 23.5201C93.9098 23.5201 93.8498 23.5001 93.7898 23.5001C93.7359 23.4984 93.6824 23.4917 93.6298 23.4801C86.1998 21.6401 87.1198 15.7001 87.1298 15.6401C88.1098 10.8601 92.8398 9.80012 94.2698 9.58012C94.2898 9.58012 94.3898 9.58012 94.4098 9.56012C100.24 9.14012 102.44 12.4801 102.53 12.6201C104.62 15.4101 104.36 18.5401 101.74 21.3801Z" fill="#FCB316"/>
<path d="M95.3698 5.62012C93.124 5.61913 90.9283 6.28412 89.0604 7.531C87.1926 8.77788 85.7364 10.5507 84.876 12.6251C84.0157 14.6996 83.7898 16.9826 84.227 19.1855C84.6641 21.3883 85.7447 23.4121 87.332 25.0008C88.9194 26.5895 90.9422 27.6719 93.1446 28.111C95.3471 28.5501 97.6303 28.3262 99.7055 27.4677C101.781 26.6092 103.555 25.1545 104.803 23.2878C106.052 21.421 106.719 19.2259 106.72 16.9801C106.72 13.9689 105.525 11.0808 103.396 8.95063C101.268 6.82044 98.381 5.6225 95.3698 5.62012ZM95.3698 26.3301C93.5191 26.3311 91.7097 25.7832 90.1705 24.7556C88.6313 23.728 87.4315 22.267 86.7228 20.5574C86.0142 18.8478 85.8285 16.9664 86.1893 15.1513C86.5501 13.3361 87.4412 11.6688 88.7498 10.3601C90.0584 9.05151 91.7258 8.16044 93.5409 7.79963C95.3561 7.43882 97.2375 7.62451 98.9471 8.33318C100.657 9.04186 102.118 10.2417 103.145 11.7809C104.173 13.3201 104.721 15.1294 104.72 16.9801C104.716 19.4588 103.73 21.835 101.977 23.5878C100.225 25.3405 97.8485 26.3267 95.3698 26.3301Z" fill="#2C3656"/>
<path d="M102.53 12.6199C102.44 12.4799 100.24 9.13994 94.4098 9.55994C94.3898 9.57994 94.2898 9.57994 94.2698 9.57994C92.8398 9.79994 88.1098 10.8599 87.1298 15.6399C87.1198 15.6999 86.1998 21.6399 93.6298 23.4799C93.6824 23.4915 93.7359 23.4982 93.7898 23.4999C93.8498 23.4999 93.9098 23.5199 93.9698 23.5199C93.9592 23.5524 93.9525 23.5859 93.9498 23.6199C93.9329 23.6723 93.9195 23.7258 93.9098 23.7799L93.8598 24.3199C93.8411 24.5366 93.8771 24.7545 93.9644 24.9537C94.0518 25.1528 94.1877 25.3269 94.3598 25.4599C94.5784 25.6335 94.8507 25.7255 95.1298 25.7199C95.3625 25.7102 95.5921 25.6629 95.8098 25.5799C97.9682 24.456 99.9632 23.043 101.74 21.3799C104.36 18.5399 104.62 15.4099 102.53 12.6199ZM96.0198 23.1799C96.02 22.9798 95.9896 22.7809 95.9298 22.5899C95.6798 21.8299 94.7798 21.5799 94.0298 21.5199C88.5298 20.1199 89.0798 16.1399 89.0998 15.9999C89.7898 12.6399 93.1498 11.7799 94.5598 11.5599H94.5998C99.1398 11.2399 100.78 13.5999 100.88 13.7499C102.44 15.8299 102.24 17.8799 100.27 20.0199C98.9827 21.2373 97.5561 22.298 96.0198 23.1799ZM83.6298 16.6249L83.8598 18.6049C83.0398 18.7049 82.2598 18.8249 81.5298 18.9849L81.1098 17.0349C81.8998 16.8649 82.7498 16.7249 83.6298 16.6249ZM78.0798 17.9449L78.8298 19.8049C77.97 20.145 77.1515 20.5811 76.3898 21.1049L75.2398 19.4649C76.1257 18.8522 77.0785 18.3422 78.0798 17.9449ZM72.8598 21.7149L74.4398 22.9449C73.8835 23.6536 73.4445 24.4471 73.1398 25.2949L71.2598 24.6049C71.6408 23.5648 72.1805 22.5899 72.8598 21.7149Z" fill="#2C3656"/>
<path d="M73.3898 68.16H68.2098C68.1588 67.2515 68.0351 66.3487 67.8398 65.46C69.3521 65.2447 70.8462 64.9171 72.3098 64.48C72.9052 65.6249 73.2721 66.8749 73.3898 68.16Z" fill="#FCB316"/>
<path d="M70.7804 31.1001C70.6196 30.334 70.5424 29.5528 70.5504 28.7701C70.5504 28.4701 70.5603 28.1501 70.5903 27.8101L72.5804 27.9501C72.5604 28.2401 72.5504 28.5101 72.5504 28.7701C72.5384 29.3982 72.5988 30.0257 72.7304 30.6401L70.7804 31.1001Z" fill="#2C3656"/>
<path d="M73.3704 70.1599C73.2354 71.3768 72.8724 72.5574 72.3004 73.6399C70.8662 73.2068 69.4023 72.8793 67.9203 72.6599C68.0806 71.8349 68.1808 70.9994 68.2204 70.1599H73.3704ZM71.1504 75.3799C69.6785 77.1568 67.6292 78.3602 65.3604 78.7799C66.2482 77.5038 66.9393 76.1015 67.4104 74.6199C68.6737 74.7827 69.9237 75.0367 71.1504 75.3799Z" fill="#FCB316"/>
<path d="M68.7499 102.06C68.7489 102.176 68.7022 102.288 68.6199 102.37C68.5376 102.452 68.4263 102.499 68.3099 102.5H59.1099C58.9936 102.499 58.8822 102.452 58.7999 102.37C58.7177 102.288 58.671 102.176 58.6699 102.06C58.6701 101.999 58.6803 101.938 58.6999 101.88C58.7343 101.799 58.7912 101.73 58.8639 101.68C58.9366 101.63 59.022 101.603 59.1099 101.6H68.3099C68.4283 101.606 68.5399 101.657 68.6218 101.742C68.7037 101.828 68.7495 101.942 68.7499 102.06Z" fill="#F6F8F9"/>
<path d="M71.1502 62.74C69.8852 63.0788 68.599 63.3327 67.3002 63.5C66.7907 61.9856 66.0448 60.5613 65.0902 59.28C67.4653 59.6534 69.6213 60.8844 71.1502 62.74ZM65.3702 74.42C64.9142 75.7623 64.2384 77.0194 63.3702 78.14C62.5094 77.0146 61.8342 75.7588 61.3702 74.42C62.7021 74.3349 64.0382 74.3349 65.3702 74.42ZM65.2502 63.68C64.0015 63.7563 62.7496 63.763 61.5002 63.7C61.9523 62.4899 62.5825 61.354 63.3702 60.33C64.1566 61.3492 64.79 62.4778 65.2502 63.68ZM66.2202 68.16H60.5302C60.5835 67.3251 60.7038 66.4957 60.8902 65.68C61.6602 65.74 62.4702 65.78 63.3302 65.78C64.1402 65.78 64.9902 65.75 65.8602 65.67C66.0423 66.4898 66.1626 67.3222 66.2202 68.16ZM66.2302 70.16C66.182 70.926 66.0818 71.6877 65.9302 72.44C64.2291 72.3148 62.5212 72.3148 60.8202 72.44C60.6685 71.6877 60.5683 70.926 60.5202 70.16H66.2302ZM61.6202 59.33C60.6809 60.6054 59.9455 62.0189 59.4402 63.52C58.2156 63.3674 57.0004 63.1471 55.8002 62.86C57.2694 61.0409 59.328 59.7923 61.6202 59.33ZM61.3402 78.72C59.1556 78.2199 57.2036 76.9973 55.8002 75.25C56.9678 74.9756 58.1495 74.7653 59.3402 74.62C59.8025 76.0773 60.4763 77.4587 61.3402 78.72ZM58.9002 65.48C58.7112 66.3631 58.5875 67.2588 58.5302 68.16H53.6602C53.774 66.9351 54.113 65.7418 54.6602 64.64C56.0501 65.0271 57.4676 65.3079 58.9002 65.48ZM58.8202 72.64C57.4183 72.8297 56.0291 73.1035 54.6602 73.46C54.141 72.4266 53.8092 71.3093 53.6802 70.16H58.5302C58.5658 70.9927 58.6627 71.8216 58.8202 72.64Z" fill="#FCB316"/>
<path d="M52.6297 32.4651L50.6497 32.7351C50.5277 31.79 50.3405 30.8544 50.0896 29.9351L52.0196 29.3951C52.291 30.4037 52.4948 31.4293 52.6297 32.4651ZM50.9096 26.4251L49.1096 27.2951C48.7074 26.4633 48.2144 25.6785 47.6396 24.9551L49.1996 23.7051C49.8715 24.5435 50.4453 25.4562 50.9096 26.4251Z" fill="#2C3656"/>
<path d="M47.0797 70.5801C47.0814 71.0111 46.9974 71.4382 46.8326 71.8365C46.6678 72.2348 46.4254 72.5963 46.1197 72.9001C45.9619 73.0443 45.7949 73.1779 45.6197 73.3001C45.0897 73.6637 44.4623 73.8588 43.8197 73.8601H40.7297C40.4397 73.8575 40.1624 73.7404 39.9583 73.5344C39.7542 73.3284 39.6396 73.0501 39.6397 72.7601V68.4101C39.6423 68.1227 39.7583 67.8481 39.9624 67.6458C40.1666 67.4436 40.4423 67.3301 40.7297 67.3301H43.8197C44.4614 67.3279 45.0888 67.5196 45.6197 67.8801C46.0669 68.1748 46.4342 68.5755 46.689 69.0466C46.9437 69.5177 47.0779 70.0445 47.0797 70.5801ZM47.0797 80.3301C47.0804 80.7595 46.9959 81.1848 46.8311 81.5813C46.6663 81.9778 46.4245 82.3377 46.1197 82.6401C45.5023 83.2386 44.6794 83.5784 43.8197 83.5901H40.7297C40.4408 83.5893 40.164 83.4742 39.9598 83.27C39.7555 83.0657 39.6404 82.7889 39.6397 82.5001V78.1601C39.6396 77.8701 39.7542 77.5918 39.9583 77.3858C40.1624 77.1798 40.4397 77.0627 40.7297 77.0601H43.8197C44.4631 77.0566 45.0918 77.2522 45.6197 77.6201C46.068 77.916 46.4361 78.3184 46.6908 78.7913C46.9456 79.2642 47.0792 79.7929 47.0797 80.3301ZM47.0797 90.0801C47.0794 90.5079 46.9944 90.9313 46.8297 91.3261C46.6649 91.7208 46.4236 92.0791 46.1197 92.3801C45.9671 92.5302 45.7995 92.6642 45.6197 92.7801C45.0888 93.1406 44.4614 93.3323 43.8197 93.3301H40.7297C40.4423 93.3301 40.1666 93.2166 39.9624 93.0144C39.7583 92.8121 39.6423 92.5374 39.6397 92.2501V87.9101C39.6391 87.7668 39.667 87.6248 39.7215 87.4923C39.7761 87.3599 39.8564 87.2395 39.9577 87.1382C40.0591 87.0368 40.1794 86.9566 40.3119 86.902C40.4444 86.8474 40.5864 86.8196 40.7297 86.8201H43.8197C44.4604 86.8143 45.0879 87.0026 45.6197 87.3601C46.0675 87.6589 46.4349 88.0633 46.6895 88.5377C46.9442 89.012 47.0781 89.5417 47.0797 90.0801Z" fill="#F6F8F9"/>
<path d="M46.8495 21.455L45.6695 23.075C44.9302 22.5327 44.1235 22.0889 43.2695 21.755L44.0095 19.895C45.0193 20.2908 45.9739 20.8151 46.8495 21.455Z" fill="#2C3656"/>
<path d="M47.0797 60.8401C47.0814 61.2711 46.9974 61.6982 46.8326 62.0965C46.6678 62.4947 46.4254 62.8563 46.1196 63.1601C45.9619 63.3042 45.7949 63.4379 45.6196 63.5601C45.0879 63.9176 44.4604 64.1058 43.8196 64.1001H40.7296C40.5871 64.1009 40.4458 64.0735 40.3139 64.0197C40.182 63.9658 40.0619 63.8864 39.9607 63.7861C39.8594 63.6858 39.779 63.5665 39.7239 63.4351C39.6688 63.3036 39.6402 63.1626 39.6396 63.0201V58.6601C39.6448 58.3735 39.7617 58.1003 39.9652 57.8986C40.1688 57.6969 40.4431 57.5826 40.7296 57.5801H43.8196C44.4623 57.5813 45.0897 57.7765 45.6196 58.1401H45.6297C46.0756 58.4353 46.4415 58.8364 46.6945 59.3075C46.9476 59.7787 47.0799 60.3053 47.0797 60.8401Z" fill="#F6F8F9"/>
<path d="M83.6704 58.4599C83.6704 59.24 83.6604 59.9599 83.6704 60.4799C83.4702 61.1759 83.3659 61.8958 83.3604 62.6199L83.1904 78.16C82.9204 78.36 82.6604 78.5599 82.4004 78.7799V40.91C82.4009 40.6156 82.3433 40.3241 82.2309 40.0521C82.1185 39.7801 81.9536 39.533 81.7455 39.3249C81.5373 39.1167 81.2902 38.9518 81.0182 38.8394C80.7462 38.727 80.4547 38.6694 80.1604 38.6699H47.4204C46.8265 38.6707 46.2572 38.907 45.8373 39.3269C45.4174 39.7468 45.1812 40.3161 45.1804 40.91V55.7599C45.0525 55.7237 44.9222 55.697 44.7904 55.68C44.7155 55.6578 44.6383 55.6444 44.5604 55.6399C44.3157 55.6001 44.0682 55.5801 43.8204 55.58L43.7804 37C43.7794 36.9611 43.7862 36.9225 43.8003 36.8864C43.8145 36.8502 43.8356 36.8172 43.8626 36.7893C43.8896 36.7614 43.9219 36.7391 43.9575 36.7238C43.9932 36.7084 44.0315 36.7003 44.0704 36.7H83.3604C83.3992 36.7003 83.4375 36.7084 83.4732 36.7238C83.5089 36.7391 83.5411 36.7614 83.5681 36.7893C83.5951 36.8172 83.6163 36.8502 83.6304 36.8864C83.6445 36.9225 83.6513 36.9611 83.6504 37L83.6804 56.4199C83.6804 57.0799 83.6804 57.7799 83.6704 58.4599ZM79.2504 104.67C78.8902 104.147 78.5629 103.603 78.2704 103.04C78.1602 102.852 78.0601 102.658 77.9704 102.46C77.8504 102.22 77.7204 101.96 77.6004 101.67C77.5292 101.534 77.4657 101.393 77.4104 101.25C77.3704 101.16 77.3304 101.06 77.2904 100.96C77.0424 100.358 76.8255 99.744 76.6404 99.12H47.4204C46.8265 99.1192 46.2572 98.8829 45.8373 98.463C45.4174 98.0431 45.1812 97.4738 45.1804 96.8799V95.16C45.0604 95.18 44.9304 95.2 44.8004 95.22C44.7216 95.2447 44.6415 95.2647 44.5604 95.2799C44.3154 95.3162 44.068 95.3329 43.8204 95.33H43.7804V104.9C43.7847 104.974 43.8173 105.043 43.8713 105.093C43.9253 105.143 43.9966 105.171 44.0704 105.17H78.9904C79.0461 105.172 79.1012 105.159 79.1504 105.132C79.1995 105.106 79.2409 105.067 79.2704 105.02C79.2863 104.974 79.2997 104.927 79.3104 104.88C79.3102 104.806 79.2895 104.733 79.2504 104.67ZM68.3104 104.5H59.1104C58.7896 104.501 58.4718 104.439 58.1752 104.317C57.8786 104.194 57.6092 104.015 57.3824 103.788C57.1556 103.561 56.9759 103.292 56.8537 102.995C56.7315 102.699 56.6692 102.381 56.6704 102.06C56.671 101.57 56.8134 101.091 57.0804 100.68C57.3076 100.351 57.6106 100.081 57.9638 99.8927C58.3171 99.7048 58.7103 99.6044 59.1104 99.5999H68.3104C68.9601 99.5999 69.5833 99.8581 70.0428 100.318C70.5022 100.777 70.7604 101.4 70.7604 102.05C70.7604 102.7 70.5022 103.323 70.0428 103.782C69.5833 104.242 68.9601 104.5 68.3104 104.5Z" fill="#DEE1E9"/>
<path d="M41.5407 107.345L38.9004 108.415L39.6503 110.265L42.2906 109.195L41.5407 107.345Z" fill="#2C3656"/>
<path d="M40.8899 19.055L40.5899 21.035C39.9614 20.9362 39.3261 20.886 38.6899 20.885C38.1999 20.885 37.8999 20.925 37.8699 20.925L37.6299 18.935C37.982 18.8981 38.3359 18.8814 38.6899 18.885C39.4264 18.8869 40.1618 18.9438 40.8899 19.055ZM101.25 115.38L98.4799 105.4C98.3899 105.14 98.1699 104.54 97.8999 103.84C97.5199 102.86 96.8199 101.06 96.7299 100.62C96.7399 98.83 96.8299 97.02 96.9099 95.26C97.1168 92.0705 97.1335 88.8715 96.9599 85.68C96.8899 84.83 96.7899 84 96.6499 83.2C96.1777 80.8249 95.5395 78.4858 94.7399 76.2L93.0799 71.08C92.8411 70.3298 92.7197 69.5473 92.7199 68.76V55.26C92.7151 54.9906 92.6078 54.7331 92.4199 54.54C92.3244 54.4479 92.2116 54.3757 92.088 54.3277C91.9644 54.2796 91.8325 54.2566 91.6999 54.26C90.5728 54.2758 89.4602 54.5155 88.4267 54.9653C87.3932 55.4151 86.4595 56.066 85.6799 56.88V56.42L85.6499 37C85.6499 36.3917 85.4089 35.8082 84.9798 35.3772C84.5506 34.9461 83.9681 34.7027 83.3599 34.7H44.0699C43.4616 34.7027 42.8792 34.9461 42.45 35.3772C42.0208 35.8082 41.7799 36.3917 41.7799 37V55.58H40.7299C39.9121 55.58 39.1277 55.9042 38.5485 56.4815C37.9692 57.0588 37.6425 57.8422 37.6399 58.66V63.02C37.6425 63.5729 37.7933 64.1149 38.0764 64.5897C38.3596 65.0646 38.7648 65.4549 39.2499 65.72C38.766 65.984 38.3615 66.3727 38.0784 66.8457C37.7953 67.3187 37.6439 67.8588 37.6399 68.41V72.76C37.6425 73.3129 37.7933 73.8549 38.0764 74.3297C38.3596 74.8046 38.7648 75.1949 39.2499 75.46C38.7631 75.7232 38.3565 76.113 38.0731 76.5883C37.7897 77.0636 37.64 77.6066 37.6399 78.16V82.5C37.6424 83.0541 37.7941 83.5973 38.0792 84.0724C38.3643 84.5476 38.7721 84.9371 39.2599 85.2C38.7709 85.4641 38.3623 85.8553 38.0772 86.3322C37.7921 86.8092 37.641 87.3543 37.6399 87.91V92.25C37.6451 93.067 37.9727 93.8489 38.5513 94.4256C39.13 95.0024 39.9129 95.3274 40.7299 95.33H41.7799V104.9C41.7811 105.199 41.8412 105.496 41.957 105.772C42.0727 106.048 42.2418 106.299 42.4545 106.51C42.6671 106.72 42.9193 106.887 43.1964 107.001C43.4736 107.114 43.7704 107.171 44.0699 107.17H61.7099C63.6299 109.44 65.6299 111.3 69.1299 111.68L71.6599 121.64C71.7159 121.852 71.8404 122.039 72.014 122.173C72.1877 122.307 72.4007 122.38 72.6199 122.38C72.6905 122.383 72.7612 122.377 72.8299 122.36L100.49 116.62C100.624 116.597 100.752 116.544 100.865 116.467C100.977 116.389 101.071 116.288 101.14 116.17C101.21 116.052 101.256 115.922 101.275 115.786C101.294 115.65 101.285 115.512 101.25 115.38ZM44.0699 36.7H83.3599C83.3987 36.7004 83.4371 36.7085 83.4727 36.7238C83.5084 36.7392 83.5406 36.7614 83.5676 36.7894C83.5946 36.8173 83.6158 36.8503 83.6299 36.8864C83.644 36.9226 83.6508 36.9612 83.6499 37L83.6799 56.42C83.6799 57.08 83.6799 57.78 83.6699 58.46C83.6699 59.24 83.6599 59.96 83.6699 60.48C83.4697 61.1759 83.3654 61.8959 83.3599 62.62L83.1899 78.16C82.9199 78.36 82.6599 78.56 82.3999 78.78V40.91C82.4004 40.6157 82.3428 40.3242 82.2304 40.0522C82.1181 39.7802 81.9531 39.533 81.745 39.3249C81.5369 39.1168 81.2897 38.9518 81.0177 38.8394C80.7457 38.7271 80.4542 38.6695 80.1599 38.67H47.4199C46.826 38.6708 46.2567 38.9071 45.8368 39.327C45.4169 39.7469 45.1807 40.3162 45.1799 40.91V55.76C45.052 55.7238 44.9217 55.697 44.7899 55.68C44.715 55.6578 44.6378 55.6444 44.5599 55.64C44.3152 55.6002 44.0678 55.5801 43.8199 55.58L43.7799 37C43.779 36.9612 43.7857 36.9226 43.7999 36.8864C43.814 36.8503 43.8352 36.8173 43.8621 36.7894C43.8891 36.7614 43.9214 36.7392 43.957 36.7238C43.9927 36.7085 44.0311 36.7004 44.0699 36.7ZM43.7799 104.9V95.33H43.8199C44.0675 95.333 44.3149 95.3162 44.5599 95.28C44.641 95.2647 44.7211 95.2447 44.7999 95.22C44.9299 95.2 45.0599 95.18 45.1799 95.16V96.88C45.1807 97.4739 45.4169 98.0432 45.8368 98.4631C46.2567 98.883 46.826 99.1192 47.4199 99.12H76.6399C76.825 99.744 77.042 100.358 77.2899 100.96C77.3299 101.06 77.3699 101.16 77.4099 101.25C77.4653 101.393 77.5287 101.534 77.5999 101.67C77.7199 101.96 77.8499 102.22 77.9699 102.46C78.0596 102.659 78.1597 102.852 78.2699 103.04C78.5624 103.603 78.8897 104.148 79.2499 104.67C79.289 104.733 79.3097 104.806 79.3099 104.88C79.2992 104.927 79.2859 104.974 79.2699 105.02C79.2404 105.067 79.199 105.106 79.1499 105.132C79.1008 105.159 79.0456 105.172 78.9899 105.17H44.0699C43.9961 105.171 43.9248 105.143 43.8708 105.093C43.8168 105.043 43.7842 104.974 43.7799 104.9ZM76.0499 89.78C75.8422 90.898 75.7384 92.0329 75.7399 93.17C75.7403 94.4963 75.871 95.8193 76.1299 97.12H47.4199C47.3883 97.1204 47.3569 97.1145 47.3276 97.1026C47.2983 97.0907 47.2716 97.073 47.2493 97.0506C47.2269 97.0283 47.2092 97.0016 47.1973 96.9723C47.1854 96.943 47.1795 96.9116 47.1799 96.88V94.12C47.2999 94.02 47.4199 93.91 47.5299 93.8C48.5162 92.8125 49.0732 91.4757 49.0799 90.08C49.0772 89.8728 49.0638 89.6659 49.0399 89.46C49.0299 89.38 49.0199 89.33 49.0099 89.25C48.9799 89.12 48.9599 88.98 48.9299 88.86C48.9112 88.7787 48.8878 88.6986 48.8599 88.62C48.8353 88.5031 48.7984 88.3892 48.7499 88.28C48.7199 88.18 48.6899 88.1 48.6599 88.02L48.5099 87.72C48.4699 87.64 48.4299 87.56 48.3799 87.48C48.3314 87.3819 48.2745 87.2883 48.2099 87.2C48.1599 87.12 48.0999 87.04 48.0499 86.96C47.9799 86.88 47.9099 86.78 47.8399 86.7C47.7799 86.64 47.7199 86.56 47.6599 86.5C47.5816 86.4118 47.4981 86.3283 47.4099 86.25C47.3517 86.1818 47.2881 86.1182 47.2199 86.06C47.1999 86.06 47.1899 86.04 47.1799 86.04V84.38C47.2999 84.28 47.4199 84.16 47.5299 84.06C48.0232 83.5725 48.4143 82.9915 48.6804 82.3511C48.9466 81.7106 49.0824 81.0236 49.0799 80.33C49.0799 80.12 49.0599 79.91 49.0399 79.7C49.0299 79.64 49.0199 79.58 49.0099 79.5C48.9799 79.36 48.9599 79.24 48.9299 79.1C48.9112 79.0187 48.8878 78.9386 48.8599 78.86C48.8309 78.7444 48.7941 78.6308 48.7499 78.52C48.7208 78.4383 48.6875 78.3582 48.6499 78.28C48.6093 78.1708 48.5625 78.064 48.5099 77.96C48.4699 77.88 48.4299 77.8 48.3799 77.72C48.3299 77.64 48.2699 77.54 48.2099 77.44C48.1614 77.3633 48.1079 77.2898 48.0499 77.22C47.9848 77.1295 47.9147 77.0427 47.8399 76.96C47.7799 76.88 47.7199 76.82 47.6599 76.75C47.5816 76.6618 47.4981 76.5783 47.4099 76.5C47.3499 76.44 47.2899 76.38 47.2199 76.32C47.1999 76.3 47.1899 76.3 47.1799 76.28V74.64C47.2999 74.54 47.4199 74.42 47.5399 74.3C48.0313 73.8137 48.4207 73.2342 48.6851 72.5954C48.9496 71.9566 49.0838 71.2714 49.0799 70.58C49.0799 70.38 49.0599 70.17 49.0399 69.96C49.0299 69.9 49.0199 69.83 49.0099 69.76C48.9799 69.62 48.9599 69.5 48.9299 69.36C48.9112 69.2787 48.8878 69.1986 48.8599 69.12C48.8294 69.0048 48.7927 68.8913 48.7499 68.78C48.7208 68.6983 48.6875 68.6182 48.6499 68.54C48.6099 68.44 48.5599 68.33 48.5099 68.22C48.4699 68.14 48.4299 68.06 48.3799 67.98C48.3299 67.88 48.2699 67.8 48.2099 67.7C48.1614 67.6233 48.1079 67.5498 48.0499 67.48C47.9848 67.3895 47.9147 67.3027 47.8399 67.22C47.7799 67.14 47.7199 67.08 47.6599 67C47.5816 66.9118 47.4981 66.8283 47.4099 66.75C47.3499 66.7 47.2899 66.64 47.2199 66.58C47.1999 66.56 47.1899 66.56 47.1799 66.54V64.9C47.2999 64.8 47.4199 64.68 47.5299 64.58C48.0233 64.0905 48.4145 63.5078 48.6806 62.8657C48.9467 62.2236 49.0824 61.535 49.0799 60.84C49.0799 60.64 49.0599 60.44 49.0399 60.22C49.0299 60.16 49.0199 60.09 49.0099 60.02C48.9799 59.88 48.9599 59.75 48.9299 59.62C48.9112 59.5387 48.8878 59.4586 48.8599 59.38C48.8294 59.2648 48.7927 59.1513 48.7499 59.04C48.7208 58.9583 48.6875 58.8782 48.6499 58.8C48.6099 58.7 48.5599 58.58 48.5099 58.48C48.4699 58.41 48.4299 58.33 48.3799 58.25C48.3292 58.15 48.2724 58.0531 48.2099 57.96C48.1614 57.8833 48.1079 57.8098 48.0499 57.74C47.9848 57.6495 47.9147 57.5627 47.8399 57.48C47.7799 57.41 47.7199 57.33 47.6599 57.26C47.5841 57.1725 47.5004 57.0921 47.4099 57.02L47.2199 56.83C47.1999 56.83 47.1899 56.82 47.1799 56.8V40.91C47.1807 40.8466 47.2062 40.786 47.251 40.7412C47.2959 40.6963 47.3565 40.6708 47.4199 40.67H80.1599C80.2233 40.6708 80.2839 40.6963 80.3287 40.7412C80.3736 40.786 80.3991 40.8466 80.3999 40.91V80.75C78.1797 83.3242 76.6791 86.4394 76.0499 89.78ZM39.6399 58.66C39.6451 58.3735 39.7619 58.1003 39.9655 57.8986C40.1691 57.6969 40.4433 57.5826 40.7299 57.58H43.8199C44.4626 57.5813 45.0899 57.7764 45.6199 58.14H45.6299C46.0314 58.4078 46.3684 58.7615 46.6165 59.1755C46.8647 59.5895 47.0177 60.0535 47.0646 60.5339C47.1115 61.0143 47.0511 61.4991 46.8877 61.9532C46.7243 62.4074 46.462 62.8196 46.1199 63.16C45.9622 63.3042 45.7951 63.4378 45.6199 63.56C45.0881 63.9175 44.4606 64.1058 43.8199 64.1H40.7299C40.5874 64.1008 40.4461 64.0735 40.3141 64.0196C40.1822 63.9657 40.0622 63.8864 39.9609 63.7861C39.8597 63.6857 39.7792 63.5664 39.7241 63.435C39.669 63.3036 39.6404 63.1625 39.6399 63.02V58.66ZM39.6399 68.41C39.6425 68.1227 39.7585 67.848 39.9627 67.6457C40.1668 67.4435 40.4425 67.33 40.7299 67.33H43.8199C44.4616 67.3278 45.089 67.5195 45.6199 67.88C46.0232 68.1462 46.362 68.4989 46.6118 68.9125C46.8617 69.3261 47.0161 69.7903 47.064 70.2711C47.1119 70.7519 47.052 71.2373 46.8887 71.6921C46.7254 72.1469 46.4627 72.5595 46.1199 72.9C45.9622 73.0442 45.7951 73.1778 45.6199 73.3C45.0899 73.6636 44.4626 73.8587 43.8199 73.86H40.7299C40.4399 73.8574 40.1627 73.7403 39.9585 73.5343C39.7544 73.3283 39.6399 73.05 39.6399 72.76V68.41ZM39.6399 78.16C39.6399 77.87 39.7544 77.5917 39.9585 77.3857C40.1627 77.1797 40.4399 77.0626 40.7299 77.06H43.8199C44.4633 77.0565 45.092 77.2521 45.6199 77.62C46.0232 77.8862 46.362 78.2389 46.6118 78.6525C46.8617 79.0661 47.0161 79.5303 47.064 80.0111C47.1119 80.4919 47.052 80.9774 46.8887 81.4321C46.7254 81.8869 46.4627 82.2995 46.1199 82.64C45.5025 83.2385 44.6797 83.5784 43.8199 83.59H40.7299C40.441 83.5892 40.1643 83.4741 39.96 83.2699C39.7558 83.0656 39.6407 82.7889 39.6399 82.5V78.16ZM40.7299 93.33C40.4425 93.33 40.1668 93.2166 39.9627 93.0143C39.7585 92.812 39.6425 92.5374 39.6399 92.25V87.91C39.6394 87.7667 39.6672 87.6247 39.7218 87.4923C39.7764 87.3598 39.8566 87.2394 39.958 87.1381C40.0593 87.0368 40.1797 86.9565 40.3121 86.9019C40.4446 86.8473 40.5866 86.8195 40.7299 86.82H43.8199C44.4606 86.8143 45.0881 87.0025 45.6199 87.36C46.0677 87.6588 46.4352 88.0632 46.6898 88.5376C46.9444 89.0119 47.0784 89.5416 47.0799 90.08C47.0796 90.5078 46.9947 90.9313 46.8299 91.326C46.6651 91.7208 46.4238 92.079 46.1199 92.38C45.9673 92.5301 45.7998 92.6641 45.6199 92.78C45.089 93.1405 44.4616 93.3323 43.8199 93.33H40.7299ZM73.3599 120.22L71.1399 111.46C71.2326 111.369 71.306 111.26 71.3558 111.139C71.4056 111.019 71.4308 110.89 71.4299 110.76C71.4275 110.496 71.3214 110.243 71.1344 110.056C70.9474 109.868 70.6944 109.762 70.4299 109.76C69.2969 109.804 68.1685 109.594 67.1271 109.146C66.0856 108.698 65.1573 108.023 64.4099 107.17H78.9899C79.4082 107.175 79.8199 107.065 80.1798 106.851C80.5396 106.638 80.8338 106.33 81.0299 105.96C81.2276 105.59 81.3209 105.173 81.2998 104.753C81.2787 104.334 81.1439 103.929 80.9099 103.58C80.8769 103.518 80.8402 103.458 80.7999 103.4C80.6799 103.2 80.5499 103.02 80.4399 102.82C80.286 102.575 80.1458 102.321 80.0199 102.06C79.9399 101.92 79.8599 101.78 79.7699 101.59C79.4999 101.06 79.2699 100.52 79.0499 99.96L78.8699 99.48C78.7699 99.2 78.6899 98.91 78.5999 98.62C78.5199 98.38 78.4299 98.12 78.3699 97.86L78.3199 97.67C77.6804 95.2177 77.5747 92.6567 78.0099 90.16C78.3056 88.6046 78.8137 87.0971 79.5199 85.68C80.2072 84.2704 81.0892 82.9643 82.1399 81.8C82.9197 80.9367 83.7954 80.1651 84.7499 79.5L85.1799 79.2L85.3599 62.64C85.3698 62.0926 85.447 61.5485 85.5899 61.02L85.6699 60.83V60.78C86.0141 59.6447 86.6698 58.6287 87.5625 57.8474C88.4551 57.0661 89.549 56.5508 90.7199 56.36V68.76C90.7187 69.758 90.8739 70.7501 91.1799 71.7L92.8399 76.8C93.3899 78.52 93.9299 80.2 94.3299 81.9C93.4499 81.91 92.8899 81.88 92.8799 81.88L92.7699 83.88C92.7699 83.88 93.1899 83.9 93.8999 83.9C94.1399 83.9 94.4199 83.9 94.7299 83.88C94.8299 84.52 94.9199 85.17 94.9699 85.83C95.135 88.9418 95.1149 92.0606 94.9099 95.17C94.8299 96.96 94.7399 98.8 94.7299 100.6C94.7099 101.02 94.8999 101.64 96.0299 104.56C96.2799 105.22 96.4999 105.76 96.5599 105.96L99.0299 114.88L73.3599 120.22Z" fill="#2C3656"/>
<path d="M68.31 99.5999H59.11C58.7099 99.6043 58.3167 99.7047 57.9635 99.8927C57.6102 100.081 57.3072 100.351 57.08 100.68C56.8131 101.091 56.6707 101.57 56.67 102.06C56.6688 102.381 56.7311 102.698 56.8533 102.995C56.9755 103.292 57.1552 103.561 57.382 103.788C57.6088 104.015 57.8783 104.194 58.1748 104.317C58.4714 104.439 58.7892 104.501 59.11 104.5H68.31C68.9598 104.5 69.5829 104.242 70.0424 103.782C70.5019 103.323 70.76 102.7 70.76 102.05C70.76 101.4 70.5019 100.777 70.0424 100.317C69.5829 99.858 68.9598 99.5999 68.31 99.5999ZM68.31 102.5H59.11C58.9936 102.499 58.8823 102.452 58.8 102.37C58.7177 102.288 58.671 102.176 58.67 102.06C58.6702 101.999 58.6803 101.938 58.7 101.88C58.7344 101.799 58.7913 101.729 58.864 101.68C58.9367 101.63 59.022 101.602 59.11 101.6H68.31C68.4283 101.606 68.54 101.656 68.6219 101.742C68.7038 101.828 68.7496 101.941 68.75 102.06C68.749 102.176 68.7023 102.288 68.62 102.37C68.5377 102.452 68.4264 102.499 68.31 102.5ZM63.53 57.1399C61.1749 57.1399 58.8726 57.8382 56.9142 59.1464C54.9558 60.4546 53.4293 62.3141 52.5276 64.4898C51.6258 66.6655 51.3894 69.0597 51.8481 71.3697C52.3069 73.6798 53.4402 75.802 55.1048 77.468C56.7695 79.134 58.8907 80.2691 61.2004 80.7298C63.51 81.1905 65.9044 80.9561 68.0808 80.0562C70.2573 79.1563 72.118 77.6313 73.4279 75.674C74.7378 73.7167 75.438 71.415 75.44 69.0599C75.4371 65.9011 74.1817 62.8724 71.949 60.6379C69.7164 58.4034 66.6888 57.1455 63.53 57.1399ZM65.36 78.7799C66.2479 77.5038 66.9389 76.1014 67.41 74.6199C68.6734 74.7827 69.9233 75.0367 71.15 75.3799C69.6781 77.1568 67.6288 78.3601 65.36 78.7799ZM71.15 62.7399C69.885 63.0787 68.5988 63.3326 67.3 63.4999C66.7905 61.9855 66.0446 60.5612 65.09 59.2799C67.4652 59.6533 69.6211 60.8843 71.15 62.7399ZM66.23 70.1599C66.1819 70.9258 66.0816 71.6876 65.93 72.4399C64.229 72.3147 62.521 72.3147 60.82 72.4399C60.6684 71.6876 60.5681 70.9258 60.52 70.1599H66.23ZM60.53 68.1599C60.5833 67.3249 60.7037 66.4956 60.89 65.6799C61.66 65.7399 62.47 65.7799 63.33 65.7799C64.14 65.7799 64.99 65.7499 65.86 65.6699C66.0421 66.4897 66.1625 67.3221 66.22 68.1599H60.53ZM65.25 63.6799C64.0013 63.7562 62.7494 63.7629 61.5 63.6999C61.9521 62.4897 62.5824 61.3539 63.37 60.3299C64.1565 61.349 64.7898 62.4776 65.25 63.6799ZM61.62 59.3299C60.6807 60.6052 59.9453 62.0188 59.44 63.5199C58.2154 63.3673 57.0002 63.1469 55.8 62.8599C57.2692 61.0408 59.3278 59.7922 61.62 59.3299ZM58.9 65.4799C58.711 66.3629 58.5873 67.2587 58.53 68.1599H53.66C53.7738 66.935 54.1128 65.7417 54.66 64.6399C56.05 65.027 57.4674 65.3078 58.9 65.4799ZM58.53 70.1599C58.5656 70.9926 58.6625 71.8215 58.82 72.6399C57.4181 72.8295 56.029 73.1034 54.66 73.4599C54.1408 72.4265 53.809 71.3092 53.68 70.1599H58.53ZM59.34 74.6199C59.8023 76.0771 60.4762 77.4585 61.34 78.7199C59.1554 78.2197 57.2035 76.9971 55.8 75.2499C56.9676 74.9755 58.1494 74.7652 59.34 74.6199ZM65.37 74.4199C64.9141 75.7621 64.2382 77.0193 63.37 78.1399C62.5092 77.0145 61.834 75.7586 61.37 74.4199C62.702 74.3348 64.038 74.3348 65.37 74.4199ZM67.92 72.6599C68.0802 71.8349 68.1805 70.9994 68.22 70.1599H73.37C73.2351 71.3768 72.8721 72.5574 72.3 73.6399C70.8659 73.2068 69.402 72.8793 67.92 72.6599ZM68.21 68.1599C68.1589 67.2515 68.0352 66.3486 67.84 65.4599C69.3523 65.2446 70.8464 64.9171 72.31 64.4799C72.9054 65.6249 73.2722 66.8748 73.39 68.1599H68.21ZM36.88 111.4L36.25 111.66C36.188 111.681 36.1245 111.698 36.06 111.71C35.25 111.87 34.46 112 33.71 112.1L33.45 110.12C34.13 110.02 34.85 109.91 35.58 109.77L36.12 109.55L36.88 111.4ZM30.56 110.365L30.63 112.355C30.32 112.375 30.03 112.375 29.74 112.375C28.96 112.375 28.21 112.335 27.5 112.265L27.7 110.275C28.6504 110.367 29.6057 110.397 30.56 110.365Z" fill="#2C3656"/>
<path d="M18.8702 75.8999C16.4707 75.8999 14.1251 76.6116 12.1301 77.9449C10.1351 79.2782 8.58042 81.1732 7.66262 83.3903C6.74483 85.6073 6.5052 88.0468 6.97405 90.4C7.4429 92.7533 8.59916 94.9146 10.2966 96.6106C11.994 98.3067 14.1563 99.4611 16.5099 99.928C18.8636 100.395 21.3028 100.153 23.5191 99.2337C25.7354 98.3141 27.6292 96.7578 28.9608 94.7617C30.2925 92.7656 31.0022 90.4194 31.0002 88.0199C30.9968 84.8048 29.7174 81.7225 27.443 79.45C25.1687 77.1776 22.0853 75.9007 18.8702 75.8999ZM23.0502 80.9999C22.9999 81.1215 22.926 81.232 22.8329 81.3251C22.7397 81.4181 22.6291 81.4918 22.5074 81.5419C22.3857 81.5921 22.2552 81.6178 22.1236 81.6174C21.992 81.6171 21.8617 81.5907 21.7402 81.5399C21.5654 81.4558 21.3742 81.4114 21.1802 81.4099H20.0702C19.8804 81.4103 19.6925 81.4481 19.5173 81.5213C19.3421 81.5944 19.1831 81.7014 19.0493 81.8361C18.9156 81.9708 18.8097 82.1305 18.7378 82.3062C18.6659 82.4819 18.6293 82.6701 18.6302 82.8599V85.4799H20.9802C21.2455 85.4799 21.4998 85.5853 21.6873 85.7728C21.8749 85.9603 21.9802 86.2147 21.9802 86.4799C21.9802 86.7451 21.8749 86.9995 21.6873 87.187C21.4998 87.3745 21.2455 87.4799 20.9802 87.4799H18.6302V95.6199C18.6302 95.8851 18.5249 96.1395 18.3373 96.327C18.1498 96.5145 17.8955 96.6199 17.6302 96.6199C17.365 96.6199 17.1107 96.5145 16.9231 96.327C16.7356 96.1395 16.6302 95.8851 16.6302 95.6199V87.4799H15.6102C15.345 87.4799 15.0907 87.3745 14.9031 87.187C14.7156 86.9995 14.6102 86.7451 14.6102 86.4799C14.6102 86.2147 14.7156 85.9603 14.9031 85.7728C15.0907 85.5853 15.345 85.4799 15.6102 85.4799H16.6302V82.8599C16.6297 81.9465 16.9916 81.0702 17.6366 80.4233C18.2815 79.7765 19.1568 79.412 20.0702 79.4099H21.1802C21.642 79.4144 22.0979 79.5131 22.5202 79.6999C22.6411 79.7495 22.751 79.8227 22.8433 79.9152C22.9356 80.0078 23.0085 80.1177 23.0579 80.2388C23.1072 80.3598 23.1319 80.4894 23.1306 80.6201C23.1293 80.7508 23.102 80.8799 23.0502 80.9999Z" fill="#FCB316"/>
<path d="M26.6602 21.3051C27.0303 21.3051 27.3302 21.0051 27.3302 20.6351C27.3302 20.2651 27.0303 19.9651 26.6602 19.9651C26.2902 19.9651 25.9902 20.2651 25.9902 20.6351C25.9902 21.0051 26.2902 21.3051 26.6602 21.3051Z" fill="#2C3656"/>
<path d="M24.9702 109.725L24.3702 111.635C23.3213 111.313 22.3243 110.842 21.4102 110.235L22.5302 108.575C23.2824 109.076 24.1046 109.464 24.9702 109.725Z" fill="#2C3656"/>
<path d="M24.3095 24.9801C24.3125 25.4507 24.1756 25.9115 23.9162 26.3042C23.6569 26.6968 23.2867 27.0036 22.8527 27.1855C22.4187 27.3674 21.9404 27.4163 21.4786 27.3259C21.0168 27.2356 20.5922 27.0101 20.2587 26.678C19.9253 26.346 19.698 25.9224 19.6057 25.4609C19.5134 24.9995 19.5603 24.521 19.7403 24.0863C19.9204 23.6515 20.2256 23.28 20.6171 23.019C21.0087 22.758 21.4689 22.6191 21.9395 22.6201C22.5658 22.622 23.166 22.8709 23.6098 23.3128C24.0536 23.7547 24.305 24.3539 24.3095 24.9801Z" fill="#F6F8F9"/>
<path d="M20.6703 106.745L19.0203 107.875C18.3429 106.915 17.901 105.808 17.7303 104.645L19.7203 104.445C19.8637 105.272 20.1881 106.058 20.6703 106.745ZM21.9403 20.6201C21.0756 20.6201 20.2303 20.8767 19.5114 21.3573C18.7926 21.8379 18.2325 22.521 17.902 23.3201C17.5715 24.1192 17.4856 24.9984 17.655 25.8463C17.8244 26.6943 18.2416 27.473 18.8538 28.0837C19.466 28.6945 20.2455 29.1099 21.0939 29.2774C21.9423 29.4449 22.8212 29.3569 23.6196 29.0246C24.4179 28.6923 25.0997 28.1306 25.5787 27.4107C26.0577 26.6907 26.3123 25.8448 26.3103 24.9801C26.3048 23.8237 25.8423 22.7165 25.0236 21.8997C24.205 21.083 23.0967 20.623 21.9403 20.6201ZM21.9403 27.3601C21.472 27.3601 21.0142 27.2214 20.6246 26.9614C20.2351 26.7014 19.9314 26.3318 19.7517 25.8994C19.572 25.4669 19.5245 24.9909 19.6151 24.5314C19.7058 24.072 19.9305 23.6496 20.261 23.3178C20.5914 22.986 21.0128 22.7595 21.4718 22.6669C21.9309 22.5743 22.4071 22.6198 22.8404 22.7977C23.2736 22.9755 23.6444 23.2777 23.906 23.6662C24.1677 24.0546 24.3083 24.5118 24.3103 24.9801C24.3106 25.6097 24.0613 26.2137 23.617 26.6598C23.1728 27.1059 22.5699 27.3577 21.9403 27.3601Z" fill="#2C3656"/>
<path d="M27.3098 18.8999H16.5598C16.4173 18.8991 16.276 18.9265 16.144 18.9803C16.0121 19.0342 15.8921 19.1136 15.7908 19.2139C15.6896 19.3142 15.6091 19.4335 15.554 19.5649C15.4989 19.6964 15.4703 19.8374 15.4698 19.9799V29.3399C15.4682 29.484 15.4952 29.6269 15.5493 29.7604C15.6034 29.894 15.6835 30.0154 15.7849 30.1177C15.8863 30.2201 16.007 30.3012 16.14 30.3565C16.273 30.4119 16.4157 30.4402 16.5598 30.4399H27.3098C27.4539 30.4402 27.5965 30.4119 27.7296 30.3565C27.8626 30.3012 27.9833 30.2201 28.0847 30.1177C28.1861 30.0154 28.2662 29.894 28.3203 29.7604C28.3743 29.6269 28.4014 29.484 28.3998 29.3399V19.9799C28.3993 19.8374 28.3706 19.6964 28.3156 19.5649C28.2605 19.4335 28.18 19.3142 28.0788 19.2139C27.9775 19.1136 27.8575 19.0342 27.7255 18.9803C27.5936 18.9265 27.4523 18.8991 27.3098 18.8999ZM21.9398 29.3599C21.0759 29.3599 20.2314 29.1039 19.513 28.6241C18.7946 28.1444 18.2345 27.4625 17.9034 26.6645C17.5724 25.8666 17.4852 24.9885 17.653 24.141C17.8209 23.2936 18.2361 22.5149 18.8462 21.9034C19.4564 21.2918 20.2341 20.8749 21.0811 20.7051C21.9282 20.5354 22.8065 20.6205 23.6052 20.9497C24.4039 21.2789 25.0871 21.8375 25.5685 22.5548C26.0498 23.2721 26.3078 24.116 26.3098 24.9799C26.3085 26.1394 25.848 27.2512 25.029 28.0721C24.21 28.8929 23.0993 29.356 21.9398 29.3599ZM26.6598 21.2999C26.5269 21.2999 26.3969 21.2603 26.2865 21.1863C26.1762 21.1122 26.0903 21.007 26.0399 20.884C25.9895 20.7609 25.9768 20.6257 26.0035 20.4955C26.0302 20.3653 26.095 20.2459 26.1897 20.1526C26.2844 20.0593 26.4047 19.9963 26.5353 19.9716C26.6659 19.9469 26.801 19.9616 26.9232 20.0138C27.0454 20.0661 27.1494 20.1535 27.2218 20.265C27.2942 20.3765 27.3318 20.507 27.3298 20.6399C27.3277 20.816 27.2561 20.9842 27.1306 21.1078C27.0051 21.2314 26.8359 21.3005 26.6598 21.2999Z" fill="#25AAE3"/>
<path d="M16.6304 82.855C16.6319 81.9432 16.9949 81.0691 17.6397 80.4243C18.2844 79.7796 19.1585 79.4166 20.0704 79.415H21.1804C21.6414 79.4162 22.0974 79.5114 22.5204 79.695C22.6462 79.7427 22.7611 79.8153 22.8583 79.9085C22.9554 80.0017 23.0327 80.1135 23.0856 80.2372C23.1385 80.361 23.1658 80.4941 23.166 80.6287C23.1662 80.7633 23.1392 80.8965 23.0867 81.0204C23.0342 81.1444 22.9572 81.2564 22.8603 81.3498C22.7635 81.4433 22.6487 81.5162 22.523 81.5642C22.3973 81.6123 22.2632 81.6345 22.1287 81.6295C21.9942 81.6244 21.8621 81.5923 21.7404 81.535C21.5648 81.4542 21.3736 81.4132 21.1804 81.415H20.0704C19.6884 81.415 19.3222 81.5668 19.0521 81.8368C18.7821 82.1069 18.6304 82.4731 18.6304 82.855V85.475H20.9804C21.2456 85.475 21.4999 85.5804 21.6875 85.7679C21.875 85.9555 21.9804 86.2098 21.9804 86.475C21.9804 86.7403 21.875 86.9946 21.6875 87.1821C21.4999 87.3697 21.2456 87.475 20.9804 87.475H18.6304V95.625C18.6304 95.8903 18.525 96.1446 18.3375 96.3321C18.1499 96.5197 17.8956 96.625 17.6304 96.625C17.3651 96.625 17.1108 96.5197 16.9232 96.3321C16.7357 96.1446 16.6304 95.8903 16.6304 95.625V87.475H15.6104C15.3451 87.475 15.0908 87.3697 14.9032 87.1821C14.7157 86.9946 14.6104 86.7403 14.6104 86.475C14.6104 86.2098 14.7157 85.9555 14.9032 85.7679C15.0908 85.5804 15.3451 85.475 15.6104 85.475H16.6304V82.855Z" fill="#25AAE3"/>
<path d="M21.9398 12.54C19.5399 12.5381 17.1933 13.248 15.197 14.5801C13.2007 15.9123 11.6444 17.8066 10.7251 20.0235C9.80573 22.2403 9.56468 24.6801 10.0324 27.034C10.5001 29.388 11.6556 31.5502 13.3526 33.2472C15.0496 34.9443 17.2119 36.0997 19.5658 36.5675C21.9197 37.0352 24.3595 36.7941 26.5764 35.8748C28.7933 34.9555 30.6876 33.3992 32.0197 31.4029C33.3518 29.4066 34.0618 27.06 34.0598 24.66C34.0545 21.4472 32.7759 18.3675 30.5041 16.0958C28.2323 13.824 25.1526 12.5453 21.9398 12.54ZM30.3998 29.34C30.4006 29.7465 30.3213 30.1492 30.1664 30.525C30.0115 30.9008 29.7841 31.2424 29.4971 31.5303C29.2102 31.8182 28.8693 32.0467 28.494 32.2028C28.1187 32.3589 27.7163 32.4395 27.3098 32.44H16.5598C16.1533 32.4395 15.7509 32.3589 15.3756 32.2028C15.0003 32.0467 14.6594 31.8182 14.3725 31.5303C14.0855 31.2424 13.8581 30.9008 13.7032 30.525C13.5483 30.1492 13.469 29.7465 13.4698 29.34V19.98C13.4725 19.1623 13.7992 18.3789 14.3784 17.8015C14.9576 17.2242 15.742 16.9 16.5598 16.9H27.3098C28.1276 16.9 28.912 17.2242 29.4912 17.8015C30.0704 18.3789 30.3972 19.1623 30.3998 19.98V29.34Z" fill="#FCB316"/>
<path d="M21.9398 10.54C19.1443 10.5381 16.411 11.3653 14.0858 12.9172C11.7606 14.4691 9.94801 16.6758 8.87731 19.2581C7.8066 21.8404 7.52594 24.6823 8.07083 27.4242C8.61572 30.1661 9.96167 32.6847 11.9384 34.6615C13.9151 36.6382 16.4338 37.9841 19.1756 38.529C21.9175 39.0739 24.7594 38.7932 27.3417 37.7225C29.9241 36.6518 32.1308 34.8392 33.6826 32.514C35.2345 30.1888 36.0618 27.4555 36.0598 24.66C36.0548 20.9167 34.5655 17.3282 31.9186 14.6812C29.2717 12.0343 25.6831 10.5451 21.9398 10.54ZM21.9398 36.8C19.5407 36.802 17.1949 36.0925 15.1991 34.7613C13.2032 33.4301 11.6469 31.5369 10.727 29.3212C9.80707 27.1055 9.56484 24.6668 10.0309 22.3134C10.497 19.96 11.6505 17.7977 13.3455 16.0999C15.0405 14.4021 17.201 13.2451 19.5536 12.7751C21.9062 12.3051 24.3453 12.5433 26.5625 13.4596C28.7797 14.3758 30.6755 15.929 32.01 17.9227C33.3445 19.9163 34.0578 22.261 34.0598 24.66C34.0588 27.876 32.7821 30.9602 30.51 33.2361C28.2379 35.512 25.1557 36.7937 21.9398 36.8Z" fill="#2C3656"/>
<path d="M27.3102 16.8999H16.5602C15.7424 16.8999 14.958 17.2241 14.3788 17.8014C13.7996 18.3787 13.4729 19.1621 13.4702 19.9799V29.3399C13.4694 29.7464 13.5488 30.149 13.7036 30.5248C13.8585 30.9007 14.086 31.2423 14.3729 31.5302C14.6599 31.818 15.0007 32.0466 15.3761 32.2027C15.7514 32.3588 16.1538 32.4394 16.5602 32.4399H27.3102C27.7167 32.4394 28.1191 32.3588 28.4944 32.2027C28.8697 32.0466 29.2106 31.818 29.4976 31.5302C29.7845 31.2423 30.0119 30.9007 30.1668 30.5248C30.3217 30.149 30.401 29.7464 30.4002 29.3399V19.9799C30.3976 19.1621 30.0709 18.3787 29.4917 17.8014C28.9125 17.2241 28.128 16.8999 27.3102 16.8999ZM28.4002 29.3399C28.4018 29.484 28.3748 29.6269 28.3207 29.7604C28.2666 29.8939 28.1865 30.0154 28.0851 30.1177C27.9837 30.22 27.863 30.3012 27.73 30.3565C27.597 30.4118 27.4543 30.4402 27.3102 30.4399H16.5602C16.4162 30.4402 16.2735 30.4118 16.1405 30.3565C16.0074 30.3012 15.8867 30.22 15.7853 30.1177C15.6839 30.0154 15.6039 29.8939 15.5498 29.7604C15.4957 29.6269 15.4686 29.484 15.4702 29.3399V19.9799C15.4708 19.8374 15.4994 19.6964 15.5545 19.5649C15.6096 19.4335 15.69 19.3142 15.7913 19.2139C15.8925 19.1135 16.0125 19.0342 16.1445 18.9803C16.2764 18.9264 16.4177 18.8991 16.5602 18.8999H27.3102C27.4528 18.8991 27.594 18.9264 27.726 18.9803C27.8579 19.0342 27.978 19.1135 28.0792 19.2139C28.1804 19.3142 28.2609 19.4335 28.316 19.5649C28.3711 19.6964 28.3997 19.8374 28.4002 19.9799V29.3399ZM18.8702 73.8999C16.0752 73.8999 13.3429 74.7289 11.019 76.2819C8.69511 77.835 6.88404 80.0424 5.81487 82.6249C4.74569 85.2074 4.46646 88.049 5.01248 90.7902C5.5585 93.5314 6.90524 96.0491 8.88236 98.0249C10.8595 100.001 13.3781 101.346 16.1197 101.89C18.8614 102.434 21.7027 102.152 24.2845 101.081C26.8662 100.01 29.0723 98.1978 30.6238 95.8728C32.1752 93.5479 33.0022 90.815 33.0002 88.0199C32.9934 84.2754 31.5021 80.6864 28.8535 78.0396C26.2048 75.3928 22.6147 73.9041 18.8702 73.8999ZM18.8702 100.16C16.4716 100.16 14.1268 99.4487 12.1322 98.1163C10.1377 96.7839 8.58292 94.89 7.66454 92.6742C6.74615 90.4583 6.50536 88.0198 6.97259 85.6671C7.43981 83.3144 8.59409 81.153 10.2895 79.4562C11.9849 77.7594 14.1453 76.6034 16.4977 76.1342C18.85 75.665 21.2886 75.9038 23.5053 76.8204C25.7219 77.7369 27.617 79.2901 28.9511 81.2836C30.2852 83.277 30.9983 85.6212 31.0002 88.0199C30.9992 91.2376 29.7212 94.3233 27.4469 96.5995C25.1726 98.8756 22.0879 100.156 18.8702 100.16Z" fill="#2C3656"/>
</svg>
