<svg width="118" height="118" viewBox="0 0 118 118" fill="none" xmlns="http://www.w3.org/2000/svg">
<path d="M110.164 50.0395C108.762 47.7292 106.571 46.0049 103.995 45.1857C101.42 44.3665 98.6354 44.5078 96.1562 45.5835C93.677 46.6591 91.6714 48.5963 90.5103 51.0366C89.3492 53.4769 89.1113 56.2551 89.8406 58.8573C90.5699 61.4595 92.217 63.7095 94.4771 65.191C96.7373 66.6724 99.4576 67.2851 102.135 66.9157C104.812 66.5463 107.264 65.2197 109.039 63.1815C110.813 61.1432 111.79 58.5313 111.787 55.8288C111.785 53.7871 111.223 51.785 110.164 50.0395Z" fill="#FCB316"/>
<path d="M74.1188 74.4414V37.7139C74.1181 37.6555 74.0946 37.5996 74.0532 37.5583C74.0119 37.5169 73.9561 37.4934 73.8976 37.4927H43.7154C43.657 37.4934 43.6011 37.5169 43.5598 37.5583C43.5184 37.5996 43.4949 37.6555 43.4942 37.7139V52.3625C43.5034 52.381 43.5126 52.3902 43.531 52.3902L43.7062 52.5653C43.7897 52.6318 43.8668 52.7059 43.9367 52.7866C43.992 52.8511 44.0473 52.9249 44.1026 52.9894C44.1716 53.0656 44.2362 53.1456 44.2962 53.2291C44.3497 53.2934 44.399 53.3612 44.4437 53.4319C44.5013 53.5177 44.5537 53.607 44.6004 53.6992C44.6465 53.773 44.6834 53.8467 44.7203 53.9113C44.7663 54.0035 44.8124 54.1141 44.8493 54.2063C44.884 54.2783 44.9147 54.3522 44.9415 54.4275C44.9809 54.5301 45.0148 54.6347 45.0429 54.741C45.0686 54.8134 45.0902 54.8873 45.1074 54.9622C45.1351 55.0821 45.1535 55.2019 45.1812 55.331C45.1904 55.3955 45.1996 55.46 45.2088 55.5153C45.2273 55.7181 45.2457 55.9025 45.2457 56.0869C45.2481 56.7276 45.1229 57.3624 44.8776 57.9543C44.6323 58.5463 44.2717 59.0835 43.8168 59.5347C43.7154 59.6269 43.6048 59.7375 43.4942 59.8297V61.3416C43.5034 61.36 43.5126 61.36 43.531 61.3785C43.5956 61.4338 43.6509 61.4891 43.7062 61.5352C43.7876 61.6073 43.8645 61.6843 43.9367 61.7656C43.992 61.8394 44.0473 61.8947 44.1026 61.9685C44.1716 62.0447 44.2362 62.1247 44.2962 62.2082C44.3497 62.2725 44.399 62.3402 44.4437 62.411C44.499 62.5031 44.5543 62.5769 44.6004 62.6691C44.6465 62.7428 44.6834 62.8166 44.7203 62.8903C44.7663 62.9917 44.8124 63.0931 44.8493 63.1853C44.884 63.2574 44.9147 63.3313 44.9415 63.4066C44.9809 63.5092 45.0148 63.6138 45.0429 63.72C45.0686 63.7925 45.0902 63.8663 45.1074 63.9413C45.1351 64.0703 45.1535 64.181 45.1812 64.31C45.1904 64.3746 45.1996 64.4391 45.2088 64.4944C45.2273 64.688 45.2457 64.8816 45.2457 65.066C45.2493 65.7033 45.1256 66.335 44.8818 66.9239C44.638 67.5128 44.2791 68.047 43.826 68.4953C43.7154 68.606 43.6048 68.7166 43.4942 68.8088V70.3206C43.5034 70.3391 43.5126 70.3391 43.531 70.3575C43.5956 70.4128 43.6509 70.4681 43.7062 70.5235C43.7876 70.5956 43.8645 70.6726 43.9367 70.7539C43.992 70.8185 44.0473 70.8738 44.1026 70.9475C44.1716 71.0237 44.2362 71.1037 44.2962 71.1872C44.3497 71.2516 44.399 71.3193 44.4437 71.39C44.499 71.4822 44.5543 71.5744 44.6004 71.6481C44.6465 71.7219 44.6834 71.7956 44.7203 71.8694C44.7688 71.9652 44.8119 72.0637 44.8493 72.1644C44.884 72.2365 44.9147 72.3103 44.9415 72.3856C44.9823 72.4877 45.0161 72.5925 45.0429 72.6991C45.0686 72.7715 45.0902 72.8454 45.1074 72.9203C45.1351 73.0494 45.1535 73.16 45.1812 73.2891C45.1904 73.3628 45.1996 73.4181 45.2088 73.4735C45.2273 73.6671 45.2457 73.8607 45.2457 74.0542C45.248 74.6936 45.1228 75.327 44.8775 75.9174C44.6321 76.5078 44.2716 77.0434 43.8168 77.4928C43.7154 77.585 43.6048 77.6956 43.4942 77.7878V79.3181C43.5034 79.3181 43.5126 79.3366 43.531 79.3366C43.5939 79.3903 43.6525 79.4488 43.7062 79.5117C43.7876 79.5839 43.8645 79.6608 43.9367 79.7422C43.992 79.7975 44.0473 79.8713 44.1026 79.9266C44.1671 80.0003 44.2317 80.0925 44.2962 80.1663C44.3423 80.24 44.3976 80.3138 44.4437 80.3875C44.5033 80.4689 44.5557 80.5552 44.6004 80.6457C44.6465 80.7194 44.6834 80.7932 44.7203 80.8669L44.8585 81.1435C44.8862 81.2172 44.9138 81.291 44.9415 81.3831C44.9863 81.4838 45.0203 81.5888 45.0429 81.6966C45.0686 81.769 45.0902 81.8429 45.1074 81.9178C45.1351 82.0285 45.1535 82.1575 45.1812 82.2774C45.1904 82.3511 45.1996 82.3972 45.2088 82.471C45.2309 82.6607 45.2432 82.8515 45.2457 83.0425C45.2396 84.3292 44.7261 85.5615 43.8168 86.4719C43.7154 86.5733 43.6048 86.6747 43.4942 86.7669V89.3113C43.4938 89.3404 43.4993 89.3694 43.5102 89.3964C43.5212 89.4234 43.5375 89.4479 43.5581 89.4686C43.5788 89.4892 43.6033 89.5055 43.6303 89.5164C43.6573 89.5274 43.6862 89.5329 43.7154 89.5325H70.1824C69.9437 88.3334 69.8233 87.1138 69.8229 85.8911C69.8215 84.8428 69.9172 83.7966 70.1087 82.766C70.6887 79.6863 72.0721 76.8145 74.1188 74.4414ZM58.5668 74.635C56.3949 74.635 54.2717 73.9909 52.466 72.784C50.6602 71.5771 49.2529 69.8618 48.4222 67.855C47.5914 65.8483 47.3745 63.6402 47.7989 61.5101C48.2233 59.38 49.2699 57.4237 50.8064 55.8885C52.3428 54.3534 54.3 53.3084 56.4305 52.8858C58.5609 52.4632 60.7688 52.6819 62.7749 53.5144C64.781 54.3468 66.4951 55.7555 67.7004 57.5623C68.9058 59.3691 69.5482 61.4928 69.5463 63.6647C69.54 66.5739 68.3809 69.3619 66.323 71.4181C64.265 73.4744 61.476 74.6311 58.5668 74.635Z" fill="white"/>
<path d="M98.0509 72.3718L99.3139 73.7085C98.5693 74.3984 97.7237 74.9704 96.8064 75.4048L95.9951 73.7454C96.7456 73.3936 97.4386 72.9305 98.0509 72.3718Z" fill="#2C3656"/>
<path d="M105.748 53.8929C105.739 54.0957 105.73 54.3078 105.702 54.5198C105.664 54.9231 105.599 55.3234 105.509 55.7182C105.102 57.4604 104.117 59.0135 102.715 60.1248C101.427 61.061 99.9055 61.6226 98.318 61.7473C97.7067 61.8245 97.0867 61.7996 96.4835 61.6735C97.0758 61.429 97.6361 61.1132 98.1521 60.7332C98.2872 60.6216 98.3883 60.4743 98.4437 60.308C98.4991 60.1418 98.5067 59.9633 98.4655 59.7929C98.4224 59.6213 98.3308 59.4657 98.2017 59.3448C98.0725 59.2238 97.9113 59.1426 97.7373 59.1107C97.2244 59.0511 96.7356 58.8606 96.3176 58.5576C96.5221 58.4744 96.687 58.316 96.7785 58.1151C96.8433 57.9786 96.8738 57.8283 96.8674 57.6773C96.861 57.5263 96.8178 57.3791 96.7416 57.2485L96.6863 57.1564C96.6229 57.0504 96.5388 56.9582 96.439 56.8854C96.3392 56.8125 96.2258 56.7605 96.1055 56.7323C95.8644 56.6833 95.6356 56.5863 95.4329 56.4469C95.2301 56.3075 95.0576 56.1286 94.9255 55.921C95.1038 55.9135 95.2759 55.8535 95.4203 55.7485C95.5646 55.6436 95.6747 55.4983 95.7368 55.331C95.8025 55.1552 95.814 54.9636 95.7696 54.7812C95.7252 54.5987 95.6271 54.4338 95.4879 54.3078C95.2519 54.1132 95.057 53.8736 94.9146 53.603C94.7721 53.3323 94.685 53.036 94.6582 52.7314C96.3595 54.1384 98.4806 54.9394 100.687 55.0084C100.829 55.0168 100.97 54.99 101.099 54.9305C101.228 54.871 101.34 54.7806 101.425 54.6673C101.515 54.5584 101.578 54.4301 101.61 54.2926C101.642 54.155 101.642 54.0119 101.609 53.8745C101.565 53.7061 101.543 53.5324 101.545 53.3582C101.547 52.7902 101.774 52.2462 102.177 51.8453C102.58 51.4445 103.124 51.2195 103.693 51.2195C103.985 51.2195 104.275 51.2801 104.543 51.3975C104.811 51.5149 105.052 51.6866 105.251 51.9017C105.324 51.9792 105.412 52.0418 105.509 52.086C105.462 52.2982 105.491 52.5203 105.592 52.7129C105.645 52.8301 105.728 52.9316 105.831 53.0079C105.742 53.2938 105.714 53.5954 105.748 53.8929Z" fill="#25AAE3"/>
<path d="M93.5606 74.6488L94.0492 76.4188C93.123 76.6777 92.1806 76.8749 91.2283 77.0088L91.1361 76.4004L90.9609 75.1835C91.8377 75.0589 92.7059 74.8804 93.5606 74.6488ZM108.956 51.0166C108.876 50.947 108.79 50.8852 108.698 50.8322C108.745 50.7129 108.768 50.5852 108.765 50.4569C108.762 50.3286 108.732 50.2023 108.679 50.0855C108.621 49.9607 108.536 49.8504 108.43 49.7628C108.267 49.6227 108.057 49.5473 107.842 49.5507C107.626 49.5541 107.419 49.6361 107.26 49.7812C106.908 49.9692 106.537 50.1176 106.153 50.2237C105.448 49.6798 104.583 49.382 103.692 49.3756C102.686 49.3769 101.718 49.7572 100.98 50.4406C100.242 51.124 99.7881 52.0603 99.7095 53.0631C97.8092 52.8026 96.0858 51.8103 94.9065 50.2975C94.8167 50.188 94.7043 50.0992 94.5771 50.0372C94.4498 49.9751 94.3106 49.9413 94.169 49.938C94.0255 49.9407 93.8844 49.9762 93.7566 50.0417C93.6288 50.1072 93.5176 50.201 93.4315 50.3159C93.1087 50.8472 92.9059 51.4426 92.8375 52.0605C92.769 52.6784 92.8364 53.3037 93.0351 53.8928C92.9373 53.9782 92.8581 54.0828 92.8026 54.2002C92.7471 54.3176 92.7164 54.4452 92.7125 54.575C92.7 55.6884 93.1273 56.7617 93.9017 57.5619C93.8445 57.7599 93.8575 57.9716 93.9386 58.1611C94.1903 58.9453 94.6801 59.6316 95.3398 60.1247C94.6438 60.3469 93.9093 60.4222 93.1826 60.3459C93.0155 60.3299 92.8472 60.3599 92.6958 60.4326C92.5445 60.5052 92.4158 60.6179 92.3238 60.7583C92.2318 60.8987 92.1798 61.0616 92.1736 61.2294C92.1674 61.3971 92.2071 61.5634 92.2884 61.7103C92.3536 61.8494 92.4598 61.9652 92.5926 62.0422C94.12 63.0042 95.8693 63.5566 97.6722 63.6462C97.9806 63.64 98.2885 63.6154 98.594 63.5725C100.51 63.4043 102.34 62.7016 103.876 61.5444C105.591 60.1834 106.797 58.283 107.297 56.1514C107.411 55.6723 107.492 55.1855 107.536 54.6948C107.564 54.4644 107.582 54.2247 107.592 53.9666V53.8006C108.13 53.3298 108.618 52.8046 109.048 52.2334C109.178 52.0522 109.241 51.8308 109.224 51.6082C109.207 51.3856 109.112 51.1761 108.956 51.0166ZM96.4829 61.6734C97.0752 61.4289 97.6356 61.1131 98.1515 60.7331C98.2867 60.6215 98.3877 60.4742 98.4431 60.3079C98.4986 60.1417 98.5061 59.9632 98.465 59.7928C98.4219 59.6212 98.3303 59.4656 98.2011 59.3447C98.072 59.2237 97.9107 59.1424 97.7367 59.1106C97.2239 59.051 96.735 58.8605 96.317 58.5575C96.5215 58.4742 96.6864 58.3159 96.7779 58.115C96.8427 57.9784 96.8732 57.8281 96.8668 57.6771C96.8604 57.5261 96.8172 57.379 96.7411 57.2484L96.6858 57.1562C96.6223 57.0502 96.5382 56.9581 96.4384 56.8852C96.3386 56.8124 96.2253 56.7603 96.105 56.7322C95.8639 56.6832 95.6351 56.5862 95.4323 56.4468C95.2296 56.3074 95.057 56.1285 94.925 55.9209C95.1033 55.9134 95.2754 55.8534 95.4197 55.7484C95.564 55.6435 95.6741 55.4982 95.7362 55.3309C95.802 55.1551 95.8134 54.9635 95.769 54.781C95.7246 54.5986 95.6265 54.4337 95.4873 54.3076C95.2513 54.1131 95.0564 53.8735 94.914 53.6028C94.7716 53.3322 94.6844 53.0359 94.6576 52.7312C96.359 54.1382 98.48 54.9393 100.687 55.0083C100.828 55.0167 100.97 54.9899 101.098 54.9304C101.227 54.8709 101.339 54.7805 101.424 54.6672C101.514 54.5583 101.578 54.43 101.61 54.2924C101.642 54.1549 101.641 54.0118 101.609 53.8744C101.564 53.706 101.542 53.5323 101.544 53.3581C101.546 52.79 101.774 52.2461 102.176 51.8452C102.579 51.4444 103.124 51.2194 103.692 51.2194C103.985 51.2194 104.274 51.28 104.542 51.3974C104.811 51.5148 105.051 51.6865 105.25 51.9016C105.323 51.979 105.411 52.0416 105.508 52.0859C105.461 52.2981 105.49 52.5202 105.591 52.7128C105.644 52.83 105.727 52.9315 105.831 53.0078C105.741 53.2937 105.713 53.5952 105.748 53.8928C105.739 54.0956 105.729 54.3076 105.702 54.5197C105.663 54.9229 105.599 55.3233 105.508 55.7181C105.101 57.4602 104.117 59.0134 102.715 60.1247C101.427 61.0609 99.9049 61.6224 98.3175 61.7472C97.7061 61.8244 97.0862 61.7995 96.4829 61.6734ZM90.795 15.3262C90.7932 15.1613 90.8405 14.9996 90.931 14.8618C91.0214 14.7239 91.1509 14.6162 91.3029 14.5522C91.4548 14.4883 91.6224 14.4711 91.7842 14.5028C91.946 14.5345 92.0947 14.6137 92.2113 14.7303C92.3279 14.8469 92.4071 14.9956 92.4388 15.1574C92.4705 15.3192 92.4533 15.4868 92.3894 15.6387C92.3254 15.7907 92.2177 15.9202 92.0798 16.0106C91.942 16.1011 91.7803 16.1485 91.6154 16.1466C91.3981 16.1457 91.19 16.0589 91.0364 15.9052C90.8827 15.7516 90.7959 15.5435 90.795 15.3262Z" fill="#2C3656"/>
<path d="M100.604 42.8119C97.2327 42.8113 93.9925 44.1191 91.5659 46.4599C89.1394 48.8006 87.7159 51.9917 87.5953 55.3611C87.4746 58.7304 88.6661 62.0151 90.919 64.5235C93.1718 67.0319 96.3102 68.5681 99.6731 68.8087C99.6498 69.3651 99.5442 69.915 99.3597 70.4405L101.084 71.095C101.356 70.3625 101.505 69.59 101.526 68.8087C104.893 68.5747 108.037 67.0418 110.296 64.5335C112.554 62.0252 113.749 58.7377 113.63 55.3648C113.51 51.9918 112.085 48.7973 109.654 46.4552C107.224 44.1132 103.979 42.8068 100.604 42.8119ZM100.604 67.0203C98.3934 67.0199 96.2324 66.3642 94.3943 65.1359C92.5562 63.9077 91.1234 62.162 90.2771 60.1197C89.4309 58.0773 89.2091 55.8299 89.6398 53.6615C90.0705 51.4932 91.1344 49.5011 92.697 47.9373C94.2596 46.3734 96.2507 45.3079 98.4187 44.8753C100.587 44.4428 102.834 44.6628 104.877 45.5074C106.92 46.352 108.667 47.7833 109.897 49.6204C111.127 51.4575 111.784 53.618 111.787 55.8287C111.793 57.2994 111.508 58.7567 110.948 60.1166C110.388 61.4766 109.565 62.7124 108.525 63.7527C107.486 64.793 106.251 65.6173 104.891 66.1781C103.532 66.739 102.075 67.0252 100.604 67.0203ZM87.5965 15.3262C87.5947 15.1613 87.6421 14.9996 87.7325 14.8618C87.823 14.7239 87.9525 14.6162 88.1044 14.5522C88.2564 14.4883 88.424 14.4711 88.5858 14.5028C88.7476 14.5345 88.8963 14.6137 89.0129 14.7303C89.1294 14.8469 89.2086 14.9956 89.2404 15.1574C89.2721 15.3192 89.2549 15.4868 89.1909 15.6387C89.127 15.7907 89.0192 15.9202 88.8814 16.0106C88.7435 16.1011 88.5819 16.1485 88.417 16.1466C88.1997 16.1457 87.9916 16.0589 87.8379 15.9052C87.6843 15.7516 87.5975 15.5435 87.5965 15.3262Z" fill="#2C3656"/>
<path d="M92.999 12.6758C92.9068 12.5375 91.3949 10.3619 87.2096 10.6569H87.1727C85.8729 10.8597 82.7754 11.6525 82.1393 14.75C82.1208 14.879 81.6138 18.5481 86.6841 19.8387C87.3755 19.894 88.2052 20.1245 88.4357 20.8251C88.4909 21.0012 88.5189 21.1846 88.5186 21.369C89.935 20.556 91.2501 19.5781 92.4366 18.4559C94.2527 16.4831 94.4371 14.5933 92.999 12.6758ZM85.2275 16.1512C85.0631 16.1531 84.9018 16.106 84.7641 16.0159C84.6265 15.9259 84.5187 15.7969 84.4545 15.6455C84.3903 15.4941 84.3725 15.327 84.4035 15.1654C84.4344 15.0039 84.5127 14.8552 84.6284 14.7382C84.744 14.6212 84.8919 14.5413 85.053 14.5085C85.2142 14.4758 85.3815 14.4917 85.5337 14.5542C85.6858 14.6167 85.8159 14.723 85.9075 14.8597C85.9991 14.9963 86.048 15.1571 86.048 15.3215C86.048 15.54 85.9619 15.7497 85.8083 15.905C85.6547 16.0603 85.446 16.1488 85.2275 16.1512ZM88.4172 16.1512C88.2531 16.1512 88.0927 16.1026 87.9563 16.0114C87.8198 15.9202 87.7135 15.7907 87.6507 15.6391C87.5879 15.4874 87.5715 15.3206 87.6035 15.1597C87.6355 14.9987 87.7145 14.8509 87.8306 14.7349C87.9466 14.6188 88.0944 14.5398 88.2554 14.5078C88.4163 14.4758 88.5831 14.4922 88.7347 14.555C88.8864 14.6178 89.0159 14.7242 89.1071 14.8606C89.1983 14.997 89.2469 15.1575 89.2469 15.3215C89.2477 15.4307 89.2267 15.5389 89.1853 15.6399C89.1438 15.7409 89.0827 15.8327 89.0056 15.9099C88.9284 15.9871 88.8366 16.0481 88.7356 16.0896C88.6346 16.131 88.5264 16.152 88.4172 16.1512ZM91.6161 16.1512C91.452 16.1512 91.2916 16.1026 91.1552 16.0114C91.0188 15.9202 90.9124 15.7907 90.8496 15.6391C90.7868 15.4874 90.7704 15.3206 90.8024 15.1597C90.8344 14.9987 90.9134 14.8509 91.0295 14.7349C91.1455 14.6188 91.2933 14.5398 91.4543 14.5078C91.6152 14.4758 91.782 14.4922 91.9337 14.555C92.0853 14.6178 92.2148 14.7242 92.306 14.8606C92.3972 14.997 92.4458 15.1575 92.4458 15.3215C92.4466 15.4307 92.4256 15.5389 92.3842 15.6399C92.3427 15.7409 92.2816 15.8327 92.2045 15.9099C92.1273 15.9871 92.0355 16.0481 91.9345 16.0896C91.8335 16.131 91.7253 16.152 91.6161 16.1512Z" fill="#25AAE3"/>
<path d="M91.2932 105.905L67.6287 110.828L65.5821 102.752C65.6676 102.668 65.7353 102.567 65.7812 102.457C65.8271 102.346 65.8504 102.227 65.8495 102.107C65.8473 101.863 65.7495 101.63 65.5771 101.457C65.4047 101.285 65.1714 101.187 64.9276 101.185C63.8832 101.225 62.8429 101.032 61.8828 100.619C60.9227 100.205 60.0669 99.5832 59.3779 98.7973H72.8189C73.2045 98.802 73.5841 98.7004 73.9158 98.5036C74.2475 98.3068 74.5187 98.0225 74.6995 97.6818C74.8818 97.3404 74.9678 96.9559 74.9483 96.5694C74.9288 96.1829 74.8046 95.809 74.5889 95.4877C74.5585 95.4304 74.5246 95.375 74.4875 95.3218C74.3768 95.1374 74.257 94.9715 74.1556 94.7871C74.0137 94.5609 73.8844 94.327 73.7684 94.0865C73.6946 93.9574 73.6209 93.8283 73.5379 93.6532C73.289 93.1646 73.077 92.6668 72.8742 92.1505L72.7082 91.708C72.6161 91.4499 72.5423 91.1826 72.4593 90.9152C72.3856 90.694 72.3026 90.4543 72.2473 90.2146L72.2012 90.0394C71.6117 87.7787 71.5143 85.4178 71.9154 83.1162C72.188 81.6822 72.6564 80.2925 73.3075 78.9862C73.9411 77.6866 74.7541 76.4826 75.7228 75.4093C76.4417 74.6134 77.2489 73.9021 78.1289 73.289L78.5253 73.0124L78.6912 57.7462C78.7003 57.2415 78.7715 56.7399 78.9032 56.2527L78.977 56.0776V56.0315C79.2943 54.9849 79.8988 54.0483 80.7217 53.328C81.5446 52.6077 82.5531 52.1327 83.6325 51.9568V63.388C83.6314 64.3081 83.7744 65.2226 84.0565 66.0983L85.5868 70.7999C86.0939 72.3855 86.5917 73.9343 86.9604 75.5015C86.1492 75.5107 85.6329 75.483 85.6237 75.483L85.5223 77.3268C85.5223 77.3268 85.9095 77.3452 86.564 77.3452C86.7853 77.3452 87.0434 77.3452 87.3292 77.3268C87.4214 77.9168 87.5043 78.516 87.5504 79.1244C87.7026 81.9931 87.6841 84.8683 87.4951 87.7348C87.4214 89.3849 87.3384 91.0812 87.3292 92.7405C87.3107 93.1277 87.4859 93.6993 88.5276 96.3912C88.7581 96.9996 88.9609 97.4974 89.0162 97.6818L91.2932 105.905Z" fill="#F6F8F9"/>
<path d="M85.2275 16.1466C85.0627 16.1485 84.901 16.1011 84.7631 16.0106C84.6253 15.9202 84.5175 15.7907 84.4536 15.6387C84.3897 15.4868 84.3725 15.3192 84.4042 15.1574C84.4359 14.9956 84.5151 14.8469 84.6317 14.7303C84.7483 14.6137 84.8969 14.5345 85.0587 14.5028C85.2205 14.4711 85.3881 14.4883 85.5401 14.5522C85.6921 14.6162 85.8216 14.7239 85.912 14.8618C86.0025 14.9996 86.0498 15.1613 86.048 15.3262C86.047 15.5435 85.9603 15.7516 85.8066 15.9052C85.653 16.0589 85.4448 16.1457 85.2275 16.1466Z" fill="#2C3656"/>
<path d="M87.9188 7.02466C86.2131 7.02375 84.5454 7.52865 83.1267 8.47553C81.708 9.4224 80.6019 10.7687 79.9483 12.3442C79.2947 13.9197 79.123 15.6537 79.4549 17.3268C79.7867 18.9999 80.6073 20.537 81.8127 21.7437C83.0182 22.9505 84.5544 23.7727 86.2272 24.1063C87.8999 24.44 89.634 24.2701 91.2102 23.6182C92.7864 22.9663 94.1339 21.8617 95.0823 20.4439C96.0307 19.0262 96.5374 17.3591 96.5383 15.6534C96.5354 13.3674 95.6266 11.1758 94.0111 9.55844C92.3955 7.94114 90.2048 7.03002 87.9188 7.02466ZM93.7911 19.7097C92.1534 21.2428 90.3142 22.5454 88.3244 23.5815C88.1238 23.658 87.9121 23.7016 87.6975 23.7106C87.4402 23.7157 87.1892 23.6309 86.9877 23.4709C86.8291 23.3483 86.7038 23.1878 86.6233 23.0042C86.5427 22.8206 86.5096 22.6197 86.5268 22.42L86.5729 21.9222C86.5819 21.8722 86.5942 21.823 86.6097 21.7747C86.6123 21.7433 86.6185 21.7124 86.6282 21.6825C86.5729 21.6825 86.5175 21.664 86.4622 21.664C86.4126 21.6624 86.3632 21.6563 86.3147 21.6456C79.4652 19.9493 80.3133 14.4734 80.3225 14.4181C81.226 10.0115 85.5864 9.03435 86.9047 8.83153C86.9232 8.83153 87.0154 8.83153 87.0338 8.8131C92.4083 8.42591 94.4364 11.505 94.5194 11.634C96.4461 14.2061 96.2064 17.0915 93.7911 19.7097Z" fill="#FCB316"/>
<path d="M87.9188 5.18091C85.8484 5.18 83.8243 5.79304 82.1024 6.94251C80.3804 8.09197 79.038 9.72625 78.2449 11.6387C77.4517 13.5511 77.2435 15.6557 77.6465 17.6865C78.0495 19.7172 79.0457 21.5829 80.509 23.0475C81.9723 24.5121 83.8371 25.5099 85.8675 25.9147C87.8979 26.3195 90.0027 26.1131 91.9158 25.3216C93.8289 24.5302 95.4644 23.1892 96.6154 21.4683C97.7663 19.7474 98.3812 17.7238 98.3821 15.6534C98.3823 12.8775 97.2803 10.215 95.3183 8.25122C93.3562 6.28746 90.6948 5.18311 87.9188 5.18091ZM87.9188 24.2729C86.2127 24.2739 84.5447 23.7687 83.1257 22.8214C81.7068 21.8742 80.6007 20.5273 79.9474 18.9512C79.2941 17.3752 79.1229 15.6408 79.4555 13.9674C79.7881 12.2941 80.6096 10.757 81.816 9.55061C83.0224 8.34423 84.5595 7.52276 86.2328 7.19015C87.9062 6.85753 89.6406 7.0287 91.2166 7.68202C92.7927 8.33533 94.1395 9.44142 95.0868 10.8604C96.0341 12.2793 96.5392 13.9473 96.5383 15.6534C96.5352 17.9385 95.626 20.129 94.0102 21.7448C92.3944 23.3606 90.2039 24.2698 87.9188 24.2729Z" fill="#2C3656"/>
<path d="M94.5194 11.6341C94.4364 11.5051 92.4083 8.42601 87.0338 8.81319C87.0154 8.83163 86.9232 8.83163 86.9047 8.83163C85.5864 9.03444 81.226 10.0116 80.3225 14.4182C80.3133 14.4735 79.4652 19.9494 86.3147 21.6457C86.3632 21.6564 86.4126 21.6625 86.4622 21.6641C86.5175 21.6641 86.5728 21.6826 86.6282 21.6826C86.6185 21.7125 86.6123 21.7434 86.6097 21.7748C86.5942 21.8231 86.5819 21.8723 86.5729 21.9223L86.5268 22.4201C86.5095 22.6198 86.5427 22.8207 86.6233 23.0043C86.7038 23.1879 86.8291 23.3484 86.9877 23.471C87.1892 23.631 87.4402 23.7158 87.6975 23.7107C87.9121 23.7017 88.1238 23.6581 88.3244 23.5816C90.3142 22.5455 92.1534 21.2429 93.7911 19.7098C96.2064 17.0916 96.4461 14.2062 94.5194 11.6341ZM88.518 21.3691C88.5182 21.1847 88.4902 21.0012 88.435 20.8252C88.2046 20.1246 87.3749 19.8941 86.6835 19.8388C81.6132 18.5482 82.1202 14.8791 82.1386 14.7501C82.7747 11.6526 85.8722 10.8598 87.1721 10.6569H87.2089C91.3943 10.3619 92.9061 12.5376 92.9983 12.6758C94.4364 14.5933 94.2521 16.4832 92.436 18.456C91.2495 19.5782 89.9344 20.5561 88.518 21.3691ZM77.096 15.3262L77.308 17.1516C76.5521 17.2437 75.833 17.3544 75.16 17.5019L74.7728 15.7042C75.5011 15.5475 76.2847 15.4184 77.096 15.3262ZM71.9796 16.5431L72.671 18.2578C71.8784 18.5713 71.1238 18.9733 70.4216 19.4562L69.3614 17.9444C70.1782 17.3795 71.0565 16.9094 71.9796 16.5431ZM67.1674 20.0186L68.6239 21.1525C68.1111 21.8058 67.7065 22.5373 67.4255 23.3189L65.6924 22.6828C66.0436 21.7239 66.5412 20.8252 67.1674 20.0186Z" fill="#2C3656"/>
<path d="M67.6564 62.8351H62.8811C62.8341 61.9977 62.72 61.1653 62.54 60.3461C63.9342 60.1476 65.3116 59.8456 66.6608 59.4426C67.2097 60.4981 67.5479 61.6504 67.6564 62.8351Z" fill="#FCB316"/>
<path d="M65.2506 28.6704C65.1024 27.9642 65.0313 27.244 65.0386 26.5225C65.0386 26.2459 65.0478 25.9509 65.0755 25.6375L66.91 25.7665C66.8916 26.0339 66.8823 26.2828 66.8823 26.5225C66.8713 27.1016 66.927 27.68 67.0483 28.2464L65.2506 28.6704Z" fill="#2C3656"/>
<path d="M67.6381 64.6787C67.5137 65.8005 67.1791 66.8889 66.6517 67.8868C65.3296 67.4876 63.9801 67.1856 62.6139 66.9834C62.7616 66.2229 62.854 65.4526 62.8905 64.6787H67.6381ZM65.5916 69.4909C64.2347 71.1289 62.3455 72.2383 60.2539 72.6253C61.0724 71.4488 61.7095 70.1561 62.1438 68.7903C63.3084 68.9403 64.4607 69.1745 65.5916 69.4909Z" fill="#FCB316"/>
<path d="M63.3784 94.0867C63.3775 94.1939 63.3344 94.2966 63.2586 94.3724C63.1827 94.4483 63.0801 94.4913 62.9728 94.4923H54.4916C54.3843 94.4913 54.2817 94.4483 54.2058 94.3724C54.1299 94.2966 54.0869 94.1939 54.0859 94.0867C54.0861 94.0302 54.0955 93.9742 54.1136 93.9207C54.1453 93.846 54.1978 93.782 54.2648 93.7363C54.3318 93.6905 54.4105 93.665 54.4916 93.6626H62.9728C63.0819 93.6678 63.1848 93.7147 63.2603 93.7936C63.3358 93.8725 63.3781 93.9774 63.3784 94.0867Z" fill="#F6F8F9"/>
<path d="M65.5914 57.8384C64.4252 58.1507 63.2395 58.3848 62.0422 58.539C61.5725 57.1429 60.8848 55.8299 60.0048 54.6487C62.1944 54.9929 64.1819 56.1277 65.5914 57.8384ZM60.2629 68.6059C59.8426 69.8433 59.2196 71.0022 58.4192 72.0352C57.6256 70.9978 57.0032 69.84 56.5754 68.6059C57.8033 68.5274 59.035 68.5274 60.2629 68.6059ZM60.1523 58.7049C59.0012 58.7753 57.8471 58.7814 56.6953 58.7234C57.1121 57.6078 57.6931 56.5606 58.4192 55.6167C59.1442 56.5562 59.7281 57.5966 60.1523 58.7049ZM61.0465 62.8349H55.8011C55.8502 62.0652 55.9612 61.3006 56.1329 60.5487C56.8428 60.604 57.5895 60.6409 58.3823 60.6409C59.129 60.6409 59.9126 60.6132 60.7147 60.5395C60.8826 61.2952 60.9935 62.0626 61.0465 62.8349ZM61.0557 64.6787C61.0114 65.3848 60.919 66.087 60.7792 66.7806C59.211 66.6651 57.6365 66.6651 56.0684 66.7806C55.9286 66.087 55.8362 65.3848 55.7918 64.6787H61.0557ZM56.8059 54.6948C55.94 55.8705 55.262 57.1736 54.7962 58.5574C53.6673 58.4167 52.547 58.2136 51.4406 57.949C52.795 56.272 54.6928 55.1209 56.8059 54.6948ZM56.5478 72.5699C54.5339 72.1088 52.7344 70.9818 51.4406 69.371C52.517 69.1181 53.6064 68.9242 54.704 68.7903C55.1302 70.1336 55.7514 71.4071 56.5478 72.5699ZM54.2984 60.3643C54.1242 61.1784 54.0102 62.0041 53.9573 62.8349H49.4678C49.5727 61.7057 49.8852 60.6056 50.3896 59.5899C51.671 59.9468 52.9777 60.2057 54.2984 60.3643ZM54.2246 66.9649C52.9323 67.1398 51.6517 67.3922 50.3896 67.7209C49.911 66.7682 49.6052 65.7382 49.4862 64.6787H53.9573C53.9901 65.4463 54.0795 66.2105 54.2246 66.9649Z" fill="#FCB316"/>
<path d="M48.5181 29.9287L46.6928 30.1776C46.5804 29.3063 46.4079 28.4438 46.1766 27.5963L47.9558 27.0985C48.206 28.0283 48.3938 28.9738 48.5181 29.9287ZM46.9325 24.3605L45.2731 25.1626C44.9023 24.3957 44.4478 23.6723 43.918 23.0054L45.3561 21.853C45.9755 22.626 46.5044 23.4673 46.9325 24.3605Z" fill="#2C3656"/>
<path d="M43.4017 65.0659C43.4033 65.4633 43.3259 65.857 43.174 66.2242C43.022 66.5913 42.7986 66.9246 42.5167 67.2047C42.3713 67.3376 42.2174 67.4608 42.0558 67.5734C41.5672 67.9086 40.9889 68.0885 40.3964 68.0897H37.5478C37.2805 68.0873 37.0249 67.9793 36.8367 67.7894C36.6485 67.5995 36.543 67.343 36.543 67.0756V63.0655C36.5454 62.8006 36.6523 62.5473 36.8405 62.3609C37.0287 62.1744 37.2829 62.0698 37.5478 62.0698H40.3964C40.988 62.0678 41.5664 62.2445 42.0558 62.5769C42.4681 62.8485 42.8067 63.218 43.0416 63.6523C43.2764 64.0866 43.4001 64.5722 43.4017 65.0659ZM43.4017 74.0542C43.4024 74.4501 43.3245 74.8421 43.1726 75.2077C43.0207 75.5732 42.7978 75.905 42.5167 76.1837C41.9476 76.7355 41.189 77.0488 40.3964 77.0595H37.5478C37.2815 77.0588 37.0264 76.9527 36.8381 76.7644C36.6498 76.5761 36.5437 76.321 36.543 76.0547V72.0537C36.543 71.7864 36.6485 71.5298 36.8367 71.3399C37.0249 71.15 37.2805 71.0421 37.5478 71.0397H40.3964C40.9896 71.0364 41.5692 71.2168 42.0558 71.5559C42.4691 71.8287 42.8084 72.1996 43.0433 72.6356C43.2782 73.0716 43.4013 73.559 43.4017 74.0542ZM43.4017 83.0425C43.4015 83.4368 43.3232 83.8272 43.1713 84.1911C43.0194 84.5551 42.7969 84.8853 42.5167 85.1628C42.3761 85.3011 42.2216 85.4247 42.0558 85.5316C41.5664 85.8639 40.988 86.0407 40.3964 86.0386H37.5478C37.2829 86.0386 37.0287 85.934 36.8405 85.7475C36.6523 85.5611 36.5454 85.3079 36.543 85.043V81.042C36.5425 80.9099 36.5681 80.779 36.6185 80.6569C36.6688 80.5348 36.7428 80.4238 36.8362 80.3304C36.9296 80.237 37.0406 80.163 37.1627 80.1127C37.2848 80.0624 37.4157 80.0367 37.5478 80.0372H40.3964C40.9871 80.0319 41.5656 80.2054 42.0558 80.535C42.4686 80.8104 42.8074 81.1833 43.0421 81.6206C43.2768 82.0578 43.4003 82.5462 43.4017 83.0425Z" fill="#F6F8F9"/>
<path d="M43.19 19.7789L42.1021 21.2724C41.4206 20.7724 40.6769 20.3633 39.8896 20.0555L40.5718 18.3408C41.5027 18.7056 42.3827 19.189 43.19 19.7789Z" fill="#2C3656"/>
<path d="M43.4017 56.0869C43.4033 56.4842 43.3259 56.8779 43.1739 57.2451C43.022 57.6123 42.7986 57.9455 42.5167 58.2256C42.3713 58.3585 42.2174 58.4817 42.0558 58.5944C41.5656 58.9239 40.9871 59.0975 40.3964 59.0922H37.5478C37.4164 59.0929 37.2862 59.0677 37.1645 59.018C37.0429 58.9684 36.9323 58.8952 36.8389 58.8027C36.7456 58.7103 36.6714 58.6003 36.6206 58.4791C36.5698 58.3579 36.5435 58.2279 36.543 58.0965V54.0772C36.5478 53.813 36.6555 53.5612 36.8431 53.3752C37.0308 53.1893 37.2836 53.0839 37.5478 53.0815H40.3964C40.9889 53.0827 41.5672 53.2626 42.0558 53.5978H42.065C42.4761 53.8699 42.8134 54.2397 43.0467 54.674C43.28 55.1084 43.4019 55.5938 43.4017 56.0869Z" fill="#F6F8F9"/>
<path d="M77.133 53.8928C77.133 54.6118 77.1238 55.2756 77.133 55.755C76.9485 56.3965 76.8524 57.0602 76.8473 57.7278L76.6905 72.0537C76.4416 72.2381 76.202 72.4225 75.9623 72.6253V37.7139C75.9628 37.4425 75.9097 37.1738 75.8061 36.923C75.7025 36.6723 75.5504 36.4444 75.3585 36.2526C75.1667 36.0607 74.9388 35.9087 74.6881 35.8051C74.4373 35.7015 74.1686 35.6484 73.8973 35.6489H43.7151C43.1676 35.6496 42.6428 35.8674 42.2557 36.2545C41.8686 36.6416 41.6508 37.1664 41.6501 37.7139V51.4037C41.5322 51.3703 41.412 51.3457 41.2905 51.33C41.2215 51.3095 41.1504 51.2971 41.0785 51.2931C40.853 51.2564 40.6248 51.2379 40.3963 51.2378L40.3595 34.1093C40.3586 34.0735 40.3649 34.038 40.3779 34.0046C40.3909 33.9713 40.4104 33.9409 40.4353 33.9151C40.4602 33.8894 40.4899 33.8689 40.5228 33.8547C40.5557 33.8406 40.591 33.8331 40.6268 33.8328H76.8473C76.8831 33.8331 76.9184 33.8406 76.9513 33.8547C76.9842 33.8689 77.0139 33.8894 77.0388 33.9151C77.0637 33.9409 77.0832 33.9713 77.0962 34.0046C77.1092 34.038 77.1155 34.0735 77.1146 34.1093L77.1423 52.0121C77.1423 52.6206 77.1423 53.2659 77.133 53.8928ZM73.0584 96.4926C72.7263 96.011 72.4246 95.5091 72.1549 94.99C72.0534 94.8167 71.9611 94.6383 71.8784 94.4553C71.7677 94.234 71.6479 93.9943 71.5373 93.727C71.4716 93.6013 71.4132 93.4721 71.3621 93.3398C71.3252 93.2568 71.2884 93.1646 71.2515 93.0725C71.0229 92.5176 70.8229 91.9515 70.6523 91.3762H43.7151C43.1676 91.3755 42.6428 91.1577 42.2557 90.7706C41.8686 90.3835 41.6508 89.8587 41.6501 89.3112V87.7256C41.5395 87.744 41.4196 87.7625 41.2998 87.7809C41.2272 87.8037 41.1533 87.8221 41.0785 87.8362C40.8527 87.8696 40.6246 87.885 40.3963 87.8823H40.3595V96.7047C40.3635 96.7726 40.3935 96.8363 40.4433 96.8827C40.4931 96.929 40.5588 96.9544 40.6268 96.9536H72.8187C72.87 96.9551 72.9209 96.9431 72.9662 96.9188C73.0115 96.8946 73.0496 96.8589 73.0768 96.8153C73.0915 96.773 73.1038 96.7299 73.1137 96.6862C73.1135 96.6178 73.0944 96.5508 73.0584 96.4926ZM62.973 96.3359H54.4918C54.1961 96.337 53.9031 96.2796 53.6297 96.1669C53.3563 96.0543 53.1079 95.8886 52.8988 95.6795C52.6897 95.4704 52.5241 95.222 52.4114 94.9486C52.2988 94.6752 52.2413 94.3822 52.2424 94.0865C52.243 93.6349 52.3743 93.1931 52.6204 92.8143C52.8299 92.5107 53.1092 92.2619 53.4348 92.0886C53.7605 91.9154 54.123 91.8228 54.4918 91.8187H62.973C63.5721 91.8187 64.1465 92.0567 64.5701 92.4802C64.9937 92.9038 65.2316 93.4783 65.2316 94.0773C65.2316 94.6763 64.9937 95.2508 64.5701 95.6744C64.1465 96.0979 63.5721 96.3359 62.973 96.3359Z" fill="#DEE1E9"/>
<path d="M38.2953 98.9585L35.8613 99.9453L36.5527 101.651L38.9867 100.664L38.2953 98.9585Z" fill="#2C3656"/>
<path d="M37.6957 17.5664L37.4192 19.3917C36.8398 19.3005 36.2542 19.2543 35.6676 19.2534C35.2159 19.2534 34.9393 19.2903 34.9117 19.2903L34.6904 17.4557C35.015 17.4217 35.3413 17.4063 35.6676 17.4096C36.3466 17.4114 37.0245 17.4638 37.6957 17.5664ZM93.3401 106.366L90.7865 97.1657C90.7036 96.926 90.5007 96.3728 90.2518 95.7275C89.9015 94.8241 89.2562 93.1647 89.1732 92.7591C89.1825 91.1089 89.2654 89.4403 89.3392 87.8178C89.5299 84.8775 89.5453 81.9284 89.3853 78.9863C89.3207 78.2027 89.2286 77.4375 89.0995 76.7C88.6642 74.5104 88.0758 72.3541 87.3387 70.2469L85.8084 65.5269C85.5883 64.8353 85.4764 64.1139 85.4765 63.3881V50.9428C85.4721 50.6945 85.3732 50.4571 85.2 50.2791C85.112 50.1942 85.008 50.1277 84.894 50.0833C84.7801 50.039 84.6584 50.0178 84.5362 50.021C83.4972 50.0355 82.4715 50.2565 81.5188 50.6712C80.566 51.0858 79.7052 51.6858 78.9865 52.4363V52.0122L78.9589 34.1094C78.9589 33.5487 78.7367 33.0107 78.3411 32.6134C77.9455 32.216 77.4085 31.9915 76.8478 31.9891H40.6273C40.0666 31.9915 39.5296 32.216 39.134 32.6134C38.7383 33.0107 38.5162 33.5487 38.5162 34.1094V51.2378H37.5482C36.7943 51.2378 36.0712 51.5367 35.5372 52.0689C35.0033 52.6011 34.7021 53.3233 34.6996 54.0772V58.0966C34.7021 58.6062 34.8411 59.1059 35.1021 59.5437C35.3631 59.9814 35.7367 60.3412 36.1839 60.5856C35.7378 60.829 35.3649 61.1873 35.1039 61.6234C34.8429 62.0594 34.7034 62.5573 34.6996 63.0655V67.0756C34.7021 67.5853 34.8411 68.085 35.1021 68.5227C35.3631 68.9605 35.7367 69.3203 36.1839 69.5647C35.7351 69.8073 35.3603 70.1667 35.099 70.6049C34.8377 71.043 34.6997 71.5436 34.6996 72.0538V76.0547C34.7019 76.5655 34.8418 77.0663 35.1046 77.5043C35.3675 77.9423 35.7434 78.3014 36.1931 78.5438C35.7423 78.7872 35.3657 79.1478 35.1028 79.5875C34.84 80.0273 34.7007 80.5298 34.6996 81.0421V85.043C34.7045 85.7961 35.0065 86.5169 35.5399 87.0486C36.0733 87.5803 36.7951 87.88 37.5482 87.8824H38.5162V96.7047C38.5173 96.9808 38.5728 97.2539 38.6795 97.5085C38.7862 97.7631 38.942 97.9942 39.1381 98.1885C39.3341 98.3829 39.5666 98.5367 39.8221 98.6412C40.0776 98.7456 40.3512 98.7987 40.6273 98.7974H56.8892C58.6592 100.89 60.5029 102.605 63.7295 102.955L66.0618 112.137C66.1135 112.332 66.2283 112.505 66.3883 112.628C66.5484 112.752 66.7447 112.819 66.9468 112.819C67.0119 112.822 67.0771 112.816 67.1404 112.801L92.6395 107.509C92.7635 107.488 92.8814 107.439 92.9849 107.368C93.0884 107.296 93.175 107.203 93.2387 107.094C93.3033 106.986 93.3456 106.865 93.363 106.74C93.3804 106.615 93.3726 106.488 93.3401 106.366ZM40.6273 33.8328H76.8478C76.8836 33.8332 76.9189 33.8407 76.9518 33.8548C76.9847 33.8689 77.0144 33.8895 77.0393 33.9152C77.0642 33.9409 77.0837 33.9714 77.0967 34.0047C77.1097 34.038 77.116 34.0736 77.1151 34.1094L77.1428 52.0122C77.1428 52.6206 77.1428 53.266 77.1336 53.8928C77.1336 54.6119 77.1243 55.2756 77.1336 55.755C76.949 56.3966 76.8529 57.0603 76.8478 57.7278L76.6911 72.0538C76.4421 72.2382 76.2025 72.4225 75.9628 72.6253V37.7139C75.9633 37.4426 75.9102 37.1739 75.8066 36.9231C75.703 36.6724 75.5509 36.4445 75.359 36.2527C75.1672 36.0608 74.9393 35.9087 74.6886 35.8051C74.4378 35.7015 74.1691 35.6484 73.8978 35.6489H43.7156C43.1681 35.6497 42.6433 35.8675 42.2562 36.2546C41.8691 36.6417 41.6513 37.1665 41.6506 37.7139V51.4038C41.5327 51.3704 41.4125 51.3457 41.2911 51.33C41.222 51.3096 41.1509 51.2972 41.079 51.2931C40.8535 51.2564 40.6253 51.2379 40.3968 51.2378L40.36 34.1094C40.3591 34.0736 40.3654 34.038 40.3784 34.0047C40.3914 33.9714 40.4109 33.9409 40.4358 33.9152C40.4607 33.8895 40.4904 33.8689 40.5233 33.8548C40.5562 33.8407 40.5915 33.8332 40.6273 33.8328ZM40.36 96.7047V87.8824H40.3968C40.6251 87.8851 40.8532 87.8697 41.079 87.8363C41.1538 87.8222 41.2277 87.8037 41.3003 87.781C41.4201 87.7625 41.54 87.7441 41.6506 87.7257V89.3113C41.6513 89.8587 41.8691 90.3835 42.2562 90.7706C42.6433 91.1577 43.1681 91.3755 43.7156 91.3763H70.6528C70.8234 91.9515 71.0235 92.5177 71.252 93.0725C71.2889 93.1647 71.3257 93.2569 71.3626 93.3399C71.4137 93.4721 71.4721 93.6014 71.5378 93.7271C71.6484 93.9944 71.7682 94.2341 71.8789 94.4553C71.9616 94.6383 72.0539 94.8168 72.1554 94.99C72.4251 95.5092 72.7268 96.011 73.0589 96.4927C73.0949 96.5508 73.1141 96.6179 73.1142 96.6863C73.1044 96.73 73.092 96.7731 73.0773 96.8153C73.0501 96.8589 73.012 96.8946 72.9667 96.9189C72.9214 96.9432 72.8705 96.9551 72.8192 96.9536H40.6273C40.5593 96.9544 40.4936 96.9291 40.4438 96.8827C40.394 96.8364 40.364 96.7726 40.36 96.7047ZM70.1089 82.766C69.9174 83.7966 69.8217 84.8428 69.8231 85.8911C69.8235 87.1138 69.9439 88.3334 70.1826 89.5325H43.7156C43.6864 89.5329 43.6575 89.5274 43.6305 89.5164C43.6035 89.5055 43.5789 89.4892 43.5583 89.4686C43.5377 89.4479 43.5214 89.4234 43.5104 89.3964C43.4994 89.3694 43.494 89.3404 43.4943 89.3113V86.7669C43.605 86.6747 43.7156 86.5733 43.817 86.4719C44.7263 85.5615 45.2397 84.3292 45.2459 83.0425C45.2434 82.8515 45.2311 82.6607 45.209 82.471C45.1998 82.3972 45.1906 82.3511 45.1814 82.2774C45.1537 82.1575 45.1353 82.0285 45.1076 81.9178C45.0904 81.8429 45.0688 81.769 45.0431 81.6966C45.0204 81.5888 44.9864 81.4838 44.9417 81.3831C44.914 81.291 44.8864 81.2172 44.8587 81.1435L44.7204 80.8669C44.6836 80.7932 44.6467 80.7194 44.6006 80.6457C44.5559 80.5552 44.5035 80.4689 44.4439 80.3875C44.3978 80.3138 44.3425 80.24 44.2964 80.1663C44.2318 80.0925 44.1673 80.0003 44.1028 79.9266C44.0475 79.8713 43.9921 79.7975 43.9368 79.7422C43.8647 79.6608 43.7877 79.5839 43.7064 79.5117C43.6527 79.4488 43.5941 79.3903 43.5312 79.3366C43.5128 79.3366 43.5036 79.3182 43.4943 79.3182V77.7878C43.605 77.6956 43.7156 77.585 43.817 77.4928C44.2717 77.0434 44.6323 76.5078 44.8777 75.9174C45.123 75.327 45.2482 74.6936 45.2459 74.0542C45.2459 73.8606 45.2275 73.6671 45.209 73.4735C45.1998 73.4181 45.1906 73.3628 45.1814 73.2891C45.1537 73.16 45.1353 73.0494 45.1076 72.9203C45.0904 72.8454 45.0688 72.7715 45.0431 72.6991C45.0163 72.5925 44.9824 72.4877 44.9417 72.3856C44.9149 72.3103 44.8841 72.2365 44.8495 72.1644C44.8121 72.0637 44.769 71.9652 44.7204 71.8694C44.6836 71.7956 44.6467 71.7219 44.6006 71.6481C44.5545 71.5744 44.4992 71.4822 44.4439 71.39C44.3991 71.3193 44.3499 71.2516 44.2964 71.1872C44.2364 71.1037 44.1718 71.0237 44.1028 70.9475C44.0475 70.8738 43.9921 70.8185 43.9368 70.7539C43.8647 70.6726 43.7877 70.5956 43.7064 70.5235C43.6511 70.4681 43.5957 70.4128 43.5312 70.3575C43.5128 70.3391 43.5036 70.3391 43.4943 70.3206V68.8088C43.605 68.7166 43.7156 68.606 43.8262 68.4953C44.2793 68.047 44.6382 67.5128 44.882 66.9239C45.1258 66.335 45.2495 65.7033 45.2459 65.066C45.2459 64.8816 45.2275 64.688 45.209 64.4944C45.1998 64.4391 45.1906 64.3746 45.1814 64.31C45.1537 64.181 45.1353 64.0703 45.1076 63.9413C45.0904 63.8663 45.0688 63.7925 45.0431 63.72C45.015 63.6138 44.9811 63.5092 44.9417 63.4066C44.9149 63.3312 44.8841 63.2574 44.8495 63.1853C44.8126 63.0931 44.7665 62.9917 44.7204 62.8903C44.6836 62.8166 44.6467 62.7428 44.6006 62.6691C44.5545 62.5769 44.4992 62.5031 44.4439 62.411C44.3991 62.3402 44.3499 62.2725 44.2964 62.2082C44.2364 62.1247 44.1718 62.0446 44.1028 61.9685C44.0475 61.8947 43.9921 61.8394 43.9368 61.7656C43.8647 61.6843 43.7877 61.6073 43.7064 61.5352C43.6511 61.4891 43.5957 61.4338 43.5312 61.3785C43.5128 61.36 43.5036 61.36 43.4943 61.3416V59.8297C43.605 59.7375 43.7156 59.6269 43.817 59.5347C44.2719 59.0835 44.6325 58.5463 44.8778 57.9543C45.1231 57.3624 45.2482 56.7276 45.2459 56.0869C45.2459 55.9025 45.2275 55.7181 45.209 55.5153C45.1998 55.46 45.1906 55.3955 45.1814 55.331C45.1537 55.2019 45.1353 55.0821 45.1076 54.9622C45.0904 54.8873 45.0688 54.8134 45.0431 54.741C45.015 54.6347 44.9811 54.5301 44.9417 54.4275C44.9149 54.3522 44.8841 54.2783 44.8495 54.2063C44.8126 54.1141 44.7665 54.0035 44.7204 53.9113C44.6836 53.8467 44.6467 53.773 44.6006 53.6992C44.5538 53.607 44.5015 53.5177 44.4439 53.4319C44.3991 53.3612 44.3499 53.2934 44.2964 53.2291C44.2364 53.1456 44.1718 53.0656 44.1028 52.9894C44.0475 52.9249 43.9921 52.8511 43.9368 52.7866C43.867 52.7059 43.7898 52.6318 43.7064 52.5653L43.5312 52.3902C43.5128 52.3902 43.5036 52.381 43.4943 52.3625V37.7139C43.4951 37.6555 43.5186 37.5996 43.5599 37.5583C43.6013 37.5169 43.6571 37.4934 43.7156 37.4927H73.8978C73.9562 37.4934 74.0121 37.5169 74.0534 37.5583C74.0948 37.5996 74.1183 37.6555 74.119 37.7139V74.4414C72.0723 76.8145 70.6889 79.6863 70.1089 82.766ZM36.5434 54.0772C36.5482 53.8131 36.6559 53.5612 36.8436 53.3753C37.0312 53.1893 37.2841 53.0839 37.5482 53.0816H40.3968C40.9893 53.0827 41.5676 53.2627 42.0562 53.5978H42.0654C42.4356 53.8447 42.7463 54.1708 42.975 54.5525C43.2037 54.9341 43.3448 55.3618 43.3881 55.8047C43.4313 56.2475 43.3756 56.6945 43.225 57.1131C43.0743 57.5318 42.8326 57.9118 42.5171 58.2256C42.3718 58.3585 42.2178 58.4817 42.0562 58.5944C41.566 58.924 40.9875 59.0975 40.3968 59.0922H37.5482C37.4169 59.0929 37.2866 59.0677 37.165 59.0181C37.0433 58.9684 36.9327 58.8953 36.8393 58.8028C36.746 58.7103 36.6718 58.6003 36.6211 58.4792C36.5703 58.358 36.5439 58.228 36.5434 58.0966V54.0772ZM36.5434 63.0655C36.5458 62.8006 36.6528 62.5474 36.8409 62.3609C37.0291 62.1745 37.2833 62.0699 37.5482 62.0699H40.3968C40.9884 62.0678 41.5668 62.2445 42.0562 62.5769C42.428 62.8223 42.7404 63.1475 42.9707 63.5288C43.201 63.9101 43.3434 64.3379 43.3875 64.7812C43.4317 65.2244 43.3765 65.6719 43.2259 66.0912C43.0753 66.5104 42.8332 66.8908 42.5171 67.2047C42.3718 67.3376 42.2178 67.4608 42.0562 67.5735C41.5676 67.9086 40.9893 68.0885 40.3968 68.0897H37.5482C37.2809 68.0873 37.0253 67.9794 36.8371 67.7895C36.649 67.5995 36.5434 67.343 36.5434 67.0756V63.0655ZM36.5434 72.0538C36.5434 71.7864 36.649 71.5299 36.8371 71.34C37.0253 71.1501 37.2809 71.0421 37.5482 71.0397H40.3968C40.99 71.0365 41.5696 71.2168 42.0562 71.556C42.428 71.8013 42.7404 72.1265 42.9707 72.5078C43.201 72.8891 43.3434 73.317 43.3875 73.7602C43.4317 74.2035 43.3765 74.651 43.2259 75.0702C43.0753 75.4895 42.8332 75.8699 42.5171 76.1838C41.948 76.7355 41.1895 77.0488 40.3968 77.0596H37.5482C37.282 77.0588 37.0268 76.9527 36.8385 76.7644C36.6502 76.5762 36.5441 76.321 36.5434 76.0547V72.0538ZM37.5482 86.0386C37.2833 86.0386 37.0291 85.934 36.8409 85.7476C36.6528 85.5611 36.5458 85.3079 36.5434 85.043V81.0421C36.5429 80.91 36.5686 80.7791 36.6189 80.6569C36.6692 80.5348 36.7432 80.4238 36.8366 80.3304C36.93 80.237 37.041 80.163 37.1631 80.1127C37.2853 80.0624 37.4161 80.0367 37.5482 80.0372H40.3968C40.9875 80.0319 41.566 80.2054 42.0562 80.535C42.4691 80.8105 42.8078 81.1833 43.0425 81.6206C43.2772 82.0579 43.4007 82.5462 43.4021 83.0425C43.4019 83.4369 43.3236 83.8273 43.1717 84.1912C43.0198 84.5551 42.7973 84.8853 42.5171 85.1628C42.3765 85.3012 42.222 85.4247 42.0562 85.5316C41.5668 85.864 40.9884 86.0407 40.3968 86.0386H37.5482ZM67.629 110.828L65.5825 102.752C65.6679 102.668 65.7356 102.567 65.7815 102.457C65.8274 102.346 65.8507 102.227 65.8498 102.107C65.8476 101.863 65.7498 101.63 65.5774 101.457C65.405 101.285 65.1718 101.187 64.9279 101.185C63.8835 101.225 62.8433 101.032 61.8831 100.619C60.923 100.206 60.0672 99.5833 59.3782 98.7974H72.8192C73.2049 98.8021 73.5844 98.7005 73.9161 98.5037C74.2479 98.3069 74.519 98.0226 74.6998 97.6819C74.8821 97.3405 74.9681 96.956 74.9486 96.5695C74.9292 96.183 74.8049 95.8091 74.5892 95.4878C74.5588 95.4305 74.5249 95.3751 74.4878 95.3219C74.3772 95.1375 74.2573 94.9716 74.1559 94.7872C74.014 94.561 73.8848 94.3271 73.7687 94.0866C73.695 93.9575 73.6212 93.8285 73.5382 93.6533C73.2893 93.1647 73.0773 92.6669 72.8745 92.1506L72.7086 91.7082C72.6164 91.45 72.5426 91.1827 72.4596 90.9153C72.3859 90.6941 72.3029 90.4544 72.2476 90.2147L72.2015 90.0396C71.612 87.7788 71.5146 85.4179 71.9157 83.1163C72.1883 81.6823 72.6567 80.2927 73.3078 78.9863C73.9414 77.6868 74.7545 76.4827 75.7231 75.4094C76.442 74.6135 77.2492 73.9022 78.1292 73.2891L78.5256 73.0125L78.6915 57.7463C78.7006 57.2416 78.7718 56.7401 78.9036 56.2528L78.9773 56.0777V56.0316C79.2946 54.985 79.8991 54.0484 80.722 53.3281C81.545 52.6078 82.5534 52.1328 83.6328 51.9569V63.3881C83.6317 64.3082 83.7748 65.2227 84.0568 66.0985L85.5871 70.8C86.0942 72.3856 86.592 73.9344 86.9607 75.5016C86.1495 75.5108 85.6332 75.4831 85.624 75.4831L85.5226 77.3269C85.5226 77.3269 85.9098 77.3453 86.5643 77.3453C86.7856 77.3453 87.0437 77.3453 87.3295 77.3269C87.4217 77.9169 87.5046 78.5161 87.5507 79.1246C87.7029 81.9932 87.6845 84.8684 87.4954 87.7349C87.4217 89.385 87.3387 91.0813 87.3295 92.7406C87.3111 93.1278 87.4862 93.6994 88.5279 96.3913C88.7584 96.9997 88.9612 97.4975 89.0165 97.6819L91.2936 105.905L67.629 110.828Z" fill="#2C3656"/>
<path d="M62.9733 91.8188H54.492C54.1232 91.8229 53.7607 91.9155 53.4351 92.0887C53.1094 92.262 52.8301 92.5109 52.6206 92.8145C52.3745 93.1932 52.2433 93.635 52.2427 94.0867C52.2416 94.3824 52.299 94.6754 52.4116 94.9488C52.5243 95.2222 52.6899 95.4706 52.899 95.6797C53.1081 95.8887 53.3565 96.0544 53.6299 96.167C53.9033 96.2797 54.1963 96.3371 54.492 96.336H62.9733C63.5723 96.336 64.1468 96.0981 64.5703 95.6745C64.9939 95.2509 65.2319 94.6765 65.2319 94.0774C65.2319 93.4784 64.9939 92.9039 64.5703 92.4804C64.1468 92.0568 63.5723 91.8188 62.9733 91.8188ZM62.9733 94.4923H54.492C54.3848 94.4913 54.2821 94.4483 54.2063 94.3724C54.1304 94.2966 54.0874 94.1939 54.0864 94.0867C54.0866 94.0302 54.0959 93.9742 54.1141 93.9207C54.1458 93.846 54.1982 93.782 54.2652 93.7363C54.3322 93.6905 54.4109 93.665 54.492 93.6626H62.9733C63.0824 93.6678 63.1853 93.7147 63.2608 93.7936C63.3363 93.8725 63.3786 93.9774 63.3789 94.0867C63.3779 94.1939 63.3349 94.2966 63.259 94.3724C63.1832 94.4483 63.0806 94.4913 62.9733 94.4923ZM58.5667 52.676C56.3956 52.676 54.2732 53.3197 52.4678 54.5258C50.6624 55.7318 49.2551 57.446 48.4238 59.4517C47.5926 61.4575 47.3746 63.6646 47.7975 65.7942C48.2204 67.9237 49.2652 69.8801 50.7998 71.416C52.3344 72.9519 54.2899 73.9983 56.4191 74.423C58.5483 74.8477 60.7556 74.6316 62.762 73.802C64.7684 72.9724 66.4838 71.5665 67.6914 69.7622C68.8989 67.9578 69.5444 65.8359 69.5463 63.6648C69.5436 60.7528 68.3862 57.9607 66.328 55.9008C64.2698 53.8408 61.4787 52.6811 58.5667 52.676ZM60.2538 72.6254C61.0723 71.449 61.7093 70.1562 62.1436 68.7904C63.3083 68.9405 64.4605 69.1746 65.5914 69.491C64.2345 71.1291 62.3453 72.2384 60.2538 72.6254ZM65.5914 57.8385C64.4253 58.1509 63.2395 58.3849 62.0422 58.5392C61.5725 57.1431 60.8849 55.8301 60.0048 54.6488C62.1944 54.9931 64.182 56.1279 65.5914 57.8385ZM61.0558 64.6788C61.0114 65.3849 60.919 66.0872 60.7792 66.7807C59.2111 66.6653 57.6366 66.6653 56.0684 66.7807C55.9287 66.0872 55.8363 65.3849 55.7919 64.6788H61.0558ZM55.8011 62.8351C55.8502 62.0653 55.9612 61.3008 56.133 60.5488C56.8428 60.6042 57.5895 60.641 58.3823 60.641C59.1291 60.641 59.9127 60.6134 60.7147 60.5396C60.8826 61.2954 60.9935 62.0627 61.0466 62.8351H55.8011ZM60.1523 58.7051C59.0012 58.7754 57.8471 58.7816 56.6953 58.7235C57.1121 57.6079 57.6931 56.5608 58.4192 55.6168C59.1443 56.5563 59.7281 57.5967 60.1523 58.7051ZM56.8059 54.6949C55.9401 55.8706 55.2621 57.1737 54.7962 58.5576C53.6673 58.4169 52.5471 58.2138 51.4406 57.9492C52.7951 56.2722 54.6928 55.1211 56.8059 54.6949ZM54.2984 60.3645C54.1242 61.1785 54.0102 62.0043 53.9573 62.8351H49.4678C49.5727 61.7059 49.8853 60.6058 50.3897 59.5901C51.6711 59.9469 52.9778 60.2058 54.2984 60.3645ZM53.9573 64.6788C53.9902 65.4465 54.0795 66.2106 54.2247 66.9651C52.9323 67.1399 51.6517 67.3923 50.3897 67.721C49.9111 66.7683 49.6052 65.7383 49.4863 64.6788H53.9573ZM54.7041 68.7904C55.1302 70.1338 55.7515 71.4073 56.5478 72.5701C54.5339 72.109 52.7345 70.9819 51.4406 69.3712C52.517 69.1182 53.6065 68.9243 54.7041 68.7904ZM60.263 68.606C59.8427 69.8434 59.2196 71.0023 58.4192 72.0354C57.6257 70.9979 57.0032 69.8402 56.5755 68.606C57.8034 68.5276 59.0351 68.5276 60.263 68.606ZM62.6137 66.9835C62.7614 66.223 62.8539 65.4527 62.8903 64.6788H67.638C67.5136 65.8007 67.1789 66.889 66.6516 67.887C65.3295 67.4877 63.9799 67.1858 62.6137 66.9835ZM62.8811 62.8351C62.834 61.9976 62.72 61.1653 62.54 60.346C63.9341 60.1476 65.3115 59.8456 66.6608 59.4426C67.2097 60.4981 67.5478 61.6504 67.6564 62.8351H62.8811ZM33.9988 102.697L33.418 102.937C33.3608 102.956 33.3023 102.972 33.2428 102.983C32.4961 103.13 31.7678 103.25 31.0764 103.342L30.8367 101.517C31.4636 101.425 32.1273 101.323 32.8003 101.194L33.2981 100.992L33.9988 102.697ZM28.1725 101.743L28.237 103.577C27.9512 103.596 27.6839 103.596 27.4166 103.596C26.6975 103.596 26.0061 103.559 25.3516 103.494L25.5359 101.66C26.412 101.745 27.2928 101.773 28.1725 101.743Z" fill="#2C3656"/>
<path d="M17.3962 69.9702C15.1842 69.9702 13.0218 70.6263 11.1827 71.8554C9.34355 73.0846 7.91029 74.8316 7.06419 76.8754C6.2181 78.9192 5.99719 81.1681 6.42941 83.3375C6.86163 85.5069 7.92756 87.4994 9.49237 89.0629C11.0572 90.6264 13.0505 91.6907 15.2203 92.1212C17.3901 92.5516 19.6388 92.3288 21.6819 91.481C23.725 90.6333 25.4709 89.1986 26.6985 87.3584C27.9261 85.5183 28.5804 83.3554 28.5786 81.1433C28.5754 78.1794 27.3959 75.3379 25.2993 73.243C23.2026 71.148 20.3601 69.9709 17.3962 69.9702ZM21.2496 74.6718C21.2032 74.7839 21.1351 74.8858 21.0493 74.9715C20.9634 75.0573 20.8614 75.1252 20.7492 75.1715C20.637 75.2177 20.5168 75.2414 20.3954 75.241C20.274 75.2407 20.1539 75.2164 20.042 75.1696C19.8808 75.0921 19.7046 75.0512 19.5257 75.0497H18.5025C18.3275 75.0501 18.1542 75.085 17.9927 75.1524C17.8312 75.2198 17.6846 75.3185 17.5613 75.4426C17.438 75.5668 17.3404 75.7141 17.2741 75.876C17.2078 76.038 17.1741 76.2115 17.175 76.3865V78.8018H19.3414C19.5859 78.8018 19.8203 78.8989 19.9932 79.0718C20.1661 79.2447 20.2632 79.4792 20.2632 79.7237C20.2632 79.9682 20.1661 80.2026 19.9932 80.3755C19.8203 80.5484 19.5859 80.6455 19.3414 80.6455H17.175V88.1496C17.175 88.3941 17.0778 88.6286 16.905 88.8015C16.7321 88.9743 16.4976 89.0715 16.2531 89.0715C16.0086 89.0715 15.7741 88.9743 15.6012 88.8015C15.4283 88.6286 15.3312 88.3941 15.3312 88.1496V80.6455H14.3909C14.1464 80.6455 13.9119 80.5484 13.739 80.3755C13.5662 80.2026 13.469 79.9682 13.469 79.7237C13.469 79.4792 13.5662 79.2447 13.739 79.0718C13.9119 78.8989 14.1464 78.8018 14.3909 78.8018H15.3312V76.3865C15.3307 75.5444 15.6644 74.7365 16.2589 74.1403C16.8535 73.544 17.6604 73.208 18.5025 73.206H19.5257C19.9514 73.2102 20.3718 73.3011 20.7611 73.4733C20.8725 73.5191 20.9738 73.5866 21.0588 73.6719C21.1439 73.7571 21.2112 73.8585 21.2567 73.9701C21.3022 74.0817 21.325 74.2012 21.3238 74.3216C21.3226 74.4421 21.2974 74.5611 21.2496 74.6718Z" fill="#FCB316"/>
<path d="M24.5776 19.6406C24.9187 19.6406 25.1953 19.3641 25.1953 19.0229C25.1953 18.6818 24.9187 18.4053 24.5776 18.4053C24.2365 18.4053 23.96 18.6818 23.96 19.0229C23.96 19.3641 24.2365 19.6406 24.5776 19.6406Z" fill="#2C3656"/>
<path d="M23.0192 101.153L22.4661 102.913C21.4991 102.617 20.58 102.182 19.7373 101.623L20.7698 100.093C21.4632 100.555 22.2212 100.912 23.0192 101.153Z" fill="#2C3656"/>
<path d="M22.4111 23.0284C22.4138 23.4622 22.2876 23.8871 22.0485 24.249C21.8094 24.611 21.4682 24.8938 21.0681 25.0615C20.668 25.2292 20.2271 25.2742 19.8013 25.191C19.3756 25.1077 18.9842 24.8998 18.6768 24.5937C18.3694 24.2876 18.1598 23.8971 18.0748 23.4717C17.9897 23.0463 18.0329 22.6052 18.1989 22.2044C18.3649 21.8036 18.6462 21.4612 19.0072 21.2205C19.3681 20.9799 19.7924 20.8519 20.2262 20.8528C20.8036 20.8545 21.3569 21.0839 21.7661 21.4913C22.1752 21.8987 22.407 22.4511 22.4111 23.0284Z" fill="#F6F8F9"/>
<path d="M19.0551 98.4055L17.534 99.4472C16.9095 98.5617 16.5022 97.5416 16.3448 96.4696L18.1793 96.2852C18.3115 97.0478 18.6105 97.7719 19.0551 98.4055ZM20.2259 19.009C19.4287 19.009 18.6494 19.2455 17.9867 19.6886C17.324 20.1317 16.8077 20.7614 16.503 21.4981C16.1984 22.2348 16.1192 23.0452 16.2754 23.827C16.4315 24.6087 16.8161 25.3265 17.3805 25.8895C17.9448 26.4526 18.6635 26.8355 19.4456 26.9899C20.2277 27.1443 21.038 27.0632 21.7739 26.7569C22.5099 26.4506 23.1384 25.9328 23.58 25.2691C24.0215 24.6054 24.2563 23.8256 24.2544 23.0284C24.2493 21.9624 23.823 20.9416 23.0683 20.1887C22.3136 19.4357 21.2919 19.0117 20.2259 19.009ZM20.2259 25.2225C19.7941 25.2225 19.3721 25.0946 19.013 24.8549C18.6539 24.6152 18.3738 24.2745 18.2082 23.8758C18.0426 23.4772 17.9988 23.0383 18.0823 22.6148C18.1659 22.1912 18.3731 21.8019 18.6777 21.496C18.9823 21.19 19.3708 20.9812 19.794 20.8959C20.2172 20.8106 20.6562 20.8525 21.0556 21.0165C21.455 21.1804 21.7968 21.459 22.038 21.8171C22.2792 22.1752 22.4089 22.5967 22.4107 23.0284C22.4109 23.6088 22.1811 24.1656 21.7716 24.5769C21.3621 24.9881 20.8062 25.2203 20.2259 25.2225Z" fill="#2C3656"/>
<path d="M25.1768 17.4234H15.2666C15.1352 17.4226 15.005 17.4478 14.8834 17.4975C14.7617 17.5471 14.6511 17.6203 14.5577 17.7128C14.4644 17.8053 14.3902 17.9152 14.3394 18.0364C14.2886 18.1576 14.2623 18.2876 14.2618 18.419V27.0477C14.2603 27.1805 14.2852 27.3123 14.3351 27.4354C14.385 27.5585 14.4588 27.6704 14.5523 27.7648C14.6457 27.8591 14.757 27.9339 14.8797 27.9849C15.0023 28.0359 15.1338 28.062 15.2666 28.0618H25.1768C25.3096 28.062 25.4411 28.0359 25.5637 27.9849C25.6864 27.9339 25.7977 27.8591 25.8911 27.7648C25.9846 27.6704 26.0584 27.5585 26.1083 27.4354C26.1582 27.3123 26.1831 27.1805 26.1816 27.0477V18.419C26.1811 18.2876 26.1548 18.1576 26.104 18.0364C26.0532 17.9152 25.979 17.8053 25.8857 17.7128C25.7923 17.6203 25.6817 17.5471 25.56 17.4975C25.4384 17.4478 25.3082 17.4226 25.1768 17.4234ZM20.2263 27.0662C19.4299 27.0662 18.6514 26.8301 17.9891 26.3879C17.3268 25.9456 16.8104 25.317 16.5053 24.5814C16.2001 23.8458 16.1198 23.0362 16.2745 22.255C16.4292 21.4738 16.8119 20.756 17.3744 20.1922C17.9369 19.6284 18.6539 19.244 19.4347 19.0875C20.2156 18.931 21.0253 19.0095 21.7616 19.313C22.4979 19.6165 23.1277 20.1314 23.5715 20.7927C24.0153 21.454 24.2531 22.232 24.2549 23.0284C24.2537 24.0973 23.8292 25.1222 23.0742 25.8789C22.3192 26.6356 21.2952 27.0625 20.2263 27.0662ZM24.5776 19.6359C24.455 19.6358 24.3352 19.5994 24.2335 19.5311C24.1317 19.4628 24.0526 19.3658 24.0061 19.2524C23.9596 19.139 23.9479 19.0143 23.9725 18.8943C23.9971 18.7742 24.0569 18.6642 24.1442 18.5782C24.2315 18.4922 24.3424 18.4341 24.4628 18.4113C24.5832 18.3885 24.7077 18.4021 24.8204 18.4502C24.9331 18.4984 25.0289 18.579 25.0956 18.6818C25.1624 18.7846 25.197 18.9049 25.1952 19.0274C25.1933 19.1898 25.1273 19.3448 25.0116 19.4588C24.8959 19.5727 24.7399 19.6364 24.5776 19.6359Z" fill="#25AAE3"/>
<path d="M15.3309 76.3819C15.3324 75.5413 15.667 74.7355 16.2614 74.1411C16.8558 73.5467 17.6616 73.2122 18.5022 73.2107H19.5255C19.9505 73.2117 20.3709 73.2996 20.7608 73.4688C20.8768 73.5128 20.9827 73.5797 21.0723 73.6656C21.1618 73.7515 21.2331 73.8546 21.2818 73.9686C21.3306 74.0827 21.3558 74.2055 21.356 74.3296C21.3562 74.4536 21.3313 74.5765 21.2829 74.6907C21.2345 74.8049 21.1635 74.9082 21.0742 74.9943C20.9849 75.0805 20.8791 75.1477 20.7633 75.192C20.6474 75.2363 20.5237 75.2567 20.3997 75.2521C20.2758 75.2475 20.154 75.2179 20.0417 75.1651C19.8799 75.0905 19.7036 75.0528 19.5255 75.0544H18.5022C18.1501 75.0544 17.8125 75.1943 17.5635 75.4433C17.3145 75.6922 17.1747 76.0299 17.1747 76.3819V78.7973H19.3411C19.5856 78.7973 19.8201 78.8944 19.993 79.0673C20.1658 79.2401 20.263 79.4746 20.263 79.7191C20.263 79.9636 20.1658 80.1981 19.993 80.371C19.8201 80.5439 19.5856 80.641 19.3411 80.641H17.1747V88.1543C17.1747 88.3988 17.0776 88.6333 16.9047 88.8062C16.7318 88.979 16.4973 89.0762 16.2528 89.0762C16.0083 89.0762 15.7738 88.979 15.6009 88.8062C15.4281 88.6333 15.3309 88.3988 15.3309 88.1543V80.641H14.3906C14.1461 80.641 13.9116 80.5439 13.7388 80.371C13.5659 80.1981 13.4688 79.9636 13.4688 79.7191C13.4688 79.4746 13.5659 79.2401 13.7388 79.0673C13.9116 78.8944 14.1461 78.7973 14.3906 78.7973H15.3309V76.3819Z" fill="#25AAE3"/>
<path d="M20.2257 11.5603C18.0133 11.5585 15.85 12.213 14.0097 13.441C12.1694 14.6691 10.7347 16.4154 9.88715 18.4591C9.03965 20.5028 8.81742 22.7519 9.2486 24.922C9.67978 27.092 10.745 29.0853 12.3094 30.6498C13.8739 32.2142 15.8672 33.2794 18.0372 33.7106C20.2072 34.1418 22.4564 33.9195 24.5001 33.072C26.5438 32.2245 28.2901 30.7898 29.5181 28.9495C30.7462 27.1091 31.4007 24.9459 31.3989 22.7334C31.394 19.7716 30.2153 16.9325 28.121 14.8382C26.0266 12.7439 23.1875 11.5652 20.2257 11.5603ZM28.0248 27.0478C28.0255 27.4225 27.9524 27.7937 27.8096 28.1402C27.6668 28.4866 27.4572 28.8016 27.1927 29.0669C26.9281 29.3323 26.6139 29.543 26.2679 29.6869C25.9219 29.8308 25.5509 29.9051 25.1762 29.9056H15.2661C14.8913 29.9051 14.5204 29.8308 14.1744 29.6869C13.8284 29.543 13.5142 29.3323 13.2496 29.0669C12.9851 28.8016 12.7754 28.4866 12.6326 28.1402C12.4899 27.7937 12.4167 27.4225 12.4175 27.0478V18.4191C12.4199 17.6652 12.7211 16.943 13.255 16.4108C13.789 15.8785 14.5122 15.5797 15.2661 15.5797H25.1762C25.9301 15.5797 26.6533 15.8785 27.1872 16.4108C27.7212 16.943 28.0224 17.6652 28.0248 18.4191V27.0478Z" fill="#FCB316"/>
<path d="M20.2257 9.71656C17.6486 9.71473 15.1289 10.4774 12.9854 11.908C10.8418 13.3386 9.17081 15.3729 8.18375 17.7535C7.1967 20.1341 6.93796 22.754 7.44028 25.2817C7.9426 27.8093 9.1834 30.1312 11.0057 31.9535C12.828 33.7758 15.1499 35.0166 17.6775 35.5189C20.2052 36.0212 22.8251 35.7625 25.2057 34.7754C27.5862 33.7884 29.6205 32.1174 31.0512 29.9738C32.4818 27.8303 33.2444 25.3105 33.2426 22.7334C33.238 19.2826 31.8651 15.9744 29.4249 13.5342C26.9848 11.0941 23.6766 9.72119 20.2257 9.71656ZM20.2257 33.925C18.0141 33.9268 15.8516 33.2728 14.0116 32.0455C12.1717 30.8183 10.737 29.0731 9.88892 27.0305C9.04087 24.9879 8.81757 22.7396 9.24726 20.5701C9.67694 18.4006 10.7403 16.4072 12.3029 14.8421C13.8655 13.2769 15.8571 12.2102 18.0259 11.777C20.1947 11.3437 22.4433 11.5633 24.4873 12.408C26.5313 13.2527 28.2789 14.6845 29.5092 16.5224C30.7394 18.3603 31.397 20.5218 31.3989 22.7334C31.3979 25.6981 30.221 28.5414 28.1264 30.6395C26.0318 32.7376 23.1904 33.9191 20.2257 33.925Z" fill="#2C3656"/>
<path d="M25.1768 15.5796H15.2667C14.5128 15.5796 13.7896 15.8784 13.2557 16.4107C12.7217 16.9429 12.4205 17.6651 12.4181 18.419V27.0477C12.4174 27.4224 12.4905 27.7936 12.6333 28.1401C12.776 28.4865 12.9857 28.8015 13.2502 29.0669C13.5148 29.3323 13.829 29.5429 14.175 29.6868C14.521 29.8307 14.892 29.905 15.2667 29.9055H25.1768C25.5516 29.905 25.9225 29.8307 26.2685 29.6868C26.6145 29.5429 26.9287 29.3323 27.1933 29.0669C27.4578 28.8015 27.6675 28.4865 27.8103 28.1401C27.953 27.7936 28.0262 27.4224 28.0254 27.0477V18.419C28.023 17.6651 27.7218 16.9429 27.1878 16.4107C26.6539 15.8784 25.9307 15.5796 25.1768 15.5796ZM26.1817 27.0477C26.1831 27.1805 26.1582 27.3123 26.1084 27.4354C26.0585 27.5585 25.9847 27.6704 25.8912 27.7648C25.7977 27.8591 25.6864 27.9339 25.5638 27.9849C25.4412 28.0359 25.3096 28.062 25.1768 28.0618H15.2667C15.1339 28.062 15.0023 28.0359 14.8797 27.9849C14.7571 27.9339 14.6458 27.8591 14.5523 27.7648C14.4588 27.6704 14.385 27.5585 14.3352 27.4354C14.2853 27.3123 14.2604 27.1805 14.2618 27.0477V18.419C14.2623 18.2876 14.2887 18.1576 14.3395 18.0364C14.3903 17.9152 14.4645 17.8052 14.5578 17.7128C14.6511 17.6203 14.7618 17.5471 14.8834 17.4975C15.0051 17.4478 15.1353 17.4226 15.2667 17.4233H25.1768C25.3082 17.4226 25.4385 17.4478 25.5601 17.4975C25.6817 17.5471 25.7924 17.6203 25.8857 17.7128C25.9791 17.8052 26.0532 17.9152 26.104 18.0364C26.1548 18.1576 26.1812 18.2876 26.1817 18.419V27.0477ZM17.3962 68.1265C14.8195 68.1265 12.3007 68.8907 10.1583 70.3224C8.01602 71.7541 6.34644 73.7891 5.36079 76.1698C4.37515 78.5506 4.11773 81.1702 4.62109 83.6972C5.12445 86.2243 6.36598 88.5453 8.18864 90.3667C10.0113 92.188 12.3332 93.4279 14.8606 93.9295C17.388 94.4311 20.0074 94.1718 22.3875 93.1845C24.7675 92.1971 26.8013 90.5261 28.2315 88.3828C29.6617 86.2394 30.4241 83.7201 30.4223 81.1434C30.416 77.6914 29.0412 74.3828 26.5995 71.9428C24.1577 69.5028 20.8482 68.1304 17.3962 68.1265ZM17.3962 92.3349C15.1849 92.3349 13.0233 91.6793 11.1846 90.451C9.34587 89.2227 7.9126 87.4768 7.06596 85.434C6.21932 83.3912 5.99734 81.1433 6.42807 78.9744C6.85879 76.8055 7.92289 74.813 9.48585 73.2487C11.0488 71.6845 13.0404 70.6187 15.209 70.1862C17.3776 69.7537 19.6257 69.9738 21.6691 70.8188C23.7126 71.6637 25.4597 73.0956 26.6895 74.9333C27.9194 76.771 28.5767 78.9321 28.5786 81.1434C28.5776 84.1096 27.3994 86.9543 25.3028 89.0526C23.2062 91.151 20.3625 92.3315 17.3962 92.3349Z" fill="#2C3656"/>
</svg>
