<svg width="75" height="75" viewBox="0 0 75 75" fill="none" xmlns="http://www.w3.org/2000/svg">
<path d="M37.5 18.7188L61.0313 59.375H13.9688L37.5 18.7188ZM8.56251 56.25C6.15626 60.4063 9.15626 65.625 13.9688 65.625H61.0313C65.8438 65.625 68.8438 60.4063 66.4375 56.25L42.9063 15.5938C40.5 11.4375 34.5 11.4375 32.0938 15.5938L8.56251 56.25ZM34.375 34.375V40.625C34.375 42.3438 35.7813 43.75 37.5 43.75C39.2188 43.75 40.625 42.3438 40.625 40.625V34.375C40.625 32.6562 39.2188 31.25 37.5 31.25C35.7813 31.25 34.375 32.6562 34.375 34.375ZM34.375 50H40.625V56.25H34.375V50Z" fill="white"/>
</svg>
