<svg width="1440" height="257" viewBox="0 0 1440 257" fill="none" xmlns="http://www.w3.org/2000/svg">
<g filter="url(#filter0_d_2631_5335)">
<path fill-rule="evenodd" clip-rule="evenodd" d="M0 201.193L16 189.132C32 177.07 64 152.084 96 152.084C128 152.084 160 177.07 192 195.163C224 214.117 256 226.179 288 208.086C320 189.132 352 139.161 384 102.113C416 65.0658 448 40.0803 480 53.0038C512 65.0658 544 115.037 576 139.161C608 164.146 640 164.146 672 152.084C704 139.161 736 115.037 768 108.144C800 102.113 832 115.037 864 139.161C896 164.146 928 201.193 960 195.163C992 189.132 1024 139.161 1056 127.099C1088 115.037 1120 139.161 1152 152.084C1184 164.146 1216 164.146 1248 170.177C1280 177.07 1312 189.132 1344 170.177C1376 152.084 1408 102.113 1424 77.1277L1440 53.0038V-59H1424C1408 -59 1376 -59 1344 -59C1312 -59 1280 -59 1248 -59C1216 -59 1184 -59 1152 -59C1120 -59 1088 -59 1056 -59C1024 -59 992 -59 960 -59C928 -59 896 -59 864 -59C832 -59 800 -59 768 -59C736 -59 704 -59 672 -59C640 -59 608 -59 576 -59C544 -59 512 -59 480 -59C448 -59 416 -59 384 -59C352 -59 320 -59 288 -59C256 -59 224 -59 192 -59C160 -59 128 -59 96 -59C64 -59 32 -59 16 -59H0V201.193Z" fill="#E6F4FC"/>
<path fill-rule="evenodd" clip-rule="evenodd" d="M0 201.193L16 189.132C32 177.07 64 152.084 96 152.084C128 152.084 160 177.07 192 195.163C224 214.117 256 226.179 288 208.086C320 189.132 352 139.161 384 102.113C416 65.0658 448 40.0803 480 53.0038C512 65.0658 544 115.037 576 139.161C608 164.146 640 164.146 672 152.084C704 139.161 736 115.037 768 108.144C800 102.113 832 115.037 864 139.161C896 164.146 928 201.193 960 195.163C992 189.132 1024 139.161 1056 127.099C1088 115.037 1120 139.161 1152 152.084C1184 164.146 1216 164.146 1248 170.177C1280 177.07 1312 189.132 1344 170.177C1376 152.084 1408 102.113 1424 77.1277L1440 53.0038V-59H1424C1408 -59 1376 -59 1344 -59C1312 -59 1280 -59 1248 -59C1216 -59 1184 -59 1152 -59C1120 -59 1088 -59 1056 -59C1024 -59 992 -59 960 -59C928 -59 896 -59 864 -59C832 -59 800 -59 768 -59C736 -59 704 -59 672 -59C640 -59 608 -59 576 -59C544 -59 512 -59 480 -59C448 -59 416 -59 384 -59C352 -59 320 -59 288 -59C256 -59 224 -59 192 -59C160 -59 128 -59 96 -59C64 -59 32 -59 16 -59H0V201.193Z" stroke="black"/>
</g>
<defs>
<filter id="filter0_d_2631_5335" x="-30" y="-79" width="1500" height="336" filterUnits="userSpaceOnUse" color-interpolation-filters="sRGB">
<feFlood flood-opacity="0" result="BackgroundImageFix"/>
<feColorMatrix in="SourceAlpha" type="matrix" values="0 0 0 0 0 0 0 0 0 0 0 0 0 0 0 0 0 0 127 0" result="hardAlpha"/>
<feOffset dy="10"/>
<feGaussianBlur stdDeviation="15"/>
<feComposite in2="hardAlpha" operator="out"/>
<feColorMatrix type="matrix" values="0 0 0 0 0 0 0 0 0 0 0 0 0 0 0 0 0 0 0.25 0"/>
<feBlend mode="normal" in2="BackgroundImageFix" result="effect1_dropShadow_2631_5335"/>
<feBlend mode="normal" in="SourceGraphic" in2="effect1_dropShadow_2631_5335" result="shape"/>
</filter>
</defs>
</svg>
